<?xml version="1.0" encoding="utf-8"?>
<!-- Generator: Adobe Illustrator 24.0.1, SVG Export Plug-In . SVG Version: 6.00 Build 0)  -->
<svg version="1.0" id="Layer_1" xmlns="http://www.w3.org/2000/svg" xmlns:xlink="http://www.w3.org/1999/xlink" x="0px" y="0px"
	 viewBox="0 0 661 1024" style="enable-background:new 0 0 661 1024;" xml:space="preserve">
<style type="text/css">
	.st0{fill:#19191B;}
	.st1{fill:#FFFFFF;}
	.st2{fill:#263238;}
	.st3{fill:#455A64;}
	.st4{fill:#E8505B;}
	.st5{fill:#EBEBEB;}
	.st6{fill:#E0E0E0;}
	.st7{fill:#F5F5F5;}
	.st8{fill:#F43C24;}
	.st9{fill:#FFBE9D;}
	.st10{opacity:0.5;}
	.st11{fill:#EB996E;}
</style>
<g>
	<g>
		<g>
			<g>
				<g>
					<g>
						<g>
							<g>
								<path class="st0" d="M573.08,1005l-334.9-0.2c-40.28-0.02-72.92-32.69-72.91-72.97l0.16-839.61
									c0.01-40.3,32.69-72.96,72.99-72.94l334.91,0.2c40.28,0.02,72.92,32.69,72.91,72.97l-0.16,839.61
									C646.07,972.36,613.38,1005.02,573.08,1005z"/>
							</g>
						</g>
					</g>
					<g>
						<g>
							<g>
								<path class="st1" d="M572.98,49.18l-64.93-0.04c-8.71,0-15.77,7.37-15.77,16.47l0,11.78c0,9.1-7.06,16.48-15.77,16.47
									l-126.57-0.07c-8.71,0-15.77-7.39-15.76-16.49l0-11.78c0-9.1-7.06-16.49-15.77-16.49l-22.84-0.01l-56.83-0.03
									c-28.22-0.02-51.12,22.86-51.12,51.08l-0.16,819.52c-0.01,28.21,22.85,51.09,51.06,51.1l334.24,0.19
									c28.22,0.02,51.11-22.86,51.12-51.08l0.16-819.52C624.04,72.07,601.19,49.2,572.98,49.18z"/>
							</g>
						</g>
					</g>
				</g>
			</g>
			<g>
				<g>
					<g>
						<g>
							<path class="st2" d="M577.87,115.76c0,0.22-8.44,0.47-18.86,0.55c-10.42,0.09-18.86-0.02-18.87-0.24
								c0-0.22,8.44-0.47,18.86-0.55C569.42,115.43,577.86,115.54,577.87,115.76z"/>
						</g>
					</g>
				</g>
				<g>
					<g>
						<g>
							<path class="st2" d="M577.95,125.41c0,0.22-8.44,0.47-18.86,0.55c-10.42,0.09-18.86-0.02-18.87-0.24
								c0-0.22,8.44-0.47,18.86-0.55C569.5,125.08,577.94,125.19,577.95,125.41z"/>
						</g>
					</g>
				</g>
				<g>
					<g>
						<g>
							<path class="st2" d="M578.03,135.06c0,0.22-8.44,0.47-18.86,0.55c-10.42,0.09-18.86-0.02-18.87-0.24
								c0-0.22,8.44-0.47,18.86-0.55C569.58,134.73,578.02,134.84,578.03,135.06z"/>
						</g>
					</g>
				</g>
			</g>
			<g>
				<g>
					<g>
						<path class="st2" d="M222.72,144.47c0.02-0.02,0.36-0.04,0.99-0.07c0.78-0.03,1.68-0.06,2.75-0.09
							c2.59-0.06,5.99-0.14,10.15-0.24l-0.28,0.29c-0.04-2.25-0.08-4.71-0.12-7.36c0.01-1.37-0.12-2.66,0.02-4.24
							c0.27-1.58,1.68-2.97,3.41-3.13c1.64-0.03,3.08-0.11,4.85-0.02c1.83,0.22,3.38,1.98,3.33,3.92c0.04,3.43,0.08,7.02,0.12,10.74
							l-0.47-0.46c4.11-0.04,8.39-0.09,12.81-0.13l-0.49,0.49c-0.05-5.16-0.09-10.49-0.14-15.96c-0.01-1.36-0.02-2.72-0.03-4.06
							c-0.01-1.25-0.77-2.09-1.8-3.03c-1.9-1.87-3.76-3.71-5.6-5.52c-1.83-1.81-3.63-3.59-5.4-5.33c-0.88-0.87-1.75-1.73-2.62-2.59
							c-0.9-0.87-1.61-1.76-2.65-1.98c-1.01-0.27-2.12-0.06-2.94,0.56c-0.78,0.66-1.6,1.58-2.38,2.34
							c-1.58,1.59-3.11,3.14-4.59,4.64c-2.89,3-5.9,5.74-8.09,8.34c-0.92,1.43-0.58,3.18-0.64,4.78c0,1.59-0.01,3.09-0.01,4.51
							c-0.02,2.77-0.03,5.19-0.04,7.27c-0.02,1.86-0.04,3.39-0.05,4.65C222.76,143.87,222.74,144.45,222.72,144.47
							c-0.02,0.02-0.05-0.5-0.09-1.54c-0.03-1.24-0.08-2.75-0.13-4.58c-0.05-2.09-0.1-4.54-0.17-7.33c-0.03-1.45-0.06-2.98-0.09-4.6
							c-0.01-0.82-0.03-1.66-0.04-2.52c-0.01-0.91,0.23-1.85,0.71-2.68c2.37-2.9,5.2-5.47,8.11-8.56c1.47-1.51,2.99-3.07,4.56-4.67
							c0.82-0.81,1.49-1.61,2.47-2.45c1.02-0.79,2.43-1.07,3.71-0.73c1.36,0.3,2.25,1.42,3.07,2.2c0.87,0.85,1.74,1.71,2.63,2.57
							c1.77,1.74,3.58,3.51,5.42,5.31c1.84,1.81,3.71,3.64,5.61,5.51c0.45,0.48,0.99,0.88,1.43,1.55c0.41,0.64,0.65,1.39,0.67,2.16
							c0.01,1.35,0.02,2.71,0.04,4.08c0.04,5.46,0.08,10.8,0.12,15.96l0,0.49l-0.49,0c-4.41,0.03-8.69,0.06-12.81,0.08l-0.47,0
							l0-0.47c-0.02-3.72-0.04-7.3-0.06-10.74c0.05-1.55-1.15-2.91-2.59-3.11c-1.47-0.08-3.21-0.03-4.64-0.01
							c-1.38,0.11-2.53,1.22-2.76,2.49c-0.12,1.29-0.03,2.79-0.06,4.09c0,2.65,0,5.11,0,7.36l0,0.29l-0.28,0
							c-4.23-0.03-7.68-0.05-10.32-0.07c-1.04-0.02-1.93-0.03-2.69-0.05C223,144.51,222.7,144.49,222.72,144.47z"/>
					</g>
				</g>
			</g>
			<g>
				<g>
					<g>
						<g>
							<path class="st3" d="M443.65,784.85c0,0.09-1.25,0.17-3.51,0.25c-2.5,0.05-5.71,0.12-9.57,0.2
								c-8.08,0.11-19.24,0.19-31.57,0.19c-12.33,0-23.5-0.07-31.58-0.19c-3.86-0.08-7.07-0.15-9.57-0.2
								c-2.26-0.08-3.51-0.16-3.51-0.25c0-0.09,1.25-0.17,3.51-0.25c2.5-0.05,5.71-0.12,9.57-0.2c8.08-0.11,19.24-0.19,31.58-0.19
								c12.33,0,23.49,0.07,31.57,0.19c3.86,0.08,7.07,0.15,9.57,0.2C442.4,784.68,443.65,784.76,443.65,784.85z"/>
						</g>
						<g>
							<path class="st3" d="M584.01,806.82c0,0.35-51.42,0.63-114.83,0.63c-63.43,0-114.84-0.28-114.84-0.63
								c0-0.35,51.41-0.63,114.84-0.63C532.59,806.19,584.01,806.47,584.01,806.82z"/>
						</g>
						<g>
							<path class="st3" d="M512.24,827.49c0,0.35-35.35,0.63-78.95,0.63c-43.61,0-78.95-0.28-78.95-0.63
								c0-0.35,35.34-0.63,78.95-0.63C476.89,826.86,512.24,827.14,512.24,827.49z"/>
						</g>
					</g>
				</g>
				<g>
					<path class="st2" d="M588.55,867.72l-7.13-7.16l-6.79,6.78l0.03-20.49l13.93,0.02L588.55,867.72z M581.42,859.67l0.22,0.22
						l6.28,6.3l0.03-18.69l-12.67-0.02l-0.03,18.34L581.42,859.67z"/>
				</g>
				<g>
					<path class="st2" d="M398.54,865.06l-2.52-1.12c-1.22,0.66-2.28,0.98-3.26,0.99c-3.86,0.03-7.02-3.08-7.05-6.94
						c-0.03-3.86,3.08-7.02,6.94-7.05c3.86-0.03,7.02,3.08,7.05,6.94c0.01,1.72-0.6,3.37-1.74,4.66L398.54,865.06z M392.65,851.42
						c-3.59,0.03-6.49,2.97-6.46,6.57c0.03,3.59,2.97,6.49,6.57,6.46c0.92-0.01,1.95-0.33,3.14-0.99l0.1-0.06l1.86,0.83l-0.42-1.82
						l0.08-0.09c1.11-1.22,1.71-2.79,1.7-4.43C399.19,854.29,396.25,851.39,392.65,851.42z"/>
				</g>
				<g>
					<path class="st2" d="M414.73,863.98l-2.89-7.04l-5.41-4.93l13.13-0.11L414.73,863.98z M407.66,852.47l4.61,4.23l2.46,6
						l4.12-10.32L407.66,852.47z"/>
				</g>
				<g>
					
						<rect x="411.58" y="854.18" transform="matrix(0.8382 -0.5454 0.5454 0.8382 -398.728 365.1017)" class="st2" width="8.54" height="0.48"/>
				</g>
				<g>
					<path class="st4" d="M377.88,853.47c-0.38-1.88-2.23-3.34-4.14-3.26c-1.89,0.08-3.61,1.65-3.86,3.53
						c-0.28-1.87-2.02-3.42-3.92-3.47c-1.91-0.05-3.74,1.45-4.09,3.33c-0.25,1.37,0.22,2.79,1,3.95c0.77,1.16,1.83,2.09,2.87,3.02
						c1.46,1.29,2.81,2.51,4.28,3.8c1.44-1.32,2.67-2.55,4.11-3.87c1.03-0.94,2.07-1.89,2.83-3.06
						C377.7,856.27,378.16,854.84,377.88,853.47z"/>
				</g>
				<g>
					<path class="st2" d="M603.18,885.84c0,0-0.03-0.79-0.04-2.28c-0.01-1.52-0.02-3.74-0.04-6.65c-0.02-5.86-0.06-14.48-0.1-25.64
						c-0.05-22.32-0.13-54.8-0.23-95.54l0.42,0.42c-93.45,0.05-232.95,0.13-388.41,0.22h-0.02l0.63-0.63
						c-0.01,45.22-0.01,89.08-0.02,130.11l-0.61-0.61c111.81,0.11,208.84,0.21,277.94,0.28c34.58,0.07,62.16,0.13,81.14,0.17
						c9.47,0.03,16.79,0.06,21.77,0.08c2.47,0.02,4.35,0.03,5.64,0.04C602.51,885.82,603.18,885.84,603.18,885.84
						s-0.62,0.03-1.87,0.04c-1.28,0.01-3.14,0.02-5.57,0.04c-4.95,0.02-12.23,0.04-21.64,0.08c-18.94,0.04-46.48,0.1-81,0.17
						c-69.21,0.07-166.38,0.17-278.36,0.28l-0.61,0v-0.61c-0.01-41.03-0.01-84.89-0.02-130.11v-0.63h0.63h0.02
						c155.46,0.09,294.96,0.16,388.41,0.22h0.42l0,0.42c-0.1,40.84-0.17,73.41-0.23,95.79c-0.04,11.12-0.08,19.71-0.1,25.55
						c-0.02,2.88-0.03,5.07-0.04,6.57C603.21,885.11,603.18,885.84,603.18,885.84z"/>
				</g>
				<g>
					<g>
						<g>
							<g>
								
									<rect x="241.44" y="766.99" transform="matrix(5.681172e-03 -1 1 5.681172e-03 -537.9422 1100.5701)" class="st5" width="86.02" height="107.6"/>
								<g>
									<path class="st2" d="M338.49,778.08c-0.01,0.01-0.19,0.02-0.54,0.03c-0.4,0.01-0.89,0.01-1.53,0.02
										c-1.4,0.01-3.36,0.02-5.87,0.03c-5.17,0.01-12.63,0.01-22.06,0.03c-18.92-0.04-45.74-0.09-77.6-0.16l0.57-0.56
										c-0.13,25.61-0.27,54.96-0.42,86.01c0.13,0.15-1.18-1.2-0.61-0.63l0.03,0l0.06,0l0.12,0l0.23,0l0.47,0l0.93,0.01l1.86,0.01
										l3.71,0.02c2.47,0.01,4.92,0.03,7.36,0.04c4.89,0.03,9.72,0.06,14.5,0.09c9.55,0.06,18.88,0.12,27.92,0.18
										c18.07,0.13,35.01,0.25,50.39,0.36l-0.53,0.52c0.26-25.83,0.48-47.26,0.63-62.3c0.1-7.48,0.18-13.37,0.23-17.47
										c0.04-1.98,0.07-3.51,0.09-4.63C338.45,778.66,338.49,778.08,338.49,778.08s0.04,0.49,0.05,1.51
										c0.01,1.09,0.02,2.59,0.03,4.53c0.01,4.07,0.02,9.92,0.04,17.35c-0.02,15.12-0.05,36.67-0.08,62.64l0,0.53l-0.53,0
										c-15.38-0.06-32.32-0.13-50.39-0.21c-9.04-0.04-18.36-0.09-27.92-0.14c-4.78-0.03-9.61-0.05-14.5-0.08
										c-2.44-0.01-4.9-0.03-7.36-0.04l-3.71-0.02l-1.86-0.01l-0.93-0.01l-0.47,0l-0.23,0l-0.12,0l-0.06,0l-0.03,0
										c0.55,0.57-0.79-0.77-0.65-0.65c0.2-31.05,0.39-60.4,0.56-86.01l0-0.57l0.57,0.01c32.01,0.3,58.95,0.55,77.96,0.73
										c9.37,0.12,16.79,0.21,21.93,0.27c2.47,0.04,4.39,0.08,5.76,0.1c0.61,0.02,1.08,0.03,1.46,0.04
										C338.34,778.06,338.5,778.07,338.49,778.08z"/>
								</g>
							</g>
						</g>
					</g>
					
						<rect x="246.78" y="770.77" transform="matrix(5.683768e-03 -1 1 5.683768e-03 -538.0123 1100.4973)" class="st6" width="75.19" height="100.04"/>
					<polygon class="st7" points="234.15,858.1 269.35,811.56 290.83,840.92 305.6,825.38 334.18,858.67 					"/>
					<g>
						<g>
							<path class="st7" d="M300.22,806.01c-0.02,4.35-3.57,7.86-7.92,7.83s-7.86-3.57-7.83-7.92s3.57-7.86,7.92-7.83
								S300.24,801.66,300.22,806.01z"/>
						</g>
					</g>
				</g>
			</g>
			<g>
				<g>
					<g>
						<g>
							<g>
								<path class="st2" d="M412.33,220.06c0,0.04-0.4,0.09-1.15,0.13c-0.9,0.03-1.99,0.07-3.29,0.12
									c-3.06,0.05-7.16,0.12-12.12,0.2c-10.23,0.11-24.37,0.19-39.98,0.19c-15.62,0-29.75-0.07-39.99-0.19
									c-4.96-0.08-9.05-0.15-12.12-0.2c-1.31-0.05-2.39-0.09-3.29-0.12c-0.75-0.04-1.15-0.08-1.15-0.13c0-0.04,0.4-0.09,1.15-0.13
									c0.9-0.03,1.99-0.07,3.29-0.12c3.06-0.05,7.15-0.12,12.12-0.2c10.23-0.11,24.37-0.19,39.99-0.19
									c15.61,0,29.75,0.07,39.98,0.19c4.96,0.08,9.05,0.15,12.12,0.2c1.31,0.05,2.39,0.09,3.29,0.12
									C411.94,219.98,412.33,220.02,412.33,220.06z"/>
							</g>
						</g>
					</g>
					<g>
						<g>
							<path class="st2" d="M571.29,695.58l-10.6-10.64l-10.1,10.07l0.05-30.45l20.7,0.03L571.29,695.58z M560.69,683.62l0.33,0.33
								l9.34,9.37l0.04-27.78l-18.83-0.03l-0.04,27.25L560.69,683.62z"/>
						</g>
						<g>
							<path class="st2" d="M302.03,692.38l-4.96-2.21c-2.39,1.3-4.5,1.94-6.42,1.95c-7.59,0.06-13.82-6.07-13.88-13.66
								c-0.06-7.59,6.07-13.82,13.66-13.88c7.59-0.06,13.82,6.07,13.88,13.66c0.03,3.38-1.19,6.63-3.43,9.18L302.03,692.38z
								 M290.44,665.53c-7.07,0.06-12.78,5.86-12.72,12.93c0.06,7.07,5.86,12.78,12.93,12.72c1.82-0.01,3.83-0.65,6.18-1.95
								l0.21-0.12l3.65,1.63l-0.83-3.59l0.17-0.18c2.18-2.4,3.37-5.5,3.35-8.72C303.31,671.18,297.52,665.47,290.44,665.53z"/>
						</g>
						<g>
							<path class="st2" d="M333.9,690.25l-5.68-13.87l-10.65-9.71l25.84-0.21L333.9,690.25z M319.98,667.6l9.07,8.33l4.84,11.81
								l8.12-20.31L319.98,667.6z"/>
						</g>
						<g>
							
								<rect x="327.69" y="670.98" transform="matrix(0.8382 -0.5453 0.5453 0.8382 -311.7929 291.9196)" class="st2" width="16.81" height="0.94"/>
						</g>
						<g>
							<path class="st8" d="M261.37,669.58c-0.74-3.69-4.39-6.57-8.16-6.42c-3.73,0.15-7.11,3.25-7.6,6.94
								c-0.55-3.69-3.99-6.73-7.72-6.82c-3.76-0.09-7.37,2.85-8.05,6.55c-0.5,2.7,0.44,5.5,1.96,7.78c1.53,2.28,3.6,4.12,5.66,5.94
								c2.88,2.54,5.54,4.93,8.42,7.48c2.84-2.59,5.25-5.02,8.09-7.61c2.03-1.85,4.07-3.72,5.56-6.03
								C261.02,675.08,261.91,672.26,261.37,669.58z"/>
						</g>
					</g>
					<circle class="st5" cx="259.02" cy="220.06" r="17.53"/>
				</g>
				<g>
					<g>
						<path class="st3" d="M564.67,595.03c0,0.35-73.5,0.63-164.14,0.63c-90.67,0-164.15-0.28-164.15-0.63
							c0-0.35,73.48-0.63,164.15-0.63C491.17,594.4,564.67,594.68,564.67,595.03z"/>
					</g>
					<g>
						<path class="st3" d="M564.67,567.7c0,0.35-73.5,0.63-164.14,0.63c-90.67,0-164.15-0.28-164.15-0.63
							c0-0.35,73.48-0.63,164.15-0.63C491.17,567.06,564.67,567.35,564.67,567.7z"/>
					</g>
					<g>
						<path class="st3" d="M415.07,622.74c0,0.35-40,0.63-89.34,0.63c-49.35,0-89.35-0.28-89.35-0.63s40-0.63,89.35-0.63
							C375.06,622.1,415.07,622.39,415.07,622.74z"/>
					</g>
				</g>
			</g>
			<g>
				<g>
					<path class="st2" d="M393.02,920.58c-0.02,3.91-3.15,7.06-7,7.04c-3.85-0.02-6.96-3.2-6.94-7.11c0.02-3.91,3.15-7.06,7-7.04
						C389.93,913.49,393.03,916.67,393.02,920.58z"/>
				</g>
				<g>
					<path class="st0" d="M414.63,920.68c-0.02,3.91-3.15,7.06-7,7.04c-3.85-0.02-6.96-3.2-6.94-7.11c0.02-3.91,3.15-7.06,7-7.04
						C411.54,913.59,414.65,916.77,414.63,920.68z"/>
				</g>
				<g>
					<path class="st0" d="M436.24,920.78c-0.02,3.91-3.15,7.06-7,7.04c-3.85-0.02-6.96-3.2-6.94-7.11c0.02-3.91,3.15-7.06,7-7.04
						C433.15,913.69,436.26,916.87,436.24,920.78z"/>
				</g>
			</g>
		</g>
		<g>
			<rect x="217.07" y="254.75" class="st6" width="388.44" height="237.55"/>
			<polygon class="st7" points="252.93,492.34 364.24,343.36 433.24,436.53 480.01,386.7 571.74,492.25 			"/>
			<g>
				<g>
					<path class="st7" d="M462.49,325.09c0,13.86-11.23,25.11-25.09,25.11c-13.86,0-25.11-11.23-25.11-25.1
						c0-13.86,11.23-25.11,25.1-25.11C451.24,299.99,462.49,311.22,462.49,325.09z"/>
				</g>
			</g>
		</g>
		<g>
			<path class="st2" d="M604.46,713.07c-0.01-5.08-0.23-219.68-0.57-537.35l0.57,0.57c-117.14,0.02-249.18,0.04-388.39,0.06h-0.04
				l0.63-0.63c-0.04,200.96-0.09,386.94-0.12,537.35l-0.51-0.51C451.58,712.87,600.22,713.07,604.46,713.07
				c-4.24,0.01-152.88,0.2-388.43,0.51l-0.51,0l0-0.52c-0.03-150.42-0.07-336.4-0.12-537.35l0-0.63h0.63h0.04
				c139.21,0.02,271.25,0.04,388.39,0.06l0.57,0l0,0.57c-0.12,159-0.21,293.39-0.28,388.06c-0.07,47.27-0.12,84.61-0.15,110.15
				c-0.03,12.74-0.05,22.53-0.07,29.15c-0.01,3.29-0.03,5.78-0.03,7.48C604.48,712.24,604.46,713.07,604.46,713.07z"/>
		</g>
	</g>
</g>
<g>
	<g>
		<g>
			<g>
				<path class="st9" d="M421.94,779.73l8.59-28.87c1.5-6.26,3.49-13.65,6.17-22.07c2.41-7.58,8.59-15.54,14.22-21.27
					c8.77-8.92,12.94-8.98,18.84-13.72c0.54-0.34,1.14-0.84,1.64-1.11c1.22-0.66,2.11-1.54,2.87-2.48c5.08-5.5,0.2-14-10.12-13.19
					c-7.77,0.61-20.44,2.83-41.04,24.08c-0.26,0.32-0.53,0.59-0.78,0.92c-10.81,14.05-20.96-26.07-22.8-41
					c-1.19-9.69-11.67-15.64-21.15-12.14l-50.18,23.47c-4.14-1.46-9.06-1.21-14.65,0.5c-7.39,2.73-11.49,10.33-9.56,17.7
					l20.35,81.25l-59.78,198.9h128.85L421.94,779.73z"/>
			</g>
			<g>
				<g>
					<g>
						<g>
							<path class="st8" d="M520.92,597.05l-39.83,78.04l-19.91-5.53l-100.11,81.43c-8.52,6.93-21,5.82-28.17-2.5l-38.11-44.29
								c0,0,76.85-33.11,91.07-60.51c14.21-27.4-2.21-33.62-2.21-33.62l36.17-41.1L520.92,597.05z"/>
						</g>
					</g>
					<g>
						<path class="st8" d="M469.26,437.62c0,0-58.3-12.89-140.34-91.79c-82.04-78.89-120.59-183.66-130.63-183.15
							c-10.04,0.51-53.89-19.85-137.29,161.57c-83.4,181.41-50.55,223.54-33.95,223.2c16.6-0.34,129.28-31.74,199.66-23.74
							c70.38,8,160.85,44.68,160.85,44.68L469.26,437.62z"/>
					</g>
					<g>
						<path class="st4" d="M593.12,536.5l-19.89,37.82l-8.91,16.94c-12.22,23.24-40.49,32.84-64.33,21.86l-124.96-43.54
							l72.78-166.14l124.85,66.53C596.61,482.74,605.76,512.46,593.12,536.5z"/>
					</g>
					<g>
						<path class="st0" d="M593.12,536.5l-19.89,37.82l-8.91,16.94c-12.22,23.24-40.49,32.84-64.33,21.86l-124.96-43.54
							l72.78-166.14l124.85,66.53C596.61,482.74,605.76,512.46,593.12,536.5z"/>
					</g>
					<g>
						<path class="st4" d="M67.74,327.54c-44.38,98.27-62.86,185.84-41.27,195.6c21.59,9.75,75.08-62.01,119.46-160.28
							c44.38-98.27,62.86-185.84,41.27-195.59C165.6,157.51,112.12,229.27,67.74,327.54z"/>
					</g>
					<g>
						<path class="st0" d="M67.74,327.54c-44.38,98.27-62.86,185.84-41.27,195.6c21.59,9.75,75.08-62.01,119.46-160.28
							c44.38-98.27,62.86-185.84,41.27-195.59C165.6,157.51,112.12,229.27,67.74,327.54z"/>
					</g>
				</g>
				<g>
					<polygon class="st8" points="603.84,591.14 569.97,580.5 590.93,540.65 616.33,556.44 					"/>
				</g>
				<g>
					<polygon points="590.93,540.65 569.97,580.5 576.93,582.69 593.97,542.54 					"/>
				</g>
				<g>
					<path class="st8" d="M567.59,549.84c-0.5,1.1-17.4-5.48-37.75-14.67c-20.37-9.2-36.46-17.55-35.97-18.64
						c0.49-1.09,17.39,5.48,37.75,14.68C551.99,540.41,568.09,548.75,567.59,549.84z"/>
				</g>
				<g>
					<path class="st8" d="M578.01,526.11c-0.53,1.08-15.83-5.37-34.17-14.4c-18.35-9.04-32.78-17.23-32.24-18.31
						c0.53-1.08,15.82,5.37,34.17,14.4C564.1,516.84,578.54,525.03,578.01,526.11z"/>
				</g>
				<g>
					<path class="st8" d="M554.46,574.74c-0.18,0.58-4.2-0.35-10.62-2.33c-3.2-0.99-7.01-2.24-11.21-3.7
						c-4.18-1.51-8.51-3.71-13.16-5.81c-18.53-8.6-32.68-17.02-32.22-18.02c0.55-1.18,15.67,5.55,34.03,14.07
						c4.6,2.09,8.88,4.38,12.9,6.07c4.04,1.63,7.67,3.16,10.7,4.5C550.94,572.2,554.63,574.17,554.46,574.74z"/>
				</g>
				<g>
					<path class="st8" d="M158.22,305.69c0,0-50.67-31.42-78.4,37.04c-27.72,68.46,25.59,79.72,25.59,79.72
						C127.23,388.62,144.96,349.84,158.22,305.69z"/>
				</g>
				<g class="st10">
					<path class="st0" d="M212.11,224.1c0.3,0.05-0.42,4.7-1.99,13.08c-1.6,8.37-3.87,20.51-7.12,35.42
						c-2.14,7.34-4.48,15.36-6.99,23.96c-1.27,4.31-2.59,8.76-3.94,13.34c-0.68,2.29-1.37,4.62-2.07,6.98
						c-0.76,2.34-1.74,4.63-2.63,7c-3.65,9.42-7.48,19.3-11.45,29.54c-1,2.56-2,5.14-3.02,7.75c-0.99,2.62-2.38,5.08-3.56,7.65
						c-2.48,5.11-4.99,10.29-7.53,15.53c-2.55,5.24-5.07,10.42-7.56,15.52c-1.29,2.52-2.37,5.14-3.81,7.54
						c-1.42,2.41-2.83,4.8-4.23,7.16c-5.6,9.45-11,18.57-16.15,27.27c-1.32,2.15-2.51,4.35-3.88,6.39c-1.42,2.01-2.83,4-4.21,5.95
						c-2.77,3.9-5.46,7.7-8.07,11.36c-5.21,7.29-10.08,14.1-14.53,20.33c-9.69,11.74-17.81,21-23.4,27.43
						c-5.62,6.4-8.83,9.85-9.06,9.66c-0.23-0.19,2.54-4,7.76-10.73c5.41-6.86,13-16.48,22.32-28.3c4.29-6.28,8.97-13.14,13.98-20.49
						c2.52-3.68,5.13-7.47,7.82-11.38c1.35-1.95,2.71-3.94,4.09-5.94c1.33-2.04,2.49-4.24,3.78-6.39
						c5.04-8.68,10.34-17.78,15.82-27.21c1.38-2.36,2.76-4.73,4.16-7.13c1.42-2.38,2.48-4.98,3.76-7.5
						c2.46-5.07,4.95-10.22,7.48-15.42c2.53-5.2,5.03-10.34,7.5-15.41c1.18-2.55,2.58-5,3.56-7.59c1.02-2.58,2.03-5.14,3.03-7.68
						c4.02-10.14,7.91-19.92,11.6-29.25c0.9-2.34,1.91-4.61,2.69-6.92c0.72-2.33,1.44-4.63,2.14-6.9c1.41-4.53,2.79-8.94,4.12-13.2
						c2.68-8.5,5.18-16.42,7.47-23.68c3.52-14.61,6.39-26.5,8.43-34.97C210.54,228.59,211.82,224.05,212.11,224.1z"/>
				</g>
			</g>
			<g>
				<path class="st0" d="M306.94,698.76c4.62,8.39,9.34,16.91,16.18,23.62c6.84,6.71,16.24,11.46,25.77,10.5
					c9.53-0.96,18.56-8.88,18.67-18.46c4.58,3.44,11.59,1.58,15.38-2.71c3.79-4.29,5.02-10.25,5.47-15.95
					c6.21,3.66,14.85,0.76,19-5.14c4.15-5.9,4.4-13.85,2.39-20.78c-2.01-6.93-6.02-13.08-9.98-19.11c4.78,0.39,9.85,0.72,14.13-1.45
					c4.28-2.17,7.17-7.83,4.67-11.93c-1.47-2.41-4.28-3.6-6.97-4.44c-7.5-2.35-12.76-4.23-20.56-3.32
					c-1.81,0.02,3.12,20.59-45.87,48.72C316.31,694.91,306.94,698.76,306.94,698.76z"/>
			</g>
		</g>
		<g>
			<path class="st11" d="M417.25,728.48c-0.03,0.23-3.29-0.4-8.58-0.26c-5.26,0.12-12.6,1.27-19.86,4.75
				c-7.26,3.48-12.76,8.49-16.14,12.51c-3.42,4.03-4.98,6.97-5.17,6.85c-0.07-0.04,0.25-0.81,0.96-2.13
				c0.71-1.32,1.87-3.17,3.52-5.29c3.27-4.24,8.82-9.51,16.29-13.08c7.46-3.58,15.05-4.62,20.4-4.51c2.69,0.04,4.85,0.29,6.33,0.57
				C416.47,728.16,417.27,728.4,417.25,728.48z"/>
		</g>
		<path class="st9" d="M310.13,685.72c7.89,7.58,13.29,15.95,21.57,23.58c3.76,3.47,9.6,10.04,14.65,10.92
			c5.04,0.87,8.27,0.2,10.27-4.51c1.62-3.82-1.29-9.03-3.29-12.18c-5.27-8.27-10.32-14.74-14.26-21.17
			c-1.85-3.01,0.55-3.63,1.42-2.24c3.8,3.94,9.46,7.35,12.87,11.64c4.66,5.87,5.5,13.64,17.69,11.18c1.61-0.32,3.22-0.88,4.52-1.88
			c4.59-3.51,4.78-9.62,2.85-14.51c-1.51-3.83-4.17-7.08-6.79-10.27c5.19,5.86,10.85,12.03,19.1,12.69
			c4.8,0.39,9.61-1.85,11.55-6.25c2.44-5.54-1.06-10.9-4.57-15.23c-6.23-7.68-13.17-14.77-20.72-21.16
			c-2.81-2.38-6.39-3.71-10.07-3.73c-4.27-0.03-9.61,0.78-12.24,4.49c-4.79,6.74-3.31,12.7-3.31,12.7s-10.7-5.43-19.3,0.25
			c-8.6,5.67-10.73,15.43-10.73,15.43L310.13,685.72z"/>
		<path class="st9" d="M367.07,640.25c-3.31-3.33-4.08-9.44-1.51-14.47c1.82-3.57,4.12-7.03,6.44-7.82
			c10.18-3.43,54.65,4.26,54.25,14.13c-0.42,10.14-3.65,14.6-27.79,11.11c-4.25-0.61-10.91-1.45-10.91-1.45l-5.83,8.74
			L367.07,640.25z"/>
	</g>
	<g>
		<path class="st11" d="M375.04,681.58c-0.35,0.22-3.74-6.69-10.65-12.88c-6.84-6.27-14.04-8.97-13.86-9.34
			c0.05-0.14,1.91,0.34,4.71,1.66c2.8,1.31,6.49,3.56,10,6.74c3.51,3.19,6.11,6.64,7.69,9.29
			C374.51,679.71,375.17,681.51,375.04,681.58z"/>
	</g>
	<g>
		<path class="st11" d="M382.52,651.25c-0.22,0.21-3.16-2.19-7.16-4.64c-1.99-1.23-3.84-2.26-5.22-2.88
			c-1.37-0.65-2.28-0.82-2.28-1.01c-0.01-0.16,1.05-0.29,2.59,0.17c1.54,0.44,3.53,1.38,5.58,2.64
			C380.13,648.04,382.82,650.98,382.52,651.25z"/>
	</g>
	<g>
		<path class="st11" d="M389.99,642.07c-0.03,0.27-3.9,0.38-8.57-0.97c-2.32-0.71-4.27-1.83-5.48-2.87
			c-1.22-1.04-1.73-1.91-1.61-2.01c0.23-0.22,3,2.41,7.46,3.67C386.21,641.18,390.05,641.65,389.99,642.07z"/>
	</g>
	<g>
		<path class="st11" d="M346.76,693.8c-0.14,0.1-1.72-1.91-4.06-5.27c-2.39-3.29-5.43-8.19-10.38-11.8
			c-4.96-3.61-10.79-4.47-14.7-3.9c-3.99,0.56-6.07,2.2-6.2,1.97c-0.04-0.06,0.42-0.51,1.42-1.12c0.98-0.63,2.57-1.32,4.63-1.73
			c4.09-0.84,10.33-0.08,15.59,3.75c5.24,3.83,8.19,8.93,10.39,12.33C345.6,691.53,346.91,693.7,346.76,693.8z"/>
	</g>
	<g>
		<path class="st11" d="M380.79,792.17c0.04,0.35-8.1,1.52-18.18,2.61c-10.08,1.1-18.28,1.7-18.32,1.36
			c-0.04-0.35,8.1-1.52,18.18-2.61C372.55,792.43,380.75,791.82,380.79,792.17z"/>
	</g>
</g>
</svg>
