<?xml version="1.0" encoding="utf-8"?>
<!-- Generator: Adobe Illustrator 24.0.1, SVG Export Plug-In . SVG Version: 6.00 Build 0)  -->
<svg width="914px" height="661px" version="1.0" id="Layer_1" xmlns="http://www.w3.org/2000/svg" xmlns:xlink="http://www.w3.org/1999/xlink" x="0px" y="0px"
	 viewBox="0 0 913.24 661.59" style="enable-background:new 0 0 913.24 661.59;" xml:space="preserve">
<style type="text/css">
	.st0{fill:#FDEEEA;}
	.st1{fill:#C56E81;}
	.st2{fill:#FFFFFF;}
	.st3{fill:#EAC8CE;}
	.st4{fill:none;stroke:#D5B2BA;stroke-width:0.8439;stroke-miterlimit:10;}
	.st5{fill:#061418;}
	.st6{fill:#1C2E34;}
	.st7{fill:#C35F54;}
	.st8{fill:#0B181B;}
	.st9{fill:none;stroke:#312220;stroke-width:0.5778;stroke-linecap:round;stroke-linejoin:round;stroke-miterlimit:10;}
	.st10{fill:none;stroke:#312220;stroke-width:0.5189;stroke-linecap:round;stroke-linejoin:round;stroke-miterlimit:10;}
	.st11{fill:#0086FF;}
	.st12{fill:none;stroke:#55382C;stroke-width:0.8439;stroke-miterlimit:10;}
	.st13{fill:none;stroke:#55382E;stroke-width:1.1466;stroke-miterlimit:10;}
	.st14{fill:none;stroke:#F1D5CE;stroke-width:0.9798;stroke-linecap:round;stroke-linejoin:round;stroke-miterlimit:10;}
	.st15{fill:#F9B0A3;}
	.st16{fill:#FF9184;}
	.st17{fill:none;stroke:#FF6C63;stroke-width:1.0197;stroke-miterlimit:10;}
	.st18{fill:#FFC1B2;}
	.st19{fill:none;stroke:#E2E2E2;stroke-width:0.7601;stroke-miterlimit:10;}
	.st20{fill:#F1998A;}
	.st21{fill:none;stroke:#0B181B;stroke-width:0.5271;stroke-linecap:round;stroke-linejoin:round;stroke-miterlimit:10;}
	.st22{fill:none;stroke:#FFFFFF;stroke-width:0.4899;stroke-miterlimit:10;}
	.st23{fill:none;stroke:#312220;stroke-width:0.5581;stroke-linecap:round;stroke-linejoin:round;stroke-miterlimit:10;}
</style>
<path class="st0" d="M709.14,643.52c5.12-12.21,10.23-24.42,15.35-36.64c39-93.08,86.41-173.27,82.26-282.67
	c-3.83-100.77-41-198.83-110.04-257.65c-79.4-67.65-201.46-79.19-280.08-2.87c-33.35,32.37-55.49,79.41-86.67,114.76
	c-35.4,40.12-81.54,59.48-127.13,75.6c-32.16,11.37-64.24,24.98-92.17,47.46C9.25,383.12,43.12,521.79,68.64,640.65
	C68.64,640.65,709.14,643.52,709.14,643.52z"/>
<g>
	<g>
		<g>
			<g>
				<path class="st1" d="M641.13,508.61h-92.46c-5.39,0-9.75-4.37-9.75-9.75l0,0c0-5.39,4.37-9.75,9.75-9.75h92.46
					c5.39,0,9.75,4.37,9.75,9.75l0,0C650.89,504.24,646.52,508.61,641.13,508.61z"/>
				<path class="st1" d="M704.75,508.61H595.64c-7.44,0-12.79-7.28-10.69-14.55l52.1-179.61c1.4-4.82,5.75-8.13,10.69-8.13h109.11
					c7.44,0,12.79,7.28,10.69,14.55l-52.1,179.61C714.04,505.3,709.69,508.61,704.75,508.61z"/>
				<path class="st2" d="M689.74,508.61H594.7c-7.44,0-12.79-7.28-10.69-14.55l52.1-179.61c1.4-4.82,5.75-8.13,10.69-8.13h95.04
					c7.44,0,12.79,7.28,10.69,14.55l-52.1,179.61C699.02,505.3,694.67,508.61,689.74,508.61z"/>
				<path class="st1" d="M704.72,508.61H589.24c-5.39,0-9.75-4.37-9.75-9.75l0,0c0-5.39,4.37-9.75,9.75-9.75h115.48
					c5.39,0,9.75,4.37,9.75,9.75l0,0C714.47,504.24,710.11,508.61,704.72,508.61z"/>
			</g>
			<g>
				<g>
					<g>
						<path class="st3" d="M566.63,297.81c0,0-25.78,35.43-44.03,77.36c-2.05,4.7-1.61,10.17,1.21,14.44l0,0
							c6.35,9.65,22.93,7.43,29.32-1.55c0,0,48.79-67.55,46.71-70.29C599.35,317.12,566.63,297.81,566.63,297.81z"/>
						<path class="st3" d="M536.41,362.88l-63.92-25.71l-5.54,33.46l64.36,24.47c2.33,0.88,4.86,1.14,7.29,0.6
							c8.32-1.85,14.21-10.05,12.68-19.05l0,0C550.02,369.19,543.91,363.52,536.41,362.88z"/>
					</g>
					<g>
						<path class="st3" d="M616.47,289.6l-44.25,5.69c-4.51,0.58-7.74,4.64-7.29,9.16l28.59,124.04l94.97-0.23l-13.45-123.39
							c0.56-4.64-2.77-8.84-7.41-9.36L616.47,289.6z"/>
						<path class="st4" d="M577.46,356.02c0-1.48-7.93-31.64-7.93-31.64"/>
					</g>
					<g>
						<g>
							<path class="st5" d="M599.7,413.54h-76.54v-8.64h76.54c2.38,0,4.32,1.93,4.32,4.32l0,0
								C604.02,411.6,602.09,413.54,599.7,413.54z"/>
							<g>
								<path class="st6" d="M533.23,413.54H423.34c-5.84,0-10.97-3.89-12.53-9.52l-19.78-71.06c-1.75-6.28,2.98-12.5,9.5-12.5
									h101.62c3.9,0,7.31,2.63,8.3,6.4L533.23,413.54z"/>
								<path class="st2" d="M467.25,370.98c0,5.3-4.3,9.6-9.6,9.6c-5.3,0-9.6-4.3-9.6-9.6c0-5.3,4.3-9.6,9.6-9.6
									C462.95,361.38,467.25,365.68,467.25,370.98z"/>
							</g>
						</g>
						<g>
							<path class="st3" d="M637.26,319.42c0,0,24.12,47.76,51.35,86.25c3.05,4.31,10.26,6.46,15.54,6.23l0,0
								c11.92-0.51,16.97-13.35,12.46-23.8c0,0-38.14-88.14-43.42-89.59C672.37,298.29,637.26,319.42,637.26,319.42z"/>
							<g>
								<g>
									<g>
										<polygon class="st7" points="609.7,394.8 630.44,393.2 629.79,413.95 611.84,413.94 										"/>
									</g>
									<path class="st7" d="M611.24,394.8c0,0-47.55-18.33-42.26,19.12h45.64L611.24,394.8z"/>
								</g>
								<g>
									<path class="st3" d="M699.01,379.76L624.47,382l1.45,33.37l77.45-1.63c11.03-1.48,17.74-12.92,13.66-23.27l0,0
										C714.17,383.22,706.76,378.81,699.01,379.76z"/>
									<g>
										<polyline class="st4" points="651.63,337.84 671.35,380.59 624.47,382 624.43,393.2 										"/>
										<line class="st4" x1="671.35" y1="380.59" x2="681.77" y2="385.7"/>
									</g>
								</g>
							</g>
						</g>
					</g>
				</g>
				<g>
					<path class="st8" d="M585.92,239.81c0.81,5.29-2.7,10.24-7.82,11.04c-5.13,0.8-9.93-2.84-10.74-8.13
						c-0.81-5.29,2.7-10.24,7.82-11.04C580.3,230.87,585.11,234.51,585.92,239.81z"/>
					<path class="st7" d="M599.12,265.64l2.2,25.96c0.75,9.12,6.6,13.52,15.28,12.69l0,0c7.41-0.7,15.25-4.99,14.25-13l-5.37-40.68
						L599.12,265.64z"/>
					<path class="st7" d="M605.32,273.82L605.32,273.82c-14.82,1.29-28.07-9.74-29.56-22.2l-2.98-26.09
						c-1.87-15.62,8.59-29.89,23.65-32.25l0,0c15.41-2.42,32.57,8.11,34.99,24.03l2.08,20.36
						C635.38,256,622.95,271.06,605.32,273.82z"/>
					<g>
						<polyline class="st9" points="590.4,241.92 590.31,247.74 593.99,247.57 						"/>
						<path class="st8" d="M605.31,226.18c0,0-6.12-0.01-5.96,2.55c0,0,0.15,1.73,5.48,1.63c5.33-0.1,6.67-0.62,7.02-2.28
							C612.19,226.41,608.16,225.96,605.31,226.18z"/>
						<path class="st8" d="M580.39,227.57c0,0,4.97-0.95,5.58,1.41c0,0,0.37,1.6-3.98,2.34c-4.36,0.73-5.83,0.28-6.36-1
							C575.03,228.87,578.01,227.81,580.39,227.57z"/>
						<path class="st9" d="M600.1,237.68c0,0,3.94-3.06,7.88,0.01"/>
						<path class="st9" d="M585.32,238.98c0,0-2.78-2.89-6.66,0.6"/>
					</g>
					<path class="st8" d="M616.44,204.38c0,0-6.97,8.95,6.89,19.8c0,0-2.36,22.42-5.38,28.13c0,0-28.09-5.75-41.26,3.43
						c0,0,0.45,19.59,23.54,20.52c30.71,1.24,33.94-29.97,33.94-29.97l-6.41-15.08l10.48,1.42c0,0,21.29-32.17-11.91-32.17
						L616.44,204.38z"/>
					<g>
						<path class="st7" d="M644.8,235.24c0.81,5.29-2.7,10.24-7.82,11.04c-5.13,0.8-9.93-2.84-10.74-8.13
							c-0.81-5.29,2.7-10.24,7.82-11.04C639.18,226.31,643.99,229.95,644.8,235.24z"/>
						<path class="st10" d="M632.7,239.49c0,0-1.06-6.95,5.54-6.86"/>
					</g>
					<path class="st8" d="M617.81,205.76c0,0-25.66,1.56-41.17,0.33c0,0-15.3-5.73-8.95-15.02c5.02-7.34,17.16-1.35,17.16-1.35
						s-0.2-7.57,5.13-9.63c6.39-2.47,25.05-4.47,40.96,20.86L617.81,205.76z"/>
					<path class="st7" d="M601.05,291.58l-8.2,1.05c0,0-3.66,13.7,15.36,15.07c19.82,1.43,27.63-5.9,31.46-15.68l-21.82-4.28
						L601.05,291.58z"/>
				</g>
				<g>
					<g>
						<g>
							
								<rect x="523.74" y="579.04" transform="matrix(-1 4.224797e-03 -4.224797e-03 -1 1077.9686 1193.6146)" class="st7" width="27.97" height="37.81"/>
						</g>
						<g>
							<g>
								<path class="st11" d="M615.27,428.25l1.97,12.06c4.2,25.74-15.67,49.12-41.75,49.12h-12.5v106.34l-51.89,0.69l-2.9-130.28
									c-0.39-20.72,16.27-37.73,36.99-37.78L615.27,428.25z"/>
							</g>
						</g>
						<g>
							<path class="st8" d="M552,611.41c-6.58,1.76-21.65,6.4-28.64-3.72l-47.24,25.59l83.38-0.55l-3.71-18.82
								C555.53,612.11,553.76,610.94,552,611.41z"/>
							
								<rect x="476.15" y="633.01" transform="matrix(-1 6.574539e-03 -6.574539e-03 -1 1039.8588 1269.8258)" class="st2" width="83.39" height="7.23"/>
							<path class="st2" d="M523.85,618.87c-0.21-0.09-0.4-0.24-0.55-0.44c-3.06-4.21-6.13-6.28-6.16-6.3
								c-0.6-0.4-0.77-1.22-0.36-1.83c0.4-0.61,1.23-0.76,1.82-0.37c0.14,0.09,3.47,2.33,6.83,6.95c0.43,0.59,0.3,1.42-0.29,1.84
								C524.76,619.01,524.27,619.05,523.85,618.87z"/>
							<path class="st2" d="M517.43,622.25c-0.21-0.09-0.4-0.24-0.55-0.44c-3.06-4.21-6.13-6.28-6.16-6.3
								c-0.61-0.4-0.77-1.22-0.36-1.83c0.4-0.61,1.23-0.76,1.83-0.37c0.14,0.09,3.47,2.33,6.83,6.95c0.43,0.59,0.3,1.42-0.29,1.84
								C518.34,622.39,517.84,622.43,517.43,622.25z"/>
							<path class="st2" d="M511.01,625.64c-0.21-0.09-0.4-0.24-0.55-0.44c-3.06-4.21-6.13-6.28-6.16-6.3
								c-0.61-0.4-0.77-1.22-0.36-1.83c0.4-0.61,1.23-0.76,1.82-0.37c0.14,0.09,3.47,2.33,6.83,6.95c0.43,0.59,0.3,1.41-0.29,1.84
								C511.92,625.77,511.42,625.81,511.01,625.64z"/>
						</g>
					</g>
					<g>
						<g>
							<g>
								<g>
									
										<rect x="596.96" y="579.04" transform="matrix(-1 4.224797e-03 -4.224797e-03 -1 1224.418 1193.3052)" class="st7" width="27.97" height="37.81"/>
								</g>
								<g>
									<path class="st8" d="M624.79,609.83c-6.58,1.76-21.48,7.5-28.47-2.63l-47.23,25.59l83.38-0.55l-3.89-19.92
										C628.32,610.53,626.55,609.36,624.79,609.83z"/>
									
										<rect x="549.11" y="632.52" transform="matrix(-1 6.574513e-03 -6.574513e-03 -1 1185.7758 1268.3682)" class="st2" width="83.39" height="7.23"/>
									<path class="st2" d="M596.81,618.38c-0.21-0.09-0.4-0.24-0.55-0.44c-3.06-4.21-6.13-6.28-6.16-6.3
										c-0.6-0.4-0.77-1.22-0.36-1.83c0.4-0.61,1.23-0.76,1.83-0.37c0.14,0.09,3.47,2.33,6.83,6.95c0.43,0.59,0.3,1.42-0.29,1.84
										C597.72,618.52,597.23,618.56,596.81,618.38z"/>
									<path class="st2" d="M590.39,621.77c-0.21-0.09-0.4-0.24-0.55-0.44c-3.06-4.21-6.13-6.28-6.16-6.3
										c-0.6-0.4-0.77-1.22-0.36-1.83c0.4-0.61,1.23-0.76,1.83-0.37c0.14,0.09,3.47,2.33,6.83,6.95c0.43,0.59,0.3,1.41-0.29,1.84
										C591.3,621.9,590.8,621.94,590.39,621.77z"/>
									<path class="st2" d="M583.97,625.15c-0.21-0.09-0.4-0.24-0.55-0.44c-3.06-4.21-6.13-6.28-6.16-6.3
										c-0.6-0.4-0.77-1.22-0.36-1.83c0.4-0.61,1.23-0.76,1.83-0.37c0.14,0.09,3.47,2.33,6.83,6.95c0.43,0.59,0.3,1.42-0.29,1.84
										C584.88,625.29,584.38,625.32,583.97,625.15z"/>
								</g>
							</g>
							<g>
								<g>
									<path class="st11" d="M688.5,428.25l1.97,12.06c4.2,25.74-15.67,49.12-41.75,49.12h-12.5v106.34l-51.89,0.69l-2.9-130.28
										c-0.39-20.72,16.27-37.73,36.99-37.78L688.5,428.25z"/>
									<path class="st12" d="M580.93,489.1v-24.85c0-20.32,16.34-36.8,36.52-36.83l9.25-0.02"/>
								</g>
							</g>
						</g>
					</g>
				</g>
			</g>
		</g>
		<g>
			<polyline class="st13" points="461.49,642.83 387.05,421.61 327.13,640.14 			"/>
			<polyline class="st13" points="774.47,642.83 700.02,421.61 640.11,640.14 			"/>
			<g>
				<rect x="278.11" y="413.58" class="st2" width="528.96" height="14.99"/>
			</g>
		</g>
		<g>
			<g>
				<path class="st2" d="M356.15,218.17h133.59c1.15,0,2.09-0.94,2.09-2.09v-50.14c0-1.15-0.94-2.09-2.09-2.09H356.15
					c-1.15,0-2.09,0.94-2.09,2.09v50.14C354.06,217.24,355,218.17,356.15,218.17z"/>
				<g>
					<line class="st14" x1="467.59" y1="184.66" x2="376.03" y2="184.66"/>
					<line class="st14" x1="407.68" y1="199.1" x2="376.33" y2="199.1"/>
				</g>
			</g>
			<polygon class="st2" points="472.47,210.94 472.47,235.51 441.15,210.94 			"/>
		</g>
	</g>
	<g>
		<g>
			<g>
				<g>
					<polygon class="st15" points="256.43,252.64 275.65,328.6 313.23,393.61 300.27,404.56 246.99,337.84 225.71,276.36 					"/>
					<path class="st15" d="M313.23,393.61l33.4,9.85c3.17,0.92,6.17,2.2,7.13,5.33c0.47,1.54,0.19,3.22-0.5,4.68l-0.04,0.08
						c-1.34,2.83-4.43,4.4-7.5,3.8l-27.87-3.65l4.18,7.22c0.87,1.28,0.84,2.97-0.08,4.22l0,0c-1.16,1.57-3.34,1.96-4.97,0.88
						l-9.8-6.5c-2.66-1.76-4.54-4.48-5.24-7.59l-1.68-7.38l3.96-10.94H313.23z"/>
				</g>
				<g>
					<polygon class="st16" points="259.79,239.03 272.68,285.73 231.93,304.32 244.72,266.28 					"/>
				</g>
			</g>
			<g>
				<path class="st16" d="M210.26,216.26c0,0-39.15-14.42-61.87,26.9c-22.72,41.32-40.9,131.02-40.9,131.02l101.24,8.47
					l39.68-115.71c4.99-10.68,17.44-24.51,8.61-32.33c-3.99-3.53-9.5-6.79-17.12-9.15C210.26,216.26,210.26,216.26,210.26,216.26z"
					/>
				<line class="st17" x1="236.27" y1="302.34" x2="247.77" y2="268.8"/>
			</g>
			<g>
				<g>
					<path class="st18" d="M227.5,320.26l-41.13-87.09l-32.01,47.05l44.97,61.63c4.06,5.56,10.63,8.72,17.51,8.41l85.75-3.86
						l11.12-14.93L227.5,320.26z"/>
					<path class="st18" d="M313.72,331.47l37.17,2.17l15.18,5.09c1.68,0.56,2.62,2.35,2.13,4.06l0,0c-0.5,1.74-2.3,2.76-4.05,2.29
						l-14.95-4l-10.54-0.84l4.52,4.09c2.17,1.96,3.71,4.5,4.45,7.33l0.63,2.42c0.89,3.41-1.11,6.9-4.5,7.85l-7.33,2.06
						c-3.16,0.89-6.48-0.73-7.72-3.77l-2.3-5.6l-7.1-3.57c0,0-9.92,3.03-19.04-4.64c-7.79-6.55,0.92-8.49,1.72-8.85
						C302.8,337.19,313.72,331.47,313.72,331.47z"/>
				</g>
				<g>
					<polygon class="st16" points="190.49,226.75 225.71,287.09 170.94,325.96 142.95,266.11 					"/>
					<polyline class="st17" points="155.65,295.78 172.26,325.01 181.95,318.03 					"/>
					<line class="st17" x1="214.79" y1="294.84" x2="192.32" y2="252.64"/>
				</g>
			</g>
		</g>
		<g>
			<g>
				<g>
					<polygon class="st18" points="267.69,615.95 264.28,548.86 234.04,554.09 242.45,623.4 268.43,618.44 					"/>
					<g>
						<path d="M238.68,610.11c0,0,21.6,8.97,31.76-5.54l52.46,27.4l-90.93,0.2L238.68,610.11z"/>
						<polygon class="st2" points="322.83,639.84 231.9,640.04 231.96,632.17 322.89,631.97 						"/>
						<path class="st2" d="M269.88,616.75c0.23-0.1,0.44-0.26,0.61-0.48c3.4-4.61,6.81-6.9,6.84-6.92c0.67-0.45,0.86-1.34,0.41-1.99
							c-0.45-0.66-1.37-0.81-2.03-0.38c-0.16,0.1-3.86,2.57-7.59,7.63c-0.48,0.65-0.33,1.54,0.32,2
							C268.87,616.91,269.42,616.95,269.88,616.75z"/>
						<path class="st2" d="M277.02,620.37c0.23-0.1,0.44-0.26,0.61-0.48c3.4-4.61,6.81-6.9,6.84-6.92c0.67-0.45,0.85-1.34,0.41-1.99
							c-0.45-0.66-1.37-0.82-2.03-0.38c-0.16,0.1-3.86,2.57-7.59,7.63c-0.48,0.65-0.33,1.54,0.32,2
							C276.01,620.53,276.56,620.57,277.02,620.37z"/>
						<path class="st2" d="M284.15,623.99c0.23-0.1,0.44-0.26,0.61-0.48c3.4-4.61,6.81-6.9,6.84-6.92c0.67-0.45,0.85-1.34,0.41-1.99
							c-0.45-0.66-1.37-0.82-2.03-0.38c-0.16,0.1-3.86,2.57-7.59,7.63c-0.48,0.65-0.33,1.54,0.32,2
							C283.14,624.15,283.69,624.18,284.15,623.99z"/>
					</g>
				</g>
				<g>
					<path class="st2" d="M208.73,382.65l56.46,84.06c5.95,10.42,5.54,14,6.33,25.98l5.88,101.41l-49.75,3.36l-12.5-100.67
						l-61.58-99.29l-3.09-19.91L208.73,382.65z"/>
				</g>
			</g>
			<g>
				<g>
					<polygon class="st18" points="131.33,620.49 149.1,551.12 118.87,556.36 105.41,620.49 130.11,623.4 					"/>
					<g>
						<path d="M104.23,610.11c0,0,21.6,8.97,31.76-5.54l52.46,27.4l-90.93,0.2L104.23,610.11z"/>
						<polygon class="st2" points="188.39,639.84 97.45,640.04 97.52,632.17 188.45,631.97 						"/>
						<path class="st2" d="M135.44,616.75c0.23-0.1,0.44-0.26,0.61-0.48c3.4-4.61,6.81-6.9,6.84-6.92c0.67-0.45,0.85-1.34,0.41-1.99
							c-0.45-0.66-1.37-0.81-2.03-0.38c-0.16,0.1-3.86,2.57-7.59,7.63c-0.48,0.65-0.33,1.54,0.32,2
							C134.43,616.91,134.98,616.95,135.44,616.75z"/>
						<path class="st2" d="M142.57,620.37c0.23-0.1,0.44-0.26,0.61-0.48c3.4-4.61,6.81-6.9,6.84-6.92c0.67-0.45,0.85-1.34,0.41-1.99
							c-0.45-0.66-1.37-0.82-2.03-0.38c-0.16,0.1-3.86,2.57-7.59,7.63c-0.48,0.65-0.33,1.54,0.32,2
							C141.56,620.53,142.11,620.57,142.57,620.37z"/>
						<path class="st2" d="M149.7,623.99c0.23-0.1,0.44-0.26,0.61-0.48c3.4-4.61,6.81-6.9,6.84-6.92c0.67-0.45,0.85-1.34,0.41-1.99
							c-0.45-0.66-1.37-0.82-2.03-0.38c-0.16,0.1-3.86,2.57-7.59,7.63c-0.48,0.65-0.33,1.54,0.32,2
							C148.69,624.15,149.24,624.18,149.7,623.99z"/>
					</g>
				</g>
				<g>
					<polyline class="st19" points="182.46,440.89 182.38,429.02 198.69,410.06 					"/>
					<path class="st2" d="M110.33,374.41c0,0-13.32,28.33,3.53,66.99c0.64,1.48,1.29,2.81,1.94,4.07l6.84,58.71l-23.5,94.76
						l51.78,0.62l27.94-83.38c1.07-4.18,1.74-8.45,2.01-12.75l-0.72-107.58l12.16-14.62L110.33,374.41z"/>
				</g>
			</g>
		</g>
		<g>
			<path class="st8" d="M279.35,155.62c0,0,11.2,23.34-8.45,22.63L279.35,155.62z"/>
			<path class="st20" d="M257.44,183.99c-2.24,5.37,0.14,11.5,5.33,13.69c5.19,2.2,11.21-0.37,13.46-5.74
				c2.24-5.37-0.14-11.5-5.33-13.69C265.71,176.06,259.69,178.62,257.44,183.99z"/>
			<path class="st18" d="M244.24,205.71l-8.15,23.81c-2.84,8.37-9.35,11.12-17.29,8.31l0,0c-6.78-2.4-13.12-8.26-10.3-15.52
				l14.57-36.86L244.24,205.71z"/>
			<path class="st8" d="M238.87,221.56c0,0-19.95-5-18.5-28.9c0.46-7.53,24.75,10.63,24.75,10.63L238.87,221.56z"/>
			<path class="st18" d="M234.72,210.2L234.72,210.2c13.58,4.68,28.59-2.54,32.91-13.87l8.91-23.74
				c5.42-14.2-1.04-30.02-14.59-35.76l0,0c-13.87-5.88-32.42-0.04-38.42,14.31l-6.72,18.59
				C210.74,186.45,218.85,203.48,234.72,210.2z"/>
			<g>
				<polyline class="st21" points="256.1,184.17 254.91,189.28 251.5,188.26 				"/>
				<path class="st8" d="M249.11,159.71c0,0,5.73,1.43,4.99,3.79c0,0-0.55,1.58-5.51,0.24c-4.97-1.34-6.1-2.14-6.04-3.78
					S246.5,158.84,249.11,159.71z"/>
				<path class="st8" d="M271.54,168.54c0,0-4.43-2.06-5.56,0.01c0,0-0.73,1.41,3.18,3.12c3.91,1.71,5.4,1.63,6.19,0.56
					C276.25,171.02,273.71,169.32,271.54,168.54z"/>
				<path class="st8" d="M262.32,181.34c-0.5,1.32,0.13,2.78,1.41,3.26c1.28,0.48,2.71-0.19,3.21-1.51c0.5-1.32-0.13-2.78-1.41-3.26
					C264.26,179.34,262.82,180.02,262.32,181.34z"/>
				<path class="st8" d="M242.08,173.64c-0.5,1.32,0.13,2.78,1.41,3.26c1.28,0.48,2.71-0.19,3.21-1.51c0.5-1.32-0.13-2.78-1.41-3.26
					C244.01,171.65,242.58,172.32,242.08,173.64z"/>
				<g>
					<path class="st22" d="M258.85,179.97c-2.32,5.99,0.66,12.73,6.65,15.05c5.99,2.32,12.73-0.66,15.05-6.65
						c2.32-5.99-0.66-12.73-6.65-15.05C267.9,171,261.17,173.98,258.85,179.97z"/>
					<path class="st22" d="M240.03,163.88c-5.88,2.6-8.53,9.47-5.94,15.34c2.6,5.88,9.47,8.53,15.34,5.94
						c5.88-2.6,8.53-9.47,5.94-15.34C252.78,163.94,245.91,161.28,240.03,163.88z"/>
					<line class="st22" x1="233.89" y1="170.32" x2="223.65" y2="166.36"/>
					<line class="st22" x1="254.71" y1="180.81" x2="257.98" y2="182.07"/>
				</g>
				<path class="st21" d="M241.91,190.83c0,0,2.48,4.97,11.89,4.97"/>
			</g>
			<path class="st8" d="M216.84,134.5c5.63-10.56,15.19-6.18,15.19-6.18l0,0.02c6.37-5.63,18.91-8.13,30.65-3.42
				c15.91,6.38,27.23,20.57,26.72,30.01c-0.51,9.44-12.88,4.6-12.88,4.6s-18.66-5.3-32.87-11.69c-1.47,6.5-5.58,16.2-16.81,12.76
				l-9.2,18.02C217.64,178.6,209.54,148.19,216.84,134.5z"/>
			<g>
				<path class="st18" d="M204.47,164.97c-2.22,5.31,0.14,11.38,5.28,13.56c5.14,2.18,11.1-0.37,13.33-5.68
					c2.22-5.31-0.14-11.38-5.28-13.56C212.66,157.11,206.7,159.66,204.47,164.97z"/>
				<path class="st23" d="M215.98,172.56c0,0,2.92-6.98-3.99-8.61"/>
			</g>
			<path class="st18" d="M202.26,214.26l24.49,5.71l16.88,6.78c0,0-4.78,16.6-19.99,13.85
				C195.62,235.54,202.26,214.26,202.26,214.26z"/>
		</g>
	</g>
	<line class="st13" x1="892" y1="641.75" x2="8" y2="641.75"/>
</g>
</svg>
