<?xml version="1.0" encoding="utf-8"?>
<!-- Generator: Adobe Illustrator 16.0.0, SVG Export Plug-In . SVG Version: 6.00 Build 0)  -->
<!DOCTYPE svg PUBLIC "-//W3C//DTD SVG 1.1//EN" "http://www.w3.org/Graphics/SVG/1.1/DTD/svg11.dtd">
<svg version="1.1" id="Layer_1" xmlns="http://www.w3.org/2000/svg" xmlns:xlink="http://www.w3.org/1999/xlink" x="0px" y="0px"
	 width="612px" height="455.822px" viewBox="0 0 612 455.822" enable-background="new 0 0 612 455.822" xml:space="preserve">
<path fill="#F6EFEA" d="M534.776,453.785c18.111-84.352,42.147-182.76-29.82-240.676c-19.82-15.954-42.587-25.612-65.409-33.681
	c-32.354-11.44-65.099-25.179-90.221-53.651c-22.128-25.086-37.839-58.469-61.506-81.441C232.026-9.826,145.405-1.636,89.057,46.373
	C40.061,88.116,13.683,157.706,10.965,229.218c-2.945,77.637,30.7,134.546,58.377,200.601c3.633,8.673,7.26,17.338,10.893,26.003
	L534.776,453.785z"/>
<g>
	<g>
		<rect x="25.229" y="69.318" fill="#FFFFFF" width="76.906" height="97.588"/>
		<rect x="25.229" y="175.857" fill="#FFFFFF" width="76.906" height="99.993"/>
		<rect x="110.427" y="69.318" fill="#FFFFFF" width="76.906" height="97.588"/>
		<rect x="110.427" y="175.857" fill="#FFFFFF" width="76.906" height="99.993"/>
	</g>
	<g>
		<g>
			<g>
				<rect x="217.184" y="363.599" fill="#FFFFFF" width="8.066" height="28.501"/>
				<path fill="#1B2E34" d="M242.329,360.45h-41.59c-4.276,0-7.742-3.468-7.742-7.741l0,0c0-4.274,3.465-7.742,7.742-7.742h41.59
					c4.274,0,7.74,3.468,7.74,7.742l0,0C250.069,356.982,246.604,360.45,242.329,360.45z"/>
				<rect x="214.082" y="356.832" fill="#1B2E34" width="14.756" height="10.121"/>
				<rect x="214.082" y="387.476" fill="#1B2E34" width="14.756" height="44.317"/>
				<rect x="178.938" y="426.332" fill="#1B2E34" width="83.338" height="6.167"/>
				<rect x="178.938" y="426.332" fill="#1B2E34" width="4.889" height="19.169"/>
				<circle fill="#1B2E34" cx="180.984" cy="445.501" r="7.659"/>
				<rect x="257.387" y="426.332" fill="#1B2E34" width="4.889" height="19.169"/>
				<circle fill="#1B2E34" cx="259.434" cy="445.501" r="7.659"/>
			</g>
			<g>
				<g>
					<path fill="#F86E65" d="M273.061,353.775c-31.547,0-57.214-25.667-57.214-57.214v-70.093c0-3.991,3.235-7.226,7.226-7.226
						c3.989,0,7.226,3.235,7.226,7.226v70.093c0,23.581,19.183,42.763,42.762,42.763c3.991,0,7.226,3.234,7.226,7.226
						C280.287,350.543,277.052,353.775,273.061,353.775z"/>
					<polygon fill="#F86E65" points="223.073,219.242 145.927,219.242 150.619,275.844 148.37,318.42 186.847,342.917 
						195.917,353.775 273.061,353.775 252.094,340.483 236.456,322.759 230.2,318.938 224.986,284.533 224.641,243.179 					"/>
				</g>
				<path fill="#F79184" d="M195.917,353.775c-31.549,0-57.214-25.667-57.214-57.214v-70.093c0-3.991,3.234-7.226,7.224-7.226
					c3.991,0,7.226,3.235,7.226,7.226v70.093c0,23.581,19.183,42.763,42.764,42.763c3.989,0,7.224,3.234,7.224,7.226
					C203.141,350.543,199.907,353.775,195.917,353.775z"/>
			</g>
		</g>
		<g>
			<g>
				<g>
					<g>
						<polygon fill="#F5AFA0" points="320.058,436.143 319.447,394.725 298.424,393.609 299.004,438.097 319.279,438.225 						"/>
						<g>
							<path fill="#0D191B" d="M296.065,429.393c0,0,17.387,7.148,25.552-4.121l35.79,21.742l-66.729-0.43L296.065,429.393z"/>
							<polygon fill="#FFFFFF" points="357.365,453.16 290.634,452.729 290.678,446.584 357.407,447.014 							"/>
							<path fill="#FFFFFF" d="M321.181,434.782c0.188-0.077,0.358-0.203,0.488-0.371c2.729-3.58,5.474-5.346,5.501-5.362
								c0.541-0.344,0.686-1.04,0.325-1.556c-0.36-0.518-1.101-0.644-1.633-0.314c-0.126,0.08-3.104,1.985-6.103,5.912
								c-0.384,0.503-0.267,1.205,0.26,1.57C320.369,434.901,320.812,434.934,321.181,434.782z"/>
							<path fill="#FFFFFF" d="M326.925,437.656c0.187-0.077,0.356-0.201,0.486-0.373c2.731-3.578,5.474-5.346,5.501-5.362
								c0.54-0.344,0.688-1.04,0.324-1.556c-0.358-0.516-1.103-0.647-1.631-0.313c-0.126,0.078-3.104,1.985-6.104,5.914
								c-0.381,0.501-0.264,1.203,0.263,1.568C326.111,437.773,326.554,437.808,326.925,437.656z"/>
							<path fill="#FFFFFF" d="M332.666,440.528c0.188-0.078,0.356-0.203,0.486-0.373c2.731-3.576,5.476-5.344,5.503-5.362
								c0.541-0.344,0.686-1.04,0.325-1.556c-0.36-0.514-1.103-0.646-1.631-0.311c-0.128,0.078-3.106,1.983-6.106,5.91
								c-0.382,0.501-0.265,1.205,0.262,1.567C331.855,440.646,332.295,440.679,332.666,440.528z"/>
						</g>
					</g>
					<g>
						<g>
							<g>
								<path fill="#1D77B4" d="M243.306,298.47l9.856,8.255c-2.876,17.628-12.378,33.635,5.482,33.635h31.671v72.82l35.536,0.477
									l1.983-89.214c0.266-14.186-11.145-25.839-25.334-25.87L243.306,298.47z"/>
								<rect x="288.066" y="399.875" fill="#1B80B8" width="40.879" height="13.781"/>
							</g>
						</g>
					</g>
				</g>
				<g>
					<g>
						<polygon fill="#F5AFA0" points="263.13,436.143 262.519,394.725 241.497,393.609 242.076,438.097 262.351,438.225 						"/>
						<g>
							<path fill="#0D191B" d="M239.139,429.393c0,0,17.384,7.148,25.549-4.121l35.792,21.742l-66.731-0.43L239.139,429.393z"/>
							<polygon fill="#FFFFFF" points="300.436,453.16 233.705,452.729 233.749,446.584 300.48,447.014 							"/>
							<path fill="#FFFFFF" d="M264.252,434.782c0.189-0.077,0.358-0.203,0.489-0.371c2.731-3.58,5.473-5.346,5.5-5.362
								c0.541-0.344,0.688-1.04,0.325-1.556c-0.36-0.518-1.101-0.644-1.631-0.314c-0.128,0.08-3.104,1.985-6.104,5.912
								c-0.382,0.503-0.264,1.205,0.262,1.57C263.441,434.901,263.883,434.934,264.252,434.782z"/>
							<path fill="#FFFFFF" d="M269.996,437.656c0.188-0.077,0.356-0.201,0.488-0.373c2.729-3.578,5.473-5.346,5.5-5.362
								c0.539-0.344,0.686-1.04,0.325-1.556c-0.361-0.516-1.105-0.647-1.633-0.313c-0.125,0.078-3.104,1.985-6.102,5.914
								c-0.384,0.501-0.266,1.203,0.26,1.568C269.185,437.773,269.627,437.808,269.996,437.656z"/>
							<path fill="#FFFFFF" d="M275.738,440.528c0.188-0.078,0.358-0.203,0.488-0.373c2.731-3.576,5.473-5.344,5.5-5.362
								c0.541-0.344,0.688-1.04,0.325-1.556c-0.358-0.514-1.101-0.646-1.631-0.311c-0.128,0.078-3.105,1.983-6.104,5.91
								c-0.384,0.501-0.266,1.205,0.262,1.567C274.926,440.646,275.369,440.679,275.738,440.528z"/>
						</g>
					</g>
					<g>
						<g>
							<g>
								<path fill="#1B80B8" d="M198.58,298.47l-1.346,8.255c-2.876,17.628,10.731,33.635,28.591,33.635h8.561v72.82l35.536,0.477
									l1.983-89.214c0.266-14.186-11.144-25.839-25.333-25.87L198.58,298.47z"/>
								<rect x="232.135" y="399.875" fill="#20A7CB" width="40.882" height="13.781"/>
							</g>
						</g>
					</g>
				</g>
			</g>
			<g>
				<g>
					<g>
						<polygon fill="#F2A398" points="286.974,267.136 334.855,277.215 337.438,286.82 274.738,287.709 269.715,261.671 						"/>
						<path fill="#F2A398" d="M327.585,276.653c0,0,9.79-5.943,19.493-3.463c6.396,1.635,12.735,7.785,12.245,14.372l0,0
							l-38.951-0.499L327.585,276.653z"/>
					</g>
					<g>
						<path fill="#F2A398" d="M289.713,232.523l5.526,40.991c0,0-23.933,12.593-23.428,11.079c0.503-1.514-5.369-52.07-5.369-52.07
							H289.713z"/>
						<path fill="#0D191B" d="M268.335,198.608c0,0,17.565,2.764,21.573,17.757c5.22,19.534,7.209,22.352,7.209,22.352
							l-26.562,3.863L268.335,198.608z"/>
					</g>
				</g>
				<g>
					<g>
						<path fill="#0D191B" d="M234.571,193.631l33.765,4.978c3.423,0.505,5.97,3.425,6.004,6.885l0.803,80.098l-75.328,0.223
							l-5.111-69.873l2.801-9.472c1.31-4.429,5.045-7.712,9.605-8.443L234.571,193.631z"/>
					</g>
				</g>
				<g>
					<g>
						<polygon fill="#F5AFA0" points="212.461,238.441 198.357,274.905 176.6,255.969 185.044,229.732 						"/>
						<path fill="#0D191B" d="M226.192,196.46c0,0-26.22-0.234-32.735,7.508c-8.207,9.752-17.949,34.677-17.949,34.677l42.639,9.395
							L226.192,196.46z"/>
					</g>
					<g>
						<g>
							<path fill="#F5AFA0" d="M200.791,268.817l49.202,10.959l-2.025,10.896l-58.141,0.388c0,0-26.004-5.246-13.228-35.091
								L200.791,268.817z"/>
							<path fill="#F5AFA0" d="M249.993,279.776c0,0,11.563-4.523,21.137-2.737c6.503,1.216,10.867,7.417,10.375,14.014v0.008
								l-38.643-0.354L249.993,279.776z"/>
						</g>
						
							<line fill="none" stroke="#E98980" stroke-width="0.5" stroke-miterlimit="10" x1="200.791" y1="268.817" x2="188.641" y2="267.136"/>
					</g>
				</g>
			</g>
			<g>
				<path fill="#0D191B" d="M257.119,133.998c0,0,13.387,12.58,0.201,17.14L257.119,133.998z"/>
				<path fill="#1B75B2" d="M249.138,156.407c-0.138,5.107,3.761,9.374,8.708,9.53s9.069-3.857,9.207-8.965
					c0.138-5.108-3.759-9.375-8.706-9.53C253.399,147.286,249.276,151.3,249.138,156.407z"/>
				<path fill="#F5AFA0" d="M246.706,176.133l0.702,17.839c0.26,6.264-3.341,9.752-9.318,9.927l0,0
					c-5.1,0.149-10.796-2.104-10.79-7.635l0.204-28.119L246.706,176.133z"/>
				<path fill="#0D191B" d="M247.213,187.994c0,0-14.483,1.796-19.638-14.387c-1.625-5.097,19.093,0.696,19.093,0.696
					L247.213,187.994z"/>
				<path fill="#F5AFA0" d="M241.558,181.54L241.558,181.54c10.188-0.378,18.267-9,18.225-17.602l-0.182-17.993
					c-0.053-10.781-8.377-19.598-18.814-19.929l0,0c-10.685-0.336-21.461,8.274-21.759,19.306l0.313,14.02
					C219.605,171.965,229.334,181.154,241.558,181.54z"/>
				<g>
					
						<polyline fill="none" stroke="#0D191B" stroke-width="0.5266" stroke-linecap="round" stroke-linejoin="round" stroke-miterlimit="10" points="
						249.075,159.064 249.559,162.527 247.043,162.724 					"/>
					<path fill="#0D191B" d="M237.764,148.552c0,0,4.159-0.521,4.272,1.232c0,0,0.044,1.188-3.587,1.569
						c-3.63,0.381-4.588,0.145-4.966-0.957C233.105,149.293,235.808,148.643,237.764,148.552z"/>
					<path fill="#0D191B" d="M254.599,147.97c0,0-3.459-0.229-3.675,1.43c0,0-0.12,1.123,2.908,1.252
						c3.025,0.131,3.989-0.304,4.239-1.216C258.353,148.402,256.236,147.931,254.599,147.97z"/>
					<path fill="#0D191B" d="M252.433,155.374c0.008,1,0.801,1.805,1.77,1.799c0.968-0.006,1.746-0.822,1.738-1.822
						c-0.008-0.999-0.801-1.805-1.77-1.798C253.203,153.558,252.425,154.374,252.433,155.374z"/>
					
						<ellipse transform="matrix(-1 0.0063 -0.0063 -1 478.6095 309.4055)" fill="#0D191B" cx="238.82" cy="155.453" rx="1.752" ry="1.81"/>
					
						<line fill="none" stroke="#0D191B" stroke-width="0.5266" stroke-linecap="round" stroke-linejoin="round" stroke-miterlimit="10" x1="245.157" y1="168.803" x2="249.826" y2="168.146"/>
				</g>
				<path fill="#0D191B" d="M270.302,127.948l-7.731-1.096c2.258-1.436,4.52-2.863,4.52-2.863s-5.274-1.82-12.294-1.808
					c-4.576-2.472-10.439-4.16-16.571-4.235c-8.974-0.109-16.638,4.755-19.407,10.112l-0.006-0.011c0,0-7.448-0.456-8.471,7.976
					c-1.325,10.928,11.827,28.98,11.827,28.98l1.476-14.278c8.154-0.583,8.532-7.775,7.892-12.464
					c3.669,0.311,16.322,1.145,26.214-1.06c1.075-0.126,2.542-0.41,3.775-1.046C266.195,134.548,269.682,131.984,270.302,127.948z"
					/>
				<g>
					<path fill="#F7B999" d="M209.96,159.354c-0.109,4.085,3.008,7.499,6.966,7.623c3.956,0.125,7.253-3.085,7.364-7.17
						c0.111-4.085-3.008-7.499-6.964-7.623C213.369,152.059,210.071,155.269,209.96,159.354z"/>
					
						<path fill="none" stroke="#312220" stroke-width="0.5575" stroke-linecap="round" stroke-linejoin="round" stroke-miterlimit="10" d="
						M219.523,161.433c0,0,0.145-5.363-4.844-4.676"/>
				</g>
				<g>
					<path fill="#1B75B2" d="M244.935,117.675l0.223,1.033c0,0-12.943,1.361-18.844,9.23c-6.578,8.771-6.681,20.599-6.681,20.599
						l-2.799,0.237l0.187-18.754l5.608-5.846l8.94-5.348l6.257-2.001L244.935,117.675z"/>
					<g>
						<path fill="#1B75B2" d="M227.424,155.362c1.335,6.162-2.641,12.256-10.458,13.951c-5.528,1.199-8.224-3.447-9.561-9.609
							c-1.335-6.163,2.061-12.131,7.588-13.329C220.521,145.175,226.087,149.199,227.424,155.362z"/>
						
							<ellipse transform="matrix(0.9773 -0.2119 0.2119 0.9773 -28.6462 49.0656)" fill="#1B80B8" cx="214.546" cy="158.155" rx="10.241" ry="11.418"/>
					</g>
					<path fill="#1B80B8" d="M212.813,148.306c0,0-1.071-6.85,0.562-14.341c2.065-9.476,9.645-16.239,19.189-17.977
						c0.729-0.133,1.497-0.256,2.304-0.364c2.777-0.371,5.777-0.292,8.287,0.95c0.639,0.315,1.253,0.681,1.779,1.101
						c0,0-12.573,0.522-18.625,7.246c-6.819,7.579-8.61,17.761-8.186,24.536L212.813,148.306z"/>
				</g>
				<path fill="#F5AFA0" d="M220.385,195.902l14.186-2.271l18.867,2.782c0,0,1.159,11.007-14.792,11.471
					C222.693,208.349,220.385,195.902,220.385,195.902z"/>
			</g>
		</g>
	</g>
	<g>
		<g>
			<g>
				<g>
					<polygon fill="#CB9DA8" points="306.123,250.519 312.821,255.328 360.338,215.222 476.042,151.345 469.793,146.812 
						390.421,171.197 					"/>
					<path fill="#CB9DA8" d="M322.533,150.51l-18.837,93.586c-0.807,4.006,2.255,7.746,6.343,7.746h135.594
						c3.051,0,5.688-2.132,6.325-5.115l20.034-93.586c0.861-4.027-2.208-7.823-6.327-7.823H328.874
						C325.795,145.318,323.141,147.491,322.533,150.51z"/>
					<path fill="#E9C8CE" d="M328.647,154.924l-18.837,93.587c-0.805,4.005,2.258,7.746,6.342,7.746h135.596
						c3.05,0,5.688-2.132,6.324-5.116l20.034-93.586c0.862-4.027-2.209-7.824-6.326-7.824H334.989
						C331.91,149.73,329.256,151.903,328.647,154.924z"/>
					<polygon fill="#CB9DA8" points="378.009,231.51 375.479,256.256 386.482,256.256 					"/>
					<polygon fill="#F0DAE0" points="378.009,230.999 389.239,286.413 430.171,286.413 410.974,230.999 					"/>
					<circle fill="#FFFFFF" cx="399.504" cy="188.377" r="9.083"/>
					<path fill="#E9C8CE" d="M454.385,281.257h-96.491c-1.479,0-2.678,1.199-2.678,2.675l0,0c0,1.479,1.199,2.679,2.678,2.679
						h96.491c1.479,0,2.678-1.199,2.678-2.679l0,0C457.063,282.456,455.863,281.257,454.385,281.257z"/>
					<path fill="#E9C8CE" d="M334.092,281.257h-51.105c-1.478,0-2.677,1.199-2.677,2.675l0,0c0,1.479,1.199,2.679,2.677,2.679
						h51.105c1.478,0,2.677-1.199,2.677-2.679l0,0C336.769,282.456,335.569,281.257,334.092,281.257z"/>
				</g>
			</g>
			<g>
				
					<line fill="none" stroke="#55382E" stroke-width="1.1607" stroke-miterlimit="10" x1="270.935" y1="295.139" x2="270.935" y2="453.16"/>
				
					<line fill="none" stroke="#55382E" stroke-width="1.1607" stroke-miterlimit="10" x1="170.777" y1="295.139" x2="170.777" y2="453.16"/>
				
					<line fill="none" stroke="#55382E" stroke-width="1.1607" stroke-miterlimit="10" x1="513.999" y1="295.139" x2="513.999" y2="453.16"/>
				
					<line fill="none" stroke="#55382E" stroke-width="1.1607" stroke-miterlimit="10" x1="413.841" y1="295.139" x2="413.841" y2="453.16"/>
				<rect x="147.489" y="286.413" fill="#E9C8CE" width="94.756" height="12.708"/>
				<rect x="242.063" y="286.413" fill="#FFFFFF" width="297.693" height="12.708"/>
			</g>
		</g>
		
			<line fill="none" stroke="#55382E" stroke-width="1.1607" stroke-miterlimit="10" x1="588.011" y1="453.16" x2="61.034" y2="453.16"/>
	</g>
</g>
</svg>
