<?xml version="1.0" encoding="utf-8"?>
<!-- Generator: Adobe Illustrator 16.0.0, SVG Export Plug-In . SVG Version: 6.00 Build 0)  -->
<!DOCTYPE svg PUBLIC "-//W3C//DTD SVG 1.1//EN" "http://www.w3.org/Graphics/SVG/1.1/DTD/svg11.dtd">
<svg version="1.1" id="Layer_1" xmlns="http://www.w3.org/2000/svg" xmlns:xlink="http://www.w3.org/1999/xlink" x="0px" y="0px"
	 width="612px" height="455.822px" viewBox="0 0 612 455.822" enable-background="new 0 0 612 455.822" xml:space="preserve">
<path fill="#F6EFEA" d="M534.776,453.785c18.111-84.352,42.147-182.76-29.82-240.676c-19.82-15.954-42.587-25.612-65.409-33.681
	c-32.354-11.44-65.099-25.179-90.221-53.651c-22.128-25.086-37.839-58.469-61.506-81.441C232.026-9.826,145.405-1.636,89.057,46.373
	C40.061,88.116,13.683,157.706,10.965,229.218c-2.945,77.637,30.7,134.546,58.377,200.601c3.633,8.673,7.26,17.338,10.893,26.003
	L534.776,453.785z"/>
<g>
	<g>
		<g>
			<g>
				<path fill="#FFFFFF" d="M441.924,142.633c0.258-7.159-5.034-13.312-12.151-14.124c-7.683-0.877-16.898,4.135-18.877,13.999
					c-1.679,8.389-2.844,23.216-2.765,22.536l33.588,2.05L441.924,142.633z"/>
				<path fill="#F9C0B2" d="M442.39,167.932l-28.007-2.507c0.885,13.36,0.676,21.405,0.051,29.022
					c-0.703,8.594,6.072,15.956,14.693,15.97l0,0c7.958,0.013,14.495-6.282,14.783-14.233L442.39,167.932z"/>
			</g>
			<g>
				<g>
					<path fill="#F9C0B2" d="M366.539,158.692l60.127,27.096c6.124,3.434,8.135,11.287,4.419,17.24l0,0
						c-3.759,6.023-11.822,7.622-17.594,3.49l-51.5-37.558L366.539,158.692z"/>
					<g>
						<circle fill="#F9C0B2" cx="364.668" cy="160.799" r="12.638"/>
						<path fill="#F9C0B2" d="M361.795,149.207c0,0-0.638-4.946,5.789-3.309c6.428,1.634,12.176,6.618,9.057,18.947L361.795,149.207
							z"/>
					</g>
				</g>
				<g>
					<g>
						<path fill="#372C5F" d="M380.775,130.052l-12.35-6.555c-0.688-0.364-1.512-0.04-1.84,0.727l-14.104,32.855
							c-0.328,0.764-0.038,1.681,0.65,2.045l12.349,6.555c0.688,0.367,1.512,0.041,1.841-0.724l14.103-32.857
							C381.755,131.333,381.462,130.417,380.775,130.052z"/>
						<path fill="#251641" d="M383.155,131.316l-12.349-6.555c-0.687-0.366-1.51-0.04-1.838,0.725l-14.105,32.857
							c-0.328,0.765-0.038,1.681,0.648,2.045l12.351,6.555c0.687,0.364,1.51,0.041,1.838-0.726l14.105-32.855
							C384.135,132.595,383.844,131.681,383.155,131.316z"/>
						<polygon fill="#E7E7E7" points="381.553,134.448 370.699,128.689 359.206,155.465 370.059,161.225 						"/>
						<polygon fill="#FFFFFF" points="370.699,128.689 370.059,161.225 381.553,134.448 						"/>
					</g>
					<g>
						<path fill="#F9C0B2" d="M373.568,162.084l-3.107-10.874c-0.225-0.783,0.027-1.624,0.644-2.158l0,0
							c0.892-0.768,2.24-0.65,2.982,0.261l1.805,2.486L373.568,162.084z"/>
						<path fill="#F9C0B2" d="M372.521,153.043c0,0-5.222,8.13-1.593,15.318l3.154-6.327L372.521,153.043z"/>
					</g>
				</g>
			</g>
		</g>
		<g>
			<g>
				<g>
					<g>
						<polygon fill="#F9C0B2" points="390.525,437.738 410.143,437.655 414.182,411.138 394.567,411.222 						"/>
					</g>
					<g>
						<path d="M409.981,433.21c-4.616,1.231-15.063,5.261-19.964-1.842l-33.126,17.949l58.479-0.386l-2.726-13.967
							C412.458,433.701,411.217,432.88,409.981,433.21z"/>
						<polygon fill="#FFFFFF" points="356.93,453.945 415.405,453.561 415.37,448.492 356.892,448.877 						"/>
						<path fill="#FFFFFF" d="M390.364,438.772c-0.147-0.064-0.281-0.169-0.382-0.306c-2.146-2.951-4.297-4.407-4.318-4.423
							c-0.425-0.282-0.539-0.855-0.256-1.281c0.281-0.427,0.864-0.531,1.278-0.258c0.101,0.063,2.438,1.634,4.792,4.872
							c0.301,0.414,0.21,0.992-0.203,1.293C391,438.869,390.655,438.896,390.364,438.772z"/>
						<path fill="#FFFFFF" d="M385.859,441.143c-0.146-0.063-0.279-0.165-0.383-0.305c-2.144-2.951-4.296-4.406-4.317-4.42
							c-0.423-0.284-0.54-0.857-0.256-1.284c0.283-0.425,0.866-0.535,1.28-0.258c0.1,0.063,2.438,1.635,4.792,4.874
							c0.301,0.412,0.207,0.991-0.206,1.293C386.496,441.24,386.15,441.269,385.859,441.143z"/>
						<path fill="#FFFFFF" d="M381.356,443.514c-0.148-0.063-0.281-0.167-0.384-0.305c-2.145-2.948-4.296-4.406-4.316-4.421
							c-0.426-0.283-0.541-0.857-0.256-1.282c0.281-0.426,0.862-0.536,1.278-0.258c0.099,0.064,2.437,1.636,4.793,4.871
							c0.301,0.415,0.207,0.993-0.205,1.294C381.993,443.612,381.646,443.64,381.356,443.514z"/>
					</g>
				</g>
				<g>
					<g>
						<g>
							<path fill="#F79184" d="M422.161,193.429c0,0-7.916,17.597-21.078,96.132c-13.166,78.539-14.933,131.315-14.933,131.315
								h40.493l35.31-219.241l-9.024-8.548L422.161,193.429z"/>
						</g>
					</g>
				</g>
			</g>
			<g>
				<g>
					<g>
						
							<rect x="457.138" y="411.179" transform="matrix(-1 0.0042 -0.0042 -1 935.6808 846.896)" fill="#F9C0B2" width="19.613" height="26.518"/>
					</g>
					<g>
						<path d="M476.648,432.77c-4.615,1.232-15.062,5.261-19.964-1.843l-33.126,17.95l58.478-0.385l-2.725-13.965
							C479.123,433.26,477.883,432.441,476.648,432.77z"/>
						<polygon fill="#FFFFFF" points="423.595,453.945 482.072,453.561 482.036,448.492 423.559,448.877 						"/>
						<path fill="#FFFFFF" d="M457.03,438.772c-0.146-0.064-0.28-0.169-0.382-0.306c-2.145-2.951-4.297-4.407-4.318-4.423
							c-0.424-0.282-0.538-0.855-0.255-1.281c0.282-0.427,0.862-0.531,1.279-0.258c0.1,0.063,2.437,1.634,4.791,4.872
							c0.301,0.414,0.208,0.992-0.205,1.293C457.667,438.869,457.32,438.896,457.03,438.772z"/>
						<path fill="#FFFFFF" d="M452.527,441.143c-0.149-0.063-0.28-0.165-0.384-0.305c-2.143-2.951-4.297-4.406-4.316-4.42
							c-0.424-0.284-0.54-0.857-0.257-1.284c0.281-0.425,0.866-0.535,1.28-0.258c0.101,0.063,2.438,1.635,4.792,4.874
							c0.298,0.412,0.208,0.991-0.206,1.293C453.164,441.24,452.816,441.269,452.527,441.143z"/>
						<path fill="#FFFFFF" d="M448.022,443.514c-0.147-0.063-0.281-0.167-0.382-0.305c-2.146-2.948-4.297-4.406-4.32-4.421
							c-0.423-0.283-0.537-0.857-0.253-1.282c0.281-0.426,0.863-0.536,1.278-0.258c0.1,0.064,2.438,1.636,4.791,4.871
							c0.301,0.415,0.21,0.993-0.203,1.294C448.661,443.612,448.313,443.64,448.022,443.514z"/>
					</g>
				</g>
				<g>
					<g>
						<g>
							<path fill="#F79184" d="M470.597,192.892c0,0,19.367,18.911,20.37,56.915c1.158,43.844-2.466,171.578-2.466,171.578
								l-38.778-1.016l-19.997-227.022L470.597,192.892z"/>
						</g>
					</g>
					<polyline fill="none" stroke="#F96C63" stroke-width="0.9969" stroke-miterlimit="10" points="441.719,327.281 
						434.695,256.607 424.668,244.711 					"/>
				</g>
			</g>
		</g>
		<g>
			<g>
				<path fill="#FFFFFF" d="M473.551,125.083l-24.119-1.396l-17.061,2.031l-10.366,4.374c-1.667,0.713-2.715,2.386-2.628,4.196
					l0.284,6.025l0,0c0,0-7.87,26.415,1.53,32.5l0.97,20.615l49.588-0.55l7.508-49.88
					C479.341,139.741,476.803,125.335,473.551,125.083z"/>
				<path fill="none" stroke="#E2E2E2" stroke-width="0.7601" stroke-miterlimit="10" d="M416.168,165.425
					c0,0-1.785-10.11,1.548-16.69"/>
			</g>
			<g>
				<g>
					<path fill="#F9C0B2" d="M494.773,152.487l-24.812,13.489c5.753,12.089,10.421,18.515,12.655,25.826
						c2.518,8.247,8.888,14.793,16.905,11.625l0,0c7.4-2.926,11.152-11.189,8.484-18.686L494.773,152.487z"/>
					<g>
						<g>
							<path fill="#FFFFFF" d="M488.041,133.408c-4.603-7.281-11.568-9.574-18.483-7.703c-7.463,2.022-7.272,19.379-5.033,26.781
								c1.604,5.299,1.091,4.355,5.438,13.489l27.547-14.005L488.041,133.408z"/>
						</g>
						
							<line fill="none" stroke="#E2E2E2" stroke-width="0.7601" stroke-miterlimit="10" x1="469.962" y1="165.976" x2="463.879" y2="155.457"/>
					</g>
				</g>
				<g>
					<path fill="#F9C0B2" d="M464.656,243.536l21.079-58.745c3.354-6.167,11.18-8.282,17.182-4.645l0,0
						c6.072,3.68,7.778,11.721,3.722,17.548l-31.08,54.008L464.656,243.536z"/>
					<g>
						<circle fill="#F9C0B2" cx="467.36" cy="249.134" r="12.639"/>
						<path fill="#F9C0B2" d="M455.809,252.161c0,0-4.938,0.703-3.388-5.746c1.55-6.447,6.458-12.261,18.826-9.305L455.809,252.161z
							"/>
					</g>
				</g>
			</g>
		</g>
		<g>
			<path fill="#CE5137" d="M427.215,63.703c0,0-15.919-1.421-15.975,17.395c-0.042,14.042-3.635,30.414-8.517,38.72
				c9.573,0.671,41.229-0.044,30.077,0.167c-8.209,0.157,14.393,5.226,34.792-4.74c0,0,4.664-10.853,3.789-24.589
				c-0.871-13.734-6.978-24.039-14.225-28.69C449.907,57.315,433.603,57.546,427.215,63.703z"/>
			<path fill="#CE5137" d="M420.928,62.259c0,0,32.724-10.478,42.846,5.71c7.347,11.744,0.303,33.935-14.941,40.788
				c-14.524,6.527-12.513-41.849-12.513-41.849L420.928,62.259z"/>
			<circle fill="#ED998A" cx="420.434" cy="95.586" r="7.238"/>
			<path fill="#F9C0B2" d="M429.605,112.132l1.941,15.652c0.671,5.499,4.419,8.024,9.824,7.321l0,0
				c4.616-0.601,8.641-3.546,8.617-8.2l-4.241-24.486L429.605,112.132z"/>
			<path fill="#0D191B" d="M430.847,122.331c0,0,14.378-4.325,17.219-17.237l-18.691,5.438L430.847,122.331z"/>
			<path fill="#F9C0B2" d="M434.539,114.385L434.539,114.385c-9.28,0.584-17.385-6.265-18.116-13.828l-1.619-17.854
				c-0.919-9.481,5.848-17.978,15.293-19.208l0,0c9.668-1.257,20.22,5.34,21.477,15.007l1.147,14.376
				C453.606,103.994,445.6,112.945,434.539,114.385z"/>
			<g>
				<circle fill="#F9C0B2" cx="457.162" cy="92.118" r="7.236"/>
			</g>
			<g>
				
					<polyline fill="none" stroke="#1B142E" stroke-width="0.533" stroke-linecap="round" stroke-linejoin="round" stroke-miterlimit="10" points="
					424.886,97.938 424.772,99.983 427.2,99.971 				"/>
				<path fill="#832211" d="M435.563,85.336c0,0-4.027-0.167-3.995,1.52c0,0,0.053,1.144,3.563,1.22
					c3.512,0.076,4.412-0.229,4.685-1.315C440.091,85.673,437.447,85.265,435.563,85.336z"/>
				<path fill="#832211" d="M418.76,85.98c0,0,3.298-0.496,3.637,1.078c0,0,0.203,1.067-2.687,1.433
					c-2.891,0.367-3.85,0.028-4.162-0.828C415.196,86.696,417.186,86.074,418.76,85.98z"/>
				<path fill="#FFFFFF" d="M423.357,103.691l10.575-0.207c0,0-0.084,3.213-5.045,3.501
					C424.037,107.267,423.357,103.691,423.357,103.691z"/>
				
					<path fill="none" stroke="#1A172C" stroke-width="0.6522" stroke-linecap="round" stroke-linejoin="round" stroke-miterlimit="10" d="
					M432.232,92.628c0,0,1.752-2.499,4.995-0.083"/>
				
					<path fill="none" stroke="#1A172C" stroke-width="0.623" stroke-linecap="round" stroke-linejoin="round" stroke-miterlimit="10" d="
					M418.119,93.348c0,0,1.666-2.65,3.99-0.174"/>
			</g>
			<path fill="#CE5137" d="M420.928,62.259c0,0-14.859,4.336-11.105,21.431l47.341-2.924l-5.217-16.359L420.928,62.259z"/>
			<path fill="#CE5137" d="M444.999,79.235c0,0,4.254,20.522-0.323,44.038c0,0,8.543-1.228,16.504-5.335
				c0,0-2.353-30.048-6.392-39.692c-4.038-9.642-9.619-3.661-9.619-3.661L444.999,79.235z"/>
			<g>
				<path fill="#F9C0B2" d="M432.709,125.253l-5.507,2.646c0,0-7.916,13.288,7.685,13.793c18.815,0.612,20.352-10.258,23.354-17.537
					l-9.616-0.919L432.709,125.253z"/>
			</g>
		</g>
	</g>
	<g>
		<g>
			<g>
				<g>
					<g>
						<path fill="#FFFFFF" d="M56.874,147.948h85.102c3.883,0,7.029-3.146,7.029-7.03V84.49c0-3.883-3.146-7.03-7.029-7.03H56.874
							c-3.883,0-7.031,3.146-7.031,7.03v56.428C49.843,144.801,52.991,147.948,56.874,147.948z"/>
						<path fill="#FFFFFF" d="M135.65,142.18l-7.612,14.78c-0.942,1.83-3.523,1.923-4.594,0.167l-9.124-14.948H135.65z"/>
					</g>
				</g>
				<g>
					<rect x="75.086" y="97.401" fill="#1B80B8" width="47.416" height="29.692"/>
					
						<polyline fill="none" stroke="#FFFFFF" stroke-width="1.1455" stroke-linecap="round" stroke-linejoin="round" stroke-miterlimit="10" points="
						75.086,97.401 98.103,112.407 122.502,97.401 					"/>
				</g>
			</g>
			<g>
				<g>
					<path fill="#1B80B8" d="M321.469,148.735h-42.696v-21.6c0-1.791,1.452-3.243,3.241-3.243h39.455
						c1.788,0,3.241,1.452,3.241,3.243v18.357C324.71,147.282,323.257,148.735,321.469,148.735z"/>
					<polygon fill="#1B80B8" points="278.774,143.594 278.74,154.57 288.114,143.624 					"/>
					<g>
						<circle fill="#FFFFFF" cx="311.554" cy="136.038" r="2.068"/>
						<circle fill="#FFFFFF" cx="302.683" cy="136.01" r="2.068"/>
						<circle fill="#FFFFFF" cx="293.813" cy="135.983" r="2.069"/>
					</g>
				</g>
			</g>
		</g>
		<g>
			<g>
				<g>
					<g>
						<path fill="#0D191B" d="M190.462,287.926c-1.545,1.325-21.987,12.37-34.358,28.277l24.702,22.754l40.884-9.803l2.409-41.229
							H190.462z"/>
						<g>
							<g>
								<polygon fill="#F2AFA3" points="183.963,436.352 179.597,413.235 194.504,413.235 196.298,436.352 								"/>
								<g>
									<path d="M196.298,434.156h-12.335c0,0-8.59,5.409-10.817,14.956h34.682C207.828,449.112,202.131,436.809,196.298,434.156z"
										/>
									<rect x="173.146" y="449.112" fill="#FFFFFF" width="34.682" height="4.284"/>
									
										<path fill="none" stroke="#FFFFFF" stroke-width="0.9579" stroke-linecap="round" stroke-linejoin="round" stroke-miterlimit="10" d="
										M183.497,440.002c0,0,7.304-3.845,12.801,0"/>
								</g>
							</g>
							<path fill="#0D191B" d="M188.623,324.42c4.868,34.135,13.259,98.235,13.259,98.235l-28.879,0.535l-19.95-92.309
								c-2.205-9.999,4.323-19.834,14.395-21.685l0,0C177.552,307.338,187.173,314.246,188.623,324.42z"/>
						</g>
					</g>
					<g>
						<path fill="#0D191B" d="M252.586,287.926c1.548,1.325,21.988,12.37,34.358,28.277l-24.702,22.754l-40.883-9.803l-2.408-41.229
							H252.586z"/>
						<g>
							<g>
								<polygon fill="#F2AFA3" points="257.395,436.352 261.76,413.235 246.853,413.235 245.06,436.352 								"/>
								<g>
									<path d="M245.06,434.156h12.335c0,0,8.592,5.409,10.817,14.956h-34.682C233.529,449.112,239.227,436.809,245.06,434.156z"
										/>
									<rect x="233.529" y="449.112" fill="#FFFFFF" width="34.682" height="4.284"/>
									
										<path fill="none" stroke="#FFFFFF" stroke-width="0.9579" stroke-linecap="round" stroke-linejoin="round" stroke-miterlimit="10" d="
										M257.861,440.002c0,0-7.305-3.845-12.801,0"/>
								</g>
							</g>
							<path fill="#0D191B" d="M254.426,324.42c-4.868,34.135-15.333,98.235-15.333,98.235l28.879,0.535l22.025-92.309
								c2.204-9.999-4.323-19.834-14.395-21.685l0,0C265.498,307.338,255.878,314.246,254.426,324.42z"/>
						</g>
					</g>
				</g>
				<g>
					<g>
						<path fill="#1B80B8" d="M217.798,193.396c0,0-26.114,0-45.34,18.907v52.986c0,0,92.004,1.398,92.004,0
							c0-1.402,0.023-56.489,0.023-56.489S245.666,193.396,217.798,193.396z"/>
						<g>
							<g>
								<path fill="#E88E80" d="M178.947,262.328h-26.232c-6.887,0-12.471,5.586-12.471,12.473l0,0
									c0,6.888,5.583,12.471,12.471,12.471h30.858L178.947,262.328z"/>
								<polygon fill="#E88E80" points="141.786,268.788 159.409,240.165 183.573,243.425 179.989,274.801 								"/>
								
									<line fill="none" stroke="#55382C" stroke-width="0.7184" stroke-miterlimit="10" x1="172.458" y1="262.328" x2="156.869" y2="262.328"/>
							</g>
							<path fill="#1B80B8" d="M176.347,208.8c0,0-14.194,11.461-29.159,36.694c0,0,3.229,14.602,31.102,16.834L176.347,208.8z"/>
						</g>
						<g>
							<g>
								<path fill="#E88E80" d="M261.056,262.328h26.232c6.887,0,12.471,5.586,12.471,12.473l0,0
									c0,6.888-5.583,12.471-12.471,12.471h-30.858L261.056,262.328z"/>
								<polygon fill="#E88E80" points="298.147,268.664 276.094,234.915 256.429,243.425 260.014,274.801 								"/>
								
									<line fill="none" stroke="#55382C" stroke-width="0.7184" stroke-miterlimit="10" x1="262.544" y1="262.328" x2="283.134" y2="262.328"/>
							</g>
							<path fill="#1B80B8" d="M264.485,208.8c0,0,14.196,11.461,29.158,36.694c0,0-3.227,14.602-31.1,16.834L264.485,208.8z"/>
						</g>
					</g>
					<g>
						<path fill="#E9C8CE" d="M260.287,287.271h-83.654c-2.306,0-4.175-1.869-4.175-4.175v-52.813c0-2.306,1.869-4.173,4.175-4.173
							h83.654c2.305,0,4.175,1.868,4.175,4.173v52.813C264.462,285.402,262.592,287.271,260.287,287.271z"/>
						<circle fill="#FFFFFF" cx="218.46" cy="256.69" r="5.639"/>
					</g>
				</g>
				<g>
					<path fill="#E88E80" d="M221.493,202.453h-6.1c-3.898,0-7.059-3.159-7.059-7.059v-13.159h20.217v13.159
						C228.551,199.294,225.393,202.453,221.493,202.453z"/>
					<path fill="#111110" d="M208.391,183.097c0,0,2.935,9.06,20.16,8.744v-12.506l0,0c0,0-1.149,2.327-8.824,2.001
						C211.978,181.003,208.391,183.097,208.391,183.097z"/>
					<ellipse fill="#0D191B" cx="218.278" cy="148.315" rx="25.099" ry="25.746"/>
					<g>
						<g>
							<path fill="#E88E80" d="M239.972,157.708c0,0,1.806-2.873,5.535-1.458c3.726,1.412,2.041,10.465-3.551,11.619
								c0,0-2.005,0.436-3.577-0.936C238.379,166.933,239.754,160.246,239.972,157.708z"/>
							<g>
								<g>
									
										<path fill="none" stroke="#0E1933" stroke-width="0.4606" stroke-linecap="round" stroke-linejoin="round" stroke-miterlimit="10" d="
										M244.767,159.442c0,0-3.123-1.042-5.339,3.554"/>
								</g>
							</g>
						</g>
						<g>
							<path fill="#E88E80" d="M197.17,157.708c0,0-1.809-2.873-5.535-1.458c-3.729,1.412-2.041,10.465,3.548,11.619
								c0,0,2.005,0.436,3.576-0.936C198.76,166.933,197.386,160.246,197.17,157.708z"/>
							<g>
								<g>
									
										<path fill="none" stroke="#0E1933" stroke-width="0.4606" stroke-linecap="round" stroke-linejoin="round" stroke-miterlimit="10" d="
										M192.375,159.442c0,0,3.121-1.042,5.337,3.554"/>
								</g>
							</g>
						</g>
						<path fill="#E88E80" d="M240.323,149.908c0.002,5.801-0.599,17.938-4.359,25.14c-3.529,6.764-9.368,10.404-17.024,10.622
							c-7.656,0.216-13.359-2.583-17.929-11.361c-4.571-8.778-4.353-24.293-4.353-24.293s0-20.724,21.596-20.724
							C240.999,129.292,240.323,149.908,240.323,149.908z"/>
					</g>
					<path fill="#0D191B" d="M197.17,157.708c0,0,8.202-18.758,1.59-21.826C198.76,135.881,194.03,152.027,197.17,157.708z"/>
					<path fill="#0D191B" d="M239.904,157.708c0,0-4.609-10.111-0.542-17.393C239.362,140.314,243.044,152.027,239.904,157.708z"/>
					<g>
						<g>
							<circle fill="#0D191B" cx="208.925" cy="162.279" r="1.973"/>
							<circle fill="#0D191B" cx="227.203" cy="162.279" r="1.973"/>
						</g>
						
							<path fill="none" stroke="#0E1933" stroke-width="0.4606" stroke-linecap="round" stroke-linejoin="round" stroke-miterlimit="10" d="
							M217.074,166.579l0.002,2.666c0.002,0.671,0.597,1.175,1.234,1.04l1.417-0.297"/>
						<path fill="#0D191B" d="M214.792,156.162l-11.967,1.438c0,0,0.961-3.174,5.85-3.718
							C213.564,153.337,214.792,156.162,214.792,156.162z"/>
						<path fill="#0D191B" d="M221.69,156.162l11.964,1.438c0,0-0.961-3.174-5.85-3.718
							C222.916,153.337,221.69,156.162,221.69,156.162z"/>
						<path fill="#FFFFFF" d="M212.084,173.339h12.081c0,0,0.204,4.498-6.057,4.232
							C211.849,177.307,212.084,173.339,212.084,173.339z"/>
					</g>
					<path fill="#0D191B" d="M198.76,135.881c0,0,13.489,16.343,42.036,10.914c0,0,2.515-14.772-12.245-19.286
						C213.794,122.996,202.281,133.664,198.76,135.881z"/>
					<path fill="#0D191B" d="M198.76,135.881c0,0-0.277-13.413,12.138-15.422c12.418-2.012,12.814,4.632,21.604,5.16
						c13.12,0.788,19.106,13.692,8.293,21.176l-18.25-10.914H198.76z"/>
					<path fill="#0D191B" d="M199.228,131.985c0,0-13.525,1.663-5.166,23.12L199.228,131.985z"/>
					<g>
						<polygon fill="#FFFFFF" points="208.334,191.259 218.277,202.453 210.898,210.003 201.445,195.659 						"/>
						<polygon fill="#FFFFFF" points="228.551,191.841 218.277,202.453 225.658,210.003 236.214,195.644 						"/>
					</g>
				</g>
			</g>
			<g>
				<g>
					<rect x="73.335" y="287.271" fill="#FFFFFF" width="287.53" height="15.926"/>
					<g>
						<rect x="118.166" y="303.197" fill="#FFFFFF" width="9.995" height="150.737"/>
						<rect x="118.166" y="303.197" fill="#EAEAEA" width="9.995" height="5.026"/>
					</g>
					<g>
						<rect x="313.658" y="303.197" fill="#FFFFFF" width="9.995" height="150.737"/>
						<rect x="313.658" y="303.197" fill="#EAEAEA" width="9.995" height="5.026"/>
					</g>
				</g>
				
					<line fill="none" stroke="#55382E" stroke-width="1.1466" stroke-miterlimit="10" x1="570.538" y1="454.822" x2="21.328" y2="454.822"/>
			</g>
		</g>
	</g>
</g>
</svg>
