<?xml version="1.0" encoding="utf-8"?>
<!-- Generator: Adobe Illustrator 16.0.0, SVG Export Plug-In . SVG Version: 6.00 Build 0)  -->
<!DOCTYPE svg PUBLIC "-//W3C//DTD SVG 1.1//EN" "http://www.w3.org/Graphics/SVG/1.1/DTD/svg11.dtd">
<svg version="1.1" id="Layer_1" xmlns="http://www.w3.org/2000/svg" xmlns:xlink="http://www.w3.org/1999/xlink" x="0px" y="0px"
	 width="947.258px" height="625.926px" viewBox="0 0 947.258 625.926" enable-background="new 0 0 947.258 625.926"
	 xml:space="preserve">
<rect x="434.555" y="275.219" fill="#FFFFFF" width="290.464" height="183.842"/>
<linearGradient id="SVGID_1_" gradientUnits="userSpaceOnUse" x1="-4080.4443" y1="687.4282" x2="-4558.1279" y2="91.4334" gradientTransform="matrix(-1 0 0 1 -3799.2461 0)">
	<stop  offset="0" style="stop-color:#FFFFFF"/>
	<stop  offset="0.9995" style="stop-color:#F3E9D4"/>
</linearGradient>
<path fill="url(#SVGID_1_)" d="M815.237,610.544c5.795-11.376,11.59-22.752,17.384-34.129
	c44.167-86.71,97.851-161.409,93.146-263.313c-4.333-93.874-46.43-185.219-124.601-240.013
	c-89.911-63.02-228.125-73.767-317.16-2.676c-37.768,30.156-62.833,73.977-98.143,106.898
	c-40.084,37.372-92.33,55.407-143.96,70.419c-36.422,10.59-72.743,23.271-104.369,44.213
	C22.71,367.979,61.058,497.149,89.956,607.875L815.237,610.544z"/>
<g>
	<g>
		<path fill="#F3E9D4" d="M199.11,274.311c0,0-3.441-16.539-0.162-26.599s6.499-12.74,11.858-13.42
			c5.36-0.68,7.911,7.849,5.971,13.289C214.838,253.021,210.468,261.87,199.11,274.311z"/>
	</g>
	<g>
		<path fill="#F3E9D4" d="M189.829,263.612c0,0-13.641-9.964-17.953-19.627c-4.312-9.662-3.719-13.81-0.199-17.907
			c3.521-4.099,11.131,0.521,13.339,5.856C187.225,237.271,189.917,246.767,189.829,263.612z"/>
	</g>
	<g>
		<path fill="#F3E9D4" d="M207.378,292.281c0,0,1.325-18.895,7.926-28.751c6.602-9.856,10.893-11.768,16.883-10.87
			c5.991,0.898,6.146,10.879,2.396,16.158C230.833,274.097,223.424,282.316,207.378,292.281z"/>
	</g>
	<g>
		<path fill="#F3E9D4" d="M215.637,298.699c0,0,8.737-16.806,18.717-23.219c9.98-6.413,14.678-6.458,19.815-3.25
			c5.138,3.209,1.306,12.426-4.235,15.776C244.393,291.356,234.323,295.946,215.637,298.699z"/>
	</g>
	<g>
		<path fill="#F3E9D4" d="M215.029,306.241c0,0,10.654-4.112,17.725-3.03c7.071,1.082,9.212,2.936,10.255,6.436
			c1.042,3.5-4.367,6.139-8.209,5.442S224.576,312.452,215.029,306.241z"/>
	</g>
	<g>
		<path fill="#F3E9D4" d="M193.684,276.781c0,0-9.585-13.911-19.125-18.487c-9.54-4.576-13.702-4.098-17.896-0.692
			c-4.193,3.407,0.214,11.142,5.487,13.496C167.425,273.452,176.843,276.404,193.684,276.781z"/>
	</g>
	<g>
		<path fill="#F3E9D4" d="M200.971,295.171c0,0-14.58-12.092-26.268-14.124c-11.688-2.033-16.034-0.25-19.521,4.703
			c-3.487,4.953,3.624,11.958,10.032,12.892S182.683,299.894,200.971,295.171z"/>
	</g>
	<g>
		<path fill="#F3E9D4" d="M199.909,305.576c0,0-18.188-5.288-29.719-2.499c-11.531,2.789-14.808,6.155-16.035,12.086
			c-1.228,5.932,8.084,9.525,14.334,7.832C174.739,321.301,185.013,317.189,199.909,305.576z"/>
	</g>
	<g>
		<path fill="#F3E9D4" d="M205.783,310.345c0,0-10.333,4.866-14.433,10.727c-4.101,5.861-4.239,8.69-2.428,11.861
			c1.812,3.172,7.456,1.082,9.605-2.178C200.677,327.497,203.681,321.539,205.783,310.345z"/>
	</g>
	<g>
		<path fill="#F3E9D4" d="M186.819,257.286c0.607,1.432,1.513,3.49,2.675,6.08c1.648,3.67,3.808,8.407,6.357,13.945
			c0.324,0.704,0.654,1.425,0.989,2.155c0.103,0.22,0.202,0.437,0.305,0.657c0.118,0.255,0.236,0.514,0.354,0.773
			c2.011,4.351,4.216,9.107,6.57,14.171c0.167,0.363,0.334,0.726,0.506,1.093c0.095,0.203,0.19,0.411,0.286,0.618
			c0.004,0,0.004,0,0.004,0c0.061,0.13,0.117,0.259,0.178,0.389c1.128,2.416,2.283,4.9,3.468,7.432
			c0.061,0.134,0.122,0.268,0.187,0.402c0.004,0.013,0.012,0.026,0.019,0.043c0.103,0.225,0.209,0.45,0.316,0.674
			c0.118,0.259,0.24,0.523,0.366,0.787c0.027,0.056,0.054,0.112,0.08,0.173c12.314,26.363,27.22,57.951,38.938,82.483
			c0.199,0.415,0.397,0.83,0.596,1.245c8.513,17.83,15.26,31.745,17.944,36.897l1.354-0.849c-2.614-5.022-9.139-18.478-17.413-35.79
			c-0.199-0.41-0.397-0.829-0.6-1.249c-11.756-24.618-26.88-56.651-39.339-83.327c-0.088-0.19-0.176-0.376-0.263-0.566
			c-0.133-0.281-0.263-0.558-0.393-0.838c-0.057-0.125-0.118-0.251-0.175-0.376c-0.023-0.051-0.046-0.099-0.068-0.151
			c-0.153-0.32-0.301-0.644-0.455-0.964c-1.097-2.355-2.172-4.663-3.224-6.914c-0.259-0.558-0.519-1.115-0.773-1.664
			c-2.442-5.254-4.724-10.179-6.791-14.659c-0.373-0.808-0.739-1.599-1.097-2.372c-3.398-7.382-6.132-13.389-7.917-17.424
			c-0.596-1.347-1.083-2.468-1.457-3.352C187.95,255.869,186.416,256.333,186.819,257.286z"/>
	</g>
	<g>
		<g>
			<path fill="#F3E9D4" d="M189.942,275.096c1.798,1.696,4.122,2.639,5.946,4.292c0.764,0.693,1.862-0.472,1.098-1.165
				c-1.826-1.656-4.153-2.601-5.947-4.293C190.289,273.222,189.192,274.388,189.942,275.096L189.942,275.096z"/>
		</g>
	</g>
	<g>
		<g>
			<path fill="#F3E9D4" d="M199.47,270.012c-0.773,3.352-1.546,6.702-2.319,10.053c-0.232,1.007,1.337,1.367,1.562,0.351
				c0.772-3.349,1.545-6.696,2.317-10.045C201.261,269.368,199.702,269.007,199.47,270.012L199.47,270.012z"/>
		</g>
	</g>
	<g>
		<g>
			<path fill="#F3E9D4" d="M207.378,289.544c-0.318,1.997-1.13,4.631-2.575,6.111c-0.722,0.739,0.445,1.835,1.165,1.098
				c1.633-1.672,2.609-4.586,2.97-6.849C209.099,288.893,207.541,288.525,207.378,289.544L207.378,289.544z"/>
		</g>
	</g>
	<g>
		<g>
			<path fill="#F3E9D4" d="M197.418,294.976c1.113,0.433,2.297,0.659,3.455,0.935c0.69,0.164,2.996,0.525,3.234,0.944
				c0.509,0.898,1.865,0.047,1.357-0.849c-0.506-0.892-2.071-1.113-2.956-1.343c-1.421-0.369-2.956-0.563-4.328-1.096
				C197.23,293.199,196.46,294.604,197.418,294.976L197.418,294.976z"/>
		</g>
	</g>
	<g>
		<g>
			<path fill="#F3E9D4" d="M218.347,296.058c-1.807,1.111-3.636,2.256-5.253,3.635c-1.474,1.256-2.579,2.949-4.186,4.045
				c-0.85,0.58-0.005,1.939,0.849,1.357c1.437-0.98,2.495-2.374,3.723-3.586c1.659-1.636,3.74-2.879,5.715-4.094
				C220.075,296.875,219.226,295.517,218.347,296.058L218.347,296.058z"/>
		</g>
	</g>
	<g>
		<g>
			<path fill="#F3E9D4" d="M196.745,306.969c2.358-0.747,5.03-0.331,7.4-0.531c1.74-0.147,3.469,0.064,5.207,0.242
				c1.069,0.109,1.009-1.533-0.026-1.597c-4.079-0.25-9.102-0.897-13.057,0.356C195.287,305.751,195.759,307.281,196.745,306.969
				L196.745,306.969z"/>
		</g>
	</g>
	<g>
		<g>
			<path fill="#F3E9D4" d="M217.312,305.436c-2.635-0.471-5.303-0.703-7.92-1.279c-1.005-0.221-1.368,1.338-0.36,1.56
				c2.617,0.576,5.285,0.808,7.92,1.279C217.962,307.177,218.329,305.618,217.312,305.436L217.312,305.436z"/>
		</g>
	</g>
	<g>
		<g>
			<path fill="#F3E9D4" d="M204.7,313.024c0.345-1.547,1.528-2.979,2.513-4.167c0.966-1.168,2.031-2.407,3.33-3.214
				c0.877-0.544,0.028-1.902-0.848-1.357c-1.544,0.959-2.821,2.431-3.942,3.836c-1.063,1.333-2.233,2.844-2.613,4.542
				C202.916,313.668,204.475,314.031,204.7,313.024L204.7,313.024z"/>
		</g>
	</g>
</g>
<g>
	<g>
		<path fill="#F3E9D4" d="M162.542,375.059c0,0-11.404-4.487-16.205-10.476s-5.147-9.007-3.43-12.53
			c1.717-3.522,7.907-1.681,10.437,1.659S159.509,363.221,162.542,375.059z"/>
	</g>
	<g>
		<path fill="#F3E9D4" d="M152.361,376.437c0,0-11.469,4.317-19.045,3.093c-7.577-1.225-9.858-3.232-10.946-6.998
			c-1.087-3.765,4.741-6.548,8.856-5.766C135.342,367.547,142.174,369.688,152.361,376.437z"/>
	</g>
	<g>
		<path fill="#F3E9D4" d="M176.733,377.184c0,0-10.939-8.313-14.296-16.238c-3.356-7.924-2.811-11.287,0.115-14.565
			c2.927-3.277,9.044,0.596,10.757,4.97C175.023,355.723,177.065,363.487,176.733,377.184z"/>
	</g>
	<g>
		<path fill="#F3E9D4" d="M183.91,374.723c0,0-6.725-11.981-6.649-20.586c0.076-8.605,1.915-11.474,5.905-13.316
			c3.989-1.842,8.059,4.147,7.889,8.841C190.885,354.357,189.667,362.291,183.91,374.723z"/>
	</g>
	<g>
		<path fill="#F3E9D4" d="M188.245,378.09c0,0,1.74-8.1,5.207-11.96s5.443-4.423,7.982-3.665c2.539,0.76,1.989,5.091,0.04,7.146
			C199.524,371.665,195.808,374.766,188.245,378.09z"/>
	</g>
	<g>
		<path fill="#F3E9D4" d="M161.884,379.333c0,0-12.251,0.287-18.819,4.257c-6.569,3.97-7.934,6.686-7.534,10.584
			c0.4,3.899,6.846,4.299,10.371,2.035C149.427,393.944,154.961,389.402,161.884,379.333z"/>
	</g>
	<g>
		<path fill="#F3E9D4" d="M175.94,382.221c0,0-13.133,4.04-19.012,10.325c-5.879,6.284-6.525,9.63-4.906,13.715
			s8.696,2.555,11.81-0.963C166.947,401.782,171.536,395.195,175.94,382.221z"/>
	</g>
	<g>
		<path fill="#F3E9D4" d="M181.832,387.001c0,0-10.438,8.935-13.329,17.04s-2.151,11.432,0.96,14.534
			c3.112,3.104,8.994-1.119,10.451-5.585C181.369,408.525,182.958,400.657,181.832,387.001z"/>
	</g>
	<g>
		<path fill="#F3E9D4" d="M187.061,385.333c0,0-1.155,8.204,0.771,13.022c1.927,4.817,3.588,6.025,6.233,6.188
			c2.645,0.161,3.62-4.094,2.496-6.694C195.438,395.248,193.018,391.057,187.061,385.333z"/>
	</g>
	<g>
		<path fill="#F3E9D4" d="M147.326,375.75c1.108,0.198,2.715,0.47,4.75,0.791c2.88,0.461,6.612,1.032,10.989,1.69
			c0.557,0.082,1.122,0.166,1.7,0.254h0.004c0.167,0.025,0.339,0.051,0.511,0.076c0.004,0,0.004,0,0.008,0
			c0.201,0.031,0.402,0.063,0.607,0.09c0.004,0,0.004,0,0.004,0c3.435,0.514,7.197,1.065,11.206,1.65
			c0.285,0.039,0.574,0.084,0.863,0.123c0,0.005,0.004,0.001,0.004,0.001c0.159,0.024,0.322,0.045,0.481,0.07
			c0.104,0.014,0.209,0.031,0.314,0.045c1.915,0.277,3.879,0.562,5.891,0.853h0.004c0.1,0.018,0.205,0.031,0.31,0.045
			c0.008,0.005,0.021,0.006,0.033,0.006c0.176,0.025,0.356,0.052,0.537,0.077c0.205,0.032,0.41,0.06,0.62,0.091h0.004
			c0.046,0.006,0.092,0.014,0.138,0.02c11.48,1.65,24.232,3.455,36.633,5.187c9.094,1.265,17.997,2.492,26.074,3.589
			c0.633,0.087,1.262,0.174,1.886,0.259c-0.199-0.41-0.397-0.829-0.6-1.249c-0.62-0.086-1.249-0.169-1.882-0.255
			c-8.375-1.137-17.608-2.409-27.004-3.725c-11.843-1.652-23.941-3.364-34.881-4.938c-0.146-0.023-0.297-0.044-0.449-0.064
			c-0.222-0.032-0.44-0.064-0.662-0.097c-0.096-0.013-0.197-0.025-0.298-0.04h-0.004c-0.033-0.01-0.071-0.012-0.109-0.018
			c-0.004,0-0.004,0-0.008-0.001c-0.251-0.038-0.503-0.071-0.758-0.109h-0.004c-1.864-0.271-3.691-0.536-5.476-0.794
			c-0.444-0.064-0.884-0.129-1.319-0.192h-0.004c-4.161-0.605-8.048-1.176-11.588-1.704c-0.637-0.095-1.265-0.189-1.876-0.278
			c-5.822-0.87-10.555-1.601-13.715-2.118h-0.004c-1.051-0.176-1.929-0.325-2.615-0.452
			C146.916,374.498,146.59,375.616,147.326,375.75z"/>
	</g>
	<g>
		<g>
			<path fill="#F3E9D4" d="M159.374,380.934c1.744-0.418,3.24-1.454,4.969-1.902c0.725-0.188,0.454-1.318-0.271-1.13
				c-1.73,0.45-3.229,1.485-4.969,1.901C158.375,379.978,158.647,381.108,159.374,380.934L159.374,380.934z"/>
		</g>
	</g>
	<g>
		<g>
			<path fill="#F3E9D4" d="M160.077,373.131c1.727,1.801,3.453,3.602,5.179,5.402c0.519,0.542,1.361-0.267,0.833-0.808
				c-1.725-1.8-3.449-3.599-5.174-5.399C160.398,371.789,159.56,372.59,160.077,373.131L160.077,373.131z"/>
		</g>
	</g>
	<g>
		<g>
			<path fill="#F3E9D4" d="M175.073,376.097c1.085,0.986,2.361,2.526,2.684,3.991c0.162,0.731,1.291,0.458,1.129-0.271
				c-0.365-1.655-1.746-3.406-2.975-4.524C175.361,374.792,174.519,375.592,175.073,376.097L175.073,376.097z"/>
		</g>
	</g>
	<g>
		<g>
			<path fill="#F3E9D4" d="M174.409,384.299c0.705-0.504,1.313-1.132,1.94-1.725c0.375-0.354,1.51-1.609,1.859-1.587
				c0.748,0.048,0.77-1.113,0.025-1.161c-0.743-0.048-1.499,0.814-1.99,1.26c-0.789,0.717-1.517,1.569-2.386,2.191
				C173.257,383.707,173.803,384.733,174.409,384.299L174.409,384.299z"/>
		</g>
	</g>
	<g>
		<g>
			<path fill="#F3E9D4" d="M183.385,372.029c-0.044,1.539-0.076,3.104,0.118,4.634c0.176,1.394,0.765,2.736,0.791,4.147
				c0.014,0.746,1.175,0.774,1.161,0.024c-0.023-1.262-0.448-2.457-0.695-3.685c-0.333-1.657-0.261-3.414-0.213-5.096
				C184.568,371.305,183.406,371.281,183.385,372.029L183.385,372.029z"/>
		</g>
	</g>
	<g>
		<g>
			<path fill="#F3E9D4" d="M181.419,389.475c0.484-1.729,1.799-3.184,2.62-4.701c0.603-1.114,1.418-2.08,2.216-3.063
				c0.492-0.605-0.529-1.222-0.979-0.618c-1.773,2.376-4.162,5.166-4.974,8.064C180.101,389.875,181.217,390.197,181.419,389.475
				L181.419,389.475z"/>
		</g>
	</g>
	<g>
		<g>
			<path fill="#F3E9D4" d="M188.665,376.385c-1.333,1.412-2.535,2.938-3.924,4.298c-0.534,0.522,0.268,1.361,0.803,0.838
				c1.39-1.358,2.591-2.886,3.924-4.297C189.98,376.683,189.179,375.841,188.665,376.385L188.665,376.385z"/>
		</g>
	</g>
	<g>
		<g>
			<path fill="#F3E9D4" d="M188.255,387.054c-0.801-0.824-1.2-2.111-1.53-3.182c-0.324-1.051-0.653-2.189-0.626-3.298
				c0.018-0.748-1.144-0.772-1.162-0.024c-0.031,1.318,0.354,2.678,0.762,3.916c0.386,1.176,0.837,2.486,1.717,3.392
				C187.938,388.394,188.777,387.591,188.255,387.054L188.255,387.054z"/>
		</g>
	</g>
</g>
<g>
	<g>
		<path fill="#F3DBAF" d="M829.358,460.267c0,0,3.356-16.556,0.026-26.599s-6.563-12.707-11.926-13.359
			c-5.363-0.654-7.871,7.889-5.903,13.319C813.522,439.058,817.937,447.885,829.358,460.267z"/>
	</g>
	<g>
		<path fill="#F3DBAF" d="M838.585,449.522c0,0,13.591-10.033,17.853-19.718c4.263-9.685,3.649-13.828,0.108-17.908
			c-3.542-4.081-11.129,0.577-13.31,5.925C841.055,423.168,838.412,432.678,838.585,449.522z"/>
	</g>
	<g>
		<path fill="#F3DBAF" d="M821.182,478.28c0,0-1.42-18.888-8.072-28.711c-6.652-9.822-10.952-11.713-16.938-10.783
			c-5.987,0.928-6.09,10.91-2.314,16.169C797.634,460.215,805.086,468.397,821.182,478.28z"/>
	</g>
	<g>
		<path fill="#F3DBAF" d="M812.956,484.739c0,0-8.822-16.761-18.835-23.123c-10.013-6.363-14.71-6.384-19.831-3.149
			c-5.122,3.235-1.244,12.433,4.315,15.755C784.163,477.542,794.256,482.082,812.956,484.739z"/>
	</g>
	<g>
		<path fill="#F3DBAF" d="M813.602,492.278c0,0-10.675-4.059-17.74-2.939c-7.065,1.118-9.197,2.982-10.223,6.488
			c-1.024,3.505,4.398,6.116,8.237,5.4C797.714,500.511,804.087,498.537,813.602,492.278z"/>
	</g>
	<g>
		<path fill="#F3DBAF" d="M834.797,462.71c0,0,9.515-13.96,19.031-18.583c9.517-4.625,13.681-4.168,17.891-0.784
			c4.211,3.386-0.156,11.143-5.418,13.524C861.039,459.249,851.636,462.248,834.797,462.71z"/>
	</g>
	<g>
		<path fill="#F3DBAF" d="M827.604,481.137c0,0,14.519-12.166,26.196-14.257c11.678-2.092,16.031-0.33,19.545,4.604
			c3.513,4.935-3.563,11.976-9.967,12.942C856.976,485.394,845.916,485.767,827.604,481.137z"/>
	</g>
	<g>
		<path fill="#F3DBAF" d="M828.719,491.536c0,0,18.16-5.379,29.705-2.649c11.546,2.731,14.839,6.08,16.097,12.005
			c1.258,5.927-8.035,9.568-14.295,7.905C853.968,507.134,843.674,503.074,828.719,491.536z"/>
	</g>
	<g>
		<path fill="#F3DBAF" d="M822.868,496.336c0,0,10.357,4.813,14.488,10.652c4.13,5.84,4.283,8.668,2.486,11.849
			c-1.794,3.182-7.449,1.119-9.615-2.129C828.061,513.46,825.027,507.518,822.868,496.336z"/>
	</g>
	<g>
		<path fill="#F3DBAF" d="M841.563,443.18c-0.601,1.435-1.495,3.498-2.644,6.094c-1.63,3.678-3.765,8.428-6.287,13.978
			c-0.32,0.705-0.647,1.429-0.978,2.16c-0.103,0.222-0.2,0.438-0.302,0.658c-0.117,0.256-0.233,0.516-0.351,0.775
			c-1.987,4.36-4.169,9.129-6.497,14.204c-0.166,0.364-0.332,0.728-0.501,1.096c-0.095,0.203-0.188,0.412-0.282,0.619
			c-0.005,0-0.005,0-0.005,0c-0.06,0.13-0.116,0.26-0.177,0.39c-1.115,2.422-2.257,4.911-3.43,7.45
			c-0.061,0.134-0.121,0.269-0.185,0.402c-0.004,0.013-0.012,0.026-0.019,0.044c-0.102,0.225-0.208,0.45-0.313,0.676
			c-0.117,0.259-0.237,0.523-0.361,0.788c-0.027,0.057-0.054,0.113-0.079,0.174c-12.181,26.425-26.926,58.089-38.52,82.68
			c-0.197,0.415-0.394,0.832-0.589,1.248c-8.424,17.873-15.101,31.821-17.757,36.986l-1.359-0.84
			c2.588-5.035,9.045-18.524,17.23-35.878c0.196-0.412,0.394-0.832,0.594-1.252c11.632-24.678,26.592-56.788,38.916-83.526
			c0.086-0.189,0.173-0.376,0.26-0.566c0.133-0.282,0.261-0.56,0.388-0.841c0.057-0.125,0.117-0.251,0.174-0.377
			c0.022-0.052,0.045-0.099,0.068-0.151c0.15-0.32,0.298-0.646,0.449-0.966c1.084-2.36,2.147-4.674,3.188-6.931
			c0.257-0.559,0.514-1.117,0.766-1.667c2.415-5.267,4.671-10.203,6.715-14.693c0.37-0.81,0.731-1.602,1.085-2.378
			c3.361-7.398,6.063-13.42,7.829-17.465c0.589-1.35,1.071-2.473,1.439-3.358C840.425,441.77,841.961,442.225,841.563,443.18z"/>
	</g>
	<g>
		<g>
			<path fill="#F3DBAF" d="M838.53,461.006c-1.79,1.704-4.109,2.659-5.925,4.322c-0.76,0.697-1.864-0.463-1.104-1.159
				c1.817-1.665,4.139-2.622,5.924-4.323C838.174,459.134,839.277,460.295,838.53,461.006L838.53,461.006z"/>
		</g>
	</g>
	<g>
		<g>
			<path fill="#F3DBAF" d="M828.977,455.971c0.789,3.347,1.58,6.694,2.37,10.041c0.236,1.006-1.331,1.375-1.561,0.359
				c-0.789-3.345-1.579-6.688-2.368-10.033C827.183,455.336,828.739,454.967,828.977,455.971L828.977,455.971z"/>
		</g>
	</g>
	<g>
		<g>
			<path fill="#F3DBAF" d="M821.168,475.542c0.329,1.996,1.153,4.626,2.606,6.098c0.725,0.735-0.437,1.838-1.16,1.104
				c-1.641-1.663-2.633-4.573-3.005-6.834C819.443,474.9,821,474.524,821.168,475.542L821.168,475.542z"/>
		</g>
	</g>
	<g>
		<g>
			<path fill="#F3DBAF" d="M831.155,480.924c-1.11,0.438-2.293,0.67-3.449,0.952c-0.689,0.168-2.993,0.54-3.23,0.961
				c-0.504,0.9-1.863,0.056-1.36-0.842c0.501-0.895,2.064-1.124,2.948-1.358c1.42-0.376,2.954-0.577,4.323-1.118
				C831.333,479.146,832.111,480.547,831.155,480.924L831.155,480.924z"/>
		</g>
	</g>
	<g>
		<g>
			<path fill="#F3DBAF" d="M810.232,482.113c1.813,1.102,3.646,2.237,5.271,3.608c1.479,1.248,2.594,2.936,4.207,4.023
				c0.853,0.575,0.014,1.939-0.843,1.361c-1.441-0.973-2.507-2.36-3.741-3.566c-1.667-1.628-3.754-2.861-5.737-4.065
				C808.509,482.938,809.351,481.576,810.232,482.113L810.232,482.113z"/>
		</g>
	</g>
	<g>
		<g>
			<path fill="#F3DBAF" d="M831.89,492.914c-2.362-0.736-5.032-0.307-7.402-0.493c-1.741-0.139-3.469,0.082-5.205,0.268
				c-1.069,0.115-1.019-1.527,0.018-1.596c4.078-0.271,9.097-0.943,13.06,0.29C833.341,491.689,832.876,493.221,831.89,492.914
				L831.89,492.914z"/>
		</g>
	</g>
	<g>
		<g>
			<path fill="#F3DBAF" d="M811.314,491.485c2.633-0.485,5.3-0.73,7.913-1.319c1.005-0.226,1.375,1.331,0.368,1.559
				c-2.613,0.588-5.28,0.835-7.913,1.319C810.673,493.229,810.299,491.672,811.314,491.485L811.314,491.485z"/>
		</g>
	</g>
	<g>
		<g>
			<path fill="#F3DBAF" d="M823.966,499.008c-0.354-1.545-1.544-2.971-2.534-4.154c-0.974-1.163-2.044-2.396-3.347-3.196
				c-0.88-0.541-0.038-1.903,0.842-1.362c1.548,0.951,2.833,2.417,3.961,3.815c1.07,1.328,2.248,2.833,2.636,4.529
				C825.753,499.644,824.195,500.014,823.966,499.008L823.966,499.008z"/>
		</g>
	</g>
</g>
<g>
	<g>
		<path fill="#F3DBAF" d="M866.437,560.828c0,0,11.381-4.543,16.151-10.556s5.102-9.034,3.367-12.547
			c-1.736-3.515-7.917-1.641-10.43,1.711S869.41,548.975,866.437,560.828z"/>
	</g>
	<g>
		<path fill="#F3DBAF" d="M876.625,562.156c0,0,11.491,4.259,19.061,2.995c7.571-1.263,9.843-3.281,10.91-7.053
			c1.068-3.771-4.773-6.523-8.886-5.721C893.599,553.179,886.777,555.356,876.625,562.156z"/>
	</g>
	<g>
		<path fill="#F3DBAF" d="M852.257,563.026c0,0,10.896-8.369,14.213-16.311c3.317-7.939,2.755-11.301-0.188-14.563
			c-2.943-3.265-9.041,0.641-10.731,5.023C853.858,541.557,851.856,549.331,852.257,563.026z"/>
	</g>
	<g>
		<path fill="#F3DBAF" d="M845.068,560.602c0,0,6.663-12.016,6.544-20.62c-0.119-8.605-1.973-11.464-5.972-13.285
			c-3.999-1.822-8.038,4.187-7.845,8.881C837.989,540.27,839.247,548.199,845.068,560.602z"/>
	</g>
	<g>
		<path fill="#F3DBAF" d="M840.749,563.991c0,0-1.78-8.09-5.267-11.933c-3.487-3.843-5.467-4.396-8.001-3.625
			c-2.534,0.772-1.963,5.101-0.004,7.145C829.438,557.623,833.17,560.706,840.749,563.991z"/>
	</g>
	<g>
		<path fill="#F3DBAF" d="M867.116,565.099c0,0,12.253,0.226,18.842,4.161c6.588,3.937,7.967,6.646,7.586,10.546
			c-0.38,3.901-6.823,4.334-10.359,2.087C879.648,579.647,874.091,575.134,867.116,565.099z"/>
	</g>
	<g>
		<path fill="#F3DBAF" d="M853.076,568.059c0,0,13.152,3.974,19.063,10.229s6.573,9.597,4.975,13.69
			c-1.598,4.093-8.683,2.598-11.814-0.903C862.168,587.575,857.546,581.011,853.076,568.059z"/>
	</g>
	<g>
		<path fill="#F3DBAF" d="M847.209,572.87c0,0,10.482,8.882,13.415,16.972c2.932,8.091,2.209,11.421-0.887,14.54
			c-3.096,3.118-9-1.074-10.479-5.533C847.779,594.391,846.152,586.53,847.209,572.87z"/>
	</g>
	<g>
		<path fill="#F3DBAF" d="M841.972,571.227c0,0,1.195,8.197-0.706,13.025c-1.903,4.828-3.558,6.045-6.202,6.22
			c-2.644,0.175-3.64-4.076-2.53-6.682C833.644,581.185,836.044,576.982,841.972,571.227z"/>
	</g>
	<g>
		<path fill="#F3DBAF" d="M881.656,561.442c-1.107,0.205-2.713,0.484-4.745,0.815c-2.879,0.476-6.607,1.065-10.98,1.746
			c-0.557,0.085-1.122,0.171-1.7,0.263h-0.004c-0.167,0.026-0.339,0.053-0.511,0.078c-0.004,0.001-0.004,0.001-0.008,0.001
			c-0.201,0.032-0.402,0.064-0.607,0.093c-0.004,0-0.004,0-0.004,0c-3.433,0.531-7.191,1.102-11.198,1.707
			c-0.284,0.041-0.573,0.087-0.862,0.128c0,0.004-0.004,0-0.004,0c-0.159,0.025-0.323,0.048-0.481,0.073
			c-0.104,0.015-0.209,0.033-0.314,0.047c-1.913,0.287-3.876,0.581-5.886,0.882h-0.005c-0.101,0.019-0.205,0.033-0.31,0.047
			c-0.008,0.005-0.021,0.006-0.033,0.007c-0.176,0.026-0.356,0.053-0.536,0.08c-0.205,0.032-0.411,0.061-0.619,0.094h-0.005
			c-0.046,0.006-0.092,0.013-0.138,0.02c-11.473,1.71-24.215,3.578-36.605,5.372c-9.088,1.313-17.984,2.584-26.055,3.722
			c-0.634,0.089-1.262,0.179-1.886,0.269c0.196-0.412,0.394-0.832,0.594-1.252c0.62-0.09,1.248-0.176,1.881-0.265
			c8.369-1.18,17.595-2.499,26.984-3.861c11.834-1.713,23.924-3.486,34.855-5.115c0.146-0.024,0.298-0.046,0.448-0.067
			c0.222-0.033,0.439-0.066,0.661-0.1c0.096-0.015,0.196-0.027,0.297-0.042l0.005-0.001c0.033-0.009,0.071-0.012,0.108-0.018
			c0.005,0,0.005,0,0.008,0c0.252-0.04,0.503-0.075,0.759-0.114h0.004c1.863-0.28,3.688-0.555,5.473-0.821
			c0.443-0.066,0.883-0.134,1.317-0.199h0.005c4.157-0.626,8.042-1.216,11.579-1.762c0.636-0.1,1.264-0.197,1.875-0.29
			c5.817-0.899,10.546-1.654,13.704-2.187l0.004-0.001c1.049-0.181,1.928-0.334,2.612-0.465
			C882.06,560.188,882.392,561.304,881.656,561.442z"/>
	</g>
	<g>
		<g>
			<path fill="#F3DBAF" d="M869.635,566.687c-1.746-0.408-3.246-1.436-4.979-1.876c-0.725-0.186-0.46-1.316,0.265-1.131
				c1.733,0.44,3.237,1.469,4.979,1.876C870.629,565.727,870.363,566.858,869.635,566.687L869.635,566.687z"/>
		</g>
	</g>
	<g>
		<g>
			<path fill="#F3DBAF" d="M868.893,558.888c-1.717,1.81-3.434,3.62-5.151,5.431c-0.516,0.543-1.362-0.262-0.838-0.805
				c1.716-1.809,3.431-3.617,5.146-5.426C868.564,557.548,869.406,558.346,868.893,558.888L868.893,558.888z"/>
		</g>
	</g>
	<g>
		<g>
			<path fill="#F3DBAF" d="M853.912,561.93c-1.08,0.993-2.348,2.538-2.664,4.005c-0.158,0.733-1.288,0.466-1.131-0.265
				c0.357-1.656,1.729-3.415,2.952-4.54C853.617,560.628,854.463,561.423,853.912,561.93L853.912,561.93z"/>
		</g>
	</g>
	<g>
		<g>
			<path fill="#F3DBAF" d="M854.617,570.129c-0.707-0.5-1.318-1.125-1.949-1.715c-0.376-0.352-1.518-1.602-1.866-1.577
				c-0.747,0.051-0.775-1.109-0.032-1.161s1.504,0.807,1.997,1.25c0.793,0.712,1.525,1.563,2.396,2.179
				C855.767,569.532,855.227,570.56,854.617,570.129L854.617,570.129z"/>
		</g>
	</g>
	<g>
		<g>
			<path fill="#F3DBAF" d="M845.579,557.905c0.052,1.539,0.091,3.104-0.094,4.634c-0.17,1.395-0.751,2.741-0.771,4.151
				c-0.01,0.747-1.17,0.78-1.161,0.031c0.018-1.262,0.437-2.46,0.678-3.688c0.325-1.659,0.243-3.416,0.187-5.098
				C844.393,557.188,845.554,557.158,845.579,557.905L845.579,557.905z"/>
		</g>
	</g>
	<g>
		<g>
			<path fill="#F3DBAF" d="M847.634,575.341c-0.493-1.727-1.814-3.175-2.643-4.688c-0.609-1.111-1.429-2.072-2.232-3.053
				c-0.495-0.603,0.522-1.224,0.976-0.623c1.785,2.367,4.188,5.145,5.015,8.04C848.954,575.735,847.84,576.061,847.634,575.341
				L847.634,575.341z"/>
		</g>
	</g>
	<g>
		<g>
			<path fill="#F3DBAF" d="M840.321,562.289c1.341,1.404,2.551,2.925,3.946,4.276c0.537,0.521-0.262,1.364-0.8,0.843
				c-1.396-1.352-2.604-2.872-3.944-4.277C839.008,562.592,839.805,561.747,840.321,562.289L840.321,562.289z"/>
		</g>
	</g>
	<g>
		<g>
			<path fill="#F3DBAF" d="M840.785,572.955c0.797-0.828,1.189-2.117,1.514-3.188c0.319-1.053,0.642-2.193,0.609-3.302
				c-0.021-0.748,1.14-0.779,1.161-0.03c0.038,1.318-0.34,2.68-0.74,3.92c-0.381,1.178-0.826,2.491-1.701,3.4
				C841.109,574.292,840.266,573.495,840.785,572.955L840.785,572.955z"/>
		</g>
	</g>
</g>
<path fill="#F9CA20" d="M62.539,326.575v284.156h284.157v-68.116c-119.314,0-216.041-96.726-216.041-216.04H62.539z"/>
<path fill="#FAA80D" d="M184.592,445.432l1.741-1.333c-2.691-3.515-5.309-7.161-7.778-10.835l-1.821,1.223
	C179.229,438.2,181.873,441.882,184.592,445.432z"/>
<path fill="#FAA80D" d="M72.932,598.785h284.156c0.606,0,1.097-0.49,1.097-1.096v-68.116c0-0.605-0.491-1.098-1.097-1.098
	c-64.087,0-124.364-28.295-165.374-77.633l-1.687,1.401c41.193,49.558,101.634,78.101,165.964,78.423v65.926H74.028V314.628h65.925
	c0.175,34.364,8.564,68.5,24.29,98.796l1.946-1.011c-15.73-30.307-24.045-64.499-24.045-98.882c0-0.605-0.491-1.096-1.097-1.096
	H72.932c-0.606,0-1.097,0.49-1.097,1.096v284.157C71.834,598.294,72.326,598.785,72.932,598.785z"/>
<path fill="#B2563D" d="M331.781,312.731l41.044,17.667l11.865-35.444l8.287,2.973c0,0,1.469,45.718-5.318,51.059
	c-6.358,5.002-52.129-5.497-52.129-5.497L331.781,312.731z"/>
<path fill="#B2563D" d="M383.214,292.637l-4.553-9.55l4.979-7.902c0,0,12.089,4.272,12.548,3.83
	c0.458-0.442,6.904,4.405,6.904,4.405l-4.654,10.087l-5.461,4.42l-8.287-2.973L383.214,292.637z"/>
<path fill="#93402C" d="M373.301,328.977l1.365-4.075l17.953,1.467c0,0-0.847,11.724-1.532,13.917L373.301,328.977z"/>
<g>
	<g>
		<circle fill="#FAA80D" cx="368.077" cy="182.563" r="146.927"/>
	</g>
	<g>
		<path fill="#FFFFFF" d="M296.675,182.563c0-39.372,32.031-71.402,71.402-71.402s71.402,32.031,71.402,71.402
			c0,17.941-6.68,35.092-18.811,48.295l0,0c-13.491,14.685-32.661,23.107-52.592,23.107
			C328.706,253.965,296.675,221.934,296.675,182.563z M409.726,220.803c9.604-10.453,14.893-24.034,14.893-38.241
			c0-31.177-25.364-56.541-56.541-56.541s-56.541,25.364-56.541,56.541s25.364,56.541,56.541,56.541
			C383.86,239.104,399.041,232.433,409.726,220.803L409.726,220.803z"/>
	</g>
</g>
<circle fill="#FFFFFF" cx="838.752" cy="106.377" r="34.474"/>
<g>
	<path fill="#FFFFFF" d="M775.289,79.712c-5.238,12.467-6.51,25.651-4.387,38.104c1.817,10.614,6.08,20.69,12.476,29.36
		c7.097,9.725,16.824,17.66,28.699,22.65c21.288,8.946,44.625,6.324,62.912-4.951c11.782-7.265,21.471-18.096,27.238-31.821
		c10.123-24.091,5.464-50.778-9.88-69.845c-6.91-8.653-16.023-15.738-26.929-20.32C830.46,28.198,789.995,44.717,775.289,79.712z
		 M888.398,65.565c14.634,17.839,19.167,43.016,9.625,65.723c-6.243,14.857-17.488,26.174-30.949,32.755
		c-16.119,7.875-35.429,9.06-53.23,1.58c-9.001-3.782-16.742-9.403-22.855-16.284c-8.33-9.25-13.769-20.751-15.718-32.963
		c-1.818-11.418-0.586-23.455,4.223-34.898c13.732-32.678,51.5-48.11,84.159-34.386C873.623,51.283,881.994,57.717,888.398,65.565z"
		/>
</g>
<circle fill="#FFFFFF" cx="770.988" cy="211.873" r="9.752"/>
<circle fill="#FFFFFF" cx="783.255" cy="258.401" r="9.752"/>
<circle fill="#FFFFFF" cx="859.392" cy="267.87" r="4.849"/>
<g>
	<path fill="#FFFFFF" d="M771.279,231.343c3.825-0.057,7.386-1.224,10.372-3.186c2.544-1.675,4.672-3.923,6.192-6.564
		c1.715-2.942,2.667-6.363,2.613-10.007c-0.097-6.531-3.424-12.281-8.42-15.741c-3.221-2.229-7.126-3.511-11.337-3.448
		c-7.391,0.11-13.778,4.345-16.979,10.484c-1.458,2.773-2.26,5.938-2.211,9.284C751.671,222.892,760.543,231.503,771.279,231.343z
		 M754.78,203.638c2.963-5.816,8.972-9.847,15.939-9.951c4.558-0.068,8.767,1.562,12,4.304c3.868,3.284,6.366,8.153,6.448,13.615
		c0.041,2.761-0.537,5.405-1.628,7.77c-1.451,3.208-3.814,5.923-6.758,7.813c-2.752,1.767-6.011,2.813-9.522,2.865
		c-10.026,0.149-18.31-7.887-18.459-17.907C752.756,209.087,753.474,206.188,754.78,203.638z"/>
</g>
<circle fill="#FFFFFF" cx="828.471" cy="267.673" r="3.49"/>
<g>
	<path fill="#FFFFFF" d="M828.678,281.329c2.684-0.04,5.18-0.857,7.273-2.234c1.785-1.174,3.277-2.751,4.344-4.603
		c1.202-2.063,1.871-4.463,1.833-7.018c-0.068-4.581-2.402-8.613-5.905-11.039c-2.259-1.563-4.997-2.462-7.95-2.418
		c-5.184,0.077-9.664,3.047-11.907,7.353c-1.023,1.944-1.585,4.164-1.551,6.51C814.926,275.402,821.148,281.441,828.678,281.329z
		 M817.107,261.9c2.078-4.079,6.292-6.906,11.178-6.979c3.197-0.048,6.148,1.095,8.415,3.018c2.714,2.303,4.466,5.717,4.522,9.548
		c0.029,1.937-0.377,3.791-1.141,5.449c-1.018,2.25-2.676,4.154-4.739,5.479c-1.93,1.239-4.216,1.973-6.678,2.009
		c-7.031,0.104-12.842-5.531-12.946-12.558C815.688,265.721,816.191,263.688,817.107,261.9z"/>
</g>
<circle fill="#FFFFFF" cx="832.989" cy="213.808" r="4.849"/>
<circle fill="#FFFFFF" cx="731.409" cy="99.044" r="6.383"/>
<circle fill="#FFFFFF" cx="723.381" cy="68.592" r="6.382"/>
<circle fill="#FFFFFF" cx="674.695" cy="45.254" r="3.173"/>
<g>
	<path fill="#FFFFFF" d="M731.219,86.301c-2.503,0.037-4.834,0.8-6.788,2.085c-1.665,1.096-3.058,2.568-4.053,4.296
		c-1.122,1.925-1.746,4.165-1.711,6.549c0.063,4.274,2.241,8.038,5.512,10.302c2.107,1.458,4.663,2.297,7.419,2.256
		c4.838-0.072,9.019-2.843,11.112-6.862c0.954-1.814,1.479-3.886,1.446-6.076C744.052,91.833,738.246,86.196,731.219,86.301z
		 M742.018,104.433c-1.938,3.807-5.872,6.445-10.433,6.513c-2.982,0.044-5.737-1.022-7.853-2.817
		c-2.533-2.149-4.168-5.335-4.221-8.911c-0.027-1.807,0.351-3.538,1.064-5.085c0.95-2.1,2.497-3.876,4.423-5.114
		c1.802-1.156,3.935-1.841,6.232-1.875c6.562-0.098,11.983,5.162,12.081,11.72C743.343,100.867,742.872,102.765,742.018,104.433z"/>
</g>
<circle fill="#FFFFFF" cx="693.788" cy="62.523" r="2.284"/>
<g>
	<path fill="#FFFFFF" d="M693.652,53.585c-1.756,0.026-3.391,0.562-4.761,1.463c-1.168,0.769-2.145,1.8-2.843,3.013
		c-0.787,1.35-1.224,2.92-1.199,4.593c0.045,2.998,1.572,5.637,3.865,7.225c1.478,1.023,3.271,1.612,5.203,1.583
		c3.393-0.05,6.324-1.995,7.793-4.813c0.67-1.272,1.037-2.725,1.015-4.261C702.652,57.465,698.581,53.512,693.652,53.585z
		 M701.225,66.302c-1.359,2.669-4.117,4.52-7.315,4.567c-2.092,0.031-4.023-0.717-5.507-1.976c-1.777-1.507-2.924-3.742-2.961-6.249
		c-0.019-1.268,0.246-2.481,0.747-3.566c0.667-1.473,1.751-2.719,3.102-3.586c1.264-0.811,2.76-1.291,4.371-1.315
		c4.602-0.068,8.404,3.621,8.473,8.22C702.154,63.801,701.825,65.132,701.225,66.302z"/>
</g>
<circle fill="#FFFFFF" cx="690.832" cy="97.778" r="3.173"/>
<g>
	<circle fill="#FFFFFF" cx="144.64" cy="396.888" r="3.723"/>
	<g>
		<path fill="#72449D" d="M141.433,505.337c-0.859-1.169-1.933-2.087-2.857-3.187c-0.775-0.924-1.29-2.036-1.909-3.063
			c-0.28-0.465,0.447-0.889,0.727-0.424c0.723,1.196,1.313,2.462,2.313,3.463c0.885,0.885,1.71,1.774,2.453,2.785
			C142.48,505.35,141.75,505.771,141.433,505.337L141.433,505.337z"/>
	</g>
	<path fill="#8E6AB1" d="M137.665,501.207c0,0,18.125-6.985-3.351-25.178c0,0-6.123-4.18-10.098-3.296
		C122.954,473.013,118.176,504.383,137.665,501.207z"/>
	<path fill="#72449D" d="M151.931,526.627c0,0,12.276-15.354,23.426,6.528c2.151,4.222,2.452,9.156,0.808,13.601
		c-0.022,0.062-0.046,0.124-0.069,0.187c-0.061,0.162-0.108,0.328-0.137,0.499c-0.104,0.63-0.303,2.237,0.134,3.33
		c0.187,0.466-0.123,0.979-0.621,1.044c-5.018,0.656-23.354,2.078-28.592-11.208C142.538,529.592,151.931,526.627,151.931,526.627z"
		/>
	<path fill="#72449D" d="M132.157,517.305c0,0,6.667-6.777-2.174-10.803c-8.21-3.737-11.353,2.754-15.831,2.513
		c-0.464-0.024-0.805,0.416-0.608,0.838C115.452,513.953,123.169,528.495,132.157,517.305z"/>
	<path fill="#FFFFFF" d="M146.474,513.398c0,0-5.843-22.678,34.193-19.5C180.667,493.898,181.233,528.129,146.474,513.398z"/>
	<path fill="#72449D" d="M142.408,408.345l-3.405,149.447c-0.037,1.594,1.198,2.905,2.733,2.905c1.521,0,2.749-1.285,2.735-2.863
		c-0.184-20.485-1.237-144.119,0.026-149.489H142.408z"/>
	<path fill="#19A8CB" d="M144.605,408.875c0.696,0.135,1.111,0.18,1.111,0.18s22.878,3.815,15.249-31.45c0,0,0-2.3,0.55-4.488
		c0.089-0.348,0.19-0.684,0.303-1.021c0,0-26.267,0.527-30.721,17.684C127.303,404.409,140.599,408.101,144.605,408.875z"/>
	<path fill="#643596" d="M174.948,392.217c0,0-25.103,5.084-22.878,23.514C152.07,415.731,162.874,430.666,174.948,392.217z"/>
	<g>
		<path fill="#72449D" d="M140.162,524.933c-1.028-2.392-2.166-4.8-4.17-6.535c-1.771-1.532-4.042-1.926-5.826-3.337
			c-0.425-0.335,0.174-0.928,0.595-0.595c1.008,0.798,2.285,1.053,3.404,1.64c1.044,0.547,2.059,1.313,2.908,2.137
			c1.778,1.727,2.85,4.02,3.816,6.266C141.1,525,140.375,525.429,140.162,524.933L140.162,524.933z"/>
	</g>
	<g>
		<path fill="#72449D" d="M153.401,527.792c-1.959-2.729-8.422-3.909-10.884-1.398c-0.38,0.388-0.975-0.207-0.595-0.595
			c2.892-2.949,9.933-1.598,12.206,1.568C154.444,527.808,153.715,528.229,153.401,527.792L153.401,527.792z"/>
	</g>
	<g>
		<path fill="#72449D" d="M140.439,540.587c-4.75-5.629-12.589-5.271-16.604,0.975c-0.292,0.454-1.021,0.032-0.727-0.425
			c4.269-6.642,12.817-7.199,17.925-1.145C141.382,540.404,140.789,541.002,140.439,540.587L140.439,540.587z"/>
	</g>
	<g>
		<path fill="#72449D" d="M147.41,477.209c-0.922,0.529-1.967,0.898-2.778,1.601c-0.668,0.578-1.209,1.242-1.988,1.683
			c-0.472,0.267-0.897-0.461-0.425-0.728c0.857-0.483,1.421-1.285,2.202-1.867c0.783-0.582,1.721-0.932,2.564-1.416
			C147.456,476.212,147.88,476.939,147.41,477.209L147.41,477.209z"/>
	</g>
	<g>
		<path fill="#72449D" d="M142.028,469.623c-2.166-2.534-5.235-3.584-8.288-4.658c-0.507-0.178-0.289-0.991,0.224-0.811
			c3.184,1.12,6.401,2.231,8.659,4.874C142.973,469.438,142.38,470.036,142.028,469.623L142.028,469.623z"/>
	</g>
	<g>
		<path fill="#72449D" d="M163.51,430.499c-6.416,4.11-17.708,7.386-20.461,15.425c-0.174,0.51-0.988,0.291-0.811-0.224
			c2.845-8.311,14.233-11.691,20.847-15.927C163.542,429.479,163.965,430.208,163.51,430.499L163.51,430.499z"/>
	</g>
	<g>
		<path fill="#72449D" d="M142.026,440.416c-0.927-3.233-4.05-6.88-6.237-9.306c-2.051-2.276-4.458-4.911-7.127-6.436
			c-0.47-0.27-0.047-0.997,0.425-0.728c3.059,1.749,5.808,4.771,8.056,7.435c2.115,2.503,4.789,5.65,5.695,8.811
			C142.987,440.713,142.175,440.936,142.026,440.416L142.026,440.416z"/>
	</g>
	<g>
		<path fill="#643596" d="M154.401,415.459c-1.751,1.209-3.279,2.74-5.24,3.622c-1.663,0.747-3.634,1.855-5.452,2.14
			c-0.53,0.082-0.758-0.729-0.224-0.812c1.647-0.258,3.781-1.424,5.304-2.101c1.94-0.864,3.455-2.38,5.187-3.576
			C154.422,414.423,154.844,415.153,154.401,415.459L154.401,415.459z"/>
	</g>
	<path fill="#8E6AB1" d="M90.854,445.072c0,0,10.176-7.91,24.292-5.733c3.175,0.493,6.542,1.492,10.031,3.197
		c0,0-8.898-15.259-22.452-9.75c-0.831,0.337-1.604,0.685-2.323,1.021C89.362,439.103,90.854,445.072,90.854,445.072z"/>
	<path fill="#24ADCD" d="M162.243,431.304c8.583-1.638,15.798-0.987,21.677,0.696c13.162,3.758,19.624,12.645,19.624,12.645
		s7.63-10.165-12.499-21.184c-11.153-6.104-18.794-3.03-23.383,0.92C163.971,427.556,162.243,431.304,162.243,431.304z"/>
	<path fill="#72449D" d="M92.33,483.602c0,0,3.377-5.397,10.165-10.401c7.451-5.486,19.019-10.502,34.75-7.395
		c0,0-6.329-6.138-14.542-9.043c-4.174-1.481-8.853-2.132-13.419-0.695C95.718,460.297,92.756,473.009,92.33,483.602z"/>
	<path fill="#8E6AB1" d="M145.716,477.902c42.368-7.204,63.551,17.369,63.551,17.369c0.269-2.581,0.213-4.982-0.079-7.192
		c-0.072-0.567-0.159-1.121-0.259-1.664c-1.817-9.862-9.403-17.564-19.129-20.005c-21.267-5.335-33.233,0.614-39.181,5.747
		C147.129,475.175,145.716,477.902,145.716,477.902z"/>
	<path fill="#24ADCD" d="M146.731,447.712c0,0,11.936,0.271,20.267-1.953c8.332-2.225,12.145,7.308-6.603,24.784
		c0,0-1.307-4.132-18.43-8.661S125.759,441.723,146.731,447.712z"/>
	<path fill="#FFFFFF" d="M112.549,554.693c0,0,0.684,0.124,1.817,0.247c5.419,0.561,21.105,1.032,20.746-12.601
		c-0.056-1.975-1.335-3.736-3.197-4.387c-1.358-0.471-3.198-0.931-5.442-1.089c-2.569-0.19-5.677,0-9.268,0.987
		C106.187,540.87,119.213,549.924,112.549,554.693z"/>
	<path fill="#8E6AB1" d="M172.037,544.732c0.676,0.806,1.953,0.408,2.039-0.641c0.23-2.791-0.438-5.296-1.847-7.836
		c-1.999-3.603-4.655-7.952-8.555-9.821c-2.222-1.063-3.181-0.744-4.909,0.787c-1.645,1.459-3.5,1.064-5.189,2.233
		c-1.883,1.304-1.504,4.449-0.28,6.068c1.569,2.076,4.786,1.806,7.118,2.346C164.049,538.71,169.349,541.535,172.037,544.732z"/>
	<path fill="#BC2550" d="M175.263,500.074c0.696-0.573,1.658,0.224,1.218,1.011c-0.959,1.72-2.142,3.365-3.2,4.846
		c-2.262,3.163-5.158,5.564-8.797,6.981c-2.351,0.915-9.954,3-9.793-1.547c0.149-4.244,5.631-4.731,8.625-5.662
		C167.444,504.42,171.801,502.923,175.263,500.074z"/>
	<path fill="#8E6AB1" d="M117.965,510.708c0.214-0.624,0.945-0.879,1.544-0.6c3.113,1.446,8.465,1.467,8.889,5.882
		c0.3,3.11-3.287,2.583-5.22,2.132C121.284,517.681,116.434,515.17,117.965,510.708z"/>
	<path fill="#FFFFFF" d="M165.497,449.409c-3.36,0.682-6.694,1.58-10.172,1.405c-3.712-0.188-7.358-0.752-11.034-1.121
		c-2.102-0.211-9.228-1.165-6.843,3.19c1.583,2.893,7.705,3.893,10.663,4.628c2.017,0.502,4.051,0.812,6.027,1.473
		c1.505,0.503,2.875,1.384,4.361,1.883c0.35-2.096,2.831-4.777,4.562-5.922C163.831,454.435,169.249,450.936,165.497,449.409z"/>
	<path fill="#8E6AB1" d="M167.18,401.021c-1.671,3.861-2.933,8.028-5.19,11.669c-0.842,1.358-3.256,4.152-4.825,2.007
		c-1.221-1.669,0.117-4.054,1.18-5.401C160.121,407.043,162.156,404.687,167.18,401.021z"/>
	<path fill="#1D7BB6" d="M144.605,408.875c0.808-3.388-4.286-5.509-6.25-7.136c-2.738-2.288-3.972-5.408-3.052-8.987
		c1.862-7.227,9.133-11.275,15.046-14.878c3.636-1.481,6.384-2.513,9.234-3.927c0.572-0.281,1.234-0.55,1.93-0.831
		c0.089-0.348,0.19-0.684,0.303-1.021c0,0-26.267,0.527-30.721,17.684C127.303,404.409,140.599,408.101,144.605,408.875z"/>
	<path fill="#1CA9C3" d="M162.243,431.304c8.583-1.638,15.798-0.987,21.677,0.696c0.281-0.19,0.583-0.404,0.999-0.618
		c0.897-0.471,1.963-0.369,3.018-0.213c2.367,0.349,4.701,1.234,7.069,1.807c0.819,0.202,2.816,0.92,2.592-0.516
		c-0.124-0.707-2.087-2.121-2.648-2.559c-4.701-3.558-10.637-4.926-16.415-5.531c-2.637-0.27-5.285-0.618-7.989-0.494
		c-1.055,0.056-1.986,0.247-2.884,0.505C163.971,427.556,162.243,431.304,162.243,431.304z"/>
	<path fill="#72449D" d="M105.211,416.292c1.133,0.236,2.378,0.314,3.198,0.516c4.286,1.044,8.067,2.447,11.545,5.017
		c3.175,0.493,6.541,1.492,10.031,3.197c0,0-8.897-15.259-22.452-9.75C106.703,415.607,105.929,415.955,105.211,416.292z"/>
	<path fill="#72449D" d="M145.716,477.902c42.368-7.204,63.551,17.369,63.551,17.369c0.269-2.581,0.213-4.982-0.079-7.192
		c-1.784-1.616-3.703-3.063-5.723-4.342c-4.712-2.996-9.414-6.06-14.698-8.113c-4.982-1.929-9.874-2.378-15.169-2.378
		c-4.646,0-9.459,0.056-14.026,0.741c-2.849,0.426-8.078,1.469-8.953-1.83C147.129,475.175,145.716,477.902,145.716,477.902z"/>
	<path fill="#643596" d="M102.495,473.201c7.451-5.486,19.019-10.502,34.75-7.395c0,0-6.329-6.138-14.542-9.043
		c0.516,0.505,0.942,1.065,1.1,1.874c0.348,1.694-0.965,2.075-2.446,2.592c-3.041,1.055-6.272,0.886-9.29,2.03
		c-3.097,1.155-4.578,3.613-6.732,5.925C104.526,470.047,103,471.698,102.495,473.201z"/>
	<path fill="#FAA80D" d="M112.549,554.693c0,0,0.684,0.124,1.817,0.247c1.347-0.595,2.614-1.414,3.725-2.3
		c1.874-1.516,2.828-3.434,4.275-5.263c1.279-1.604,2.737-2.815,2.075-4.981c-0.549-1.75-1.189-3.568,0.662-4.858
		c0.382-0.27,0.853-0.494,1.369-0.674c-2.569-0.19-5.677,0-9.268,0.987C106.187,540.87,119.213,549.924,112.549,554.693z"/>
	<g>
		<path fill="#72449D" d="M149.316,512.48c-0.999,0.508-1.881,1.205-2.872,1.729c-1.103,0.582-2.229,1.096-3.186,1.911
			c-0.41,0.35-1.008-0.243-0.595-0.595c0.911-0.775,1.945-1.32,3.005-1.863c1.116-0.572,2.107-1.343,3.223-1.909
			C149.374,511.508,149.8,512.234,149.316,512.48L149.316,512.48z"/>
	</g>
	<polygon fill="#8E6AB1" points="117.519,557.769 132.119,608.246 153.396,608.246 157.88,592.727 158.116,591.918 167.996,557.769 
			"/>
	<path fill="#643596" d="M117.519,557.769l14.601,50.477h21.276l4.485-15.519c-15.612-6.086-23.144-21.462-26.786-34.958H117.519z"
		/>
	<rect x="117.519" y="555.576" fill="#1F1440" width="50.477" height="4.387"/>
</g>
<path fill="#1F1440" d="M362.49,261.705c-1.404,3.568-1.715,7.487-1.131,11.148c0.571,3.677,1.947,7.122,3.78,10.225
	c3.698,6.357,9.552,10.497,12.99,16.188c0.824,1.426,1.497,2.925,1.894,4.505c0.107,0.393,0.14,0.799,0.216,1.199
	c0.074,0.4,0.139,0.804,0.129,1.213l0.038,1.226c-0.018,0.409-0.078,0.818-0.114,1.228c-0.288,3.298-1.906,6.378-4.133,8.892
	c-2.284,2.487-5.12,4.491-8.187,6.021c-3.058,1.563-6.341,2.688-9.703,3.474c3.395-0.626,6.745-1.597,9.914-3.03
	c3.177-1.403,6.176-3.299,8.691-5.791c2.455-2.511,4.387-5.761,4.879-9.367c0.062-0.447,0.146-0.893,0.187-1.344l0.025-1.364
	c0.029-0.457-0.02-0.91-0.08-1.362c-0.061-0.452-0.083-0.913-0.18-1.358c-0.36-1.797-1.032-3.505-1.863-5.109
	c-3.498-6.341-9.158-10.797-12.128-16.66c-1.541-2.912-2.608-6.063-2.944-9.241c-0.348-3.174,0.085-6.356,1.349-9.175
	c0.444-0.991,0.001-2.155-0.991-2.599c-0.991-0.444-2.155-0.001-2.599,0.99c-0.012,0.026-0.022,0.051-0.033,0.077L362.49,261.705z"
	/>
<path fill="#1F1440" d="M342.411,242.564c10.037-3.219,26.432,4.429,25.031,16.578c-0.248,2.149-0.886,4.289-1.657,6.426
	c-1.93,5.347-4.525,10.966-4.598,16.757c-0.048,3.873,3.897,7.645,6.318,10.42c5.133,5.882,11.815,12.505,9.51,21.062
	c-0.118,0.438-0.257,0.869-0.412,1.295c-3.926,12.169-16.879,19.628-29.833,18.449c-11.777-1.178-18.843-12.561-16.823-23.691
	c0.058-1.565,0.179-3.142,0.341-4.708c0.488-4.697,1.354-9.291,2.039-13.133c0.497-2.66,0.965-5.191,1.252-7.47
	c0.458-2.155,0.922-4.234,1.295-6.167c0.569-2.485,1.095-5.107,1.71-8.229C337.815,263.913,339.404,255.677,342.411,242.564z"/>
<polygon fill="#19A8CB" points="372.825,330.398 381.302,350.852 334.408,346.258 336.346,311.594 "/>
<path fill="#FFFFFF" d="M337.901,308.114l-10.345-1.899l-21.277,109.139l11.726,11.21l10.144-5.965
	C328.148,420.599,346.507,352.868,337.901,308.114z"/>
<path fill="#1D7BB6" d="M337.901,308.114c0,0,13.332,58.741-9.753,118.45l-6.316-3.171
	C321.832,423.393,342.792,372.042,337.901,308.114z"/>
<path fill="#2A2C75" d="M279.654,426.895c0,0-9.17,37.264-3.618,74.122c0,0-28.732-11.691-88.739,1.858l-1.833,10.282
	c0,0,87.862,16.677,118.96,4.034l17.351-26.206L279.654,426.895z"/>
<path fill="#534EA2" d="M274.436,412.917c0,0-25.862,22.878,52.718,89.024c0,0-7.652,23.363,40.319,96.114l11.96-1.106
	l-22.754-100.346c0,0-8.454-44.545-33.95-77.617c-2.962-3.842-7.558-6.069-12.41-6.069H274.436z"/>
<path fill="#1F1440" d="M187.297,502.875l-12.74-2.271l-1.472,8.257l3.911,2.797l-4.638,1.283l-4.364,24.477
	c0,0,14.827-5.403,17.471-24.26L187.297,502.875z"/>
<path fill="#1F1440" d="M367.473,598.056l-1.965,7.031l9.866,2.959c0,0,5.525-1.578,8.091,3.157h23.284
	c0,0-2.115-11.554-28.053-14.191L367.473,598.056z"/>
<path fill="#B2563D" d="M221.171,220.217l-5.15-5.016c-0.962-0.938-1.271-2.361-0.782-3.613l6.437-16.508l5.108,8.943l2.817,6.125
	l1.582,10.069H221.171z"/>
<path fill="#1F1440" d="M331.15,262.583c3.046-2.815,7.023-4.357,9.856-7.663c2.891-3.373,5.886-7.163,6.392-11.713
	c1.269-11.415-9.161-17.656-19.689-16.608c-10.432,1.039-19.084,6.091-21.896,16.59c-2.213,8.266-2.623,16.704-7.577,24.155
	c-2.558,3.848-6.261,6.8-9.736,9.921c-1.159,1.04-2.292,2.099-3.349,3.217c-5.028,5.622-9.035,11.824-11.147,18.663
	c-0.528,1.71-0.938,3.459-1.213,5.251c-2.672,12.983,4.818,25.717,14.556,33.957c7.49,5.992,17.229,6.742,24.719,2.247
	c12.734-8.239,11.985-23.969,16.13-36.334c0.727-2.3,1.422-4.528,2.111-6.621c0.218-1.591,0.307-3.17,0.233-4.722
	c-0.403-8.483-4.963-16.515-2.375-25.182C328.907,265.261,330.358,264.034,331.15,262.583z"/>
<path fill="#1F1440" d="M327.776,302.375l2.061-6.617l0.047-0.15l0.016-0.12c0.206-1.574,0.296-3.177,0.224-4.787
	c-0.103-1.594-0.275-3.173-0.577-4.699c-0.559-3.063-1.398-5.985-1.981-8.877c-0.605-2.889-0.934-5.769-0.609-8.569
	c0.106-0.694,0.191-1.393,0.383-2.068c0.157-0.706,0.333-1.313,0.618-1.901c0.275-0.591,0.627-1.152,1.046-1.738
	c0.415-0.591,0.912-1.208,1.354-2.014l-0.256,0.329c2.545-2.412,6.163-3.991,9.062-6.919c0.736-0.75,1.328-1.494,1.94-2.233
	c0.61-0.75,1.207-1.519,1.777-2.317c1.143-1.592,2.165-3.333,2.876-5.243c0.353-0.955,0.608-1.958,0.756-2.979
	c0.089-0.517,0.096-1.009,0.13-1.51c0.023-0.5,0.079-0.996,0.038-1.502c-0.001-2.008-0.395-4.062-1.224-5.948
	c-0.822-1.889-2.118-3.575-3.697-4.869c-1.578-1.303-3.406-2.231-5.293-2.864c-3.793-1.25-7.802-1.449-11.665-0.961
	c-3.87,0.482-7.662,1.623-11.096,3.511c-1.714,0.942-3.34,2.074-4.773,3.441c-0.343,0.357-0.701,0.701-1.032,1.071
	c-0.313,0.387-0.638,0.767-0.938,1.16l-0.817,1.226c-0.134,0.206-0.277,0.406-0.403,0.616l-0.348,0.647
	c-0.229,0.432-0.468,0.859-0.688,1.295l-0.581,1.341c-0.206,0.443-0.367,0.9-0.523,1.359s-0.329,0.913-0.473,1.374
	c-0.557,1.85-1.014,3.718-1.388,5.588c-0.77,3.735-1.344,7.474-2.438,11.049c-0.553,1.781-1.233,3.517-2.106,5.151
	c-0.189,0.425-0.473,0.794-0.704,1.194c-0.253,0.388-0.465,0.798-0.752,1.168l-0.827,1.13l-0.875,1.097
	c-4.781,5.786-11.069,10.308-15.688,16.466c-2.291,3.064-4.179,6.437-5.478,10.04c-1.292,3.596-1.958,7.461-1.614,11.287
	c0.325,3.844,1.906,7.464,4.029,10.612c2.132,3.165,4.782,5.935,7.619,8.452l-0.007-0.007c1.237,1.449,2.32,3.042,3.081,4.795
	c0.768,1.749,1.196,3.639,1.323,5.547c-0.101-1.909-0.504-3.81-1.252-5.577c-0.741-1.771-1.811-3.39-3.034-4.863l-0.003-0.004
	l-0.004-0.004c-2.797-2.549-5.398-5.344-7.467-8.506c-2.063-3.147-3.564-6.73-3.831-10.482c-0.286-3.75,0.416-7.528,1.73-11.041
	c1.321-3.519,3.224-6.814,5.512-9.791c4.598-5.978,10.913-10.39,15.898-16.244l0.914-1.115l0.868-1.154
	c0.299-0.377,0.534-0.809,0.804-1.211c0.249-0.417,0.551-0.804,0.755-1.245c0.938-1.702,1.669-3.501,2.265-5.333
	c1.176-3.672,1.804-7.45,2.616-11.129c0.394-1.845,0.865-3.657,1.425-5.433c0.618-1.748,1.264-3.494,2.214-5.066l0.333-0.603
	c0.12-0.195,0.257-0.379,0.384-0.569l0.776-1.131c0.279-0.356,0.578-0.692,0.864-1.041c0.305-0.332,0.638-0.641,0.955-0.964
	c1.329-1.235,2.854-2.27,4.472-3.131c3.24-1.728,6.857-2.766,10.515-3.171c3.651-0.417,7.41-0.159,10.815,1.018
	c1.694,0.593,3.289,1.439,4.622,2.572c1.336,1.127,2.391,2.545,3.063,4.141c0.674,1.594,1,3.351,0.975,5.133
	c0.034,0.442-0.026,0.891-0.053,1.338c-0.037,0.444-0.047,0.903-0.129,1.32c-0.136,0.853-0.359,1.696-0.675,2.515
	c-0.637,1.639-1.563,3.192-2.652,4.664c-0.542,0.738-1.117,1.46-1.714,2.174c-0.605,0.714-1.211,1.446-1.815,2.039
	c-2.477,2.498-6.041,3.999-9.095,6.742l-0.142,0.128l-0.114,0.201c-0.586,1.033-1.789,2.283-2.519,3.851
	c-0.385,0.771-0.644,1.619-0.824,2.386c-0.229,0.78-0.343,1.581-0.472,2.38c-0.418,3.214-0.07,6.426,0.521,9.45
	c0.574,3.042,1.367,5.953,1.852,8.846c0.267,1.445,0.397,2.88,0.474,4.302c0.044,1.411-0.053,2.836-0.258,4.256l0.062-0.269
	l-2.16,6.625L327.776,302.375z"/>
<path fill="#B2563D" d="M352.733,263.875c0.004,0.952-0.012,1.957-0.06,2.992c0.06,11.356-8.386,26.37-21.09,22.037
	c-1.06-0.263-2.096-0.619-3.084-1.073c-2.963-1.361-5.487-3.591-6.991-6.738c-0.669-1.008-1.248-2.082-1.741-3.189
	c-0.789-1.764-1.36-3.613-1.727-5.414c-0.46-2.252-0.441-4.279,0.319-6.297c1.605-4.241,6.55-8.398,17.379-14.404
	c3.003-1.67,6.456-3.481,10.425-5.471c2.6,4.908,5.114,8.202,6.109,13.025C352.564,260.712,352.724,262.195,352.733,263.875z"/>
<path fill="#93402C" d="M352.274,259.342c-1.624-3.566-3.641-5.114-5.799,0.113c-4.232,10.266-20.87,16.525-26.707,18.449
	c-0.789-1.764-1.36-3.613-1.727-5.414c-0.46-2.252-0.441-4.279,0.319-6.297l12.162-6.015l5.217-8.39
	c3.003-1.67,6.456-3.481,10.425-5.471C348.764,251.225,351.279,254.519,352.274,259.342z"/>
<path fill="#B2563D" d="M340.416,289.134l-4.312,19.542c-0.288,1.466-1.925,2.221-3.228,1.489l-9.493-5.341
	c-1.388-0.781-2.113-2.37-1.792-3.93l3.019-14.673L340.416,289.134z"/>
<path fill="#1F1440" d="M313.008,291.673c-3.72-6.51,2.204-16.78,7.751-20.66c2.666-1.863,5.857-2.987,8.729-4.522
	c3.095-1.655,6.116-3.483,8.826-5.724c5.81-4.804,13.707-16.469,6.459-23.367c-6.604-6.285-18.627,2.999-23.512,7.548
	c-4.38,4.078-8.255,9.154-10.571,14.667C308.266,265.385,309.222,270.647,313.008,291.673z"/>
<path fill="#93402C" d="M338.698,296.92c-8.68,0.892-12.023-4.748-14.454-8.924c-0.211-3.755-0.546-3.463,0.542-3.01
	c1.813,0.755,6.418,6.391,15.63,4.147C339.355,292.672,340.416,289.517,338.698,296.92z"/>
<g>
	<path fill="#FFFFFF" d="M320.149,280.052c4.407,11.688,22.891,14.307,28.735,2.279c0.394-0.812-0.82-1.526-1.216-0.71
		c-5.24,10.782-22.147,8.706-26.162-1.943C321.19,278.838,319.829,279.202,320.149,280.052L320.149,280.052z"/>
</g>
<path fill="#FFFFFF" d="M339.594,279.324l-10.065-2.651c0,0-0.912,5.711,4.389,6.648
	C339.219,284.257,339.594,279.324,339.594,279.324z"/>
<path fill="#342364" d="M330.97,231.563c4.131,0.831,8.467,3.236,10.114,7.227c0.85,1.967,1.004,4.219,0.698,6.423
	c-0.144,1.111-0.42,2.19-0.776,3.244c-0.389,1.041-0.893,2.038-1.506,2.971c-1.25,1.853-2.939,3.415-4.831,4.704
	c-1.883,1.307-3.94,2.384-6.002,3.453c-2.061,1.073-4.16,2.115-6.103,3.425c-1.932,1.298-3.735,2.911-4.828,4.983
	c1.182-2.024,3.026-3.533,4.988-4.735c1.973-1.212,4.096-2.158,6.203-3.143c2.109-0.983,4.232-1.98,6.231-3.245
	c2.002-1.245,3.868-2.813,5.308-4.765c0.709-0.982,1.305-2.047,1.778-3.168c0.439-1.131,0.79-2.302,0.996-3.493
	c0.202-1.194,0.319-2.417,0.249-3.654c-0.074-1.234-0.316-2.475-0.759-3.654c-0.874-2.373-2.575-4.396-4.589-5.838
	c-1.004-0.734-2.085-1.344-3.207-1.85c-1.139-0.507-2.248-0.914-3.542-1.208c-0.635-0.144-1.267,0.255-1.411,0.89
	c-0.144,0.636,0.255,1.268,0.89,1.412c0.007,0.001,0.015,0.003,0.022,0.005L330.97,231.563z"/>
<polygon fill="#1D7BB6" points="349.262,318.251 368.155,349.516 338.203,347.915 334.408,315.317 336.346,311.594 337.902,308.115 
	"/>
<path fill="#1F1440" d="M345.812,247.635c0.024,0.031,0.118,0.269,0.173,0.432c0.055,0.187,0.114,0.379,0.158,0.578
	c0.09,0.399,0.133,0.818,0.17,1.241c0.028,0.852-0.044,1.727-0.245,2.595c-0.381,1.743-1.225,3.433-2.298,4.984
	c-0.495,0.805-1.161,1.507-1.751,2.261c-0.679,0.686-1.313,1.42-2.044,2.065c-1.435,1.312-2.968,2.568-4.581,3.694
	c-1.591,1.166-3.297,2.158-5.037,3.099c-1.748,0.931-3.577,1.714-5.411,2.541c-1.821,0.83-3.698,1.711-5.225,3.081
	c-1.526,1.37-2.577,3.149-3.334,4.996c0.877-1.797,2.034-3.476,3.587-4.694c1.555-1.221,3.413-1.952,5.273-2.656
	c1.869-0.699,3.773-1.37,5.623-2.205c1.841-0.844,3.671-1.754,5.389-2.847c1.744-1.056,3.398-2.237,5.008-3.526
	c0.813-0.629,1.547-1.368,2.32-2.058c0.7-0.775,1.464-1.49,2.085-2.354c1.307-1.652,2.433-3.538,3.059-5.681
	c0.32-1.066,0.498-2.191,0.532-3.341c-0.008-0.578-0.031-1.159-0.123-1.745c-0.043-0.293-0.109-0.588-0.179-0.885
	c-0.09-0.316-0.147-0.557-0.334-0.98l-0.087-0.197c-0.356-0.804-1.297-1.167-2.101-0.81s-1.167,1.296-0.81,2.1
	C345.678,247.434,345.743,247.542,345.812,247.635z"/>
<path fill="#2A2C75" d="M371.698,598.205l1.974-0.956c-9.917-20.471-23.039-50.618-29.234-77.991
	c-3.705-16.366-3.154-24.062-3.148-24.138c0.024-0.306-0.08-0.606-0.288-0.832c-0.208-0.224-0.5-0.353-0.805-0.353h-3v-7.247
	c0-0.284-0.11-0.558-0.308-0.762c-36.283-37.544-47.207-68.14-47.313-68.444l-2.072,0.721c0.107,0.308,11.096,31.149,47.499,68.929
	v7.9c0,0.606,0.491,1.097,1.097,1.097h2.961c-0.031,2.743,0.235,10.282,3.192,23.414
	C345.688,534.788,353.583,560.811,371.698,598.205z"/>
<polygon fill="#B2563D" points="251.435,296.51 233.394,281.045 221.15,220.217 231.161,220.217 250.667,274.295 267.949,281.437 
	"/>
<path fill="#FFFFFF" d="M337.337,361.471c-0.593,6.335-1.421,12.855-2.563,19.333c-2.402,13.633-6.183,27.074-12.043,38.183
	c0,0-12.491,4.146-28.585-3.995c-16.099-8.139,5.397-117.742,27.687-115.261c-0.075,0.357-0.11,0.71-0.11,1.064
	c0,1.884,1.013,3.663,2.701,4.612l8.456,4.758c1.303,0.734,2.94-0.02,3.227-1.488l0.455-2.065c0.459,0.467,0.907,0.97,1.343,1.503
	C337.902,308.115,340.018,332.905,337.337,361.471z"/>
<path fill="#19A8CB" d="M321.832,299.729c0,0-4.141-2.296-12.326-2.913c-7.077-0.534-18.377-3.437-24.711-6.637
	c-17.352-8.768-31.815-16.789-31.815-16.789l-19.586,7.655c0,0,15.062,15.74,31.542,28.962c7.35,5.896,11.297,15.051,10.479,24.438
	c-0.694,7.964-1.608,17.725-3.168,29.726l-22.69,51.404c0,0-15.582,31.755,11.182,35.741c26.764,3.985,41.959-45.845,41.959-45.845
	s16.95-52.674,13.69-77.586C313.126,302.975,321.832,299.729,321.832,299.729z"/>
<path fill="#FFFFFF" d="M338.568,321.564c0,0,8.922,18.468,8.887,29.253c-0.035,10.785-15.722,11.567-15.722,11.567L338.568,321.564
	z"/>
<polygon fill="#19A8CB" points="231.161,273.862 234.02,284.987 254.861,274.295 250.985,265.798 "/>
<path fill="#19A8CB" d="M372.163,328.254l21.58,13.72c0,0-2.63,9.22-3.083,9.311c-0.454,0.091-10.699,0.544-10.699,0.544
	l-9.84-23.121L372.163,328.254z"/>
<polygon fill="#1D7BB6" points="374.67,339.398 379.469,350.672 374.245,350.161 "/>
<polygon fill="#1D7BB6" points="249.74,276.922 241.606,289.24 236.174,283.882 "/>
<polygon fill="#93402C" points="228.034,254.418 245.734,260.619 248.082,267.008 231.86,273.607 "/>
<path fill="#FFFFFF" d="M234.02,286.083c0.172,0,0.344-0.041,0.501-0.121l17.938-9.203l-1.002-1.951l-16.716,8.576l-1.479-5.754
	l-2.124,0.546l1.82,7.083c0.083,0.323,0.308,0.591,0.612,0.727C233.713,286.051,233.866,286.083,234.02,286.083z"/>
<rect x="373.909" y="326.647" transform="matrix(-0.9204 0.391 -0.391 -0.9204 853.1614 506.6793)" fill="#FFFFFF" width="2.193" height="27.074"/>
<g>
	<polygon fill="#FFFFFF" points="380.998,340.625 393.747,351.548 391.49,353.731 	"/>
</g>
<path fill="#1F1440" d="M279.839,287.251c0,0-8.219,10.854-4.269,20.864c3.95,10.009,17.615,17.703,26.111,17.709
	c17.234,0.016,20.859-18.098,20.15-26.095c-0.71-7.997-3.081-10.061-3.081-10.061L279.839,287.251z"/>
<g>
	<path fill="#342364" d="M301.515,271.957c-4.32,3.468-8.395,7.295-11.658,11.732c-1.626,2.215-3.037,4.582-4.116,7.083
		c-1.081,2.498-1.822,5.132-2.154,7.806c-0.358,2.627,0.027,5.286,1.117,7.644c1.08,2.364,2.808,4.409,4.844,6.067
		c2.042,1.66,4.385,2.96,6.851,3.914c2.467,0.952,5.066,1.567,7.664,1.777c0.865,0.069,1.51,0.827,1.441,1.691
		s-0.826,1.51-1.691,1.44c-0.023-0.002-0.053-0.005-0.076-0.008c-2.918-0.377-5.737-1.192-8.393-2.364
		c-2.652-1.175-5.152-2.716-7.328-4.663c-2.168-1.943-4.013-4.333-5.115-7.082c-1.117-2.736-1.396-5.802-0.866-8.648
		c0.484-2.813,1.395-5.531,2.637-8.068c1.241-2.539,2.805-4.896,4.564-7.07C292.769,278.856,297.037,275.219,301.515,271.957z"/>
</g>
<path fill="#F3DBAF" d="M337.337,361.471c-0.593,6.335-1.421,12.855-2.563,19.333l-7.867-18.337
	C331.923,362.542,335.26,362.012,337.337,361.471z"/>
<g>
	<path fill="#1F1440" d="M589.668,629.792l-42.617-0.787l-42.617-0.725l-85.234-1.136l-21.308-0.327l-21.309-0.392
		c-14.206-0.241-28.412-0.257-42.618-0.037l-21.308,0.444c-7.103,0.224-14.206,0.374-21.309,0.678
		c-14.206,0.525-28.412,1.197-42.617,2.281v0.757c14.206,1.085,28.412,1.756,42.617,2.282c7.103,0.303,14.206,0.453,21.309,0.678
		l21.308,0.444c14.206,0.22,28.412,0.203,42.618-0.037l21.309-0.392l21.308-0.327l85.234-1.136l42.617-0.726l42.617-0.787V629.792z"
		/>
</g>
<g>
	<path fill="#1F1440" d="M336.882,611.337l-41.974-0.787l-41.974-0.727l-83.948-1.134L148,608.362l-20.987-0.391
		c-13.991-0.241-27.982-0.257-41.974-0.038l-20.987,0.444c-6.996,0.225-13.991,0.375-20.987,0.678
		c-13.991,0.526-27.982,1.198-41.974,2.282v0.757c13.992,1.084,27.982,1.757,41.974,2.282c6.996,0.304,13.992,0.453,20.987,0.678
		l20.987,0.444c13.992,0.219,27.983,0.204,41.974-0.037L148,615.07l20.987-0.328l83.948-1.135l41.974-0.725l41.974-0.788V611.337z"
		/>
</g>
<g>
	<g>
		<g>
			<rect x="450.268" y="205.942" fill="#A692C5" width="307.459" height="233.674"/>
		</g>
	</g>
	<polygon fill="#8E6AB1" points="770.99,239.104 773.184,239.104 773.184,191.963 677.46,191.963 677.46,194.156 770.99,194.156 	
		"/>
	<polygon fill="#8E6AB1" points="463.53,427.831 773.184,427.831 773.184,254.975 770.99,254.975 770.99,425.637 465.724,425.637 
		465.724,194.156 633.79,194.156 633.79,191.963 463.53,191.963 	"/>
	<g>
		<path fill="#8E6AB1" d="M450.268,205.942v10.52c0.354,0.048,0.718,0.071,1.085,0.071c4.714,0,8.533-3.819,8.533-8.53
			c0-0.712-0.087-1.401-0.254-2.061H450.268z"/>
		<path fill="#8E6AB1" d="M450.268,224.821v16.918c0.354,0.048,0.718,0.071,1.085,0.071c4.714,0,8.533-3.819,8.533-8.53
			c0-4.71-3.819-8.533-8.533-8.533C450.986,224.748,450.622,224.77,450.268,224.821z"/>
		<path fill="#8E6AB1" d="M450.268,250.099v16.918c0.354,0.048,0.718,0.071,1.085,0.071c4.714,0,8.533-3.819,8.533-8.53
			s-3.819-8.53-8.533-8.53C450.986,250.028,450.622,250.051,450.268,250.099z"/>
		<path fill="#8E6AB1" d="M450.268,275.377v16.921c0.354,0.048,0.718,0.071,1.085,0.071c4.714,0,8.533-3.822,8.533-8.533
			s-3.819-8.53-8.533-8.53C450.986,275.306,450.622,275.329,450.268,275.377z"/>
		<path fill="#8E6AB1" d="M450.268,300.654v16.921c0.354,0.049,0.718,0.071,1.085,0.071c4.714,0,8.533-3.819,8.533-8.534
			c0-4.711-3.819-8.53-8.533-8.53C450.986,300.583,450.622,300.606,450.268,300.654z"/>
		<path fill="#8E6AB1" d="M450.268,325.932v16.921c0.354,0.048,0.718,0.071,1.085,0.071c4.714,0,8.533-3.819,8.533-8.533
			c0-4.711-3.819-8.53-8.533-8.53C450.986,325.861,450.622,325.883,450.268,325.932z"/>
		<path fill="#8E6AB1" d="M450.268,351.209v16.922c0.354,0.048,0.718,0.07,1.085,0.07c4.714,0,8.533-3.819,8.533-8.53
			c0-4.714-3.819-8.532-8.533-8.532C450.986,351.139,450.622,351.162,450.268,351.209z"/>
		<path fill="#8E6AB1" d="M450.268,376.487v16.922c0.354,0.049,0.718,0.07,1.085,0.07c4.714,0,8.533-3.818,8.533-8.529
			c0-4.715-3.819-8.533-8.533-8.533C450.986,376.417,450.622,376.439,450.268,376.487z"/>
		<path fill="#8E6AB1" d="M450.268,401.768v16.918c0.354,0.049,0.718,0.071,1.085,0.071c4.714,0,8.533-3.819,8.533-8.53
			s-3.819-8.533-8.533-8.533C450.986,401.694,450.622,401.717,450.268,401.768z"/>
		<path fill="#8E6AB1" d="M450.268,427.049v12.567h8.562c0.673-1.217,1.056-2.621,1.056-4.112c0-4.711-3.819-8.529-8.533-8.529
			C450.986,426.975,450.622,426.998,450.268,427.049z"/>
		<path fill="#8E6AB1" d="M468.13,208.003c0,4.099,3.323,7.422,7.422,7.422c4.1,0,7.423-3.323,7.423-7.422
			c0-0.715-0.101-1.407-0.293-2.061h-14.259C468.229,206.596,468.13,207.288,468.13,208.003z"/>
		<circle fill="#8E6AB1" cx="475.552" cy="233.28" r="7.422"/>
		<circle fill="#8E6AB1" cx="475.552" cy="258.558" r="7.422"/>
		<circle fill="#8E6AB1" cx="475.552" cy="283.836" r="7.422"/>
		<circle fill="#8E6AB1" cx="475.552" cy="309.114" r="7.422"/>
		<circle fill="#8E6AB1" cx="475.552" cy="334.393" r="7.422"/>
		<circle fill="#8E6AB1" cx="475.552" cy="359.67" r="7.423"/>
		<circle fill="#8E6AB1" cx="475.552" cy="384.948" r="7.422"/>
		<circle fill="#8E6AB1" cx="475.552" cy="410.227" r="7.422"/>
		<path fill="#8E6AB1" d="M468.13,435.504c0,1.521,0.457,2.934,1.243,4.112h12.359c0.785-1.179,1.243-2.592,1.243-4.112
			c0-4.099-3.323-7.422-7.423-7.422C471.453,428.083,468.13,431.406,468.13,435.504z"/>
		<path fill="#8E6AB1" d="M492.924,208.003c0,3.768,3.056,6.823,6.827,6.823c3.768,0,6.823-3.056,6.823-6.823
			c0-0.718-0.109-1.41-0.315-2.061h-13.02C493.033,206.593,492.924,207.285,492.924,208.003z"/>
		<circle fill="#8E6AB1" cx="499.75" cy="233.28" r="6.825"/>
		<circle fill="#8E6AB1" cx="499.75" cy="258.558" r="6.825"/>
		<circle fill="#8E6AB1" cx="499.75" cy="283.836" r="6.825"/>
		<circle fill="#8E6AB1" cx="499.75" cy="309.114" r="6.825"/>
		<circle fill="#8E6AB1" cx="499.75" cy="334.392" r="6.825"/>
		<circle fill="#8E6AB1" cx="499.75" cy="359.67" r="6.825"/>
		<circle fill="#8E6AB1" cx="499.75" cy="384.949" r="6.825"/>
		<circle fill="#8E6AB1" cx="499.75" cy="410.227" r="6.825"/>
		<path fill="#8E6AB1" d="M492.924,435.504c0,1.546,0.513,2.97,1.375,4.112h10.9c0.862-1.143,1.375-2.566,1.375-4.112
			c0-3.771-3.056-6.826-6.823-6.826C495.979,428.678,492.924,431.734,492.924,435.504z"/>
		<path fill="#8E6AB1" d="M518.83,208.003c0,2.827,2.289,5.117,5.117,5.117c2.826,0,5.119-2.29,5.119-5.117
			c0-0.734-0.154-1.43-0.435-2.061h-9.367C518.984,206.573,518.83,207.269,518.83,208.003z"/>
		<circle fill="#8E6AB1" cx="523.947" cy="233.28" r="5.119"/>
		<circle fill="#8E6AB1" cx="523.947" cy="258.558" r="5.119"/>
		<circle fill="#8E6AB1" cx="523.947" cy="283.836" r="5.119"/>
		<circle fill="#8E6AB1" cx="523.947" cy="309.114" r="5.119"/>
		<circle fill="#8E6AB1" cx="523.947" cy="334.393" r="5.119"/>
		<circle fill="#8E6AB1" cx="523.947" cy="359.67" r="5.119"/>
		<circle fill="#8E6AB1" cx="523.947" cy="384.948" r="5.119"/>
		<circle fill="#8E6AB1" cx="523.947" cy="410.227" r="5.119"/>
		<path fill="#8E6AB1" d="M518.83,435.504c0,1.685,0.812,3.179,2.066,4.112h6.1c1.256-0.934,2.07-2.428,2.07-4.112
			c0-2.826-2.293-5.12-5.119-5.12C521.119,430.384,518.83,432.678,518.83,435.504z"/>
		<path fill="#8E6AB1" d="M544.562,208.003c0,1.977,1.604,3.581,3.584,3.581c1.978,0,3.584-1.604,3.584-3.581
			c0-0.766-0.241-1.478-0.653-2.061h-5.861C544.803,206.525,544.562,207.237,544.562,208.003z"/>
		<circle fill="#8E6AB1" cx="548.145" cy="233.28" r="3.583"/>
		<circle fill="#8E6AB1" cx="548.145" cy="258.558" r="3.583"/>
		<circle fill="#8E6AB1" cx="548.145" cy="283.836" r="3.583"/>
		<circle fill="#8E6AB1" cx="548.145" cy="309.115" r="3.583"/>
		<circle fill="#8E6AB1" cx="548.145" cy="334.392" r="3.583"/>
		<circle fill="#8E6AB1" cx="548.145" cy="359.67" r="3.584"/>
		<circle fill="#8E6AB1" cx="548.145" cy="384.949" r="3.583"/>
		<circle fill="#8E6AB1" cx="548.145" cy="410.227" r="3.583"/>
		<circle fill="#8E6AB1" cx="548.145" cy="435.505" r="3.583"/>
		<circle fill="#8E6AB1" cx="572.343" cy="208.002" r="2.329"/>
		<circle fill="#8E6AB1" cx="572.343" cy="233.28" r="2.329"/>
		<circle fill="#8E6AB1" cx="572.343" cy="258.558" r="2.329"/>
		<circle fill="#8E6AB1" cx="572.343" cy="283.836" r="2.329"/>
		<circle fill="#8E6AB1" cx="572.343" cy="309.115" r="2.329"/>
		<circle fill="#8E6AB1" cx="572.343" cy="334.393" r="2.33"/>
		<circle fill="#8E6AB1" cx="572.343" cy="359.67" r="2.329"/>
		<circle fill="#8E6AB1" cx="572.343" cy="384.949" r="2.329"/>
		<circle fill="#8E6AB1" cx="572.343" cy="410.226" r="2.329"/>
		<circle fill="#8E6AB1" cx="572.343" cy="435.504" r="2.329"/>
		<circle fill="#8E6AB1" cx="596.541" cy="208.002" r="1.397"/>
		<circle fill="#8E6AB1" cx="596.541" cy="233.28" r="1.397"/>
		<circle fill="#8E6AB1" cx="596.541" cy="258.558" r="1.397"/>
		<circle fill="#8E6AB1" cx="596.541" cy="283.836" r="1.397"/>
		<circle fill="#8E6AB1" cx="596.541" cy="309.115" r="1.398"/>
		<circle fill="#8E6AB1" cx="596.541" cy="334.392" r="1.397"/>
		<circle fill="#8E6AB1" cx="596.541" cy="359.67" r="1.397"/>
		<circle fill="#8E6AB1" cx="596.541" cy="384.948" r="1.397"/>
		<circle fill="#8E6AB1" cx="596.541" cy="410.227" r="1.397"/>
		<circle fill="#8E6AB1" cx="596.541" cy="435.504" r="1.397"/>
		<circle fill="#8E6AB1" cx="620.738" cy="208.002" r="0.782"/>
		<circle fill="#8E6AB1" cx="620.738" cy="233.28" r="0.782"/>
		<circle fill="#8E6AB1" cx="620.738" cy="258.558" r="0.782"/>
		<circle fill="#8E6AB1" cx="620.738" cy="283.836" r="0.782"/>
		<circle fill="#8E6AB1" cx="620.738" cy="309.115" r="0.782"/>
		<circle fill="#8E6AB1" cx="620.738" cy="334.393" r="0.783"/>
		<circle fill="#8E6AB1" cx="620.738" cy="359.67" r="0.783"/>
		<circle fill="#8E6AB1" cx="620.738" cy="384.949" r="0.782"/>
		<circle fill="#8E6AB1" cx="620.738" cy="410.227" r="0.783"/>
		<circle fill="#8E6AB1" cx="620.738" cy="435.505" r="0.783"/>
	</g>
</g>
<g>
	<polygon fill="#19A8CB" points="755.879,127.661 729.585,105.116 709.978,121.928 690.372,105.116 670.768,121.927 
		651.163,105.116 631.559,121.927 611.952,105.116 592.348,121.927 572.742,105.116 546.451,127.662 559.825,143.259 
		572.742,132.183 592.348,148.993 611.952,132.183 631.559,148.993 651.163,132.183 670.768,148.993 690.372,132.183 
		709.978,148.993 729.585,132.182 742.504,143.259 	"/>
</g>
<g>
	<polygon fill="#19A8CB" points="626.297,78.604 635.075,71.077 632.505,68.081 626.297,73.404 606.691,56.593 585.803,74.505 
		588.372,77.502 606.691,61.793 	"/>
	<polygon fill="#19A8CB" points="665.507,78.604 685.112,61.793 703.433,77.503 706.002,74.506 685.112,56.593 665.507,73.404 
		645.902,56.593 637.452,63.838 640.022,66.835 645.902,61.793 	"/>
	<polygon fill="#19A8CB" points="704.717,105.959 724.324,89.148 735.816,99.001 738.672,95.671 724.324,83.37 704.717,100.181 
		698.607,94.942 695.752,98.272 	"/>
	<polygon fill="#19A8CB" points="587.087,105.959 606.691,89.148 626.297,105.959 645.902,89.149 665.507,105.959 685.112,89.148 
		689.084,92.554 691.938,89.224 685.112,83.37 665.507,100.181 645.902,83.371 626.297,100.181 606.691,83.37 587.087,100.181 
		567.482,83.37 553.138,95.671 555.992,99.001 567.482,89.148 	"/>
</g>
<g>
	<path fill="#241F3F" d="M746.214,271.032c0.761,2.145,1.268,4.567,1.264,6.881c-0.004,2.309-0.618,4.67-2.327,6.185
		c-1.697,1.531-4.203,2.031-6.612,2.052c-2.441-0.003-4.895-0.421-7.3-0.993c2.352,0.764,4.771,1.388,7.278,1.597
		c2.471,0.169,5.207-0.074,7.401-1.723c1.078-0.811,1.912-1.946,2.444-3.178c0.538-1.234,0.811-2.55,0.927-3.854
		c0.205-2.632-0.104-5.167-0.784-7.745L746.214,271.032z"/>
</g>
<path fill="#241F3F" d="M749.014,250.427c3.363,0.707,6.252,3.209,7.349,6.367c1.098,3.158,0.365,6.86-1.861,9.419
	c-1.597,1.835-3.825,3.042-5.613,4.702c-1.865,1.731-3.232,3.96-3.908,6.371c-0.48,1.712-0.638,3.557-1.606,5.066
	c-1.724,2.686-6.046,3.337-8.503,1.28c-1.872-1.569-2.461-4.124-2.732-6.514c-0.683-6.027-0.001-12.205,1.984-17.972
	c1.017-2.953,2.462-5.915,4.993-7.838s6.378-2.499,8.919-0.617L749.014,250.427z"/>
<path fill="#241F3F" d="M747.621,268.201c0,0,2.718,15.971-8.129,16.55l1.258-9.742L747.621,268.201z"/>
<path fill="#B2563D" d="M668.373,355.062c0,0,30.965,33.408,39.693,33.408c2.4,0,5.589-1.979,8.954-4.853
	c3.577-3.051,7.351-7.108,10.584-10.866c4.784-5.566,8.379-10.474,8.379-10.474l-12.711-39.388l-0.158,0.382l-9.292,22.161v0.004
	l-8.01,19.103l-33.5-17.456L668.373,355.062z"/>
<path fill="#93402C" d="M713.822,345.433v0.004l3.198,38.181c3.577-3.051,7.351-7.108,10.584-10.866
	c0.104-7.744-0.028-32.194-0.075-33.031c-0.044-0.777-3.122-11.826-4.415-16.448L713.822,345.433z"/>
<path fill="#FFFFFF" d="M723.998,299.813l10.456-1.919l21.502,110.3l-11.849,11.33l-10.253-6.028
	C733.854,413.495,715.3,345.042,723.998,299.813z"/>
<path fill="#1D7BB6" d="M723.998,299.813c0,0-13.475,59.366,9.856,119.71l6.384-3.204
	C740.238,416.319,719.056,364.42,723.998,299.813z"/>
<path fill="#2A2C75" d="M787.133,423.325c0,0,2.514,38.701-9.549,74.389c0,0,30.66-6.534,87.96,17.592v10.555
	c0,0-90.377,1.007-119.075-17.089l-12.614-29.152L787.133,423.325z"/>
<path fill="#534EA2" d="M788.139,405.732c0,0,26.137,23.12-53.279,89.971c0,0,15.079,21.11,23.121,102.537h-12.063l-45.237-100.526
	c0,0,12.884-52.424,38.651-85.849c2.994-3.883,7.638-6.133,12.542-6.133H788.139z"/>
<path fill="#B2563D" d="M671.762,344.364l-3.39-10.141l-9.166-2.253c0,0-5.795,11.589-6.439,11.589c-0.644,0-1.932,8.05-1.932,8.05
	l10.464,4.07l7.073-0.617l3.94-7.977L671.762,344.364z"/>
<path fill="#1F1440" d="M865.544,503.519h13.079v8.477l-4.388,2.089l4.388,2.099v25.127c0,0-13.794-8.006-13.079-27.235V503.519z"/>
<path fill="#1F1440" d="M757.98,598.24l1.986,7.106l-9.971,2.99c0,0-5.585-1.595-8.177,3.191h-23.532
	c0,0,1.417-10.622,27.631-13.288H757.98z"/>
<path fill="#B2563D" d="M721.677,283.106l3.406,17.357c0.291,1.481,1.946,2.245,3.263,1.504l11.949-6.723l-6.352-20.496
	L721.677,283.106z"/>
<polygon fill="#241F3F" points="741.983,250.05 720.654,243.032 717.395,256.599 735.505,265.518 "/>
<path fill="#B2563D" d="M701.767,260.896c0.006,0.202,0.037,0.4,0.057,0.6c0.69,5.87,2.668,11.59,5.88,16.602
	c0.994,1.556,2.064,3.092,3.435,4.359c3.41,3.14,11.681,4.291,16.155,2.78c4.01-1.353,7.164-4.578,9.104-8.241
	c1.94-3.663,2.811-7.766,3.412-11.83c3.464,0.299,6.796-2.968,6.425-6.31c-0.372-3.354-2.676-5.389-7.628-4.249
	c-0.156,0.002-0.313-0.008-0.472-0.031c-9.589-0.659-17.229-6.533-26.271-8.82c-1.6-0.402-6.25-2.075-7.513-0.858
	c-0.549,0.519-0.898,1.497-1.186,2.167c-0.688,1.515-1.106,3.129-1.354,4.754c-0.306,1.982-0.375,3.98-0.302,5.977
	C701.557,258.837,701.643,259.875,701.767,260.896z"/>
<path fill="#B2563D" d="M701.617,253.477c4.682,0.51,10.063-0.507,16.377-2.396c1.821-0.552,3.533-0.879,5.132-1.044
	c-3.668-1.616-7.341-3.281-11.263-4.28c-1.6-0.402-6.25-2.075-7.513-0.858c-0.549,0.519-0.898,1.497-1.186,2.167
	c-0.688,1.515-1.106,3.129-1.354,4.754C701.72,252.37,701.655,252.918,701.617,253.477z"/>
<g>
	<path fill="#FFFFFF" d="M739.839,265.621c-1.146,7.673-3.84,17.299-12.216,20.101c-3.553,1.189-6.997,1.445-10.497,0.082
		c-3.001-1.169-6.354-2.749-8.35-5.298c-0.372-0.475,0.348-1.099,0.722-0.622c1.834,2.344,4.948,3.841,7.693,4.938
		c3.556,1.421,7.091,1.149,10.663-0.161c7.526-2.762,9.982-12.131,11.023-19.093C738.967,264.978,739.929,265.026,739.839,265.621
		L739.839,265.621z"/>
</g>
<path fill="#93402C" d="M701.767,260.896c7.144,0.402,21.38-0.151,28.778-1.853c4.394-1.012,6.548-2.843,7.59-4.467
	c-9.589-0.659-17.229-6.533-26.271-8.82c-1.6-0.402-6.25-2.075-7.513-0.858c-0.549,0.519-0.898,1.497-1.186,2.167
	c-0.688,1.515-1.106,3.129-1.354,4.754c-0.306,1.982-0.375,3.98-0.302,5.977C701.557,258.837,701.643,259.875,701.767,260.896z"/>
<g>
	<path fill="#241F3F" d="M708.409,240.167c-0.824-0.045-0.745-1.287,0.081-1.242C709.314,238.97,709.234,240.212,708.409,240.167
		L708.409,240.167z"/>
</g>
<path fill="#FFFFFF" d="M725.623,272.312l-12.332-0.708c-0.378-0.021-0.672,0.31-0.588,0.667c0.471,1.995,2.311,7.495,8.256,7.168
	c6.188-0.34,5.51-5.269,5.177-6.71C726.081,272.492,725.872,272.326,725.623,272.312z"/>
<g>
	<path fill="#241F3F" d="M751.889,253.677c-0.022,0.135-0.032,0.097-0.048,0.117c-0.019,0.016-0.022-0.003-0.035-0.006
		c-0.028-0.01-0.04-0.036-0.06-0.063c-0.031-0.052-0.064-0.125-0.073-0.195c-0.038-0.151-0.019-0.314,0.044-0.504
		c0.142-0.363,0.545-0.79,1.134-1.065c0.577-0.292,1.278-0.498,2.014-0.625c0.74-0.133,1.508-0.178,2.296-0.215
		c-0.693-0.354-1.407-0.713-2.179-0.989c-0.771-0.278-1.596-0.495-2.516-0.559c-0.91-0.073-1.974,0.062-3.027,0.629
		c-0.514,0.295-1.023,0.692-1.428,1.207c-0.213,0.251-0.389,0.532-0.551,0.833c-0.078,0.154-0.155,0.305-0.219,0.482
		c-0.033,0.09-0.065,0.162-0.095,0.272c-0.029,0.113-0.057,0.169-0.087,0.397L751.889,253.677z"/>
</g>
<g>
	<path fill="#241F3F" d="M734.908,252.853c0.232,0.8,0.405,1.776,0.526,2.687c0.118,0.928,0.188,1.871,0.161,2.807
		c-0.044,1.865-0.392,3.793-1.652,5.36c0.833-0.545,1.541-1.321,2.109-2.194c0.578-0.874,0.977-1.847,1.327-2.835
		c0.345-0.992,0.586-2.013,0.774-3.046c0.181-1.051,0.32-2.043,0.357-3.197L734.908,252.853z"/>
</g>
<path fill="#2A2C75" d="M749.935,598.44l2.155-0.401c-10.629-57.036-20.041-89.92-23.533-99.34
	c-0.138-0.371-0.467-0.641-0.857-0.701l-9.421-1.482l4.75-4.704c21.523-21.104,33.271-41.123,39.338-54.199
	c6.595-14.219,8.061-23.315,8.12-23.695l-2.167-0.338c-0.015,0.091-1.498,9.245-7.988,23.208
	c-5.99,12.888-17.591,32.624-38.842,53.462l-6.295,6.234c-0.293,0.291-0.398,0.723-0.271,1.115c0.127,0.394,0.465,0.683,0.873,0.747
	l10.924,1.718C730.354,510.181,739.554,542.748,749.935,598.44z"/>
<path fill="#241F3F" d="M685.879,239.708c4.393,9.21,9.653,13.143,16.441,13.863c4.611,0.489,9.915-0.507,16.138-2.348
	c1.795-0.538,3.482-0.857,5.057-1.021c7.276-0.744,12.125,2.093,14.779,4.381l0.013-0.001c0.156,0.022,0.298,0.033,0.452,0.03
	c2.184-0.502,3.849-0.38,5.046,0.203l4.748-3.851c-1.866-31.897-23.796-18.904-23.796-18.904l-5.82-8.597
	C700.281,199.719,678.519,224.27,685.879,239.708z"/>
<g>
	<path fill="#241F3F" d="M747.714,254.961c0.553-0.972,0.968-1.875,1.377-2.836c0.402-0.95,0.75-1.925,1.026-2.92
		c0.277-0.992,0.49-2.01,0.538-3.044c0.053-1.025-0.038-2.077-0.436-2.987c0.1,0.989-0.126,1.93-0.452,2.806
		c-0.326,0.88-0.792,1.704-1.308,2.489c-0.514,0.785-1.085,1.535-1.697,2.249c-0.603,0.703-1.269,1.425-1.899,2.001L747.714,254.961
		z"/>
</g>
<g>
	<path fill="#241F3F" d="M737.455,252.469c-1.479-0.744-2.823-1.195-4.297-1.593c-1.452-0.372-2.94-0.631-4.456-0.699
		c-3.016-0.128-6.177,0.443-8.827,2.006l-0.986,0.583l-0.819,0.519c-0.561,0.33-1.142,0.637-1.737,0.922
		c-1.193,0.569-2.447,1.045-3.729,1.425c-2.564,0.775-5.247,1.184-7.934,1.181c-1.342-0.019-2.682-0.14-4.006-0.371
		c-1.313-0.267-2.617-0.611-3.863-1.12c-2.497-1.001-4.785-2.543-6.708-4.476c-3.851-3.917-6.15-9.174-7.565-14.531
		c1.127,5.422,3.125,10.854,6.903,15.151c1.89,2.12,4.218,3.89,6.828,5.104c1.303,0.616,2.678,1.062,4.074,1.424
		c1.404,0.326,2.835,0.534,4.275,0.632c2.881,0.16,5.778-0.121,8.587-0.805c1.406-0.336,2.791-0.776,4.144-1.332
		c0.677-0.278,1.344-0.587,2.003-0.929l0.977-0.545l0.839-0.431c2.233-1.161,4.801-1.477,7.316-1.241
		c1.263,0.125,2.519,0.416,3.742,0.801c1.196,0.383,2.473,0.917,3.451,1.481l0.064,0.038c0.869,0.501,1.979,0.204,2.48-0.665
		c0.502-0.868,0.203-1.979-0.665-2.479C737.518,252.502,737.484,252.484,737.455,252.469z"/>
</g>
<g>
	<path fill="#514B66" d="M694.695,219.282c-3.038,1.607-5.444,4.391-6.643,7.646c-1.21,3.285-1.063,6.919-0.176,10.27
		c0.412,1.699,1.179,3.301,2.12,4.789c0.555,0.684,1.022,1.45,1.701,2.026c0.321,0.303,0.628,0.627,0.964,0.913l1.075,0.779
		c2.923,2.056,6.493,2.864,9.956,3.163c3.492,0.272,6.995,0.008,10.426-0.549c1.706-0.318,3.424-0.611,5.101-1.052
		c1.714-0.4,3.317-0.844,4.954-1.078l1.229-0.167c0.408-0.042,0.817-0.038,1.227-0.06c0.821-0.071,1.625,0.032,2.433,0.073
		c1.594,0.21,3.138,0.644,4.51,1.398c2.774,1.488,4.663,4.257,5.675,7.288l2.283-0.797c-1.237-3.406-3.57-6.663-6.965-8.36
		c-1.669-0.854-3.495-1.303-5.31-1.484c-0.907-0.026-1.818-0.106-2.712-0.005c-0.446,0.036-0.898,0.047-1.342,0.106l-1.318,0.217
		c-1.754,0.303-3.459,0.832-5.075,1.257c-1.632,0.481-3.295,0.814-4.953,1.175c-3.327,0.641-6.717,0.994-10.079,0.831
		c-3.335-0.189-6.746-0.864-9.537-2.713l-1.032-0.701c-0.324-0.259-0.616-0.555-0.928-0.831c-0.659-0.521-1.113-1.232-1.661-1.862
		c-0.93-1.382-1.713-2.891-2.158-4.523c-0.955-3.226-1.208-6.763-0.12-10.004C689.414,223.813,691.706,220.978,694.695,219.282z"/>
</g>
<path fill="#19A8CB" d="M736.721,291.707c0,0-9.192-0.736-9.192,15.454c0,16.19,20.548,104.126,20.548,104.126
	c26.616,9.104,46.992,10.048,60.651,2.208C808.728,413.495,790.343,296.122,736.721,291.707z"/>
<path fill="#1D7BB6" d="M736.634,309.079c0,0-13.66,33.773,37.896,53.692l19.376,38.774l5.794-41.878l-22.102-22.38L736.634,309.079
	z"/>
<g>
	<g>
		<g>
			<path fill="#684DA1" d="M877.129,295.992l-41.23,14.884c2.278,6.308,3.409,12.756,3.5,19.113
				c0.008,0.543,0.009,1.081-0.002,1.622c-0.104,7.991-1.851,15.814-5.018,23.003c-0.186,0.43-0.383,0.864-0.583,1.29
				c-0.004,0.002-0.004,0.002-0.004,0.002c-4.326,9.229-11.035,17.346-19.644,23.34c-0.357,0.25-0.713,0.495-1.079,0.734
				c-3.847,2.554-8.053,4.691-12.585,6.326c-3.521,1.271-7.088,2.188-10.655,2.758c-0.404,0.07-0.808,0.131-1.211,0.182
				c-5.348,0.753-10.693,0.742-15.904,0.037c-0.416-0.051-0.828-0.112-1.242-0.179c-6.145-0.958-12.077-2.881-17.582-5.666
				c-0.398-0.197-0.791-0.404-1.176-0.615c-3.446-1.835-6.704-4.01-9.732-6.502c-0.307-0.252-0.614-0.509-0.919-0.771
				c-7.469-6.4-13.435-14.76-17.008-24.658l-41.23,14.884c1.805,4.999,3.965,9.804,6.458,14.388c0.201,0.371,0.404,0.737,0.61,1.106
				c10.036,17.936,25.188,32.388,43.917,41.665c0.388,0.191,0.778,0.382,1.168,0.568c0.273,0.135,0.554,0.267,0.829,0.396
				c13.048,6.129,26.944,9.394,40.932,9.761c0.484,0.014,0.962,0.021,1.443,0.026c12.171,0.149,24.397-1.893,36.188-6.149
				c4.373-1.578,8.597-3.431,12.658-5.538c0.376-0.198,0.757-0.398,1.138-0.599c3.439-1.843,6.754-3.867,9.938-6.07
				c0.344-0.24,0.691-0.482,1.034-0.723c8.398-5.968,15.833-13.168,22.086-21.403c0.302-0.396,0.601-0.795,0.895-1.197
				c3.978-5.401,7.458-11.242,10.374-17.452c1.821-3.88,3.39-7.838,4.707-11.85c0.14-0.431,0.279-0.862,0.416-1.292
				C885.284,340.118,884.838,317.345,877.129,295.992z"/>
			<path fill="#FFFFFF" d="M877.129,295.992c7.709,21.353,8.155,44.125,1.486,65.421c-0.137,0.43-0.276,0.861-0.416,1.292
				c-1.317,4.012-2.886,7.97-4.707,11.85c-2.916,6.21-6.396,12.051-10.374,17.452c-0.294,0.402-0.593,0.802-0.895,1.197
				c-6.253,8.235-13.688,15.436-22.086,21.403c-0.343,0.24-0.69,0.482-1.034,0.723c-3.185,2.203-6.499,4.228-9.938,6.07
				c-0.381,0.2-0.762,0.4-1.138,0.599c-4.062,2.107-8.285,3.96-12.658,5.538c-11.388,4.111-23.181,6.157-34.939,6.157
				c-0.415,0-0.833-0.003-1.248-0.008c-0.481-0.006-0.959-0.013-1.443-0.026c-13.987-0.367-27.884-3.632-40.932-9.761
				c-0.275-0.129-0.556-0.261-0.829-0.396c-0.39-0.187-0.78-0.377-1.168-0.568c-18.729-9.277-33.881-23.729-43.917-41.665
				c-0.206-0.369-0.409-0.735-0.61-1.106c-2.493-4.584-4.653-9.389-6.458-14.388l41.23-14.884
				c3.573,9.898,9.539,18.258,17.008,24.658c0.305,0.262,0.612,0.519,0.919,0.771c3.028,2.492,6.286,4.667,9.732,6.502
				c0.385,0.211,0.777,0.418,1.176,0.615c5.505,2.785,11.438,4.708,17.582,5.666c0.414,0.066,0.826,0.128,1.242,0.179
				c2.582,0.35,5.196,0.528,7.829,0.528c2.68,0,5.377-0.186,8.075-0.565c0.403-0.051,0.807-0.111,1.211-0.182
				c3.567-0.57,7.135-1.487,10.655-2.758c4.532-1.635,8.738-3.772,12.585-6.326c0.366-0.239,0.722-0.484,1.079-0.734
				c8.608-5.994,15.317-14.111,19.644-23.34c0,0,0,0,0.004-0.002c0.2-0.426,0.397-0.86,0.583-1.29
				c3.167-7.188,4.914-15.012,5.018-23.003c0.011-0.541,0.01-1.079,0.002-1.622c-0.091-6.357-1.222-12.806-3.5-19.113
				L877.129,295.992L877.129,295.992z M880.556,288.692l-5.362,1.937l-41.23,14.884l-5.363,1.937l1.937,5.363
				c2.013,5.578,3.076,11.384,3.16,17.262c0.008,0.53,0.008,0.997,0,1.426l-0.001,0.019v0.019
				c-0.094,7.17-1.619,14.161-4.535,20.777l-0.009,0.021l-0.009,0.021c-0.085,0.196-0.178,0.404-0.276,0.622l-0.237,0.507
				c-3.975,8.479-10.109,15.769-17.748,21.087c-0.277,0.194-0.604,0.421-0.936,0.637l-0.015,0.011l-0.016,0.01
				c-3.527,2.343-7.351,4.265-11.367,5.714c-3.14,1.134-6.376,1.972-9.619,2.49l-0.035,0.006l-0.035,0.006
				c-0.319,0.056-0.644,0.104-0.961,0.145l-0.037,0.005l-0.037,0.006c-2.401,0.337-4.852,0.509-7.28,0.509
				c-2.35,0-4.726-0.161-7.064-0.477l-0.036-0.005l-0.036-0.005c-0.288-0.035-0.608-0.082-1.056-0.152
				c-5.532-0.863-10.877-2.586-15.886-5.121l-0.023-0.011l-0.024-0.013c-0.291-0.144-0.607-0.31-0.969-0.507l-0.027-0.015
				l-0.026-0.015c-3.11-1.656-6.067-3.632-8.786-5.869c-0.278-0.229-0.557-0.461-0.836-0.7c-6.931-5.94-12.24-13.64-15.355-22.265
				l-1.936-5.363l-5.363,1.936l-41.229,14.886l-5.364,1.936l1.937,5.363c1.888,5.229,4.18,10.336,6.809,15.169
				c0.185,0.343,0.372,0.681,0.562,1.021l0.085,0.153c10.649,19.029,26.681,34.241,46.363,43.99c0.4,0.198,0.806,0.396,1.209,0.588
				c0.295,0.146,0.598,0.288,0.894,0.428c13.714,6.441,28.25,9.906,43.2,10.3c0.515,0.014,1.023,0.021,1.529,0.027
				c0.439,0.006,0.88,0.008,1.318,0.008c12.528,0,24.936-2.186,36.876-6.495c4.564-1.649,9.056-3.613,13.348-5.84l0.019-0.01
				l0.018-0.01l0.982-0.518l0.148-0.077l0.019-0.01l0.019-0.01c3.608-1.933,7.137-4.089,10.49-6.408l0.013-0.009l0.014-0.009
				l0.495-0.347l0.54-0.377l0.016-0.012l0.016-0.012c8.878-6.307,16.725-13.911,23.321-22.598c0.354-0.465,0.666-0.884,0.947-1.269
				c4.211-5.717,7.893-11.911,10.944-18.411c1.901-4.048,3.571-8.251,4.964-12.493l0.005-0.015l0.002-0.01
				c0.145-0.442,0.288-0.886,0.433-1.343c7.102-22.675,6.561-46.557-1.563-69.062L880.556,288.692L880.556,288.692z"/>
		</g>
	</g>
	<g>
		<path fill="#FFFFFF" d="M718.454,384.186c-2.384,1.516-3.955,3.986-4.255,6.807c-0.572,5.382,3.113,12.524,8.853,13.388
			c2.479,0.378,4.942-0.484,7.41-0.215c3.972,0.439,4.651,5.388,5.099,8.6c0.425,3.074,0.251,6.815-0.751,10.171
			c0.388,0.191,0.778,0.382,1.168,0.568c0.789-2.346,1.159-4.868,1.124-7.253c-0.054-3.413-0.5-7.841-2.361-10.812
			c-1.311-2.09-3.42-2.646-5.769-2.547c-3.425,0.144-6.637,0.98-9.474-1.59c-2.915-2.64-4.85-7.502-3.829-11.402
			c1.291-4.929,6.342-6.255,10.82-6.496c3.718-0.203,7.262-0.216,10.7-1.851c2.607-1.242,4.551-3.06,5.792-5.232
			c-0.307-0.252-0.614-0.509-0.919-0.771c-0.496,0.91-1.139,1.76-1.945,2.53c-2.776,2.639-6.609,3.749-10.351,3.938
			C725.927,382.219,721.829,382.041,718.454,384.186z"/>
	</g>
	<g>
		<path fill="#FFFFFF" d="M763.74,422.368c0.771,3.75,3.411,7.216,7.13,8.404c2.482,0.794,5.333,0.388,6.868,2.889
			c0.484,0.014,0.962,0.021,1.443,0.026c-0.257-0.562-0.6-1.092-1.019-1.568c-1.518-1.732-3.562-1.823-5.68-2.251
			c-2.591-0.525-4.675-1.978-6.084-4.216c-4.537-7.208,1.889-17.647,10.011-18.474c5.348-0.541,7.787,3.995,9.258,8.367
			c1.025,3.053,2.308,6.888,5.761,7.912c3.927,1.173,7.864-2.605,10.7-4.794c4.038-3.111,8.23-5.696,13.53-5.539
			c5.536,0.166,10.356,3.266,12.258,8.557c0.039,0.107,0.076,0.21,0.11,0.318c0.376-0.198,0.757-0.398,1.138-0.599
			c-0.095-0.262-0.194-0.525-0.302-0.787c-1.95-4.768-6.196-7.877-11.26-8.585c-4.654-0.654-9.145,0.675-13.013,3.254
			c-3.62,2.409-10.336,10.046-14.745,5.79c-3.266-3.15-3.048-8.529-5.911-12.031c-2.245-2.742-5.829-3.707-9.206-2.834
			C768.138,407.911,762.324,415.467,763.74,422.368z"/>
	</g>
	<g>
		<path fill="#FFFFFF" d="M803.83,403.628c-7.189,0.518-13.58-7.303-14.001-14.563c-0.404,0.07-0.808,0.131-1.211,0.182
			c0.165,2.083,0.783,4.168,1.696,6.078c3.506,7.325,12.416,13.017,19.829,7.114c3.813-3.034,5.848-8.071,6.135-12.849
			c0.212-3.509-0.706-7.044-2.13-10.344c-0.357,0.25-0.713,0.495-1.079,0.734c1.623,3.913,2.463,8.126,1.57,12.308
			C813.491,397.645,809.754,403.207,803.83,403.628z"/>
	</g>
	<g>
		<path fill="#FFFFFF" d="M834.379,354.615c-0.186,0.43-0.383,0.864-0.583,1.29c0.6,0.048,1.21,0.16,1.827,0.344
			c4.992,1.501,5.864,7.011,5.469,11.524c-0.411,4.646-2.599,12.588,4.086,13.925c5.147,1.027,10.357-3.309,11.844-7.98
			c0.882-2.784,0.396-5.731,0.999-8.553c0.854-3.991,4.634-6.379,8.511-6.811c4.495-0.497,8.388,1.499,11.668,4.352
			c0.14-0.431,0.279-0.862,0.416-1.292c-3.274-2.739-7.116-4.642-11.537-4.376c-3.052,0.188-6.107,1.429-8.198,3.704
			c-2.011,2.19-2.33,4.954-2.454,7.799c-0.184,4.037-1.072,7.683-4.555,10.163c-3.658,2.603-9.555,2.751-10.262-2.819
			c-0.438-3.445,0.873-6.939,0.837-10.402c-0.035-3.277-0.885-6.784-3.537-8.94C837.482,355.38,835.939,354.782,834.379,354.615z"/>
	</g>
	<g>
		<path fill="#FFFFFF" d="M839.565,401.022c-2.348,3.76-3.185,8.641-1.301,12.778c0.241,0.532,0.521,1.045,0.839,1.53
			c0.344-0.24,0.691-0.482,1.034-0.723c-0.512-0.797-0.917-1.672-1.197-2.598c-1.235-4.065,0.138-8.567,2.743-11.803
			c4.979-6.18,12.954-7.41,20.54-7.003c0.302-0.396,0.601-0.795,0.895-1.197C854.229,391.444,844.596,392.958,839.565,401.022z"/>
	</g>
	<g>
		<path fill="#FFFFFF" d="M854.742,304.074l-2.348,0.848c5.419,0.871,10.679,2.791,13.581,7.703
			c3.716,6.285,1.754,17.568-5.041,21.115c-2.874,1.499-6.733,1.643-9.413-0.37c-2.374-1.782-3.009-4.583-6.386-4.753
			c-1.983-0.104-3.927,0.432-5.737,1.373c0.008,0.543,0.009,1.081-0.002,1.622c0.256-0.146,0.52-0.286,0.785-0.418
			c1.523-0.76,3.239-1.43,4.964-1.294c2.435,0.187,3.18,2.078,4.667,3.629c2.985,3.116,8.039,3.251,11.707,1.335
			c4.678-2.437,6.912-7.903,7.361-12.911c0.518-5.756-1.257-11.093-6.094-14.496C860.332,305.731,857.593,304.708,854.742,304.074z"
			/>
	</g>
	<g>
		<path fill="#FFFFFF" d="M699.876,359.982l-1.165,0.421c1.25,3.402,1.027,7.391-0.26,10.75c-1.514,3.966-4.504,7.049-8.169,9.012
			c0.201,0.371,0.404,0.737,0.61,1.106c4.271-2.304,7.653-6.043,9.117-10.788C701.066,367.077,701.098,363.292,699.876,359.982z"/>
	</g>
	<g>
		<path fill="#FFFFFF" d="M752.714,382.824c-1.016,1.013-1.914,2.134-2.661,3.403c-1.195,2.026-2.034,4.655-1.164,6.967
			c0.665,1.767,2.434,3.217,4.376,3.184c1.915-0.032,2.746-1.565,4.904-0.664c1.438,0.605,2.417,1.991,3.717,2.812
			c1.873,1.188,3.992,1.204,5.938,0.147c3.243-1.763,4.487-5.567,4.891-9.389c-0.416-0.051-0.828-0.112-1.242-0.179
			c-0.358,3.477-1.449,6.945-4.318,8.47c-4.751,2.53-6.548-4.161-10.979-3.489c-1.38,0.212-2.222,1.331-3.743,0.876
			c-1.436-0.427-2.419-1.734-2.59-3.214c-0.298-2.55,1.192-5.077,2.773-6.952c0.401-0.477,0.83-0.927,1.275-1.356
			C753.491,383.242,753.099,383.035,752.714,382.824z"/>
	</g>
</g>
<polygon fill="#B2563D" points="786.093,328.374 804.325,346.342 806.582,418.758 796.463,418.758 786.869,354.185 769.403,345.887 
	"/>
<path fill="#19A8CB" d="M788.018,328.385l-19.268,20.472c0,0-43.953-32.285-37.33-50.964
	C738.043,279.215,788.018,328.385,788.018,328.385z"/>
<polygon fill="#93402C" points="791.117,333.324 781.134,351.46 770.883,346.59 787.097,329.364 "/>
<path fill="#FFFFFF" d="M768.75,349.954c0.293,0,0.584-0.117,0.799-0.345l14.806-15.731l-1.597-1.504l-14.14,15.024
	c-2.482-1.85-10.536-8.002-18.429-15.668c-12.321-11.968-18.666-22.145-18.35-29.428l-2.19-0.095
	c-0.827,18.981,36.854,46.383,38.459,47.54C768.301,349.886,768.526,349.954,768.75,349.954z"/>
<polygon fill="#B2563D" points="806.582,418.758 813.392,426.383 811.653,437.573 800.91,437.573 791.358,427.174 796.463,418.758 
	"/>
<g>
	<path fill="#23ACCD" d="M618.786,447.63c-3.363,11.869-3.733,25.729-3.733,25.729c-0.302-0.277-0.604-0.546-0.897-0.822
		c-19.807-18.212-30.258-34.822-35.678-48.211c24.604,16.3,6.065-0.117-2.659-7.601c-4.253-14.303-2.601-23.615-2.248-25.208
		c0.033-0.168,0.05-0.252,0.05-0.252s6.2,9.446,10.855,10.545c4.656,1.1,8.892,2.206,13.212,5.839
		c4.153,3.48,2.711,13.363,10.126,16.476c-0.008,10.486,0.453,32.121,4.891,2.181C618.66,430.105,621.597,437.756,618.786,447.63z"
		/>
	<path fill="#73439D" d="M674.921,429.012c0,0-4.842,32.928-33.753,46.018C641.168,475.03,615.977,473.174,674.921,429.012z"/>
	<path fill="#F9A60E" d="M611.044,516.935c0,0-11.712-6.56-13.01-22.075c0,0-5.126-10.784-13.646-9.348
		c-8.519,1.437-19.494-14.685-30.11-23.473c-10.618-8.788-21.813-6.533-21.813-6.533s12.677-4.11,29.293,6.01
		c16.614,10.121,24.211,16.527,24.211,16.527l14.783,10.179C600.753,488.222,613.773,509.877,611.044,516.935z"/>
	<path fill="#F6C721" d="M611.043,516.938c0,0,0,0-4.966-10.871c-4.966-10.864-4.933-18.43-15.98-24.109
		c-10.872-5.579-27.801-19.982-28.33-20.436c5.521,3.138,15.21,4.245,22.517,5.83c0.553,4.446,2.357,13.725,7.164,2.257
		c1.535,0.821,2.457,1.829,2.491,3.112c0.168,6.434,6.384,9.362,6.384,9.362C625.665,497.971,611.043,516.938,611.043,516.938z"/>
	<path fill="#8B6AB1" d="M674.907,429.024c-2.927,4.865-6.929,10.058-12.348,15.385c-25.167,24.747-21.392,30.619-21.392,30.619
		s-1.678,11.325-12.584,18.875c0,0-8.808-28.104,15.101-48.026c3.649-3.037,7.021-5.503,10.125-7.625
		c-1.233,6.644-1.519,13.212,7.315-4.748c12.549-7.911,19.336-12.147,21.147-35.653C682.272,397.85,685.628,411.282,674.907,429.024
		z"/>
	<path fill="#73439D" d="M686.148,473.107c-0.017-0.252-0.05-0.444-0.066-0.563C686.106,472.67,686.14,472.864,686.148,473.107z"/>
	<path fill="#643696" d="M653.432,498.382c0,0-10.729,1.115-11.282,10.906c-0.562,9.78-6.435,21.525-10.906,21.525
		c0,0-31.323-43.622,13.977-43.337h0.863c-4.723,5.227-13.203,15.284,6.25-0.101c32.289-1.1,34-11.317,33.824-14.228
		C686.509,476.773,686.006,492.267,653.432,498.382z"/>
	<path fill="#643696" d="M630.065,526.964c0,0,0.241,15.597-3.066,44.957c0.658,0,1.205-0.499,1.261-1.154
		c0.569-6.793,3.604-41.366,6.722-44.704C644.167,516.221,630.065,526.964,630.065,526.964z"/>
	<path fill="#73439D" d="M617.144,501.655c0,0,4.974,19.501,3.065,68.313c-0.042,1.089,0.847,1.99,1.935,1.953
		c1.021-0.035,1.825-0.875,1.809-1.896c-0.161-9.907-1.156-57.018-5.606-68.131L617.144,501.655z"/>
	<path fill="#F6C721" d="M609.889,516.181l3.897,55.736c0.045,0.642,0.603,1.126,1.245,1.081c0.651-0.045,1.139-0.618,1.078-1.27
		l-5.065-54.794L609.889,516.181z"/>
	<g>
		<path fill="#FFFFFF" d="M572.606,390.794c2.875,7.135,5.955,13.553,10.5,19.805c5.209,7.168,10.411,14.253,15.033,21.823
			c4.632,7.585,8.857,15.506,11.694,23.952c2.822,8.402,3.546,17.261,5.646,25.837c0.193,0.786,1.406,0.453,1.214-0.334
			c-2.039-8.329-2.75-16.938-5.411-25.118c-2.552-7.84-6.296-15.248-10.474-22.336c-4.345-7.373-9.177-14.382-14.263-21.259
			c-5.363-7.255-9.351-14.329-12.727-22.705C573.521,389.718,572.303,390.042,572.606,390.794L572.606,390.794z"/>
	</g>
	<g>
		<path fill="#643696" d="M630.504,490.559c0.023-8.578,0.83-16.519,5.297-24.041c3.768-6.346,9.016-11.608,14.092-16.898
			c0.562-0.585-0.327-1.476-0.89-0.891c-5.455,5.687-11.109,11.37-14.959,18.32c-4.086,7.378-4.776,15.218-4.799,23.51
			C629.243,491.369,630.501,491.371,630.504,490.559L630.504,490.559z"/>
	</g>
	<g>
		<path fill="#F9A60E" d="M611.007,516.722c-0.427-9.438-2.272-19.765-8.612-27.13c-0.266-0.308-0.708,0.139-0.445,0.445
			c6.215,7.219,8.011,17.443,8.429,26.685C610.396,517.125,611.026,517.127,611.007,516.722L611.007,516.722z"/>
	</g>
	<path fill="#AA1349" d="M672.406,532.543c0,0-9.447-11.592-17.118-5.999c-7.67,5.592-17.634,26.285-17.634,26.285
		s-3.458-17.897,11.642-28.522c15.1-10.626,24.328,5.313,24.328,5.313L672.406,532.543z"/>
	<path fill="#FAA80D" d="M703.823,572.121c0,0,0.84-28.875-11.743-28.698c-2.744,0.041-5.277-0.495-7.585-1.409
		c-10.359-14.79-9.688-10.78-7.088-4.354c-1.87-1.586-3.532-3.348-4.999-5.118c-0.017-0.025-0.042-0.05-0.068-0.083
		c-2.046-2.476-3.707-4.949-5.007-6.896c-3.499-5.251-13.725-2.608-17.004-1.593c-0.563,0.167-0.924,0.293-1.007,0.318
		c0.662-0.705,15.695-16.191,34.167-6.233c-8.447,1.896-16.761,4.84,5.108,6.107c2.358,3.732,6.51,8.908,12.709,11.887
		C711.793,541.082,703.823,572.121,703.823,572.121z"/>
	<path fill="#AA1349" d="M638.794,550.55c0,0-3.872,15.832-4.44,25.31c-0.025,0.416-0.365,0.738-0.782,0.738
		c-0.481,0-0.85-0.424-0.777-0.899c0.664-4.354,3.642-23.272,6-28.951C641.467,540.316,638.794,550.55,638.794,550.55z"/>
	<g>
		<path fill="#FFFFFF" d="M643.67,525.449c3.647-7.324,20.778-6.727,27.12-2.99c6,3.535,9.722,9.543,16.959,10.854
			c0.792,0.144,1.132-1.068,0.335-1.213c-9.001-1.631-13.369-11.479-22.429-12.924c-6.082-0.97-20.123-0.283-23.072,5.639
			c-0.359,0.724-2.32,4.57-1.958,3.845L643.67,525.449z"/>
	</g>
	<path fill="#73439D" d="M615.175,472.991c0,0,7.603,13.588,2.994,34.172c0,0-3.729-28.604-23.735-56.358
		C594.434,450.804,613.229,461.167,615.175,472.991z"/>
	<path fill="#F9A60E" d="M600.33,540.875c-8.945-3.61-10.845-8.365-10.845-8.365s-0.936-1.993-14.541-7.923
		c-1.051-0.457-2.016-0.95-2.893-1.479c10.866,0.499,0.152-3.69-6.415-5.988c-3.625-5.423-3.081-10.917-3.081-10.917
		c3.226,2.849,13.556,6.089,13.556,6.089C603.171,522.332,600.33,540.875,600.33,540.875z"/>
	<g>
		<path fill="#FFFFFF" d="M600.382,541.351c-1.339-5.458-5.548-9.288-9.664-12.835c-5.057-4.356-10.763-7.868-16.236-11.662
			c-0.276-0.191-0.536,0.26-0.263,0.449c5.105,3.539,10.415,6.826,15.204,10.799c4.354,3.611,9.058,7.685,10.458,13.388
			C599.961,541.814,600.463,541.676,600.382,541.351L600.382,541.351z"/>
	</g>
	<path fill="#AA1349" d="M609.191,554.881l4.123,18.188c0.077,0.339,0.432,0.539,0.762,0.429c0.296-0.1,0.466-0.407,0.384-0.71
		c-0.714-2.623-3.833-14.215-4.373-18.205C609.477,550.072,609.191,554.881,609.191,554.881z"/>
	<path fill="#F9A60E" d="M599.331,540.457c0,0,6.58,20.001,7.22,29.686c0.021,0.313,0.301,0.541,0.609,0.491
		c0.287-0.047,0.483-0.313,0.438-0.6c-0.52-3.256-3.472-21.061-7.27-29.156L599.331,540.457z"/>
	<path fill="#AA1349" d="M610.456,558.657c-2.965-13.222-8.64-10.169-8.64-10.169c-18.666,0.333-24.763-7.175-25.118-7.633
		c0.319,0.301,5.611,5.28,16.644,2.452c2.269,1.927,8.097,6.54,3.306-1.025c0.616-0.225,1.239-0.468,1.885-0.742
		C613.516,535.215,610.456,558.657,610.456,558.657z"/>
	<polygon fill="#8B6AB1" points="601.528,569.502 613.433,610.664 630.785,610.664 634.185,598.905 642.685,569.502 	"/>
	<path fill="#643696" d="M601.528,569.502l11.904,41.161h17.353l3.399-11.759c-12.221-6.048-19.206-17.851-23.196-29.402H601.528z"
		/>
	<rect x="601.528" y="567.833" fill="#1F1440" width="41.157" height="4.215"/>
</g>
<g>
	<path fill="#1F1440" d="M936.916,611.299l-138.495-1.514l-138.495-1.134l-69.248-0.719l-34.624-0.193l-17.312,0.035l-17.313,0.12
		l-34.623,0.444c-11.541,0.224-23.083,0.374-34.624,0.677c-23.083,0.526-46.165,1.199-69.248,2.283v0.756
		c23.083,1.085,46.165,1.758,69.248,2.283c11.541,0.303,23.083,0.452,34.624,0.678l34.623,0.444l17.313,0.119l17.312,0.035
		l34.624-0.192l69.248-0.719l138.495-1.135l138.495-1.514V611.299z"/>
</g>
<path fill="#FAA80D" d="M212.134,116.522c4.23-9.975,9.458-19.598,15.539-28.602l-3.271-2.209
	c-6.224,9.214-11.573,19.062-15.902,29.27L212.134,116.522z"/>
<path fill="#FAA80D" d="M233.667,79.599c17.763-23.153,41.282-41.42,68.014-52.828l-1.55-3.631
	c-27.354,11.673-51.42,30.366-69.596,54.056L233.667,79.599z"/>
<path fill="#FAA80D" d="M458.827,39.606l2.119-3.331C433.213,18.633,401.1,9.308,368.077,9.308c-13.675,0-27.289,1.599-40.465,4.752
	l0.918,3.839c12.876-3.081,26.182-4.643,39.547-4.643C400.348,13.256,431.729,22.368,458.827,39.606z"/>
</svg>
