<?xml version="1.0" encoding="utf-8"?>
<!-- Generator: Adobe Illustrator 16.0.0, SVG Export Plug-In . SVG Version: 6.00 Build 0)  -->
<!DOCTYPE svg PUBLIC "-//W3C//DTD SVG 1.1//EN" "http://www.w3.org/Graphics/SVG/1.1/DTD/svg11.dtd">
<svg version="1.1" id="_x2018_ëîé_x5F_1" xmlns="http://www.w3.org/2000/svg" xmlns:xlink="http://www.w3.org/1999/xlink"
	 x="0px" y="0px" width="1200px" height="852px" viewBox="0 0 1200 852" enable-background="new 0 0 1200 852" xml:space="preserve"
	>
<g>
	<linearGradient id="SVGID_1_" gradientUnits="userSpaceOnUse" x1="38.6763" y1="418.9844" x2="1153.6113" y2="418.9844">
		<stop  offset="0" style="stop-color:#FFFFFF"/>
		<stop  offset="1" style="stop-color:#E5E3FD"/>
	</linearGradient>
	<path fill="url(#SVGID_1_)" d="M268.192,297.547c37.211-7.651,74.363-14.144,106.045-23.952
		c58.708-18.174,112.948-45.545,163.557-76.881c50.844-31.482,94.412-73.244,145.771-103.358
		c96.307-56.472,228.005-39.666,323.524,8.795c119.127,60.441,159.744,211.284,142.872,322.024
		c-38.745,254.306-398.118,312.4-636.544,346.072c-60.904,8.601-123.045,13.398-184.553,6.833
		C204.216,763.776,85.019,681.966,48.222,576.697c-26.133-74.762,3.898-153.563,59.578-211.685
		C145.212,325.96,206.783,310.176,268.192,297.547z"/>
</g>
<g>
	<g>
		<path fill="#D4D2FC" d="M927.247,119.597c0,0-4.799-27.893-16.092-41.557c-11.292-13.666-17.957-15.864-26.729-13.631
			c-8.771,2.233-7.506,17.095-1.141,24.382C889.651,96.079,901.898,107.187,927.247,119.597z"/>
	</g>
	<g>
		<path fill="#D4D2FC" d="M935.139,97.219c0,0,15.139-23.913,15.922-41.623c0.783-17.709-2.688-23.809-10.693-28.034
			c-8.006-4.224-17.03,7.652-17.191,17.326C923.013,54.563,924.651,71.018,935.139,97.219z"/>
	</g>
	<g>
		<path fill="#D4D2FC" d="M925.403,152.687c0,0-13.675-28.637-30.021-39.942c-16.347-11.307-24.208-11.649-32.994-6.568
			c-8.786,5.081-2.894,20.732,6.194,26.657C877.67,138.758,894.271,147.015,925.403,152.687z"/>
	</g>
	<g>
		<path fill="#D4D2FC" d="M916.474,167.764c0,0-23.943-20.825-43.44-24.689c-19.496-3.863-26.845-1.047-32.881,7.111
			c-6.037,8.159,5.6,20.17,16.295,21.986C867.143,173.989,885.658,174.955,916.474,167.764z"/>
	</g>
	<g>
		<path fill="#D4D2FC" d="M922.056,179.146c0,0-19.134,0.137-29.489,6.169c-10.357,6.031-12.556,10.236-12.028,16.333
			c0.526,6.096,10.576,6.885,16.138,3.438C902.236,201.641,910.991,194.691,922.056,179.146z"/>
	</g>
	<g>
		<path fill="#D4D2FC" d="M937.223,120.113c0,0,6.391-27.572,18.449-40.565s18.838-14.807,27.467-12.074
			c8.629,2.732,6.514,17.496-0.26,24.406C976.105,98.79,963.241,109.178,937.223,120.113z"/>
	</g>
	<g>
		<path fill="#D4D2FC" d="M937.165,153.254c0,0,15.295-27.805,32.263-38.155c16.969-10.349,24.837-10.24,33.317-4.664
			c8.479,5.577,1.699,20.864-7.713,26.257C985.617,142.086,968.571,149.377,937.165,153.254z"/>
	</g>
	<g>
		<path fill="#D4D2FC" d="M945.214,168.819c0,0,25.099-19.418,44.785-22.156c19.687-2.739,26.861,0.494,32.419,8.985
			c5.56,8.493-6.747,19.816-17.528,21.016C994.105,177.864,975.566,177.766,945.214,168.819z"/>
	</g>
	<g>
		<path fill="#D4D2FC" d="M938.99,179.862c0,0,19.094,1.235,29.085,7.851c9.994,6.616,11.948,10.939,11.073,16.996
			s-10.955,6.267-16.311,2.508C957.485,203.457,949.143,196.017,938.99,179.862z"/>
	</g>
	<g>
		<path fill="#D4D2FC" d="M935.942,85.509c-0.067,2.605-0.214,6.369-0.433,11.121c-0.313,6.732-0.769,15.443-1.341,25.642
			c-0.07,1.296-0.144,2.624-0.216,3.967c-0.026,0.407-0.047,0.805-0.073,1.211c-0.025,0.47-0.052,0.946-0.075,1.422
			c-0.459,8.016-0.975,16.785-1.532,26.125c-0.039,0.668-0.076,1.337-0.118,2.015c-0.023,0.375-0.045,0.757-0.064,1.139
			c-0.008,0.002-0.008,0.002-0.008,0.002c-0.015,0.239-0.024,0.477-0.038,0.716c-0.275,4.458-0.548,9.04-0.84,13.715
			c-0.013,0.246-0.024,0.492-0.044,0.741c0.002,0.022-0.002,0.047-0.003,0.079c-0.021,0.413-0.05,0.829-0.079,1.245
			c-0.023,0.477-0.053,0.962-0.087,1.451c-0.008,0.104-0.015,0.208-0.018,0.318c-2.995,48.658-6.819,107.05-10.008,152.487
			c-0.056,0.769-0.109,1.538-0.164,2.307c-2.313,33.022-4.28,58.855-5.297,68.534l-2.632-0.488
			c0.988-9.434,2.891-34.416,5.147-66.482c0.06-0.763,0.11-1.538,0.169-2.316c3.196-45.595,7.085-104.816,10.113-154.048
			c0.02-0.35,0.043-0.693,0.063-1.043c0.035-0.52,0.066-1.031,0.097-1.548c0.012-0.23,0.03-0.463,0.041-0.694
			c0.004-0.094,0.011-0.183,0.016-0.277c0.04-0.593,0.073-1.188,0.114-1.781c0.264-4.344,0.521-8.601,0.777-12.757
			c0.06-1.028,0.122-2.056,0.184-3.068c0.576-9.69,1.105-18.768,1.574-27.021c0.085-1.487,0.169-2.945,0.251-4.37
			c0.764-13.595,1.331-24.638,1.635-32.024c0.101-2.465,0.172-4.513,0.212-6.121C933.312,83.996,935.987,83.776,935.942,85.509z"/>
	</g>
	<g>
		<g>
			<path fill="#D4D2FC" d="M942.019,115.188c-1.761,3.748-4.805,6.645-6.63,10.345c-0.767,1.549-3.193,0.408-2.427-1.142
				c1.827-3.703,4.873-6.605,6.63-10.345C940.327,112.48,942.754,113.624,942.019,115.188L942.019,115.188z"/>
		</g>
	</g>
	<g>
		<g>
			<path fill="#D4D2FC" d="M924.045,113.12c3.264,4.748,6.527,9.496,9.792,14.243c0.98,1.426-1.244,2.954-2.22,1.507
				c-3.261-4.745-6.521-9.488-9.784-14.232C920.859,113.215,923.065,111.695,924.045,113.12L924.045,113.12z"/>
		</g>
	</g>
	<g>
		<g>
			<path fill="#D4D2FC" d="M923.722,148.421c1.723,2.917,4.606,6.524,7.769,7.942c1.579,0.708,0.433,3.133-1.141,2.427
				c-3.573-1.602-6.887-5.545-8.839-8.85C920.638,148.462,922.842,146.932,923.722,148.421L923.722,148.421z"/>
		</g>
	</g>
	<g>
		<g>
			<path fill="#D4D2FC" d="M942.584,150.767c-1.47,1.357-3.177,2.437-4.812,3.579c-0.976,0.681-4.348,2.66-4.46,3.459
				c-0.242,1.713-2.879,1.219-2.637-0.488c0.24-1.701,2.544-3.008,3.781-3.91c1.989-1.449,4.262-2.694,6.073-4.368
				C941.783,147.882,943.848,149.597,942.584,150.767L942.584,150.767z"/>
		</g>
	</g>
	<g>
		<g>
			<path fill="#D4D2FC" d="M910.627,165.314c3.499,0.621,7.052,1.282,10.421,2.437c3.069,1.052,5.831,3.012,9.011,3.733
				c1.681,0.38,1.197,3.02-0.488,2.637c-2.843-0.645-5.349-2.167-8.008-3.301c-3.591-1.531-7.598-2.19-11.424-2.87
				C908.437,167.648,908.925,165.011,910.627,165.314L910.627,165.314z"/>
		</g>
	</g>
	<g>
		<g>
			<path fill="#D4D2FC" d="M951.001,169.045c-4.135,0.285-8.043,2.576-11.86,3.721c-2.802,0.84-5.367,2.23-7.966,3.576
				c-1.6,0.828-2.514-1.769-0.939-2.504c6.203-2.896,13.635-6.99,20.568-7.467C952.525,166.252,952.729,168.927,951.001,169.045
				L951.001,169.045z"/>
		</g>
	</g>
	<g>
		<g>
			<path fill="#D4D2FC" d="M918.003,179.295c3.817-2.354,7.833-4.355,11.557-6.861c1.434-0.963,2.955,1.245,1.521,2.21
				c-3.726,2.505-7.74,4.506-11.559,6.86C918.059,182.408,916.531,180.203,918.003,179.295L918.003,179.295z"/>
		</g>
	</g>
	<g>
		<g>
			<path fill="#D4D2FC" d="M942.322,183.371c-1.487-2.2-4.213-3.704-6.479-4.951c-2.225-1.226-4.645-2.503-7.165-2.963
				c-1.699-0.31-1.211-2.947,0.489-2.637c2.996,0.547,5.89,2.056,8.501,3.557c2.478,1.423,5.228,3.061,6.865,5.475
				C945.501,183.28,943.291,184.803,942.322,183.371L942.322,183.371z"/>
		</g>
	</g>
</g>
<g>
	<g>
		<path fill="#D4D2FC" d="M1046.148,254.156c0,0,15.018-14,18.82-26.283c3.805-12.284,2.487-17.203-2.353-21.638
			c-4.844-4.435-13.358,2.241-15.249,9C1045.477,221.994,1043.604,233.842,1046.148,254.156z"/>
	</g>
	<g>
		<path fill="#D4D2FC" d="M1062.864,250.049c0,0,20.528-0.319,31.585-6.883c11.057-6.565,13.379-11.096,12.761-17.633
			c-0.619-6.537-11.412-7.292-17.347-3.545C1083.928,225.736,1074.596,233.271,1062.864,250.049z"/>
	</g>
	<g>
		<path fill="#D4D2FC" d="M1025.336,266.189c0,0,11.942-19.68,12.305-34.094c0.361-14.413-2.555-19.32-9.13-22.632
			c-6.575-3.312-13.73,6.485-13.713,14.355C1014.815,231.688,1016.402,245.044,1025.336,266.189z"/>
	</g>
	<g>
		<path fill="#D4D2FC" d="M1012.64,266.765c0,0,3.118-22.808-2.287-36.175c-5.405-13.366-10.035-16.706-17.385-17.126
			c-7.351-0.419-10.014,11.416-6.865,18.628C989.252,239.304,996.025,250.924,1012.64,266.765z"/>
	</g>
	<g>
		<path fill="#D4D2FC" d="M1007.949,274.675c0,0-7.688-11.556-15.464-15.442s-11.202-3.55-14.694-0.807
			c-3.489,2.743,0.029,9.156,4.33,11.16C986.423,271.59,994.12,274.141,1007.949,274.675z"/>
	</g>
	<g>
		<path fill="#D4D2FC" d="M1049.801,260.414c0,0,19.271-7.081,31.948-4.929s16.474,5.545,18.245,11.867
			c1.772,6.323-8.028,10.908-14.914,9.544C1078.194,275.532,1066.779,271.854,1049.801,260.414z"/>
	</g>
	<g>
		<path fill="#D4D2FC" d="M1029.668,273.552c0,0,22.952-1.771,35.976,4.411c13.024,6.183,16.087,11,16.073,18.363
			c-0.014,7.362-11.984,9.325-18.999,5.756C1055.704,298.514,1044.504,291.069,1029.668,273.552z"/>
	</g>
	<g>
		<path fill="#D4D2FC" d="M1023.422,284.623c0,0,21.761,7.512,31.246,18.369c9.487,10.857,10.377,16.496,7.436,23.244
			c-2.945,6.748-14.707,3.781-19.721-2.283C1037.369,317.887,1030.058,306.597,1023.422,284.623z"/>
	</g>
	<g>
		<path fill="#D4D2FC" d="M1014.246,285.235c0,0,6.841,12.078,6.799,20.771c-0.043,8.693-1.89,11.598-5.912,13.475
			c-4.023,1.876-8.157-4.157-8.005-8.9C1007.281,305.837,1008.479,297.818,1014.246,285.235z"/>
	</g>
	<g>
		<path fill="#D4D2FC" d="M1070.29,245.884c-1.605,0.991-3.944,2.399-6.919,4.151c-4.205,2.488-9.671,5.671-16.089,9.386
			c-0.816,0.472-1.647,0.949-2.493,1.441l-0.007,0.003c-0.247,0.143-0.497,0.288-0.751,0.433c-0.006,0.003-0.006,0.003-0.013,0.005
			c-0.294,0.172-0.587,0.345-0.891,0.513c-0.007,0.002-0.007,0.002-0.007,0.002c-5.038,2.912-10.563,6.083-16.453,9.458
			c-0.42,0.236-0.843,0.483-1.27,0.723c0.004,0.006-0.006,0.003-0.006,0.003c-0.233,0.137-0.475,0.27-0.708,0.406
			c-0.154,0.086-0.307,0.178-0.461,0.264c-2.815,1.609-5.702,3.26-8.659,4.948l-0.005,0.003c-0.146,0.089-0.302,0.174-0.456,0.26
			c-0.011,0.012-0.03,0.021-0.048,0.03c-0.26,0.148-0.524,0.3-0.789,0.451c-0.301,0.175-0.604,0.344-0.911,0.521l-0.007,0.003
			c-0.068,0.039-0.136,0.077-0.203,0.116c-16.878,9.628-35.646,20.275-53.91,30.593c-13.396,7.562-26.518,14.942-38.434,21.615
			c-0.933,0.524-1.859,1.045-2.781,1.563c0.06-0.763,0.11-1.538,0.169-2.316c0.913-0.516,1.843-1.029,2.776-1.554
			c12.354-6.919,25.963-14.575,39.801-22.398c17.443-9.853,35.247-19.954,51.331-29.13c0.213-0.126,0.438-0.251,0.66-0.375
			c0.324-0.187,0.646-0.371,0.972-0.558c0.143-0.079,0.291-0.162,0.44-0.246l0.005-0.002c0.046-0.036,0.104-0.063,0.159-0.096
			c0.006-0.002,0.006-0.002,0.013-0.005c0.367-0.214,0.739-0.421,1.114-0.638l0.007-0.002c2.739-1.568,5.424-3.102,8.047-4.601
			c0.653-0.374,1.298-0.744,1.938-1.111l0.007-0.003c6.112-3.5,11.821-6.777,17.015-9.775c0.934-0.539,1.854-1.073,2.753-1.588
			c8.54-4.934,15.467-8.98,20.074-11.728l0.008-0.003c1.53-0.918,2.806-1.691,3.797-2.311
			C1070.158,243.679,1071.355,245.222,1070.29,245.884z"/>
	</g>
	<g>
		<g>
			<path fill="#D4D2FC" d="M1054.697,261.367c-2.975,0.421-5.944-0.274-8.914,0.088c-1.244,0.152-1.517-1.775-0.272-1.927
				c2.974-0.362,5.945,0.332,8.913-0.088C1055.666,259.263,1055.937,261.191,1054.697,261.367L1054.697,261.367z"/>
		</g>
	</g>
	<g>
		<g>
			<path fill="#D4D2FC" d="M1048.806,249.637c-1.582,3.869-3.167,7.736-4.751,11.604c-0.476,1.163-2.286,0.419-1.796-0.747
				c1.582-3.866,3.164-7.729,4.746-11.595C1047.481,247.742,1049.28,248.477,1048.806,249.637L1048.806,249.637z"/>
		</g>
	</g>
	<g>
		<g>
			<path fill="#D4D2FC" d="M1027.257,263.474c-1.086,2.205-2.128,5.389-1.732,7.872c0.199,1.239-1.729,1.507-1.926,0.271
				c-0.448-2.803,0.628-6.382,1.856-8.88C1026.006,261.619,1027.811,262.348,1027.257,263.474L1027.257,263.474z"/>
		</g>
	</g>
	<g>
		<g>
			<path fill="#D4D2FC" d="M1033.332,275.852c-1.409-0.353-2.742-0.958-4.087-1.497c-0.8-0.321-3.34-1.581-3.872-1.331
				c-1.135,0.533-1.884-1.263-0.75-1.795c1.127-0.53,2.835,0.348,3.875,0.741c1.67,0.631,3.329,1.515,5.064,1.949
				C1034.764,274.219,1034.541,276.153,1033.332,275.852L1033.332,275.852z"/>
		</g>
	</g>
	<g>
		<g>
			<path fill="#D4D2FC" d="M1011.801,262.242c1.014,2.371,2.025,4.79,2.664,7.293c0.582,2.28,0.489,4.735,1.315,6.951
				c0.437,1.171-1.354,1.927-1.794,0.751c-0.738-1.98-0.811-4.106-1.18-6.171c-0.499-2.786-1.691-5.481-2.8-8.072
				C1009.512,261.841,1011.308,261.089,1011.801,262.242L1011.801,262.242z"/>
		</g>
	</g>
	<g>
		<g>
			<path fill="#D4D2FC" d="M1025.586,288.225c-1.817-2.396-4.762-3.857-6.973-5.719c-1.624-1.366-3.487-2.369-5.336-3.412
				c-1.138-0.642,0.074-2.229,1.145-1.566c4.226,2.613,9.663,5.496,12.708,9.514C1027.887,288.04,1026.343,289.226,1025.586,288.225
				L1025.586,288.225z"/>
		</g>
	</g>
	<g>
		<g>
			<path fill="#D4D2FC" d="M1006.248,272.275c2.947,1.38,5.757,3.021,8.758,4.286c1.152,0.486,0.418,2.288-0.737,1.801
				c-3-1.264-5.812-2.906-8.757-4.286C1004.382,273.547,1005.113,271.743,1006.248,272.275L1006.248,272.275z"/>
		</g>
	</g>
	<g>
		<g>
			<path fill="#D4D2FC" d="M1013.442,288.653c0.742-1.777,0.572-4.029,0.431-5.899c-0.141-1.837-0.329-3.813-1.051-5.525
				c-0.488-1.155,1.307-1.908,1.794-0.752c0.86,2.036,1.094,4.392,1.221,6.573c0.121,2.068,0.222,4.389-0.593,6.341
				C1014.76,290.545,1012.96,289.811,1013.442,288.653L1013.442,288.653z"/>
		</g>
	</g>
</g>
<g>
	<g>
		<path fill="#E9E7FD" d="M123.027,162.673c0,0-10.196-26.402-7.517-43.925c2.678-17.523,7.271-22.831,15.944-25.417
			c8.675-2.585,15.216,10.82,13.492,20.34C143.224,123.193,138.413,139.013,123.027,162.673z"/>
	</g>
	<g>
		<path fill="#E9E7FD" d="M104.77,147.519c0,0-25.266-12.753-35.027-27.551c-9.76-14.798-9.912-21.815-5.209-29.548
			c4.702-7.734,18.543-2.174,23.647,6.046C93.285,104.684,100.322,119.648,104.77,147.519z"/>
	</g>
	<g>
		<path fill="#E9E7FD" d="M141.594,190.126c0,0-2.962-31.595,5.265-49.688c8.227-18.093,14.798-22.422,24.946-22.571
			c10.148-0.147,13.124,16.309,8.365,26.058C175.41,153.674,165.401,169.28,141.594,190.126z"/>
	</g>
	<g>
		<path fill="#E9E7FD" d="M156.994,198.484c0,0,9.862-30.163,24.612-43.485s22.502-14.677,31.871-10.772
			c9.367,3.904,5.545,20.185-2.702,27.234C202.527,178.508,187.133,188.84,156.994,198.484z"/>
	</g>
	<g>
		<path fill="#E9E7FD" d="M158.046,211.117c0,0,16.492-9.703,28.475-9.841s16.028,2.342,18.706,7.845
			c2.678,5.502-5.545,11.338-12.086,11.234C186.601,220.251,175.519,218.78,158.046,211.117z"/>
	</g>
	<g>
		<path fill="#E9E7FD" d="M114.731,168.236c0,0-19.636-20.383-36.653-25.347c-17.019-4.964-23.768-3.04-29.771,3.734
			c-6.004,6.774,3.39,18.36,12.75,20.813S86.789,172.204,114.731,168.236z"/>
	</g>
	<g>
		<path fill="#E9E7FD" d="M131.789,196.649c0,0-27.396-16.014-47.271-16.188c-19.875-0.173-26.572,3.958-30.987,13.096
			c-4.416,9.138,9.25,18.779,20.096,18.577C84.474,211.932,102.846,209.442,131.789,196.649z"/>
	</g>
	<g>
		<path fill="#E9E7FD" d="M132.87,214.139c0,0-31.507-3.783-49.809,3.97c-18.301,7.753-22.8,14.21-23.212,24.35
			c-0.412,10.141,15.962,13.544,25.832,9.04C95.55,246.996,111.411,237.396,132.87,214.139z"/>
	</g>
	<g>
		<path fill="#E9E7FD" d="M143.88,220.422c0,0-15.754,10.859-20.935,21.665c-5.181,10.807-4.639,15.521-0.78,20.27
			c3.859,4.749,12.619-0.245,15.285-6.219C140.116,250.165,143.456,239.498,143.88,220.422z"/>
	</g>
	<g>
		<path fill="#E9E7FD" d="M98.07,137.88c1.395,2.201,3.452,5.356,6.078,9.322c3.724,5.617,8.586,12.86,14.311,21.319
			c0.727,1.076,1.47,2.178,2.224,3.293c0.229,0.336,0.452,0.667,0.682,1.002c0.265,0.39,0.53,0.786,0.795,1.182
			c4.509,6.644,9.451,13.907,14.723,21.635c0.375,0.555,0.751,1.108,1.135,1.669c0.212,0.31,0.427,0.627,0.64,0.943
			c0.007,0,0.007,0,0.007,0c0.136,0.198,0.265,0.396,0.401,0.594c2.523,3.686,5.108,7.478,7.759,11.341
			c0.137,0.205,0.274,0.409,0.418,0.614c0.009,0.02,0.025,0.04,0.042,0.066c0.232,0.343,0.469,0.686,0.707,1.028
			c0.266,0.396,0.539,0.799,0.819,1.2c0.06,0.086,0.119,0.171,0.179,0.264c27.543,40.225,60.793,88.378,86.85,125.737
			c0.442,0.631,0.883,1.263,1.325,1.895c18.933,27.155,33.879,48.316,39.719,56.103l2.009-1.771
			c-5.69-7.588-20.144-28.053-38.539-54.416c-0.441-0.625-0.883-1.265-1.333-1.901c-26.144-37.492-59.875-86.322-87.742-127.021
			c-0.197-0.29-0.392-0.573-0.589-0.864c-0.297-0.428-0.587-0.85-0.878-1.279c-0.128-0.192-0.264-0.382-0.392-0.574
			c-0.052-0.08-0.103-0.151-0.155-0.231c-0.339-0.488-0.673-0.983-1.013-1.47c-2.456-3.593-4.861-7.115-7.213-10.55
			c-0.581-0.851-1.16-1.702-1.732-2.539c-5.469-8.02-10.582-15.54-15.22-22.382c-0.837-1.234-1.656-2.44-2.459-3.622
			c-7.631-11.277-13.786-20.462-17.838-26.646c-1.351-2.064-2.463-3.785-3.322-5.145C99.552,135.231,97.142,136.416,98.07,137.88z"
			/>
	</g>
	<g>
		<g>
			<path fill="#E9E7FD" d="M108.086,166.47c3.435,2.313,7.534,3.238,11,5.476c1.453,0.937,2.95-1.289,1.498-2.226
				c-3.47-2.239-7.573-3.168-11.001-5.476C108.148,163.278,106.653,165.505,108.086,166.47L108.086,166.47z"/>
		</g>
	</g>
	<g>
		<g>
			<path fill="#E9E7FD" d="M122.451,155.471c-0.364,5.75-0.729,11.5-1.094,17.25c-0.109,1.728,2.584,1.896,2.678,0.154
				c0.364-5.746,0.729-11.49,1.093-17.237C125.235,153.917,122.561,153.746,122.451,155.471L122.451,155.471z"/>
		</g>
	</g>
	<g>
		<g>
			<path fill="#E9E7FD" d="M140.848,185.603c0.018,3.388-0.606,7.962-2.593,10.803c-0.991,1.419,1.237,2.912,2.227,1.498
				c2.243-3.208,3.063-8.292,3.042-12.131C143.515,184.056,140.838,183.873,140.848,185.603L140.848,185.603z"/>
		</g>
	</g>
	<g>
		<g>
			<path fill="#E9E7FD" d="M125.863,197.295c1.958,0.411,3.977,0.462,5.965,0.603c1.187,0.084,5.096,0.052,5.604,0.681
				c1.087,1.346,3.096-0.432,2.013-1.773c-1.079-1.336-3.727-1.277-5.252-1.415c-2.451-0.222-5.04-0.125-7.454-0.632
				C125.069,194.408,124.178,196.941,125.863,197.295L125.863,197.295z"/>
		</g>
	</g>
	<g>
		<g>
			<path fill="#E9E7FD" d="M160.755,193.379c-2.684,2.33-5.395,4.721-7.693,7.44c-2.094,2.479-3.459,5.579-5.816,7.829
				c-1.248,1.189,0.52,3.207,1.772,2.012c2.108-2.012,3.478-4.603,5.178-6.942c2.295-3.157,5.396-5.78,8.332-8.326
				C163.833,194.259,162.061,192.246,160.755,193.379L160.755,193.379z"/>
		</g>
	</g>
	<g>
		<g>
			<path fill="#E9E7FD" d="M128.019,217.304c3.695-1.878,8.226-1.919,12.088-2.894c2.837-0.717,5.752-0.84,8.673-1.02
				c1.797-0.11,1.251-2.809-0.479-2.631c-6.811,0.698-15.29,0.998-21.487,4.148C125.277,215.688,126.476,218.088,128.019,217.304
				L128.019,217.304z"/>
		</g>
	</g>
	<g>
		<g>
			<path fill="#E9E7FD" d="M161.601,209.165c-4.484-0.062-8.958,0.282-13.44,0.043c-1.723-0.091-1.897,2.585-0.17,2.677
				c4.482,0.238,8.956-0.105,13.44-0.043C163.15,211.865,163.33,209.189,161.601,209.165L161.601,209.165z"/>
		</g>
	</g>
	<g>
		<g>
			<path fill="#E9E7FD" d="M142.82,225.145c0.149-2.651,1.714-5.34,3.019-7.574c1.28-2.193,2.702-4.532,4.629-6.22
				c1.3-1.139-0.473-3.152-1.773-2.013c-2.29,2.007-4,4.788-5.47,7.417c-1.395,2.492-2.917,5.309-3.081,8.221
				C140.046,226.697,142.723,226.871,142.82,225.145L142.82,225.145z"/>
		</g>
	</g>
</g>
<g>
	<g>
		<path fill="#E9E7FD" d="M90.04,339.183c0,0-20.073-4.308-29.642-12.898s-10.965-13.487-9.085-19.779s12.613-4.932,17.706-0.102
			C74.11,311.234,81.799,320.441,90.04,339.183z"/>
	</g>
	<g>
		<path fill="#E9E7FD" d="M73.587,344.236c0,0-17.782,10.264-30.641,10.304c-12.859,0.042-17.177-2.656-20-8.585
			c-2.824-5.926,6.051-12.114,13.068-11.944C43.03,334.18,54.907,335.857,73.587,344.236z"/>
	</g>
	<g>
		<path fill="#E9E7FD" d="M114.078,338.828c0,0-20.35-10.761-28.058-22.945c-7.708-12.184-7.724-17.893-3.78-24.109
			c3.944-6.216,15.112-1.48,19.136,5.283C105.401,303.819,110.893,316.096,114.078,338.828z"/>
	</g>
	<g>
		<path fill="#E9E7FD" d="M125.271,332.805c0,0-14.383-17.973-16.603-32.218c-2.22-14.246,0.038-19.489,6.131-23.621
			c6.092-4.132,14.453,4.658,15.451,12.464C131.25,297.235,131.399,310.684,125.271,332.805z"/>
	</g>
	<g>
		<path fill="#E9E7FD" d="M133.355,337.188c0,0,0.667-13.864,5.347-21.19s7.792-8.795,12.196-8.233
			c4.403,0.563,4.676,7.872,2.013,11.799C150.249,323.492,144.951,329.632,133.355,337.188z"/>
	</g>
	<g>
		<path fill="#E9E7FD" d="M90.118,346.427c0,0-20.173,3.813-29.95,12.168c-9.776,8.353-11.292,13.213-9.568,19.547
			c1.724,6.337,12.489,5.242,17.697,0.539C73.507,373.977,81.418,364.96,90.118,346.427z"/>
	</g>
	<g>
		<path fill="#E9E7FD" d="M114.14,347.371c0,0-20.607,10.258-28.613,22.25c-8.006,11.99-8.16,17.698-4.371,24.009
			c3.79,6.312,15.071,1.852,19.26-4.812C104.606,382.157,110.396,370.019,114.14,347.371z"/>
	</g>
	<g>
		<path fill="#E9E7FD" d="M125.182,353.667c0,0-14.819,17.615-17.389,31.802c-2.57,14.188-0.44,19.483,5.549,23.765
			s14.563-4.302,15.753-12.081S130.765,375.934,125.182,353.667z"/>
	</g>
	<g>
		<path fill="#E9E7FD" d="M133.371,349.482c0,0,0.328,13.876,4.826,21.315c4.498,7.44,7.574,8.985,11.989,8.531
			c4.416-0.455,4.868-7.754,2.303-11.746S144.778,357.322,133.371,349.482z"/>
	</g>
	<g>
		<path fill="#E9E7FD" d="M65.076,344.473c1.886,0.027,4.616,0.036,8.067,0.012c4.887-0.022,11.211-0.096,18.626-0.201
			c0.944-0.015,1.901-0.031,2.88-0.044h0.007c0.284-0.004,0.574-0.01,0.866-0.014c0.006,0,0.006,0,0.014-0.002
			c0.341-0.002,0.682-0.007,1.029-0.018c0.007,0,0.007,0,0.007,0c5.818-0.087,12.188-0.201,18.975-0.327
			c0.482-0.013,0.971-0.018,1.46-0.031c0,0.006,0.008,0,0.008,0c0.269-0.003,0.545-0.012,0.814-0.016
			c0.178-0.006,0.355-0.005,0.533-0.011c3.24-0.063,6.566-0.13,9.97-0.196l0.007-0.002c0.171,0.003,0.348-0.004,0.525-0.01
			c0.014,0.006,0.036,0.004,0.057,0.001c0.298-0.005,0.603-0.011,0.908-0.018c0.348-0.005,0.695-0.016,1.049-0.021l0.007-0.001
			c0.079-0.001,0.157-0.004,0.234-0.005c19.428-0.399,40.999-0.894,61.969-1.412c15.378-0.387,30.428-0.785,44.08-1.175
			c1.069-0.028,2.132-0.057,3.188-0.085c-0.441-0.625-0.883-1.265-1.333-1.901c-1.049,0.026-2.11,0.062-3.181,0.092
			c-14.153,0.402-29.764,0.815-45.653,1.203c-20.028,0.496-40.493,0.964-59.007,1.345c-0.248,0-0.503,0.008-0.758,0.016
			c-0.375,0.007-0.745,0.014-1.121,0.021c-0.163,0.005-0.333,0.01-0.503,0.015l-0.006,0.001c-0.058-0.007-0.121,0-0.185,0
			c-0.007,0.001-0.007,0.001-0.015,0.001c-0.426,0.006-0.85,0.019-1.284,0.026h-0.006c-3.157,0.062-6.248,0.122-9.269,0.181
			c-0.751,0.016-1.496,0.028-2.234,0.042l-0.007,0.001c-7.042,0.133-13.624,0.25-19.619,0.343c-1.079,0.016-2.143,0.03-3.179,0.05
			c-9.861,0.148-17.883,0.229-23.248,0.236l-0.007,0.002c-1.785-0.004-3.277-0.012-4.446-0.034
			C64.056,342.514,63.822,344.452,65.076,344.473z"/>
	</g>
	<g>
		<g>
			<path fill="#E9E7FD" d="M86.404,349.758c2.77-1.165,4.96-3.284,7.695-4.498c1.146-0.509,0.391-2.304-0.755-1.793
				c-2.738,1.214-4.933,3.335-7.695,4.498C84.493,348.45,85.25,350.243,86.404,349.758L86.404,349.758z"/>
		</g>
	</g>
	<g>
		<g>
			<path fill="#E9E7FD" d="M85.44,336.669c3.345,2.506,6.688,5.014,10.033,7.52c1.005,0.754,2.177-0.813,1.158-1.563
				c-3.342-2.505-6.683-5.011-10.025-7.516C85.604,334.361,84.437,335.916,85.44,336.669L85.44,336.669z"/>
		</g>
	</g>
	<g>
		<g>
			<path fill="#E9E7FD" d="M111.036,337.483c2.063,1.336,4.591,3.533,5.526,5.866c0.466,1.165,2.258,0.406,1.793-0.754
				c-1.055-2.637-3.815-5.155-6.152-6.669C111.158,335.249,109.983,336.802,111.036,337.483L111.036,337.483z"/>
		</g>
	</g>
	<g>
		<g>
			<path fill="#E9E7FD" d="M112.176,351.225c1.027-1.026,1.861-2.229,2.737-3.381c0.522-0.687,2.056-3.071,2.64-3.131
				c1.249-0.123,0.969-2.049-0.276-1.925c-1.24,0.123-2.256,1.753-2.947,2.624c-1.109,1.4-2.079,3.01-3.346,4.272
				C110.108,350.558,111.291,352.105,112.176,351.225L112.176,351.225z"/>
		</g>
	</g>
	<g>
		<g>
			<path fill="#E9E7FD" d="M123.669,328.494c0.346,2.555,0.719,5.149,1.457,7.626c0.671,2.255,2.01,4.316,2.438,6.642
				c0.226,1.23,2.153,0.959,1.926-0.276c-0.383-2.079-1.412-3.939-2.154-5.901c-1.003-2.646-1.362-5.572-1.741-8.365
				C125.426,326.976,123.5,327.252,123.669,328.494L123.669,328.494z"/>
		</g>
	</g>
	<g>
		<g>
			<path fill="#E9E7FD" d="M125.174,357.869c0.329-2.99,2.106-5.755,3.049-8.486c0.693-2.006,1.777-3.824,2.829-5.668
				c0.647-1.135-1.207-1.875-1.787-0.756c-2.283,4.411-5.472,9.676-6.024,14.688C123.104,358.892,125.037,359.117,125.174,357.869
				L125.174,357.869z"/>
		</g>
	</g>
	<g>
		<g>
			<path fill="#E9E7FD" d="M133.584,334.256c-1.82,2.696-3.39,5.548-5.316,8.173c-0.74,1.009,0.815,2.178,1.558,1.167
				c1.926-2.625,3.496-5.477,5.315-8.173C135.839,334.389,134.286,333.215,133.584,334.256L133.584,334.256z"/>
		</g>
	</g>
	<g>
		<g>
			<path fill="#E9E7FD" d="M135.815,352.004c-1.549-1.145-2.559-3.163-3.396-4.843c-0.822-1.648-1.676-3.44-1.935-5.282
				c-0.174-1.241-2.101-0.965-1.926,0.277c0.308,2.188,1.315,4.33,2.326,6.267c0.958,1.838,2.063,3.882,3.765,5.138
				C135.654,354.304,136.824,352.75,135.815,352.004L135.815,352.004z"/>
		</g>
	</g>
</g>
<circle fill="#D4D2FC" cx="275.32" cy="42.633" r="9.977"/>
<circle fill="#D4D2FC" cx="226.68" cy="35.036" r="9.977"/>
<g>
	<path fill="#D4D2FC" d="M256.953,34.916c-1.517,3.608-1.884,7.423-1.269,11.028c0.525,3.072,1.759,5.988,3.61,8.497
		c2.054,2.814,4.869,5.111,8.305,6.555c6.162,2.589,12.915,1.83,18.208-1.433c3.409-2.103,6.213-5.238,7.883-9.209
		c2.93-6.972,1.581-14.696-2.86-20.214c-2-2.505-4.637-4.555-7.793-5.881C272.92,20.007,261.209,24.787,256.953,34.916z
		 M289.688,30.821c4.235,5.162,5.547,12.449,2.786,19.021c-1.807,4.299-5.062,7.575-8.958,9.479
		c-4.665,2.279-10.254,2.623-15.406,0.457c-2.605-1.094-4.846-2.721-6.615-4.713c-2.411-2.677-3.985-6.006-4.549-9.54
		c-0.526-3.304-0.169-6.788,1.222-10.1c3.975-9.457,14.905-13.924,24.357-9.952C285.412,26.688,287.834,28.549,289.688,30.821z"/>
</g>
<circle fill="#D4D2FC" cx="199.437" cy="73.608" r="3.57"/>
<g>
	<path fill="#D4D2FC" d="M186.554,68.199c-1.064,2.53-1.322,5.206-0.891,7.734c0.369,2.154,1.234,4.199,2.533,5.958
		c1.439,1.974,3.415,3.584,5.824,4.598c4.321,1.815,9.058,1.283,12.77-1.005c2.392-1.475,4.357-3.672,5.529-6.459
		c2.054-4.889,1.108-10.306-2.006-14.176c-1.403-1.756-3.252-3.194-5.465-4.124C197.751,57.743,189.538,61.095,186.554,68.199z
		 M209.511,65.327c2.97,3.621,3.89,8.73,1.954,13.34c-1.268,3.015-3.55,5.313-6.282,6.648c-3.272,1.599-7.19,1.839-10.804,0.32
		c-1.827-0.768-3.398-1.908-4.639-3.305c-1.691-1.877-2.795-4.212-3.191-6.69c-0.369-2.317-0.118-4.76,0.857-7.083
		c2.787-6.633,10.453-9.765,17.081-6.979C206.511,62.428,208.21,63.734,209.511,65.327z"/>
</g>
<circle fill="#D4D2FC" cx="248.066" cy="99.945" r="4.961"/>
<circle fill="#E9E7FD" cx="61.667" cy="553.175" r="9.978"/>
<circle fill="#E9E7FD" cx="90.54" cy="513.302" r="9.978"/>
<g>
	<path fill="#E9E7FD" d="M76.889,540.323c-2.525-2.991-5.757-5.054-9.247-6.145c-2.975-0.927-6.133-1.153-9.21-0.645
		c-3.44,0.55-6.766,2.014-9.613,4.419c-5.107,4.311-7.5,10.672-7,16.869c0.323,3.994,1.841,7.916,4.621,11.207
		c4.879,5.777,12.372,8.087,19.306,6.641c3.14-0.644,6.165-2.061,8.781-4.27C82.912,561.32,83.976,548.716,76.889,540.323z
		 M65.658,571.342c-6.523,1.426-13.61-0.717-18.208-6.164c-3.009-3.563-4.448-7.951-4.373-12.286
		c0.09-5.191,2.324-10.325,6.594-13.931c2.159-1.823,4.625-3.079,7.204-3.75c3.48-0.931,7.161-0.82,10.565,0.283
		c3.183,1.032,6.124,2.934,8.441,5.679c6.618,7.839,5.629,19.605-2.205,26.22C71.284,569.411,68.523,570.724,65.658,571.342z"/>
</g>
<circle fill="#E9E7FD" cx="68.563" cy="471.504" r="3.57"/>
<g>
	<path fill="#E9E7FD" d="M79.237,462.486c-1.77-2.097-4.037-3.543-6.484-4.308c-2.086-0.65-4.301-0.81-6.459-0.453
		c-2.413,0.386-4.745,1.413-6.742,3.099c-3.582,3.025-5.26,7.484-4.909,11.832c0.228,2.801,1.291,5.551,3.24,7.859
		c3.422,4.053,8.677,5.672,13.539,4.656c2.202-0.451,4.324-1.444,6.158-2.994C83.462,477.214,84.208,468.374,79.237,462.486z
		 M71.361,484.24c-4.575,1.001-9.545-0.502-12.771-4.321c-2.11-2.5-3.118-5.578-3.066-8.617c0.063-3.641,1.63-7.241,4.625-9.771
		c1.515-1.278,3.244-2.159,5.052-2.629c2.441-0.653,5.022-0.575,7.409,0.198c2.232,0.725,4.294,2.059,5.92,3.982
		c4.642,5.499,3.947,13.75-1.546,18.388C75.307,482.887,73.371,483.808,71.361,484.24z"/>
</g>
<circle fill="#E9E7FD" cx="23.003" cy="502.851" r="4.961"/>
<path fill="#FFFFFF" d="M1107.256,442.175c5.079,2.135,7.467,7.983,5.333,13.064c-2.136,5.08-7.984,7.468-13.065,5.333
	c-5.077-2.135-7.466-7.984-5.331-13.063C1096.327,442.428,1102.176,440.041,1107.256,442.175z"/>
<circle fill="#FFFFFF" cx="1054.751" cy="443.777" r="9.976"/>
<circle fill="#FFFFFF" cx="1014.635" cy="511.247" r="4.961"/>
<g>
	<path fill="#FFFFFF" d="M1085.023,443.656c-1.516,3.608-1.885,7.425-1.271,11.028c0.526,3.071,1.76,5.989,3.612,8.497
		c2.053,2.814,4.868,5.111,8.305,6.555c6.162,2.589,12.915,1.831,18.208-1.433c3.409-2.104,6.214-5.237,7.882-9.21
		c2.931-6.972,1.584-14.695-2.857-20.214c-2.002-2.504-4.639-4.556-7.794-5.88C1100.99,428.747,1089.279,433.528,1085.023,443.656z
		 M1117.759,439.562c4.235,5.163,5.547,12.45,2.786,19.021c-1.807,4.3-5.062,7.575-8.957,9.479
		c-4.666,2.279-10.254,2.623-15.405,0.457c-2.606-1.095-4.847-2.721-6.615-4.712c-2.411-2.677-3.985-6.006-4.549-9.54
		c-0.528-3.305-0.17-6.789,1.221-10.101c3.975-9.457,14.904-13.923,24.358-9.951
		C1113.481,435.429,1115.905,437.291,1117.759,439.562z"/>
</g>
<circle fill="#FFFFFF" cx="1027.508" cy="482.35" r="3.57"/>
<g>
	<path fill="#FFFFFF" d="M1014.625,476.939c-1.065,2.53-1.322,5.207-0.892,7.733c0.37,2.155,1.233,4.199,2.533,5.96
		c1.439,1.974,3.413,3.584,5.823,4.597c4.321,1.815,9.059,1.285,12.77-1.005c2.393-1.475,4.357-3.672,5.529-6.459
		c2.054-4.889,1.109-10.307-2.006-14.175c-1.403-1.758-3.253-3.196-5.465-4.125C1025.821,466.485,1017.609,469.837,1014.625,476.939
		z M1037.581,474.068c2.971,3.621,3.892,8.731,1.954,13.34c-1.268,3.015-3.551,5.312-6.282,6.647
		c-3.271,1.599-7.19,1.841-10.804,0.32c-1.827-0.768-3.398-1.907-4.639-3.305c-1.69-1.877-2.795-4.212-3.191-6.69
		c-0.368-2.316-0.118-4.76,0.858-7.083c2.786-6.633,10.453-9.765,17.081-6.979C1034.582,471.169,1036.281,472.475,1037.581,474.068z
		"/>
</g>
<circle fill="#FFFFFF" cx="1076.136" cy="508.686" r="4.959"/>
<g>
	<g>
		<path fill="#7052FA" d="M915.402,558.345c-25.262,0-45.814-20.552-45.814-45.813c0-25.263,20.553-45.814,45.814-45.814
			s45.813,20.552,45.813,45.814C961.216,537.793,940.664,558.345,915.402,558.345z M915.402,490.279
			c-12.271,0-22.252,9.98-22.252,22.252c0,12.271,9.98,22.252,22.252,22.252c12.271,0,22.252-9.981,22.252-22.252
			C937.654,500.26,927.673,490.279,915.402,490.279z"/>
	</g>
	<rect x="908.857" y="458.699" fill="#7052FA" width="13.089" height="10.799"/>
	<rect x="908.857" y="552.945" fill="#7052FA" width="13.089" height="10.799"/>
	<rect x="957.126" y="504.678" fill="#7052FA" width="10.798" height="13.089"/>
	<rect x="862.88" y="504.678" fill="#7052FA" width="10.798" height="13.089"/>
	
		<rect x="942.179" y="472.5" transform="matrix(0.7071 0.7071 -0.7071 0.7071 615.8013 -530.8751)" fill="#7052FA" width="13.09" height="10.8"/>
	
		<rect x="875.536" y="539.143" transform="matrix(0.7071 0.7071 -0.7071 0.7071 643.4588 -464.2451)" fill="#7052FA" width="13.089" height="10.799"/>
	
		<rect x="942.179" y="539.144" transform="matrix(-0.7071 0.7071 -0.7071 -0.7071 2004.6365 258.7992)" fill="#7052FA" width="13.089" height="10.798"/>
	
		<rect x="875.536" y="472.501" transform="matrix(-0.707 0.7072 -0.7072 -0.707 1843.7024 192.0011)" fill="#7052FA" width="13.09" height="10.8"/>
</g>
<g>
	<g>
		<path fill="#7052FA" d="M698.006,168.124c-25.262,0-45.814-20.552-45.814-45.813c0-25.263,20.553-45.814,45.814-45.814
			s45.813,20.552,45.813,45.814C743.819,147.572,723.268,168.124,698.006,168.124z M698.006,100.059
			c-12.271,0-22.252,9.98-22.252,22.252c0,12.271,9.98,22.252,22.252,22.252c12.271,0,22.252-9.981,22.252-22.252
			C720.258,110.039,710.276,100.059,698.006,100.059z"/>
	</g>
	<rect x="691.461" y="68.479" fill="#7052FA" width="13.089" height="10.799"/>
	<rect x="691.461" y="162.725" fill="#7052FA" width="13.089" height="10.799"/>
	<rect x="739.729" y="114.457" fill="#7052FA" width="10.798" height="13.089"/>
	<rect x="645.483" y="114.457" fill="#7052FA" width="10.798" height="13.089"/>
	
		<rect x="724.782" y="82.28" transform="matrix(0.7071 0.7071 -0.7071 0.7071 276.1997 -491.4456)" fill="#7052FA" width="13.09" height="10.8"/>
	
		<rect x="658.14" y="148.923" transform="matrix(0.7071 0.7071 -0.7071 0.7071 303.8345 -424.8221)" fill="#7052FA" width="13.089" height="10.799"/>
	
		<rect x="724.782" y="148.923" transform="matrix(-0.7071 0.7071 -0.7071 -0.7071 1357.5962 -253.6493)" fill="#7052FA" width="13.089" height="10.798"/>
	
		<rect x="658.139" y="82.28" transform="matrix(-0.707 0.7072 -0.7072 -0.707 1196.6428 -320.3794)" fill="#7052FA" width="13.09" height="10.8"/>
</g>
<path fill="#DB3256" d="M829.294,527.308V516.32h-6.204c-0.208-1.242-0.483-2.461-0.813-3.659l5.838-2.373l-4.142-10.178
	l-6.128,2.492c-0.713-1.151-1.492-2.27-2.324-3.333l4.744-4.745l-7.769-7.77l-4.9,4.898c-0.944-0.672-1.91-1.308-2.911-1.89
	c-0.001-0.002-0.002-0.002-0.004-0.003l2.715-6.438l-10.125-4.269l-2.757,6.542c-1.251-0.317-2.521-0.559-3.814-0.744v-7.126
	h-10.986v7.125c-0.002,0-0.002,0-0.003,0.001c-1.132,0.153-2.252,0.373-3.351,0.637c0,0-0.001,0-0.003,0l-2.678-6.583l-10.177,4.141
	l2.636,6.478c-1.141,0.659-2.261,1.372-3.324,2.129l-4.897-4.898l-7.771,7.77l4.744,4.743c-0.734,0.942-1.426,1.92-2.074,2.93
	l-6.101-2.573l-4.269,10.124l5.817,2.454c-0.385,1.339-0.703,2.724-0.943,4.118h-6.203v10.987h5.884
	c0.143,1.308,0.363,2.593,0.637,3.856c0,0.002,0.001,0.002,0.001,0.004l-5.339,2.172l4.14,10.178l5.079-2.066
	c0.735,1.329,1.548,2.614,2.438,3.843l-3.811,3.811l7.771,7.769l3.645-3.645c1.098,0.856,2.24,1.658,3.427,2.395
	c0,0,0.002,0,0.003,0.002l-1.974,4.68l10.124,4.268l1.925-4.564c1.515,0.416,3.063,0.746,4.645,0.965c0.001,0,0.001,0,0.003,0v4.929
	H790.7v-4.929c1.417-0.196,2.801-0.482,4.164-0.834c0.001,0,0.002-0.002,0.004-0.002l1.866,4.584l10.178-4.141l-1.916-4.706
	c1.339-0.802,2.624-1.691,3.854-2.646l3.646,3.645l7.769-7.769l-3.811-3.812c0.79-1.098,1.527-2.24,2.196-3.415
	c0.001-0.001,0.001-0.001,0.001-0.002l5.045,2.129l4.269-10.126l-5.303-2.235c0.33-1.417,0.582-2.865,0.746-4.336H829.294z
	 M787.547,551.464c-17.657,1.401-32.279-13.211-30.895-30.862c1.088-13.886,12.332-25.14,26.215-26.24
	c17.654-1.4,32.29,13.214,30.903,30.866C812.679,539.113,801.431,550.362,787.547,551.464z"/>
<path fill="#DB3256" d="M766.369,307.828v-7.468h-4.217c-0.142-0.844-0.328-1.673-0.552-2.487l3.968-1.613l-2.815-6.917
	l-4.165,1.694c-0.484-0.782-1.014-1.542-1.579-2.265l3.224-3.225l-5.279-5.281l-3.331,3.33c-0.642-0.457-1.298-0.889-1.979-1.285
	c-0.001-0.001-0.001-0.001-0.003-0.002l1.846-4.375l-6.882-2.901l-1.873,4.446c-0.851-0.216-1.714-0.38-2.593-0.506v-4.843h-7.467
	v4.843c-0.002,0-0.002,0-0.002,0c-0.77,0.104-1.531,0.254-2.277,0.433c0,0-0.001,0-0.002,0l-1.82-4.474l-6.917,2.814l1.792,4.402
	c-0.775,0.448-1.537,0.933-2.26,1.447l-3.328-3.33l-5.281,5.281l3.224,3.224c-0.499,0.641-0.969,1.305-1.409,1.991l-4.146-1.749
	l-2.901,6.881l3.954,1.668c-0.262,0.91-0.479,1.851-0.642,2.799h-4.216v7.468h3.999c0.097,0.889,0.247,1.762,0.433,2.621
	c0,0.001,0.001,0.001,0.001,0.002l-3.629,1.477l2.813,6.917l3.452-1.404c0.5,0.903,1.052,1.777,1.657,2.612l-2.59,2.59l5.281,5.279
	l2.477-2.477c0.746,0.582,1.522,1.127,2.329,1.628c0,0,0.001,0,0.002,0.001l-1.341,3.181l6.881,2.9l1.308-3.103
	c1.029,0.283,2.082,0.508,3.157,0.656c0,0,0,0,0.002,0v3.35h7.467v-3.35c0.963-0.134,1.903-0.328,2.83-0.567
	c0.001,0,0.001-0.001,0.003-0.001l1.268,3.115l6.918-2.814l-1.303-3.198c0.91-0.545,1.784-1.149,2.62-1.798l2.479,2.477l5.279-5.279
	l-2.59-2.591c0.537-0.746,1.039-1.522,1.493-2.321c0.001,0,0.001,0,0.001-0.001l3.429,1.447l2.901-6.883l-3.604-1.52
	c0.225-0.963,0.396-1.947,0.507-2.946H766.369z M737.995,324.246c-12.001,0.952-21.938-8.979-20.998-20.976
	c0.739-9.438,8.382-17.086,17.817-17.834c11.999-0.952,21.946,8.981,21.004,20.979C755.076,315.852,747.432,323.497,737.995,324.246
	z"/>
<g>
	<path fill="#FFFFFF" d="M963.517,723.016c-9.396-0.509-17.972,4.298-31.136-4.171c-3.21-11.532-7.815-23.936-11.987-36.086
		l5.622,2.865l-7.145-7.271c-0.346-1.071-0.707-2.123-1.051-3.174l3.301,0.707l-4.935-5.875c-1.794-5.768-3.335-11.37-4.44-16.684
		c8.884,11.152,18.477,22.83,27.652,34.817l-0.616,4.877l3.081-1.649C949.697,701.763,957.169,712.353,963.517,723.016z"/>
	<path fill="#921C48" d="M1001.197,681.272l-4.605,2.085l2.938,0.653c-6.855,11.678-11.389,25.423-12.185,37.481
		c-6.458-0.289-13.095-4.225-20.04-17.517c11.625-14.38,26.529-30.41,45.063-36.467
		C1008.27,671.354,1004.497,676.051,1001.197,681.272z"/>
	<path fill="#EDC73B" d="M993.635,597.133l-3.081,4.77l2.629-1.035c-2.177,16.774-6.547,34.092-9.339,47.256
		c-0.345,1.706-0.688,3.338-0.979,4.879c-0.617,3.228-1.052,6.456-1.36,9.684l-5.223,7.852l-4.286,6.424l8.494-3.921l0.47-0.273
		c-0.018,0.147-0.018,0.291-0.018,0.437c-0.162,10.336,0.654,20.6,1.124,30.809c0.219,4.426,0.364,8.85,0.345,13.256
		c-0.017,4.388-1.757,8.433-4.568,11.405c-2.829,2.992-6.746,4.859-11.135,4.878c-0.942,0-1.904-0.071-2.919-0.234
		c-6.147-1.071-10.934-5.984-12.439-12.042c-1.887-7.633-2.284-15.504-1.56-23.392c0.744-8.451,2.774-16.9,5.604-25.061
		c2.157-6.166,4.769-12.168,7.634-17.879c1.179-2.357,2.376-4.807,3.572-7.31c7.071-3.263,4.569-5.349,2.883-6.164
		c0.29-0.636,0.581-1.271,0.87-1.923c4.135,0.291,7.109-0.055,1.271-2.847c0.617-1.342,1.215-2.702,1.813-4.08
		c3.011-6.907,5.894-13.981,8.541-20.872c5.565-14.452,10.027-28.144,12.167-37.972
		C994.869,580.957,994.542,588.936,993.635,597.133z"/>
	<path fill="#DB3256" d="M944.022,733.081c-1.343-0.219-2.43-0.673-3.228-1.487c-8.74-8.251-16.593-18.134-26.511-25.206
		c-3.718-2.647-8.161-4.914-12.694-7.109l4.896-2.665l-7.763,1.27c-0.579-0.273-1.159-0.563-1.739-0.834l3.299-1.797l-5.222,0.854
		c-5.168-2.574-10.027-5.24-13.492-8.469c15.016,1.959,29.632,4.152,43.594,11.604c7.019,3.755,17.517,9.703,26.022,16.539
		C958.8,721.909,953.67,734.621,944.022,733.081z"/>
	<path fill="#5D3ABB" d="M1024.049,695.285h-7.126l5.112,1.069c-0.471,0.253-0.96,0.507-1.431,0.763
		c-4.77,2.556-9.376,5.33-12.984,9.102c-0.182,0.163-0.326,0.326-0.489,0.491c-3.464,3.771-5.622,7.888-7.236,12.167l-8.014,1.724
		l3.808,1.179l2.9,0.888c-0.471,1.45-0.906,2.92-1.323,4.389c-0.979,3.354-3.282,6.002-6.201,7.471
		c-2.213,1.105-4.788,1.541-7.397,1.124c-0.092-0.019-0.184-0.036-0.273-0.056c-8.269-1.341-12.893-10.553-8.703-17.805
		c2.683-4.661,6.345-8.777,10.645-12.368c1.341-1.107,2.736-2.158,4.188-3.138c0.688-0.489,1.396-0.943,2.104-1.396
		c0.761-0.489,1.54-0.961,2.338-1.413l1.996,6.383l3.064-8.342l0.289-0.817c10.935-5.076,23.266-7.47,34.019-6.764
		C1030.432,691.876,1027.24,693.581,1024.049,695.285z"/>
	<path fill="#5D3ABB" d="M942.753,734.604c-6.166,6.4-13.999-1.887-21.615-4.443c-3.373-1.124-7.108-2.211-11.008-3.101l3.61-5.204
		l-7.473,4.352c-7.434-1.451-15.194-2.175-21.977-1.323c3.027-1.505,7.217-3.264,11.877-4.878c0.019,0,2.719,1.486,2.719,1.486
		l-0.652-2.194c10.663-3.499,23.248-6.019,30.556-3.335C944.784,719.426,948.683,728.438,942.753,734.604z"/>
	<path fill="#921C48" d="M957.675,732.914c-0.097,0.002-0.194,0.005-0.292,0.006c-9.591,0.235-22.274-4.117-21.059-11.576
		c0.766-4.718,0.354-9.403-0.881-13.977l5.602,3.066l-6.957-7.319c-3.314-8.812-9.246-17.135-14.861-24.462
		c6.455,3.881,12.639,8.26,18.314,13.104l2.266,4.971l-0.034-3.044c1.578,1.403,3.126,2.834,4.598,4.312l1.291,9.124l2.147-5.586
		c6.414,6.916,11.833,14.497,15.87,22.695C965.822,728.607,963.451,732.747,957.675,732.914z"/>
	<path fill="#921C48" d="M980.489,673.04l0.47-0.273c-0.018,0.147-0.018,0.291-0.018,0.437
		C980.798,673.148,980.635,673.095,980.489,673.04z"/>
	<path fill="#FFFFFF" d="M969.865,733.209c0,0-8.502-49.852,10.624-95.186c0,0-19.186,27.249-13.782,95.527
		C966.707,733.551,968.387,733.871,969.865,733.209z"/>
	<path fill="#FFFFFF" d="M982.011,735.286c0,0,3.921-19.77,19.184-28.535c0,0-16.192,5.07-21.62,27.545
		C979.574,734.296,980.864,735.524,982.011,735.286z"/>
	<path fill="#DB3256" d="M935.53,695.452c0,0,19.643,23.709,19.256,37.421c0,0-1.86-0.04-3.886-0.434
		C948.876,732.043,955.062,722.552,935.53,695.452z"/>
	<path fill="#5CA1D3" d="M1009.551,754.785c0,27.031-21.892,48.901-48.902,48.901c-14.253,0-27.071-6.083-36.001-15.811
		c-8.026-8.702-12.901-20.313-12.901-33.091c0-8.15,1.987-15.831,5.51-22.567c0.409-0.778,0.84-1.536,1.27-2.272h84.247
		C1007.071,737.214,1009.551,745.713,1009.551,754.785z"/>
	<path fill="#74CDFC" d="M975.434,759.945c0,15.316-22.669,27.747-50.786,27.931c-8.026-8.702-12.901-20.313-12.901-33.091
		c0-8.15,1.987-15.831,5.51-22.567c2.191-0.164,4.443-0.246,6.717-0.246C952.396,731.972,975.434,744.483,975.434,759.945z"/>
	<rect x="914.833" y="726.414" fill="#221B41" width="91.302" height="7.062"/>
</g>
<path fill="#FFFFFF" d="M877.087,162.14c4.464,4.112,8.922,8.232,13.348,12.382l13.308,12.422l13.256,12.474
	c4.426,4.15,8.794,8.359,13.194,12.536c1.046,0.993,1.088,2.646,0.095,3.692l-0.007,0.008l-0.088,0.092
	c-4.879,5.094-9.718,10.228-14.502,15.417c-4.776,5.196-9.661,10.283-14.769,15.149c-5.102,4.872-10.317,9.628-15.664,14.256
	c-2.658,2.326-5.39,4.582-8.125,6.832c-2.764,2.223-5.525,4.447-8.424,6.536l-0.498-0.5c2.088-2.897,4.312-5.66,6.535-8.423
	c2.25-2.736,4.504-5.467,6.832-8.127c4.628-5.345,9.385-10.561,14.256-15.662c4.865-5.107,9.953-9.992,15.149-14.769
	c5.188-4.784,10.322-9.623,15.417-14.501v3.792c-4.178-4.4-8.386-8.768-12.537-13.194l-12.473-13.256l-12.423-13.308
	c-4.15-4.426-8.27-8.882-12.381-13.348L877.087,162.14z"/>
<g>
	<path fill="#74CDFC" d="M709.383,546.932l-2.151,5.585l-9.457,24.467l-106.98,47.18L476.15,604.08l-40.455-30.802l36.029-110.309
		c0,0,19.023-26.748,61.138-36.38c6.207-1.426,12.922-2.472,20.153-3.008c24.03-1.779,43.583-0.162,59.938,4.279
		c21.933,5.932,38.104,16.941,51.555,31.615l41.111,80.119L709.383,546.932z"/>
	<path fill="#272440" d="M664.69,335.392c0-7.569-3.263-14.36-8.437-19.102c3.083-4.268,4.923-9.492,4.923-15.158
		c0-14.324-11.612-25.935-25.935-25.935c-0.059,0-0.116,0.008-0.176,0.009c0.108-0.962,0.176-1.936,0.176-2.926
		c0-14.324-11.612-25.934-25.935-25.934c-6.219,0-11.925,2.194-16.395,5.845c-4.148-8.796-13.071-14.898-23.443-14.898
		c-11.983,0-22.042,8.141-25.014,19.186c-3.668-1.984-7.866-3.112-12.328-3.112c-14.323,0-25.935,11.611-25.935,25.935
		c0,1.221,0.114,2.414,0.277,3.592c-12.742,1.643-22.595,12.505-22.595,25.694c0,6.001,2.058,11.512,5.479,15.906
		c-5.56,4.756-9.096,11.812-9.096,19.702c0,11.521,7.52,21.277,17.915,24.657c-1.36,3.148-2.121,6.617-2.121,10.266
		c0,14.323,11.611,25.934,25.935,25.934c3.259,0,6.367-0.627,9.242-1.726c4.407,8.032,12.939,13.479,22.747,13.479
		c8.479,0,15.983-4.086,20.715-10.378c4.732,6.292,12.235,10.378,20.715,10.378c12.586,0,23.071-8.969,25.431-20.863
		c0.795,0.075,1.599,0.123,2.415,0.123c14.322,0,25.934-11.61,25.934-25.935c0-3.621-0.749-7.067-2.089-10.2
		C657.321,356.456,664.69,346.794,664.69,335.392z M614.91,345.592c-8.67,2.946-15.281,10.333-17.093,19.468
		c-0.795-0.074-1.598-0.123-2.413-0.123c-8.479,0-15.983,4.087-20.715,10.379c-4.732-6.292-12.237-10.379-20.715-10.379
		c-3.26,0-6.367,0.629-9.241,1.727c-3.149-5.737-8.407-10.145-14.729-12.199c1.359-3.149,2.121-6.618,2.121-10.268
		c0-6.001-2.057-11.51-5.479-15.905c5.561-4.756,9.096-11.811,9.096-19.703c0-1.222-0.113-2.414-0.277-3.59
		c10.482-1.352,18.983-8.948,21.678-18.949c3.666,1.985,7.864,3.114,12.325,3.114c6.222,0,11.927-2.194,16.396-5.846
		c4.149,8.796,13.072,14.898,23.442,14.898c0.06,0,0.118-0.009,0.176-0.009c-0.108,0.962-0.176,1.936-0.176,2.926
		c0,7.569,3.264,14.36,8.437,19.101c-3.084,4.269-4.921,9.493-4.921,15.159C612.821,339.015,613.569,342.461,614.91,345.592z"/>
	<path fill="#2E2264" d="M355.932,653.873c6.673-21.837,38.535-23.585,55.065-19.769c11.268,2.604,20.988,7.321,31.298,12.558
		c11.108,5.641,22.982,9.66,33.854,16.068c26.539,15.639,56.295,25.026,87.253,26.266c27.087,1.084,56.42-7.082,81.881-15.494
		c21.587-7.132,43.535-14.173,64.94-22.134c9.899-3.681,22.479-9.226,33.065-9.589c12.81-0.438,42.63,5.108,41.904,18.591
		c-2.02,37.568-65.635,67.742-93.711,84.092c-17.732,10.325-35.697,20.319-53.384,30.702c-12.527,7.357-26.002,12.909-40.447,14.299
		c-28.036,2.701-57.728-9.95-81.463-23.752c-29.234-17.002-54.399-39.802-81.935-59.6
		C423.196,698.161,411.519,692.768,355.932,653.873z"/>
	<path fill="#4980EE" d="M492.446,562.69c-0.22-7.415,2.186-14.327,3.525-21.408c1.792-9.47,4.542-12.319,4.542-12.319
		s19.281,27.631,17.99,33.001C517.251,567.17,500.201,570.321,492.446,562.69z"/>
	<path fill="#4980EE" d="M631.032,569.479c-0.178-6.003,9.145-45.645,10.275-51.387l0,0c7.672,9.137,16.311,31.554,16.4,36.703
		c0.104,6.067-2.022,5.047-8.436,6.286C645.25,561.857,637.668,576.147,631.032,569.479z"/>
	<path fill="#FFFFFF" d="M578.645,512.599c0,0-39.544-34.842-48.462-65.297c-1.879-6.412-0.621-12.294,2.782-17.337
		c6.207-1.426,12.922-2.47,20.153-3.007c24.031-1.78,43.583-0.162,59.938,4.278C629.445,460.69,578.645,512.599,578.645,512.599z"/>
	<path fill="#EAAAAB" d="M667.422,673.531c-4.474,2.987-9.313,7-14.354,9.811c-1.865,1.038-3.752,1.912-5.665,2.502
		c0.047-1.063,0.908-3.376,2.278-6.493c2.183-4.933,5.677-11.863,9.349-18.945c6.633-12.866,13.834-26.253,14.756-29.25
		c1.829-5.891-1.622-25.734-0.974-31.873c1.24-11.674,12.067-6.669,20.722-16.324c3.494-3.919,7.365-7.862,11.391-12.006
		c0.708,10.306,5.347,20.398,6.361,30.691C712.893,618.076,679.863,665.256,667.422,673.531z"/>
	<path fill="#EAAAAB" d="M493.627,660.606c-0.791,5.796-2.112,11.449-2.938,17.222c-0.354,2.503-0.615,5.041-0.685,7.614
		c0,0.13-0.011,0.272-0.011,0.401c-0.106-0.083-0.201-0.177-0.307-0.271c-10.341-8.972-35.225-43.263-41.965-54.547
		c-4.78-8.003-12.96-22.182-11.934-31.743c5.253,1.712,9.668,4.839,13.977,7.462c2.408,1.474,4.792,2.773,7.271,3.601
		c5.513,1.816,17.258,2.158,20.894,6.94C481.268,621.675,494.301,655.624,493.627,660.606z"/>
	<path fill="#221B41" d="M612.261,824.745c5.311,0.809,9.401,4.99,13.941,7.493c8.84,4.867,19.86,5.713,29.716,4.658
		c16.12-1.727,41.071-7.354,46.839-25.054c0.042-0.131,0.082-0.264,0.122-0.394c2.771-9.183-6.978-10.395-13.894-11.362
		c-13.417-1.875-29.803-0.85-43.084,0.462c-8.065,0.796-15.82,2.121-23.837,2.973C612.961,804.486,605.404,805.539,612.261,824.745z
		"/>
	<path fill="#221B41" d="M547.926,807.372c-13.25,4.235-25.598,0.586-38.953-2.362c-8.252-1.822-15.917-5.474-24.342-5.903
		c-9.412-0.479-14.56,2.878-21.924,8.507c-7.498,5.733-11.582,9.921-6.868,18.612c0.008,0.017,0.017,0.03,0.024,0.045
		c1.676,3.085,4.24,5.621,7.365,7.221c5.565,2.848,12.253,3.647,19.036,4.042c1.792,0.104,3.593,0.18,5.381,0.259
		c17.197,0.253,33.723,0.253,51.287-3.507c1.523-0.597,3.02-1.332,4.476-2.246c1.457-0.915,2.874-2.01,4.242-3.322
		c1.198-1.048,2.237-2.183,3.069-3.394C554.05,820.483,554.087,814.553,547.926,807.372z"/>
	<path fill="#E59193" d="M667.422,673.531c-4.474,2.987-9.313,7-14.354,9.811c-1.817-1.133-2.892-2.479-3.387-3.991
		c-1.772-5.312,3.635-12.547,9.349-18.945c3.54-3.989,7.2-7.661,9.301-10.34c5.111-6.505,8.264-14.165,12.962-20.8
		c4.178-5.914,9.726-11.402,12.878-18.012c3.742-7.899,3.08-19.419-0.638-28.296c3.494-3.919,7.365-7.862,11.391-12.006
		c0.708,10.306,5.347,20.398,6.361,30.691C712.893,618.076,679.863,665.256,667.422,673.531z"/>
	<path fill="#E59193" d="M491.81,683.85c-0.331,0.707-0.968,1.227-1.806,1.593c-0.094,0.06-0.212,0.094-0.318,0.13
		c-10.341-8.972-35.225-43.263-41.965-54.547c-4.78-8.003-12.96-22.182-11.934-31.743c5.253,1.712,9.668,4.839,13.977,7.462
		c1.429,1.947,2.856,3.812,3.719,5.524c2.396,4.769,4.438,9.727,6.716,14.437c4.31,8.9,9.55,17.73,15.264,25.697
		c2.171,3.021,11.709,16.868,15.228,25.426C491.81,680.543,492.329,682.715,491.81,683.85z"/>
	<path fill="#4980EE" d="M709.383,546.932l-2.151,5.585c-5.516,2.747-11.808,4.626-16.886,7.86
		c-6.743,4.271-16.374,6.834-21.6,12.901c10.104-15.183,26.078-27.321,36.874-33.683L709.383,546.932z"/>
	<path fill="#4980EE" d="M473.56,595.293c-2.88-4.875-8.699-8.393-13.031-11.91c-5.62-4.533-11.179-10.151-17.317-13.269
		c-3.045-1.546-4.887-1.156-7.059-0.826c1.027-2.409,2.054-4.803,3.069-7.212c4.934,1.403,9.903,3.694,11.922,4.758
		C460.292,571.649,470.598,578.756,473.56,595.293z"/>
	<path fill="#EAAAAB" d="M601.33,426.704c-0.2,7.556-1.322,16.019-6.74,21.755c-11.816,12.536-25.158,9.778-36.526,2.152
		c-3.469-2.325-10.833-11.854-12.096-16.01c-1.393-4.58,0.188-9.373,0.885-13.929c0.662-4.321,0.839-8.688,0.944-13.057
		c0.047-1.841,0.071-3.694,0.071-5.547c-0.012-7.508-0.507-15.087-2.301-22.346c49.753,1.747,49.731-5.584,52.175,6.704
		c0.424,2.184,0.777,4.38,1.108,6.576c0.449,2.961,0.85,5.947,1.204,8.946C601.022,410.154,601.553,418.452,601.33,426.704z"/>
	<path fill="#E59193" d="M600.055,401.95c-0.485,0.555-1.015,1.062-1.594,1.547c-9.68,8.109-24.977,7.767-36.404,5.135
		c-5.749-1.322-10.234-3.553-14.188-6.563c-0.012-7.508-0.507-15.087-2.301-22.346c49.753,1.747,49.731-5.584,52.175,6.704
		c0.424,2.184,0.777,4.38,1.108,6.576C599.3,395.965,599.701,398.951,600.055,401.95z"/>
	<path fill="#412F94" d="M569.765,786.971c-7.541-5.506-15.027-10.001-22.132-16.23c-8.716-7.644-19.167-13.32-27.172-21.838
		c-15.507-16.497-33.977-29.63-49.852-45.742c-18.73-19.009-39.389-41.338-62.415-54.875c-18.166-10.681-48.922-19.483-53.26,10.315
		c-2.482,17.046,11.155,38.446,19.323,52.822c11.705,20.599,31.072,32.362,50.316,44.859c32.947,21.397,70.112,37.171,107.72,49.06
		c19.366,6.12,39.316,10.729,58.75,16.585c4.147,1.248,8.238,2.743,12.395,3.996c1.544,0.466,3.693,1.802,5.284,1.804
		c4.385,0.008,2.79-0.524,5.148-2.965c7.853-8.125,6.68-20.104-3.793-24.806C603.789,797.135,596.459,796.754,569.765,786.971z"/>
	<path fill="#EAAAAB" d="M617.455,338.572c-0.508,12.006-2.375,24.176-8.429,33.797c-2.054,3.27-4.474,6.587-7.188,9.714
		c-10.613,12.253-25.747,21.685-41.058,14.297c-9.171-4.428-17.859-11.238-24.114-19.632c-5.183-6.94-8.689-14.967-9.432-23.584
		c-0.614-7.142-0.495-14.272-0.094-21.367c0.46-8.298,1.321-16.537,1.899-24.67c10.482-7,19.584-12.289,27.563-16.137
		c25.427-12.265,39.485-9.774,50.783-0.425c5.63,4.663,8.239,11.544,9.384,18.627c0.566,3.518,0.768,7.095,0.803,10.458
		C617.631,325.625,617.749,332.068,617.455,338.572z"/>
	<path fill="#E59193" d="M617.455,338.572c-2.916-3.162-6.67-5.464-11.228-6.102c-8.936-1.229-15.733,6.221-23.938,7.697
		c-7.061,1.263-14.957,1.132-21.721-1.169c-8.51-2.868-14.968-7.839-24.129-8.265c-2.643-0.117-5.971,0.555-9.3,1.063
		c0.46-8.298,1.321-16.537,1.899-24.67c10.482-7,19.584-12.289,27.563-16.137c7.107-0.792,14.378-0.755,21.722-0.095
		c11.213,1.016,22.722,2.373,31.705,9.904c2.503,2.102,4.804,4.911,6.74,8.393c0.566,3.518,0.768,7.095,0.803,10.458
		C617.631,325.625,617.749,332.068,617.455,338.572z"/>
	<g>
		<path fill="#FFFFFF" d="M524.809,350.172c3.435,19.828,13.992,38.348,33.193,46.779c16.986,7.456,36.824-1.547,47.722-15.306
			c1.05-1.325-0.817-3.218-1.879-1.878c-11.144,14.069-31.014,22.4-47.767,13.287c-16.803-9.141-25.548-25.349-28.709-43.589
			C527.078,347.785,524.519,348.497,524.809,350.172L524.809,350.172z"/>
	</g>
	<g>
		<path fill="#2E2264" d="M355.799,650.923c5.582,34.894,32.051,60.158,57.857,81.785c27.663,23.186,60.689,38.336,91.642,56.436
			c17.692,10.346,37.043,16.578,55.851,24.487c1.574,0.662,2.261-1.908,0.705-2.561c-10.265-4.317-20.766-8.045-31.059-12.294
			c-10.989-4.536-21.095-10.249-31.404-16.109c-19.023-10.815-38.567-20.742-57.057-32.479
			c-18.576-11.79-35.804-25.918-51.35-41.491c-15.825-15.853-29.032-36.024-32.623-58.479
			C358.092,648.534,355.532,649.249,355.799,650.923L355.799,650.923z"/>
	</g>
	<path fill="#412F94" d="M532.051,836.629c0,0,224.306-34.22,260.324-152.291c2.451-8.033,1.838-16.766-2.127-24.17
		c-4.699-8.771-14.693-17.267-35.943-14.771c-41.035,4.817-142.437,131.35-218.65,164.001
		C535.654,809.397,526.047,818.969,532.051,836.629z"/>
	<g>
		<path fill="#221B41" d="M531.187,831.88c24.993-4.607,49.598-14.02,73.264-23.098c24.715-9.478,48.508-20.849,71.823-33.359
			c38.298-20.547,82.113-43.179,102.054-84.075c7.48-15.342,11.577-35.085-5.179-45.737c-1.447-0.92-2.781,1.378-1.34,2.292
			c17.368,11.043,9.676,32.607,1.581,47.162c-10.065,18.096-25.404,32.335-41.99,44.432c-18.017,13.14-37.839,23.669-57.462,34.17
			c-22.461,12.017-45.363,22.98-69.141,32.152c-23.989,9.252-48.966,18.826-74.316,23.499
			C528.802,829.628,529.513,832.188,531.187,831.88L531.187,831.88z"/>
	</g>
	<path fill="#272440" d="M521.76,321.605c2.352-2.327,3.329-3.376,6.771-3.021c5.513,0.57,11.805-4.084,16.375-6.699
		c1.15-0.658,2.338-1.35,3.104-2.432c1.948-2.753,0.681-6.577,2.093-9.713c1.364-3.027,3.913-5.553,7.023-6.772
		c1.492-0.586,3.215-0.75,4.69-0.12c4.355,1.86,2.797,7.162,5.732,9.867c3.603,3.322,6.53-0.871,8.791-3.521
		c2.896-3.392,8.583-3.248,8.558,2.221c-0.003,0.852-0.211,1.73,0.057,2.54c0.271,0.817,1,1.417,1.798,1.743
		c2.978,1.215,5.614-0.702,8.243-1.87c6.704-2.979,6.834,2.52,5.824,6.905c-1.232,5.345,1.135,7.854,6.589,8.635
		c1.705,0.244,3.495,0.505,4.571,1.946c1.423,1.904,1.209,4.291,3.671,5.558c1.144,0.588,2.485,0.667,3.768,0.577
		c8.42-0.594,15.313-7.92,14.452-16.43c-0.782-7.745-6.022-14.733-10.863-20.507c-8.777-10.469-18.584-15.728-31.514-19.787
		c-13.781-4.327-28.194-0.058-40.967,5.419c-9.628,4.13-16.912,12.071-24.75,18.918c-3.426,2.992-5.23,5.679-7.09,9.709
		c-1.391,3.013-3.303,4.777-2.872,8.409L521.76,321.605z"/>
	<path fill="#FFFFFF" d="M553.974,364.937h36.102c0,0-3.025,20.552-18.385,19.36C556.331,383.106,553.974,364.937,553.974,364.937z"
		/>
	<g>
		<path fill="#272440" d="M511.458,288.545c-0.279-0.042-0.397-0.082-0.545-0.122c-0.153-0.039-0.282-0.082-0.407-0.125
			c-0.256-0.085-0.507-0.174-0.737-0.271c-0.479-0.183-0.917-0.4-1.356-0.609c-0.861-0.447-1.675-0.933-2.432-1.479
			c-1.512-1.091-2.847-2.343-3.908-3.754c-0.286-0.329-0.509-0.715-0.755-1.068c-0.241-0.358-0.479-0.711-0.67-1.097l-0.591-1.116
			c-0.169-0.385-0.322-0.773-0.476-1.153c-0.338-0.743-0.511-1.555-0.742-2.306c-0.194-0.772-0.302-1.561-0.445-2.312
			c0.498,0.609,0.948,1.22,1.459,1.775c0.547,0.532,1.017,1.09,1.611,1.533l0.839,0.678l0.89,0.584
			c0.282,0.201,0.597,0.357,0.903,0.514c0.311,0.149,0.589,0.329,0.915,0.442c1.221,0.549,2.504,0.842,3.731,0.974
			c0.615,0.066,1.226,0.07,1.808,0.042c0.29-0.029,0.576-0.046,0.839-0.099c0.138-0.018,0.257-0.049,0.373-0.081
			c0.061-0.014,0.117-0.029,0.151-0.051c0.039-0.019,0.107-0.037,0.016-0.066L511.458,288.545z"/>
	</g>
	<g>
		<path fill="#272440" d="M627.604,274.371c0.008,0.022,0.093,0.007,0.169-0.004c0.072-0.009,0.151-0.022,0.237-0.041
			c0.167-0.034,0.333-0.064,0.508-0.11c0.346-0.079,0.697-0.178,1.053-0.278c0.709-0.204,1.418-0.449,2.132-0.713
			c1.419-0.536,2.814-1.195,4.172-1.961c1.366-0.759,2.674-1.652,3.915-2.671c1.272-1,2.381-2.188,3.483-3.461
			c-0.412,1.608-0.906,3.272-1.649,4.839c-0.71,1.589-1.574,3.141-2.581,4.614c-1,1.482-2.119,2.911-3.358,4.256
			c-0.622,0.67-1.268,1.331-1.954,1.968c-0.344,0.318-0.691,0.636-1.062,0.947c-0.178,0.156-0.374,0.312-0.568,0.467
			c-0.094,0.078-0.196,0.157-0.307,0.238c-0.107,0.08-0.204,0.155-0.379,0.263L627.604,274.371z"/>
	</g>
	<g>
		<path fill="#4D4B67" d="M639.801,286.138c2.714-0.003,5.422,0.957,7.753,2.513c2.338,1.566,4.243,3.856,5.417,6.454
			c0.583,1.302,0.977,2.671,1.239,4.05c0.099,0.694,0.226,1.384,0.244,2.08c0.064,0.693,0.052,1.386,0.033,2.074
			c-0.098,2.753-0.711,5.43-1.799,7.897c-0.065-2.695-0.092-5.294-0.42-7.808c-0.149-1.256-0.381-2.483-0.676-3.68
			c-0.323-1.187-0.694-2.35-1.194-3.452c-1.001-2.199-2.406-4.19-4.217-5.878C644.374,288.697,642.231,287.274,639.801,286.138z"/>
	</g>
	<g>
		<path fill="#4D4B67" d="M644.272,294.671c0.898,0.007,1.774,0.345,2.534,0.873c0.751,0.538,1.388,1.315,1.716,2.224
			c0.323,0.902,0.407,1.883,0.216,2.78c-0.064,0.454-0.265,0.872-0.407,1.289c-0.211,0.396-0.435,0.781-0.704,1.131
			c-0.025-0.458,0.014-0.876,0.029-1.292c-0.021-0.417,0.015-0.82-0.025-1.211c-0.029-0.788-0.193-1.512-0.429-2.197
			C646.708,296.894,645.644,295.774,644.272,294.671z"/>
	</g>
	<g>
		<g>
			<path fill="#4D4B67" d="M495.451,317.236c-1.921-1.916-3.157-4.51-3.705-7.259c-0.546-2.761-0.273-5.728,0.732-8.395
				c0.509-1.333,1.197-2.581,1.987-3.741c0.422-0.56,0.819-1.137,1.299-1.642c0.444-0.535,0.942-1.017,1.443-1.489
				c2.016-1.878,4.341-3.337,6.856-4.312c-1.86,1.951-3.679,3.808-5.224,5.818c-0.783,0.994-1.488,2.025-2.125,3.08
				c-0.611,1.068-1.17,2.153-1.596,3.286c-0.847,2.262-1.262,4.665-1.175,7.138C494.026,312.192,494.536,314.715,495.451,317.236z"
				/>
		</g>
	</g>
	<g>
		<g>
			<path fill="#4D4B67" d="M498.322,308.041c-0.63-0.641-1.01-1.499-1.173-2.409c-0.152-0.912-0.052-1.912,0.359-2.785
				c0.41-0.867,1.045-1.62,1.813-2.119c0.366-0.275,0.804-0.429,1.199-0.624c0.43-0.131,0.86-0.245,1.297-0.301
				c-0.305,0.341-0.629,0.61-0.933,0.892c-0.28,0.311-0.591,0.57-0.839,0.875c-0.536,0.576-0.932,1.206-1.25,1.856
				C498.172,304.747,498.134,306.291,498.322,308.041z"/>
		</g>
	</g>
	<g>
		<g>
			<path fill="#4D4B67" d="M526.843,396.508c-2.411,1.426-5.352,1.849-8.226,1.493c-2.885-0.362-5.717-1.664-7.951-3.604
				c-1.113-0.978-2.071-2.1-2.891-3.293c-0.379-0.615-0.786-1.213-1.084-1.862c-0.155-0.322-0.332-0.633-0.467-0.96l-0.393-0.986
				c-0.99-2.641-1.415-5.412-1.17-8.178c1.471,2.353,2.717,4.616,4.138,6.665c0.696,1.03,1.429,1.998,2.192,2.912
				c0.783,0.895,1.58,1.752,2.456,2.506c1.747,1.508,3.71,2.714,5.953,3.574C521.643,395.64,524.105,396.201,526.843,396.508z"/>
		</g>
	</g>
	<g>
		<g>
			<path fill="#4D4B67" d="M639.594,362.739c1.869,2.087,2.857,4.889,3.067,7.777c0.207,2.9-0.516,5.934-1.985,8.502
				c-0.742,1.283-1.654,2.44-2.665,3.478c-0.53,0.493-1.036,1.007-1.616,1.428c-0.283,0.214-0.555,0.448-0.85,0.646l-0.89,0.576
				c-2.396,1.486-5.033,2.444-7.794,2.743c2.022-1.9,4-3.566,5.732-5.359c0.875-0.885,1.682-1.79,2.428-2.719
				c0.725-0.942,1.41-1.89,1.98-2.896c1.136-2.008,1.938-4.17,2.344-6.536C639.756,368.01,639.827,365.486,639.594,362.739z"/>
		</g>
	</g>
	<g>
		<g>
			<path fill="#4D4B67" d="M520.766,389.482c-0.819,0.369-1.756,0.429-2.667,0.266c-0.907-0.174-1.811-0.615-2.487-1.305
				c-0.671-0.684-1.156-1.54-1.358-2.435c-0.131-0.439-0.124-0.903-0.169-1.342c0.026-0.447,0.069-0.891,0.168-1.321
				c0.214,0.405,0.354,0.802,0.513,1.186c0.193,0.369,0.329,0.751,0.529,1.09c0.354,0.703,0.807,1.293,1.308,1.816
				C517.624,388.479,519.06,389.052,520.766,389.482z"/>
		</g>
	</g>
	<g>
		<path fill="#4D4B67" d="M607.495,305.38c0.124,1.457,0.238,2.763,0.483,3.96c0.24,1.196,0.621,2.231,1.198,3.079
			c0.568,0.852,1.38,1.556,2.414,2.185c1.027,0.644,2.243,1.169,3.555,1.839c-1.386,0.503-2.877,0.582-4.371,0.227
			c-1.475-0.345-3.002-1.248-3.937-2.667c-0.952-1.401-1.245-3.102-1.071-4.602C605.947,307.894,606.503,306.485,607.495,305.38z"/>
	</g>
	<g>
		<path fill="#272440" d="M550.599,298.214c-0.071,0.661-0.117,1.315-0.356,1.955c-0.115,0.321-0.245,0.638-0.385,0.944
			c-0.147,0.296-0.327,0.545-0.502,0.81c-0.362,0.562-0.741,0.883-1.133,1.28c-0.193,0.177-0.368,0.299-0.557,0.447
			c-0.18,0.134-0.381,0.297-0.543,0.39c-1.392,0.886-2.521,1.319-3.332,1.746l-0.514,0.277c-0.056,0.039-0.113,0.074-0.174,0.109
			l-0.089,0.05l-0.04,0.033c-0.028,0.02-0.064,0.036-0.101,0.051c0.002,0.002-0.002,0-0.018-0.007
			c-0.006-0.003-0.02-0.007-0.026-0.012c0.006-0.006,0.009-0.013,0.01-0.021c0.002-0.016-0.011-0.039-0.032-0.057
			c0.013-0.032-0.088-0.006-0.106-0.034c-0.057-0.01-0.023,0.015-0.043,0.057c-0.017,0.021,0.043,0.066,0.057,0.104
			c0.032,0.042,0.02,0.081,0.091,0.14c0.376,0.454,1.29,1.056,2.334,1.743c0.538,0.367,1.107,0.752,1.719,1.298l0.451,0.422
			c0.152,0.16,0.306,0.346,0.452,0.521c0.299,0.32,0.561,0.818,0.798,1.254c0.418,0.995,0.596,2.059,0.407,3.068
			c-0.047,0.254-0.064,0.506-0.158,0.751c-0.09,0.246-0.188,0.49-0.292,0.729c-0.094,0.249-0.244,0.438-0.379,0.646
			c-0.141,0.193-0.28,0.421-0.434,0.572c-1.257,1.329-2.518,1.836-3.566,2.366c-1.048,0.49-1.964,0.962-2.454,1.427
			c-0.202,0.238-0.382,0.412-0.423,0.701c-0.1,0.28-0.045,0.58,0.016,0.861c0.211,0.581,0.977,1.282,1.913,1.899
			c0.93,0.643,2.008,1.258,2.987,2.224c0.472,0.499,0.941,1.101,1.143,1.846c0.252,0.722,0.182,1.48,0.029,2.181
			c-0.249,0.688-0.625,1.333-1.14,1.752c-0.485,0.458-1.025,0.777-1.553,1.073c-1.065,0.572-2.145,1.002-3.118,1.602
			c-0.971,0.569-1.793,1.485-1.882,2.688c-0.094-1.193,0.654-2.352,1.596-3.08c0.93-0.768,1.969-1.358,2.883-2.032
			c0.924-0.653,1.663-1.472,1.794-2.333c0.012-0.445,0.003-0.902-0.206-1.27c-0.154-0.379-0.483-0.69-0.852-0.988
			c-0.782-0.587-1.817-1.029-2.901-1.563c-0.548-0.279-1.113-0.568-1.688-0.982c-0.573-0.384-1.149-0.959-1.6-1.69
			c-0.404-0.777-0.645-1.66-0.556-2.543c0.022-0.221,0.017-0.445,0.078-0.663c0.062-0.219,0.128-0.438,0.202-0.656
			c0.063-0.229,0.181-0.408,0.286-0.604c0.112-0.186,0.217-0.4,0.346-0.556c1.035-1.332,2.22-2.012,3.189-2.675
			c0.969-0.624,1.81-1.267,2.079-1.732c0.095-0.235,0.133-0.321,0.08-0.48c0.006-0.152-0.114-0.27-0.156-0.338
			c-0.166-0.162-0.795-0.63-1.776-1.078c-0.969-0.49-2.171-0.946-3.559-2.041c-0.165-0.114-0.351-0.317-0.523-0.484
			c-0.174-0.185-0.346-0.328-0.511-0.561c-0.328-0.455-0.65-0.901-0.858-1.485c-0.48-1.117-0.521-2.306-0.343-3.484
			c0.072-0.294,0.163-0.59,0.263-0.882l0.16-0.435c0.063-0.132,0.133-0.257,0.204-0.385c0.141-0.253,0.292-0.504,0.45-0.748
			c0.159-0.204,0.323-0.401,0.492-0.597l0.256-0.291l0.245-0.233l0.5-0.454c0.313-0.256,0.633-0.5,0.93-0.715
			c1.169-0.817,2.16-1.403,2.67-1.883c0.086-0.063,0.097-0.106,0.144-0.153c0.032-0.044,0.096-0.095,0.107-0.126
			c-0.014-0.047,0.066-0.108-0.022-0.071c-0.029,0.013-0.023,0.03-0.055,0.059c-0.042,0.031-0.072,0.073-0.087,0.12
			c-0.019,0.094-0.111,0.142-0.083,0.229H550.599z"/>
	</g>
	<g>
		<g>
			<path fill="#272440" d="M627.685,320.911c-0.248,0.616-0.469,1.234-0.874,1.785c-0.197,0.278-0.408,0.547-0.626,0.805
				c-0.221,0.245-0.462,0.437-0.704,0.644c-0.501,0.442-0.95,0.648-1.436,0.924c-0.234,0.12-0.436,0.188-0.656,0.28
				c-0.21,0.08-0.449,0.183-0.63,0.228c-1.58,0.476-2.784,0.586-3.68,0.777l-0.57,0.129c-0.064,0.021-0.13,0.04-0.198,0.058
				l-0.098,0.023c-0.014,0.007-0.031,0.015-0.048,0.02c-0.033,0.012-0.071,0.019-0.111,0.021c0.001,0.004-0.002-0.001-0.014-0.011
				c-0.006-0.005-0.016-0.012-0.022-0.019c0.007-0.004,0.012-0.01,0.015-0.019c0.007-0.015,0-0.04-0.014-0.063
				c0.021-0.028-0.083-0.03-0.093-0.063c-0.053-0.024-0.027,0.009-0.058,0.044c-0.022,0.016,0.024,0.075,0.027,0.115
				c0.02,0.05-0.003,0.084,0.05,0.159c0.238,0.539,0.954,1.365,1.774,2.311c0.418,0.499,0.863,1.023,1.303,1.715l0.32,0.528
				c0.103,0.196,0.199,0.416,0.292,0.624c0.201,0.39,0.32,0.94,0.43,1.424c0.133,1.071,0.015,2.143-0.438,3.064
				c-0.114,0.23-0.201,0.469-0.357,0.68c-0.153,0.213-0.312,0.421-0.477,0.622c-0.159,0.215-0.355,0.354-0.54,0.519
				c-0.189,0.148-0.383,0.33-0.574,0.434c-1.569,0.939-2.918,1.086-4.073,1.313c-1.141,0.188-2.151,0.393-2.747,0.707
				c-0.261,0.175-0.481,0.294-0.598,0.562c-0.172,0.243-0.202,0.545-0.219,0.833c0.045,0.617,0.593,1.5,1.326,2.348
				c0.721,0.869,1.593,1.754,2.274,2.949c0.319,0.608,0.607,1.314,0.6,2.085c0.047,0.764-0.227,1.475-0.564,2.107
				c-0.424,0.596-0.962,1.114-1.569,1.378c-0.592,0.31-1.198,0.472-1.788,0.611c-1.181,0.264-2.335,0.384-3.434,0.696
				c-1.088,0.286-2.129,0.946-2.541,2.079c0.232-1.173,1.268-2.085,2.372-2.532c1.104-0.488,2.265-0.774,3.327-1.173
				c1.066-0.38,1.999-0.968,2.358-1.763c0.133-0.425,0.249-0.866,0.146-1.276c-0.046-0.407-0.277-0.795-0.551-1.183
				c-0.596-0.777-1.472-1.482-2.371-2.292c-0.452-0.416-0.918-0.848-1.359-1.402c-0.445-0.524-0.845-1.234-1.081-2.061
				c-0.179-0.857-0.171-1.772,0.154-2.598c0.082-0.206,0.136-0.425,0.256-0.617c0.118-0.193,0.241-0.388,0.371-0.577
				c0.123-0.202,0.285-0.343,0.44-0.504c0.157-0.148,0.318-0.326,0.483-0.44c1.357-1.003,2.682-1.335,3.793-1.711
				c1.103-0.338,2.086-0.729,2.471-1.104c0.155-0.2,0.214-0.272,0.207-0.44c0.048-0.146-0.038-0.291-0.058-0.367
				c-0.116-0.202-0.595-0.821-1.418-1.521c-0.799-0.734-1.832-1.497-2.872-2.929c-0.129-0.154-0.253-0.399-0.373-0.606
				c-0.116-0.227-0.244-0.411-0.34-0.68c-0.193-0.525-0.383-1.043-0.424-1.662c-0.16-1.205,0.123-2.36,0.613-3.446
				c0.149-0.264,0.317-0.523,0.493-0.778l0.271-0.375c0.098-0.11,0.198-0.211,0.301-0.314c0.205-0.206,0.418-0.406,0.637-0.598
				c0.208-0.153,0.42-0.299,0.634-0.442l0.326-0.21l0.299-0.159l0.602-0.3c0.373-0.162,0.745-0.311,1.091-0.437
				c1.347-0.471,2.458-0.767,3.08-1.089c0.101-0.037,0.121-0.077,0.18-0.109c0.042-0.034,0.119-0.065,0.137-0.093
				c-0.001-0.049,0.094-0.086-0.002-0.074c-0.03,0.006-0.03,0.023-0.067,0.042c-0.048,0.02-0.09,0.052-0.117,0.092
				c-0.045,0.085-0.146,0.105-0.143,0.198L627.685,320.911z"/>
		</g>
	</g>
	<g>
		<path fill="#FFFFFF" d="M532.028,836.455c8.125-1.28,16.198-2.912,24.231-4.679c8.034-1.77,16.024-3.725,23.969-5.844
			c15.903-4.187,31.626-9.024,47.104-14.53c7.724-2.79,15.408-5.688,22.974-8.868c1.91-0.752,3.792-1.567,5.684-2.362
			c1.886-0.805,3.785-1.578,5.659-2.41c3.764-1.629,7.54-3.23,11.274-4.924c15.032-6.587,29.68-13.986,44.217-21.76l0.186,0.3
			c-6.791,4.675-13.727,9.193-20.941,13.219l-2.688,1.548l-2.727,1.469l-5.463,2.932c-3.692,1.853-7.366,3.754-11.111,5.5
			c-1.874,0.869-3.735,1.771-5.623,2.613l-5.68,2.482c-1.889,0.842-3.824,1.568-5.734,2.355c-1.917,0.769-3.826,1.561-5.761,2.285
			l-5.801,2.178l-5.833,2.089c-1.937,0.711-3.893,1.378-5.846,2.044c-1.957,0.659-3.899,1.356-5.866,1.981
			c-15.672,5.2-31.558,9.715-47.593,13.571c-8.025,1.896-16.088,3.626-24.186,5.171c-8.098,1.538-16.22,2.938-24.398,3.989
			L532.028,836.455z"/>
	</g>
	<g>
		<path fill="#FFFFFF" d="M662.76,712.556c4.094-4.578,8.347-9.005,12.686-13.351c4.338-4.348,8.771-8.604,13.301-12.76
			c9.096-8.268,18.559-16.166,28.625-23.315c5.032-3.576,10.215-6.961,15.611-10.04c5.412-3.041,11.098-5.702,17.134-7.498
			c3.018-0.88,6.104-1.587,9.256-1.958c3.149-0.346,6.363-0.412,9.526,0.081c3.159,0.462,6.252,1.472,9.017,3.035
			c2.758,1.574,5.166,3.682,7.046,6.145l-0.261,0.239c-2.246-2.075-4.771-3.788-7.507-4.94c-2.727-1.178-5.639-1.807-8.568-2.011
			c-2.936-0.184-5.896,0.012-8.812,0.536c-2.92,0.503-5.805,1.271-8.633,2.238c-5.671,1.895-11.154,4.438-16.534,7.205
			c-5.384,2.775-10.601,5.923-15.676,9.295c-10.138,6.771-19.77,14.345-29.056,22.311c-9.314,7.94-18.292,16.301-26.896,25.027
			L662.76,712.556z"/>
	</g>
	<path fill="#74CDFC" d="M425.606,568.365l-2.74,29.432c-0.224,2.414,1.293,4.646,3.619,5.327l47.373,13.844
		c3.679,1.075,7.171-2.171,6.368-5.918l-5.646-26.326c-0.343-1.597-1.434-2.929-2.931-3.58l-38.987-16.95
		C429.504,562.82,425.926,564.937,425.606,568.365z"/>
	<path fill="#74CDFC" d="M721.099,548.846l2.739,29.432c0.226,2.412-1.292,4.646-3.619,5.325l-47.373,13.845
		c-3.678,1.075-7.169-2.172-6.366-5.919l5.646-26.326c0.342-1.596,1.433-2.928,2.93-3.579l38.987-16.95
		C717.202,543.301,720.779,545.415,721.099,548.846z"/>
	<g>
		<path fill="#FFFFFF" d="M690.787,554.592c3.43-1.939,6.926-3.741,10.439-5.534c3.533-1.752,7.082-3.46,10.811-4.919
			c0.927-0.377,1.879-0.722,2.853-1.066l0.756-0.24c0.269-0.077,0.452-0.166,0.846-0.225l0.527-0.089
			c0.184-0.013,0.375-0.01,0.564-0.009c0.379-0.016,0.771,0.087,1.158,0.17c0.742,0.248,1.46,0.651,1.949,1.151
			c0.519,0.493,0.897,1.023,1.208,1.562c0.6,1.071,0.919,2.147,1.155,3.2c0.44,2.11,0.479,4.165,0.362,6.191
			c-0.128,2.023-0.432,4.021-1.033,5.97l-0.353-0.021c-0.411-1.97-0.737-3.905-1.093-5.801c-0.36-1.888-0.755-3.753-1.299-5.446
			c-0.264-0.843-0.586-1.641-0.939-2.285c-0.36-0.66-0.747-1.036-1.059-1.205c-0.094-0.016-0.168-0.094-0.287-0.089l-0.168-0.035
			c-0.067,0.005-0.134,0.007-0.202,0.007c-0.1-0.022-0.384,0.051-0.592,0.083l-0.673,0.124c-0.91,0.199-1.833,0.435-2.755,0.722
			c-1.843,0.552-3.686,1.193-5.521,1.853c-1.842,0.646-3.681,1.322-5.513,2.016c-3.683,1.348-7.327,2.81-10.991,4.234
			L690.787,554.592z"/>
	</g>
	<g>
		<path fill="#FFFFFF" d="M448.429,571.241c-1.431-0.318-2.835-0.699-4.24-1.074l-2.095-0.594l-2.076-0.642
			c-0.69-0.218-1.405-0.375-2.113-0.554c-0.705-0.182-1.368-0.461-1.986-0.844c-1.229-0.784-2.396-1.71-3.326-3.18l0.14-0.323
			c1.709-0.321,3.182-0.099,4.593,0.265c0.702,0.19,1.358,0.485,1.973,0.877c0.612,0.396,1.216,0.812,1.846,1.168l1.884,1.079
			l1.864,1.128c1.233,0.772,2.469,1.54,3.677,2.369L448.429,571.241z"/>
	</g>
	<g>
		<path fill="#FFFFFF" d="M655.786,558.268l-1.478-5.727c-0.287-0.937-0.473-1.88-0.771-2.805c-0.258-0.932-0.5-1.862-0.786-2.783
			c-0.25-0.928-0.502-1.854-0.771-2.776c-0.259-0.924-0.456-1.867-0.727-2.791c-0.252-0.931-0.466-1.876-0.747-2.8
			c-0.288-0.922-0.592-1.842-0.898-2.761c-0.311-0.917-0.701-1.806-1.049-2.712l-0.536-1.354c-0.188-0.447-0.402-0.883-0.603-1.325
			l-1.196-2.666l-1.341-2.598c-0.84-1.77-1.903-3.413-2.875-5.121l-0.371-0.637l-0.408-0.611l-0.815-1.227l-1.618-2.477l0.276-0.22
			c1.279,1.503,2.622,2.975,3.83,4.55c1.17,1.603,2.441,3.15,3.498,4.842c2.271,3.291,4.12,6.856,5.823,10.493
			c1.652,3.652,3.311,7.396,3.971,11.407c0.081,0.5,0.179,0.996,0.245,1.497l0.164,1.512c0.099,1.008,0.154,2.023,0.165,3.036
			c0.009,2.027-0.112,4.065-0.63,6.063L655.786,558.268z"/>
	</g>
	<g>
		<polygon fill="#FFFFFF" points="644.37,511.222 647.297,525.561 645.194,525.832 		"/>
	</g>
	<g>
		<path fill="#FFFFFF" d="M493.476,556.291c-0.431-1.455-0.617-2.914-0.706-4.367c-0.1-1.457-0.072-2.911,0.044-4.357
			c0.194-2.905,1.219-5.679,2.148-8.431c0.921-2.758,2.075-5.47,3.635-7.965c0.797-1.236,1.691-2.418,2.729-3.464
			c1.031-1.049,2.234-1.949,3.576-2.518l0.168,0.311c-2.318,1.599-3.817,4.003-4.917,6.505c-0.572,1.249-1.018,2.56-1.418,3.878
			c-0.417,1.314-0.756,2.658-1.051,4.012c-0.302,1.352-0.489,2.735-0.652,4.115c-0.173,1.378-0.416,2.739-0.728,4.098
			c-0.318,1.359-0.659,2.718-1.065,4.083c-0.394,1.364-0.83,2.734-1.409,4.114L493.476,556.291z"/>
	</g>
	<g>
		<polygon fill="#FFFFFF" points="495.481,521.814 498.124,536.264 496.018,536.492 		"/>
	</g>
	<path fill="#AA9CEB" d="M590.695,631.559c0.062,0.419,0.096,0.839,0.099,1.256c0.113,13.354-12.604,22.729-24.426,20.276
		c-0.875-0.183-1.737-0.429-2.579-0.739c-7.223-2.669-12.359-10.635-10.329-18.84c0.942-3.813,3.836-8.436,7.701-9.197
		c3.756-0.74,6.482,2.426,9.359,4.371c4.256,2.879,6.566,0.228,10.274-1.99c1.578-0.943,3.421-1.592,5.196-1.197
		C588.569,626.075,590.277,628.754,590.695,631.559z"/>
	<g>
		<path fill="#FFFFFF" d="M354.757,658.604c-0.054-2.751,0.454-5.481,1.409-8.069c0.973-2.577,2.478-4.988,4.476-6.946
			c1.004-0.969,2.107-1.839,3.296-2.579c1.202-0.71,2.449-1.366,3.767-1.829c2.616-0.991,5.382-1.513,8.146-1.723
			c2.758-0.218,5.578-0.066,8.31,0.345c2.739,0.416,5.443,1.027,8.072,1.852c2.631,0.814,5.226,1.74,7.75,2.821
			c1.277,0.509,2.512,1.105,3.768,1.66c1.23,0.604,2.48,1.175,3.691,1.815c9.735,5.025,19.019,10.988,27.283,18.175
			c4.122,3.6,8.091,7.377,11.75,11.44c3.679,4.042,7.098,8.336,10.009,12.95l-0.281,0.215c-7.375-7.962-15.352-15.182-23.737-21.891
			c-4.183-3.362-8.458-6.6-12.811-9.731c-4.339-3.154-8.86-6.058-13.54-8.664c-1.163-0.665-2.361-1.26-3.544-1.888
			c-1.204-0.581-2.391-1.203-3.615-1.737c-2.423-1.133-4.909-2.11-7.426-2.98c-2.516-0.883-5.095-1.552-7.696-2.033
			c-2.609-0.478-5.23-0.708-7.884-0.586c-2.642,0.088-5.276,0.479-7.77,1.306c-1.259,0.383-2.446,0.948-3.602,1.565
			c-1.141,0.646-2.207,1.417-3.19,2.289c-3.913,3.533-6.076,8.88-6.278,14.213L354.757,658.604z"/>
	</g>
	<g>
		<path fill="#FFFFFF" d="M531.901,815.146c0.915-2.124,1.903-4.202,2.933-6.253l0.082-0.161l0.303-0.191
			c5.322-3.376,10.683-6.688,16.117-9.846c2.717-1.581,5.494-3.06,8.239-4.601c1.377-0.761,2.736-1.551,4.095-2.345
			c1.359-0.795,2.724-1.579,4.064-2.404c5.409-3.22,10.69-6.645,15.936-10.132c5.251-3.481,10.336-7.202,15.363-11.022l0.228,0.271
			c-4.705,4.223-9.603,8.244-14.63,12.096c-5.054,3.812-10.21,7.498-15.474,11.024c-1.304,0.9-2.641,1.749-3.955,2.634
			c-1.316,0.88-2.643,1.75-3.975,2.606c-2.647,1.745-5.313,3.462-8.053,5.056c-2.736,1.601-5.559,3.044-8.397,4.461
			c-2.85,1.396-5.726,2.722-8.687,3.918l0.383-0.353c-1.369,1.843-2.783,3.658-4.271,5.428L531.901,815.146z"/>
	</g>
	<g>
		<path fill="#FFFFFF" d="M612.002,430.977c2.974,1.759,5.618,4.003,8.064,6.447c2.436,2.456,4.667,5.14,6.592,8.041
			c1.896,2.914,3.66,5.953,4.972,9.199c0.737,1.591,1.276,3.256,1.857,4.91c0.308,0.821,0.493,1.679,0.727,2.523l0.667,2.543
			c0.242,0.918-0.299,1.859-1.208,2.119l-0.116,0.033c-1.483,0.421-3.087,1.035-4.595,1.666c-1.523,0.645-3.006,1.379-4.448,2.175
			c-1.445,0.794-2.821,1.694-4.134,2.667c-1.327,0.963-2.51,2.08-3.646,3.235l-0.187-2.271c1.239,1.053,2.374,2.112,3.501,3.23
			c1.119,1.117,2.207,2.271,3.23,3.497c1.026,1.224,2.005,2.507,2.846,3.935c0.815,1.431,1.608,2.993,1.69,4.96
			c0.02,0.43-0.182,0.818-0.502,1.059l-0.019,0.013c-1.976,1.455-3.936,3.12-5.802,4.816c-1.871,1.706-3.681,3.487-5.42,5.336
			c-3.476,3.7-6.672,7.667-9.548,11.856c-2.865,4.198-5.389,8.643-7.424,13.314c-0.537,1.157-0.968,2.356-1.45,3.537
			c-0.412,1.204-0.884,2.393-1.242,3.617c-0.808,2.423-1.383,4.916-1.921,7.415l-0.348-0.061c0.804-5.075,2.113-10.099,4.037-14.891
			c1.88-4.811,4.269-9.422,7.02-13.804c2.747-4.385,5.91-8.508,9.335-12.393c1.718-1.939,3.511-3.813,5.376-5.618
			c1.876-1.81,3.775-3.532,5.881-5.183l-0.52,1.07c-0.066-1.146-0.687-2.455-1.441-3.651c-0.761-1.213-1.693-2.37-2.684-3.479
			c-0.995-1.108-2.063-2.168-3.164-3.195c-1.1-1.018-2.261-2.025-3.407-2.932c-0.675-0.534-0.789-1.516-0.255-2.192l0.062-0.071
			l0.007-0.008c1.219-1.354,2.5-2.661,3.918-3.785c1.406-1.138,2.878-2.193,4.428-3.1c1.542-0.926,3.14-1.744,4.779-2.463
			c0.821-0.359,1.652-0.694,2.497-0.998c0.857-0.309,1.674-0.581,2.621-0.844l-1.326,2.152c-0.745-3.212-1.55-6.423-2.749-9.508
			c-1.127-3.111-2.569-6.108-4.201-9.005c-1.603-2.917-3.523-5.663-5.6-8.295c-2.089-2.622-4.385-5.117-6.945-7.328L612.002,430.977
			z"/>
	</g>
	<g>
		<g>
			<path fill="#FFFFFF" d="M534.323,430.736c-2.56,2.208-4.857,4.704-6.946,7.326c-2.077,2.631-3.997,5.378-5.6,8.297
				c-1.632,2.895-3.074,5.893-4.2,9.003c-1.199,3.086-2.005,6.296-2.751,9.508l-1.324-2.152c0.947,0.263,1.764,0.535,2.619,0.845
				c0.846,0.303,1.677,0.639,2.498,0.998c1.64,0.719,3.238,1.536,4.778,2.462c1.551,0.907,3.022,1.962,4.429,3.1
				c1.418,1.124,2.699,2.431,3.918,3.785l0.004,0.006c0.576,0.638,0.524,1.626-0.116,2.203c-0.023,0.02-0.051,0.044-0.076,0.063
				c-1.145,0.905-2.306,1.914-3.407,2.931c-1.101,1.026-2.169,2.086-3.163,3.195c-0.991,1.11-1.923,2.268-2.685,3.479
				c-0.754,1.197-1.375,2.507-1.44,3.652l-0.521-1.071c2.106,1.651,4.005,3.373,5.882,5.183c1.865,1.805,3.659,3.68,5.377,5.619
				c3.425,3.885,6.586,8.007,9.334,12.394c2.751,4.38,5.14,8.991,7.02,13.801c1.924,4.793,3.233,9.817,4.037,14.893l-0.348,0.061
				c-0.538-2.501-1.113-4.992-1.922-7.416c-0.357-1.224-0.829-2.411-1.24-3.618c-0.485-1.179-0.915-2.38-1.453-3.535
				c-2.033-4.673-4.557-9.117-7.423-13.314c-2.877-4.19-6.073-8.157-9.549-11.856c-1.738-1.85-3.548-3.632-5.42-5.337
				c-1.865-1.695-3.827-3.361-5.801-4.815l-0.011-0.008c-0.347-0.256-0.524-0.663-0.51-1.064c0.084-1.967,0.876-3.529,1.691-4.959
				c0.841-1.43,1.819-2.712,2.845-3.935c1.026-1.226,2.113-2.381,3.23-3.498c1.13-1.118,2.262-2.177,3.503-3.229l-0.188,2.271
				c-1.136-1.156-2.318-2.272-3.645-3.236c-1.313-0.973-2.689-1.872-4.134-2.666c-1.442-0.796-2.925-1.532-4.448-2.177
				c-1.508-0.629-3.112-1.244-4.595-1.665l-0.115-0.032c-0.914-0.26-1.449-1.205-1.21-2.12l0.667-2.542
				c0.234-0.845,0.418-1.702,0.728-2.524c0.582-1.652,1.12-3.319,1.856-4.911c1.312-3.244,3.076-6.285,4.972-9.197
				c1.926-2.902,4.157-5.587,6.593-8.042c2.445-2.442,5.089-4.688,8.063-6.446L534.323,430.736z"/>
		</g>
	</g>
	<g>
		<polygon fill="#FFFFFF" points="582.07,501.172 578.895,540.821 572.896,501.499 		"/>
	</g>
	<polygon fill="#2E2264" points="664.774,700.344 490.192,700.344 456.961,544.879 698.005,544.879 	"/>
	<polygon fill="#7052FA" points="664.774,706.238 490.192,706.238 456.961,550.773 698.005,550.773 	"/>
	
		<rect x="565.287" y="616.311" transform="matrix(0.7071 0.7071 -0.7071 0.7071 613.5742 -224.2567)" fill="#AA9CEB" width="24.392" height="24.391"/>
	<path fill="#AA9CEB" d="M567.211,647.251l-18.746-18.745l18.746-18.744l18.745,18.744L567.211,647.251z M551.461,628.506
		l15.75,15.749l15.749-15.749l-15.749-15.749L551.461,628.506z"/>
	<g>
		<polygon fill="#FFFFFF" points="457.892,548.019 542.454,551.195 457.892,554.374 		"/>
	</g>
</g>
<g>
	<g>
		<path fill="#EFC93B" d="M1037.584,263.814l-8.2,3.982c-1.946,0.945-4.279,0.517-5.761-1.06
			c-4.236-4.504-8.895-8.511-13.883-11.989c-1.818-1.267-2.575-3.584-1.85-5.679l3.078-8.886c2.104-6.077-1.115-12.709-7.191-14.814
			l-19.023-6.587c-6.075-2.104-12.708,1.116-14.813,7.192l-3.246,9.377c-0.721,2.08-2.715,3.439-4.913,3.358
			c-5.867-0.215-11.79,0.149-17.682,1.122c-2.188,0.362-4.35-0.752-5.317-2.746l-4.372-9.001c-2.809-5.785-9.775-8.198-15.56-5.39
			l-18.108,8.792c-5.785,2.809-8.198,9.775-5.389,15.561l4.371,9.001c0.968,1.994,0.506,4.383-1.132,5.877
			c-4.408,4.028-8.356,8.457-11.817,13.2c-1.297,1.779-3.597,2.505-5.677,1.784l-9.378-3.247
			c-6.076-2.104-12.709,1.116-14.813,7.192l-6.587,19.021c-2.105,6.076,1.115,12.709,7.191,14.813l7.95,2.753
			c2.649,0.918,4.335,3.481,4.203,6.282c-0.253,5.432-0.012,10.913,0.751,16.38c0.377,2.71-0.998,5.359-3.459,6.555l-7.335,3.561
			c-5.785,2.81-8.198,9.776-5.389,15.561l8.792,18.108c2.809,5.786,9.775,8.198,15.561,5.39l6.587-3.198
			c2.485-1.208,5.491-0.664,7.345,1.387c3.932,4.349,8.25,8.257,12.876,11.694c2.175,1.618,3.019,4.482,2.131,7.044l-2.322,6.704
			c-2.104,6.077,1.115,12.71,7.191,14.814l19.022,6.588c6.076,2.104,12.709-1.115,14.813-7.194l2.456-7.086
			c0.729-2.109,2.776-3.457,5.005-3.329c6.48,0.374,13.038,0.041,19.558-1.037c2.178-0.36,4.334,0.739,5.298,2.725l3.216,6.62
			c2.809,5.785,9.775,8.196,15.56,5.388l18.109-8.791c5.784-2.81,8.197-9.776,5.388-15.561l-3.214-6.62
			c-0.964-1.986-0.493-4.359,1.136-5.85c4.881-4.456,9.197-9.403,12.912-14.727c1.276-1.831,3.603-2.605,5.712-1.876l7.087,2.455
			c6.076,2.104,12.709-1.114,14.813-7.192l6.588-19.021c2.104-6.077-1.115-12.708-7.192-14.813l-7.622-2.64
			c-2.068-0.718-3.406-2.703-3.325-4.89c0.231-6.307-0.205-12.677-1.349-19.005c-0.396-2.196,0.696-4.39,2.704-5.364l7.482-3.633
			c5.784-2.809,8.197-9.775,5.389-15.56l-8.791-18.108C1050.338,263.418,1043.371,261.006,1037.584,263.814z M983.111,368.213
			c-25.343,15.223-58.172,3.854-68.673-23.781c-8.05-21.186,0.362-45.477,19.79-57.146c25.344-15.222,58.172-3.853,68.672,23.784
			C1010.95,332.253,1002.538,356.544,983.111,368.213z"/>
	</g>
	<path fill="#FFFFFF" d="M1016.997,326.547c0.017,15.442-6.262,30.746-17.113,41.799c-5.404,5.537-11.912,10.029-19.064,13.084
		c-7.152,3.054-14.929,4.665-22.733,4.753c-7.806,0.033-15.629-1.457-22.874-4.415c-7.248-2.95-13.908-7.349-19.487-12.859
		c-5.574-5.517-10.063-12.138-13.109-19.384c-3.059-7.243-4.651-15.103-4.711-22.978c-0.044-7.876,1.447-15.775,4.425-23.096
		c2.969-7.322,7.401-14.056,12.958-19.702c5.583-5.618,12.271-10.157,19.603-13.199c7.339-3.022,15.273-4.557,23.196-4.547
		c7.921,0.084,15.823,1.73,23.051,4.896c7.228,3.163,13.761,7.787,19.162,13.434C1011.15,295.642,1017.1,311.127,1016.997,326.547z
		 M1016.636,326.547c-0.07-7.666-1.652-15.308-4.708-22.303c-3.058-6.992-7.535-13.314-12.998-18.541
		c-10.964-10.488-25.939-16.208-40.844-16.076c-14.93,0.031-29.664,6.146-40.262,16.659c-5.308,5.234-9.588,11.523-12.498,18.407
		c-2.919,6.881-4.451,14.35-4.522,21.854c-0.031,7.503,1.397,15.012,4.239,21.971c2.828,6.962,7.053,13.36,12.346,18.726
		c5.301,5.357,11.661,9.671,18.622,12.599c6.955,2.938,14.5,4.472,22.075,4.53c15.161,0.19,30.321-5.863,41.26-16.565
		c5.441-5.357,9.861-11.788,12.83-18.855C1015.114,341.873,1016.622,334.213,1016.636,326.547z"/>
	<path fill="#FFFFFF" d="M894.183,360.227c-1.371-2.309-2.546-4.732-3.62-7.201c-1.038-2.483-1.929-5.031-2.683-7.621
		c-1.49-5.188-2.309-10.567-2.557-15.964c-0.162-5.398,0.206-10.825,1.278-16.116c0.545-2.643,1.232-5.253,2.07-7.812
		c0.875-2.546,1.852-5.056,3.033-7.466c-0.93,2.517-1.789,5.052-2.467,7.637c-0.716,2.572-1.294,5.179-1.724,7.808
		c-0.869,5.254-1.238,10.589-0.985,15.902c0.145,5.318,0.965,10.604,2.244,15.771C890.06,350.334,891.902,355.37,894.183,360.227z"
		/>
	<path fill="#FFFFFF" d="M992.513,390.051c-2.683,1.608-5.51,2.976-8.399,4.194c-2.906,1.181-5.896,2.164-8.939,2.956
		c-6.09,1.57-12.409,2.234-18.703,2.143c-6.292-0.185-12.574-1.127-18.592-2.963c-3.004-0.926-5.946-2.042-8.797-3.353
		c-2.833-1.346-5.596-2.84-8.202-4.567c2.745,1.492,5.546,2.872,8.438,4.024c2.875,1.19,5.821,2.196,8.818,3.002
		c5.989,1.629,12.162,2.562,18.362,2.649c6.195,0.191,12.404-0.478,18.459-1.835C981.016,394.941,986.903,392.807,992.513,390.051z"
		/>
	<path fill="#FFFFFF" d="M1022.945,294.745c1.419,2.587,2.61,5.296,3.672,8.057c1.024,2.775,1.87,5.62,2.546,8.507
		c1.341,5.779,1.851,11.743,1.707,17.677c-0.252,5.933-1.166,11.848-2.885,17.525c-0.865,2.836-1.902,5.617-3.109,8.316
		c-1.246,2.684-2.618,5.307-4.209,7.79c1.353-2.619,2.611-5.279,3.663-8.021c1.088-2.725,2.015-5.51,2.762-8.34
		c1.511-5.652,2.418-11.465,2.57-17.31c0.243-5.842-0.272-11.703-1.403-17.445C1027.13,305.757,1025.313,300.143,1022.945,294.745z"
		/>
	<path fill="#FFFFFF" d="M916.05,267.813c2.657-2.068,5.508-3.889,8.454-5.542c2.966-1.619,6.051-3.023,9.223-4.213
		c6.345-2.382,13.067-3.725,19.831-4.183c6.771-0.385,13.602,0.147,20.2,1.684c6.595,1.542,12.949,4.063,18.753,7.483
		c-3.024-1.479-6.11-2.817-9.284-3.896c-3.16-1.112-6.389-2.027-9.67-2.679c-6.548-1.329-13.264-1.859-19.926-1.387
		c-6.665,0.353-13.27,1.688-19.594,3.85C927.705,261.083,921.666,264.104,916.05,267.813z"/>
</g>
<g>
	<g>
		<path fill="#EFC93B" d="M485.117,94.688l-8.2,3.982c-1.946,0.945-4.279,0.517-5.761-1.06c-4.236-4.504-8.895-8.511-13.883-11.989
			c-1.818-1.267-2.575-3.584-1.85-5.679l3.078-8.886c2.104-6.077-1.115-12.709-7.191-14.814l-19.023-6.587
			c-6.075-2.104-12.708,1.116-14.813,7.192l-3.246,9.377c-0.721,2.08-2.715,3.439-4.913,3.358
			c-5.867-0.215-11.79,0.149-17.682,1.122c-2.188,0.362-4.35-0.752-5.317-2.746l-4.372-9.001c-2.809-5.785-9.775-8.198-15.56-5.39
			l-18.108,8.792c-5.785,2.809-8.198,9.775-5.389,15.561l4.371,9.001c0.968,1.994,0.506,4.383-1.132,5.877
			c-4.408,4.028-8.356,8.457-11.817,13.2c-1.297,1.779-3.597,2.505-5.677,1.784l-9.378-3.247
			c-6.076-2.104-12.709,1.116-14.813,7.192l-6.587,19.021c-2.105,6.076,1.115,12.709,7.191,14.813l7.95,2.753
			c2.649,0.918,4.335,3.481,4.203,6.282c-0.253,5.432-0.012,10.913,0.751,16.38c0.377,2.71-0.998,5.359-3.459,6.555l-7.335,3.561
			c-5.785,2.81-8.198,9.776-5.389,15.561l8.792,18.108c2.809,5.786,9.775,8.198,15.561,5.39l6.587-3.198
			c2.485-1.208,5.491-0.664,7.345,1.387c3.932,4.349,8.25,8.257,12.876,11.694c2.175,1.618,3.019,4.482,2.131,7.044l-2.322,6.704
			c-2.104,6.077,1.115,12.71,7.191,14.814l19.022,6.588c6.076,2.104,12.709-1.115,14.813-7.194l2.456-7.086
			c0.729-2.109,2.776-3.457,5.005-3.329c6.48,0.374,13.038,0.041,19.558-1.037c2.178-0.36,4.334,0.739,5.298,2.725l3.216,6.62
			c2.809,5.785,9.775,8.196,15.56,5.388l18.109-8.791c5.784-2.81,8.197-9.776,5.388-15.561l-3.214-6.62
			c-0.964-1.986-0.493-4.359,1.136-5.85c4.881-4.456,9.197-9.403,12.912-14.727c1.276-1.831,3.603-2.605,5.712-1.876l7.087,2.455
			c6.076,2.104,12.709-1.114,14.813-7.192l6.588-19.021c2.104-6.077-1.115-12.708-7.192-14.813l-7.622-2.64
			c-2.068-0.718-3.406-2.703-3.325-4.89c0.231-6.307-0.205-12.677-1.349-19.005c-0.396-2.196,0.696-4.39,2.704-5.364l7.482-3.633
			c5.784-2.809,8.197-9.775,5.389-15.56l-8.791-18.108C497.871,94.292,490.904,91.88,485.117,94.688z M430.645,199.087
			c-25.343,15.223-58.172,3.854-68.673-23.781c-8.05-21.186,0.362-45.477,19.79-57.146c25.344-15.222,58.172-3.853,68.672,23.784
			C458.483,163.127,450.071,187.418,430.645,199.087z"/>
	</g>
	<path fill="#FFFFFF" d="M464.53,157.421c0.017,15.442-6.262,30.746-17.113,41.799c-5.404,5.537-11.912,10.029-19.064,13.084
		c-7.152,3.054-14.929,4.665-22.733,4.753c-7.806,0.033-15.629-1.457-22.874-4.415c-7.248-2.95-13.908-7.349-19.487-12.859
		c-5.574-5.517-10.063-12.138-13.109-19.384c-3.059-7.243-4.651-15.103-4.711-22.978c-0.044-7.876,1.447-15.775,4.425-23.096
		c2.969-7.322,7.401-14.056,12.958-19.702c5.583-5.618,12.271-10.157,19.603-13.199c7.339-3.022,15.273-4.557,23.196-4.547
		c7.921,0.084,15.823,1.73,23.051,4.896c7.228,3.163,13.761,7.787,19.162,13.434C458.684,126.516,464.633,142.001,464.53,157.421z
		 M464.169,157.421c-0.07-7.666-1.652-15.308-4.708-22.303c-3.058-6.992-7.535-13.314-12.998-18.541
		c-10.964-10.488-25.939-16.208-40.844-16.076c-14.93,0.031-29.664,6.146-40.262,16.659c-5.308,5.234-9.588,11.523-12.498,18.407
		c-2.919,6.881-4.451,14.35-4.522,21.854c-0.031,7.503,1.397,15.012,4.239,21.971c2.828,6.962,7.053,13.36,12.346,18.726
		c5.301,5.357,11.661,9.671,18.622,12.599c6.955,2.938,14.5,4.472,22.075,4.53c15.161,0.19,30.321-5.863,41.26-16.565
		c5.441-5.357,9.861-11.788,12.83-18.855C462.647,172.747,464.155,165.087,464.169,157.421z"/>
	<path fill="#FFFFFF" d="M341.716,191.101c-1.371-2.309-2.546-4.732-3.62-7.201c-1.038-2.483-1.929-5.031-2.683-7.621
		c-1.49-5.188-2.309-10.567-2.557-15.964c-0.162-5.398,0.206-10.825,1.278-16.116c0.545-2.643,1.232-5.253,2.07-7.812
		c0.875-2.546,1.852-5.056,3.033-7.466c-0.93,2.517-1.789,5.052-2.467,7.637c-0.716,2.572-1.294,5.179-1.724,7.808
		c-0.869,5.254-1.238,10.589-0.985,15.902c0.145,5.318,0.965,10.604,2.244,15.771C337.593,181.208,339.436,186.244,341.716,191.101z
		"/>
	<path fill="#FFFFFF" d="M440.046,220.925c-2.683,1.608-5.51,2.976-8.399,4.194c-2.906,1.181-5.896,2.164-8.939,2.956
		c-6.09,1.57-12.409,2.234-18.703,2.143c-6.292-0.185-12.574-1.127-18.592-2.963c-3.004-0.926-5.946-2.042-8.797-3.353
		c-2.833-1.346-5.596-2.84-8.202-4.567c2.745,1.492,5.546,2.872,8.438,4.024c2.875,1.19,5.821,2.196,8.818,3.002
		c5.989,1.629,12.162,2.562,18.362,2.649c6.195,0.191,12.404-0.478,18.459-1.835C428.549,225.815,434.437,223.681,440.046,220.925z"
		/>
	<path fill="#FFFFFF" d="M470.479,125.619c1.419,2.587,2.61,5.296,3.672,8.057c1.024,2.775,1.87,5.62,2.546,8.507
		c1.341,5.779,1.851,11.743,1.707,17.677c-0.252,5.933-1.166,11.848-2.885,17.525c-0.865,2.836-1.902,5.617-3.109,8.316
		c-1.246,2.684-2.618,5.307-4.209,7.79c1.353-2.619,2.611-5.279,3.663-8.021c1.088-2.725,2.015-5.51,2.762-8.34
		c1.511-5.652,2.418-11.465,2.57-17.31c0.243-5.842-0.272-11.703-1.403-17.445C474.663,136.631,472.846,131.017,470.479,125.619z"/>
	<path fill="#FFFFFF" d="M363.583,98.687c2.657-2.068,5.508-3.889,8.454-5.542c2.966-1.619,6.051-3.023,9.223-4.213
		c6.345-2.382,13.067-3.725,19.831-4.183c6.771-0.385,13.602,0.147,20.2,1.684c6.595,1.542,12.949,4.063,18.753,7.483
		c-3.024-1.479-6.11-2.817-9.284-3.896c-3.16-1.112-6.389-2.027-9.67-2.679c-6.548-1.329-13.264-1.859-19.926-1.387
		c-6.665,0.353-13.27,1.688-19.594,3.85C375.238,91.957,369.199,94.978,363.583,98.687z"/>
</g>
<g>
	<path fill="#89F2FF" d="M227.127,403.967c8.25,29.111,9.155,63.1,9.155,63.1c0.74-0.68,1.481-1.338,2.201-2.017
		c48.574-44.665,74.209-85.401,87.5-118.237c-60.342,39.975-14.875-0.288,6.521-18.64c10.432-35.078,6.378-57.915,5.514-61.823
		c-0.082-0.412-0.123-0.618-0.123-0.618s-15.204,23.167-26.623,25.862c-11.418,2.695-21.808,5.411-32.403,14.319
		c-10.185,8.539-6.646,32.774-24.833,40.407c0.02,25.717-1.111,78.776-11.995,5.348
		C227.436,360.988,220.235,379.752,227.127,403.967z"/>
	<path fill="#6949F9" d="M89.458,358.308c0,0,11.873,80.756,82.779,112.859C172.237,471.167,234.016,466.615,89.458,358.308z"/>
	<path fill="#E9A527" d="M246.115,573.938c0,0,28.724-16.087,31.908-54.141c0,0,12.569-26.448,33.462-22.925
		c20.894,3.523,47.811-36.015,73.849-57.566c26.039-21.555,53.494-16.024,53.494-16.024s-31.091-10.08-71.84,14.741
		c-40.75,24.82-59.377,40.533-59.377,40.533l-36.258,24.962C271.353,503.519,239.42,556.627,246.115,573.938z"/>
	<path fill="#EDC73B" d="M246.116,573.947c0,0,0,0,12.18-26.664c12.179-26.643,12.097-45.201,39.193-59.13
		c26.664-13.681,68.181-49.006,69.477-50.117c-13.537,7.695-37.3,10.411-55.22,14.299c-1.358,10.904-5.781,33.659-17.569,5.536
		c-3.765,2.016-6.028,4.483-6.111,7.631c-0.411,15.78-15.657,22.961-15.657,22.961C210.256,527.43,246.116,573.947,246.116,573.947z
		"/>
	<path fill="#846DFA" d="M89.489,358.334c7.18,11.934,16.994,24.667,30.284,37.731c61.722,60.692,52.463,75.095,52.463,75.095
		s4.115,27.774,30.86,46.29c0,0,21.603-68.921-37.033-117.784c-8.949-7.447-17.22-13.495-24.833-18.699
		c3.024,16.293,3.724,32.402-17.939-11.647c-30.779-19.4-47.423-29.789-51.867-87.437C71.425,281.883,63.196,314.821,89.489,358.334
		z"/>
	<path fill="#6949F9" d="M61.92,466.449c0.041-0.618,0.124-1.091,0.165-1.379C62.023,465.379,61.941,465.852,61.92,466.449z"/>
	<path fill="#5D3ABB" d="M142.158,528.438c0,0,26.313,2.735,27.672,26.745c1.378,23.989,15.78,52.791,26.746,52.791
		c0,0,76.822-106.983-34.275-106.283h-2.12c11.583,12.817,32.383,37.485-15.328-0.246c-79.188-2.696-83.386-27.755-82.954-34.894
		C61.036,475.439,62.271,513.438,142.158,528.438z"/>
	<path fill="#5D3ABB" d="M199.464,598.537c0,0-0.592,38.247,7.521,110.255c-1.614,0-2.957-1.224-3.092-2.832
		c-1.396-16.659-8.838-101.448-16.483-109.638C164.879,572.188,199.464,598.537,199.464,598.537z"/>
	<path fill="#6949F9" d="M231.157,536.465c0,0-12.198,47.824-7.52,167.537c0.104,2.669-2.074,4.88-4.744,4.785
		c-2.503-0.084-4.477-2.144-4.436-4.647c0.396-24.298,2.836-139.837,13.749-167.094L231.157,536.465z"/>
	<path fill="#EDC73B" d="M248.948,572.088l-9.559,136.694c-0.11,1.575-1.477,2.764-3.052,2.652c-1.6-0.111-2.794-1.518-2.647-3.115
		l12.425-134.381L248.948,572.088z"/>
	<g>
		<path fill="#FFFFFF" d="M340.384,264.578c-7.052,17.498-14.606,33.235-25.751,48.568c-12.777,17.58-25.535,34.957-36.873,53.524
			c-11.357,18.602-21.721,38.027-28.678,58.741c-6.922,20.608-8.696,42.33-13.847,63.367c-0.473,1.927-3.449,1.111-2.976-0.821
			c5.002-20.428,6.745-41.539,13.271-61.601c6.257-19.229,15.44-37.396,25.686-54.78c10.656-18.083,22.506-35.271,34.978-52.138
			c13.156-17.791,22.935-35.142,31.214-55.682C338.141,261.939,341.127,262.733,340.384,264.578L340.384,264.578z"/>
	</g>
	<g>
		<path fill="#5D3ABB" d="M198.391,509.25c-0.058-21.035-2.037-40.512-12.992-58.96c-9.241-15.564-22.113-28.468-34.562-41.445
			c-1.375-1.434,0.804-3.619,2.182-2.182c13.379,13.945,27.247,27.884,36.687,44.929c10.021,18.096,11.715,37.324,11.77,57.658
			C201.481,511.237,198.396,511.239,198.391,509.25L198.391,509.25z"/>
	</g>
	<g>
		<path fill="#E9A527" d="M246.205,573.416c1.048-23.147,5.575-48.474,21.125-66.537c0.648-0.754,1.736,0.342,1.091,1.091
			c-15.242,17.707-19.646,42.781-20.672,65.446C247.702,574.404,246.16,574.409,246.205,573.416L246.205,573.416z"/>
	</g>
	<path fill="#921C48" d="M95.624,612.217c0,0,23.168-28.429,41.981-14.713c18.812,13.717,43.247,64.465,43.247,64.465
		s8.482-43.891-28.551-69.95c-37.032-26.061-59.663,13.03-59.663,13.03L95.624,612.217z"/>
	<path fill="#DB3256" d="M18.571,709.28c0,0-2.057-70.815,28.803-70.383c6.728,0.103,12.941-1.214,18.599-3.456
		c25.408-36.272,23.763-26.438,17.384-10.677c4.588-3.889,8.662-8.21,12.262-12.551c0.042-0.063,0.103-0.123,0.165-0.207
		c5.021-6.067,9.094-12.138,12.283-16.911c8.579-12.878,33.658-6.398,41.702-3.908c1.379,0.411,2.264,0.72,2.47,0.782
		c-1.625-1.729-38.494-39.708-83.797-15.287c20.717,4.65,41.106,11.871-12.53,14.978c-5.781,9.156-15.965,21.85-31.169,29.152
		C-0.973,633.158,18.571,709.28,18.571,709.28z"/>
	<path fill="#921C48" d="M178.058,656.379c0,0,9.496,38.828,10.89,62.072c0.061,1.022,0.895,1.81,1.918,1.81
		c1.18,0,2.085-1.037,1.908-2.204c-1.631-10.677-8.931-57.078-14.716-71.005C171.503,631.28,178.058,656.379,178.058,656.379z"/>
	<g>
		<path fill="#FFFFFF" d="M166.099,594.818c-8.944-17.964-50.956-16.497-66.511-7.334c-14.717,8.671-23.844,23.403-41.593,26.619
			c-1.942,0.351-2.775-2.623-0.821-2.976c22.074-4,32.788-28.153,55.006-31.696c14.916-2.379,49.352-0.694,56.583,13.829
			c0.883,1.773,5.689,11.209,4.803,9.43L166.099,594.818z"/>
	</g>
	<path fill="#6949F9" d="M235.984,466.163c0,0-18.644,33.325-7.342,83.808c0,0,9.145-70.15,58.211-138.219
		C286.853,411.752,240.754,437.164,235.984,466.163z"/>
	<path fill="#E9A527" d="M272.392,632.649c21.938-8.854,26.596-20.516,26.596-20.516s2.293-4.89,35.663-19.432
		c2.578-1.12,4.941-2.33,7.093-3.626c-26.649,1.226-0.374-9.05,15.734-14.686c8.889-13.298,7.556-26.773,7.556-26.773
		c-7.912,6.986-33.245,14.932-33.245,14.932C265.422,587.173,272.392,632.649,272.392,632.649z"/>
	<g>
		<path fill="#FFFFFF" d="M272.262,633.818c3.287-13.387,13.609-22.78,23.704-31.477c12.401-10.687,26.397-19.297,39.819-28.602
			c0.677-0.47,1.315,0.635,0.645,1.101c-12.521,8.681-25.542,16.74-37.289,26.482c-10.679,8.859-22.215,18.849-25.647,32.835
			C273.297,634.955,272.065,634.618,272.262,633.818L272.262,633.818z"/>
	</g>
	<path fill="#921C48" d="M250.658,667l-10.112,44.607c-0.189,0.832-1.056,1.32-1.867,1.051c-0.727-0.241-1.143-0.997-0.941-1.737
		c1.75-6.437,9.401-34.862,10.725-44.649C249.959,655.206,250.658,667,250.658,667z"/>
	<path fill="#E9A527" d="M274.841,631.624c0,0-16.139,49.054-17.708,72.806c-0.051,0.766-0.738,1.325-1.495,1.204
		c-0.703-0.114-1.183-0.77-1.071-1.472c1.272-7.985,8.514-51.652,17.828-71.504L274.841,631.624z"/>
	<path fill="#921C48" d="M247.555,676.258c7.271-32.425,21.192-24.938,21.192-24.938c45.778,0.818,60.729-17.594,61.601-18.718
		c-0.782,0.735-13.76,12.949-40.818,6.014c-5.564,4.726-19.858,16.039-8.107-2.517c-1.511-0.554-3.04-1.146-4.623-1.82
		C240.053,618.771,247.555,676.258,247.555,676.258z"/>
	<polygon fill="#846DFA" points="269.452,702.858 240.256,803.808 197.699,803.808 189.361,774.967 168.515,702.858 	"/>
	<path fill="#5D3ABB" d="M269.452,702.858l-29.196,100.949h-42.557l-8.338-28.841c29.973-14.83,47.104-43.777,56.89-72.108H269.452z
		"/>
	<rect x="168.515" y="700.403" fill="#221B41" width="100.937" height="7.062"/>
</g>
</svg>
