<?xml version="1.0" encoding="utf-8"?>
<!-- Generator: Adobe Illustrator 16.0.0, SVG Export Plug-In . SVG Version: 6.00 Build 0)  -->
<!DOCTYPE svg PUBLIC "-//W3C//DTD SVG 1.1//EN" "http://www.w3.org/Graphics/SVG/1.1/DTD/svg11.dtd">
<svg version="1.1" id="Layer_1" xmlns="http://www.w3.org/2000/svg" xmlns:xlink="http://www.w3.org/1999/xlink" x="0px" y="0px"
	 width="768px" height="556.338px" viewBox="0 0 768 556.338" enable-background="new 0 0 768 556.338" xml:space="preserve">
<g>
	<g>
		<polygon fill="#DADAF2" points="434.228,503.356 640.113,450.906 753.625,484.221 559.482,544.063 		"/>
		<polygon fill="#AEAECC" points="554.925,486.037 647.2,462.53 698.073,477.46 611.062,504.281 		"/>
	</g>
	<g>
		<polygon fill="#E9E9FE" points="313.663,501.399 519.549,448.949 633.06,482.264 438.917,542.106 		"/>
		<polygon fill="#DADAF2" points="438.213,487.604 530.487,464.096 581.36,479.026 494.35,505.847 		"/>
	</g>
	<path fill="#F7F8FF" d="M143.012,418.811c0,0-65.757,12.916-71.629-50.494c-5.871-63.409,90.418-50.492,58.713-113.902
		S26.761,210.967,29.109,108.807c2.349-102.161,118.6-96.29,137.388-57.539c18.788,38.75,84.546,57.539,140.911,30.531
		C363.772,54.791,444.796,0.775,509.38,17.215s84.546,45.796,81.024,93.94c-3.523,48.145-22.312,100.986,19.962,135.04
		s79.849,112.729,0,157.35c0,0-25.833,15.081-42.273,16.349L143.012,418.811z"/>
	<rect x="140.664" y="99.413" fill="#D7DCFF" width="432.2" height="319.796"/>
	<rect x="140.664" y="99.413" fill="#91CDF8" width="432.2" height="17.05"/>
	<rect x="140.664" y="116.463" fill="#2B284F" width="15.266" height="302.746"/>
	<rect x="555.176" y="116.463" fill="#2B284F" width="17.688" height="302.746"/>
	<circle fill="#2B284F" cx="149.715" cy="107.877" r="4.159"/>
	<circle fill="#2B284F" cx="162.335" cy="107.877" r="4.159"/>
	<circle fill="#2B284F" cx="175.013" cy="107.877" r="4.159"/>
	<rect x="220.932" y="173.418" fill="#FFFFFF" width="266.947" height="175.355"/>
	<rect x="155.929" y="116.463" fill="#484777" width="399.247" height="15.046"/>
	<g>
		<path fill="#2B284F" d="M212.258,39.84h11.818c0,0-1.477,12.146,9.521,14.608l-13.46,34.963l-16.743-34.142
			C203.395,55.269,213.243,52.314,212.258,39.84z"/>
		<rect x="212.258" y="30.647" fill="#2B284F" width="11.818" height="5.581"/>
		<line fill="none" stroke="#D7DCFF" stroke-miterlimit="10" x1="220.138" y1="89.411" x2="219.153" y2="54.777"/>
		<circle fill="#D7DCFF" cx="219.185" cy="53.357" r="2.216"/>
	</g>
	<g>
		<polyline fill="none" stroke="#4549C3" stroke-miterlimit="10" points="141.225,79.891 220.138,89.411 309.431,57.567 		"/>
		<circle fill="#4549C3" cx="140.199" cy="79.891" r="1.478"/>
		<circle fill="#4549C3" cx="310.252" cy="57.05" r="1.477"/>
	</g>
	<g>
		<g>
			<path fill="none" stroke="#4549C3" stroke-miterlimit="10" d="M572.863,319.39c0,0,1.447-0.29,3.867-1.011"/>
			<path fill="none" stroke="#4549C3" stroke-miterlimit="10" stroke-dasharray="8.148,8.148" d="M584.4,315.652
				c10.443-4.302,25.534-12.961,34.576-29.142c14.874-26.616,11.744-52.856-7.828-69.484c-14.566-12.376-20.46-20.89-21.229-28.738"
				/>
			<path fill="none" stroke="#4549C3" stroke-miterlimit="10" d="M589.966,184.211c0.154-1.3,0.437-2.596,0.829-3.905"/>
		</g>
	</g>
	<g>
		<g>
			<path fill="none" stroke="#4549C3" stroke-miterlimit="10" d="M140.664,193.353c0,0-1.443-0.35-3.937-0.688"/>
			<path fill="none" stroke="#4549C3" stroke-miterlimit="10" stroke-dasharray="7.7698,7.7698" d="M128.986,192.064
				c-9.537-0.22-23.455,1.337-36.076,9.9c-21.919,14.874-30.531,50.102,0,82.198c25.316,26.614,38.252,37.081,44.61,48.36"/>
			<path fill="none" stroke="#4549C3" stroke-miterlimit="10" d="M139.26,336.001c0.531,1.214,0.997,2.455,1.403,3.743"/>
		</g>
	</g>
	<g>
		<path fill="none" stroke="#F36290" stroke-linecap="round" stroke-linejoin="round" stroke-miterlimit="10" d="M212.148,458.652
			c0,0,13.308-2.143,18.005-13.885s5.48-15.657,5.48-24.66c0-9.002,5.088-14.09,9.786-16.048"/>
		<path fill="#F36290" d="M225.36,451.734c0,0-11.063-7.576-7.581-13.695C221.262,431.919,229.875,442.688,225.36,451.734z"/>
		<path fill="#F36290" d="M233.098,437.632c0,0,5.379-12.282,12.042-10.003C251.801,429.907,242.83,440.38,233.098,437.632z"/>
		<path fill="#F36290" d="M235.42,425.367c0,0-12.999-3.288-11.845-10.234C224.729,408.188,236.533,415.318,235.42,425.367z"/>
		<path fill="#F36290" d="M244.141,404.604c0,0,3.73-12.881,10.632-11.49C261.676,394.505,254.147,406.058,244.141,404.604z"/>
	</g>
	<g>
		<path fill="none" stroke="#F36290" stroke-linecap="round" stroke-linejoin="round" stroke-miterlimit="10" d="M597.398,431.691
			c0,0,13.308-2.143,18.005-13.886c4.697-11.742,5.48-15.656,5.48-24.659c0-9.002,5.088-14.091,9.785-16.048"/>
		<path fill="#F36290" d="M610.61,424.774c0,0-11.063-7.577-7.581-13.697S615.125,415.727,610.61,424.774z"/>
		<path fill="#F36290" d="M618.348,410.671c0,0,5.38-12.283,12.042-10.003C637.052,402.946,628.079,413.419,618.348,410.671z"/>
		<path fill="#F36290" d="M620.67,398.407c0,0-12.999-3.29-11.844-10.235C609.98,381.227,621.783,388.356,620.67,398.407z"/>
		<path fill="#F36290" d="M629.391,377.643c0,0,3.731-12.88,10.633-11.49C646.926,367.543,639.397,379.096,629.391,377.643z"/>
	</g>
	<g>
		<ellipse fill="#72C0E3" cx="132.777" cy="459.007" rx="33.27" ry="5.089"/>
		<ellipse fill="#72C0E3" cx="199.318" cy="459.007" rx="33.271" ry="5.089"/>
		
			<ellipse transform="matrix(0.972 -0.235 0.235 0.972 -100.4709 59.2541)" fill="#72C0E3" cx="198.386" cy="451.188" rx="33.271" ry="5.089"/>
		
			<ellipse transform="matrix(0.9017 -0.4323 0.4323 0.9017 -172.9541 128.4556)" fill="#72C0E3" cx="196.048" cy="444.623" rx="33.271" ry="5.089"/>
		
			<ellipse transform="matrix(0.7789 -0.6271 0.6271 0.7789 -232.3271 217.2426)" fill="#72C0E3" cx="191.963" cy="438.143" rx="33.27" ry="5.088"/>
		
			<ellipse transform="matrix(0.617 -0.787 0.787 0.617 -269.1631 312.6175)" fill="#72C0E3" cx="186.574" cy="432.823" rx="33.271" ry="5.089"/>
		
			<ellipse transform="matrix(0.4075 -0.9132 0.9132 0.4075 -285.0062 417.9832)" fill="#72C0E3" cx="179.604" cy="428.624" rx="33.27" ry="5.089"/>
		
			<ellipse transform="matrix(0.1754 -0.9845 0.9845 0.1754 -277.9067 520.7206)" fill="#72C0E3" cx="171.882" cy="426.252" rx="33.27" ry="5.089"/>
		
			<ellipse transform="matrix(-0.0753 -0.9972 0.9972 -0.0753 -248.7726 620.955)" fill="#72C0E3" cx="163.544" cy="425.831" rx="33.271" ry="5.088"/>
		
			<ellipse transform="matrix(-0.3017 -0.9534 0.9534 -0.3017 -204.301 704.9357)" fill="#72C0E3" cx="156.01" cy="427.287" rx="33.27" ry="5.089"/>
		
			<ellipse transform="matrix(-0.5672 -0.8236 0.8236 -0.5672 -124.7966 797.6338)" fill="#72C0E3" cx="147.175" cy="431.606" rx="33.271" ry="5.088"/>
		
			<ellipse transform="matrix(-0.7673 -0.6413 0.6413 -0.7673 -32.3467 863.6018)" fill="#72C0E3" cx="140.52" cy="437.67" rx="33.271" ry="5.088"/>
		
			<ellipse transform="matrix(-0.9069 -0.4214 0.4214 -0.9069 71.5952 905.796)" fill="#72C0E3" cx="135.875" cy="444.988" rx="33.27" ry="5.088"/>
		
			<ellipse transform="matrix(-0.9767 -0.2148 0.2148 -0.9767 166.9301 921.8607)" fill="#72C0E3" cx="133.553" cy="451.86" rx="33.27" ry="5.088"/>
	</g>
	<g>
		<ellipse fill="#7F85FC" cx="567.314" cy="452.672" rx="33.271" ry="5.089"/>
		<ellipse fill="#7F85FC" cx="633.855" cy="452.672" rx="33.271" ry="5.089"/>
		
			<ellipse transform="matrix(0.972 -0.235 0.235 0.972 -86.8099 161.18)" fill="#7F85FC" cx="632.924" cy="444.854" rx="33.27" ry="5.088"/>
		
			<ellipse transform="matrix(0.9017 -0.4323 0.4323 0.9017 -127.5082 315.6974)" fill="#7F85FC" cx="630.585" cy="438.288" rx="33.27" ry="5.089"/>
		
			<ellipse transform="matrix(0.7789 -0.6271 0.6271 0.7789 -132.2892 488.3644)" fill="#7F85FC" cx="626.5" cy="431.807" rx="33.27" ry="5.089"/>
		
			<ellipse transform="matrix(0.617 -0.787 0.787 0.617 -97.7328 652.1752)" fill="#7F85FC" cx="621.111" cy="426.488" rx="33.27" ry="5.088"/>
		
			<ellipse transform="matrix(0.4075 -0.9132 0.9132 0.4075 -21.7432 811.0663)" fill="#7F85FC" cx="614.142" cy="422.289" rx="33.271" ry="5.088"/>
		
			<ellipse transform="matrix(0.1754 -0.9845 0.9845 0.1754 86.665 943.3004)" fill="#7F85FC" cx="606.419" cy="419.917" rx="33.27" ry="5.087"/>
		
			<ellipse transform="matrix(-0.0753 -0.9972 0.9972 -0.0753 224.7859 1047.4512)" fill="#7F85FC" cx="598.081" cy="419.496" rx="33.271" ry="5.089"/>
		
			<ellipse transform="matrix(-0.3017 -0.9534 0.9534 -0.3017 367.3766 1110.9817)" fill="#7F85FC" cx="590.547" cy="420.952" rx="33.27" ry="5.088"/>
		
			<ellipse transform="matrix(-0.5672 -0.8235 0.8235 -0.5672 561.454 1145.5741)" fill="#7F85FC" cx="581.712" cy="425.272" rx="33.271" ry="5.088"/>
		
			<ellipse transform="matrix(-0.7673 -0.6413 0.6413 -0.7673 739.6725 1131.0802)" fill="#7F85FC" cx="575.057" cy="431.335" rx="33.27" ry="5.088"/>
		
			<ellipse transform="matrix(-0.9069 -0.4214 0.4214 -0.9069 902.8899 1076.811)" fill="#7F85FC" cx="570.412" cy="438.653" rx="33.27" ry="5.089"/>
		
			<ellipse transform="matrix(-0.9767 -0.2148 0.2148 -0.9767 1027.2236 1002.6763)" fill="#7F85FC" cx="568.091" cy="445.525" rx="33.271" ry="5.088"/>
	</g>
	<g>
		<path fill="#7F85FC" d="M181.81,466.565c0,0-19.092-1.957-27.669-10.96c-8.578-9.003-5.514-12.917,0-14.091
			c5.513-1.174,9.256,1.174,4.645-7.828c-4.611-9.003-6.348-13.309,0-13.699c6.349-0.393,9.48,4.696,12.22,1.564
			c2.74-3.131-0.392-16.048,9.395-20.744c9.785-4.697,15.974,3.521,9.748,14.481c-6.226,10.961-2.312,13.7,5.125,12.526
			c7.437-1.175,13.263,4.696,9.567,8.22c-3.696,3.522-15.83,6.263-11.524,8.61c4.305,2.35,14.764,2.74,12.666,7.438
			C203.885,456.78,185.569,465,181.81,466.565z"/>
		<path fill="none" stroke="#3C46B6" stroke-linecap="round" stroke-linejoin="round" stroke-miterlimit="10" d="M177.527,426.25
			c0,0-4.068,22.852,4.283,40.315"/>
	</g>
	<path fill="#DADAF2" d="M247.471,308.85c0,0,2.426-29,12.863-39.813c10.438-10.812,22.964-3.607,28.705,6.099
		c5.741,9.706,15.544-32.567,34.389-48.224c18.844-15.657,30.848,1.827,39.198,24.138c8.35,22.311,32.249,16.57,43.785-3.783
		c11.535-20.354,14.667-33.923,32.933-31.836C457.609,217.518,455,308.85,455,308.85H247.471z"/>
	<path fill="none" stroke="#3C46B6" stroke-miterlimit="10" d="M262.849,308.85c0,0,2.425-29,12.863-39.813
		c10.438-10.812,22.963-3.607,28.704,6.099c5.741,9.706,15.544-32.567,34.389-48.224c18.844-15.657,30.847,1.827,39.197,24.138
		c8.35,22.311,32.249,16.57,43.785-3.783c11.537-20.354,14.667-33.923,32.934-31.836c18.266,2.088,15.656,93.419,15.656,93.419"/>
	<g>
		<ellipse opacity="0.61" fill="#AEAECC" cx="344.37" cy="508.186" rx="70.408" ry="8.365"/>
		<path fill="#4FA0FF" d="M316.28,347.572c0,0,1.566-5.741,12.751-8.483c9.041-2.216,28.999-6.652,28.999-6.652l30.271-34.443
			l5.741,4.436c0,0-20.354,28.442-24.269,35.228c-3.914,6.784-9.133,13.047-9.917,16.961c-0.783,3.914-4.437,33.924-4.437,33.924
			s-15.656,4.958-30.269,2.087c0,0-2.871-25.051-3.914-30.53c0,0-5.741,8.351-8.351,10.178c-2.609,1.825-38.881,1.043-38.881,1.043
			s-2.088-4.175,0-5.741c0,0,26.617-3.132,30.27-3.914C307.93,360.881,316.28,347.572,316.28,347.572z"/>
		<path fill="#18156F" d="M338.2,295.904c0,0-13.569-4.16-19.31,10.838c-5.741,14.996-4.175,23.607-7.045,28.565
			c0,0,10.699,5.741,27.66,3.132s18.526-6.003,18.526-6.003S359.337,299.036,338.2,295.904z"/>
		<path fill="#FE95AC" d="M362.729,414.896c-1.566-5.741-7.308-26.355-7.308-26.355s-15.656,4.958-30.269,2.087
			c0,0-4.958,31.574-6.263,47.754c-1.305,16.179-4.436,24.789-5.741,32.356s-1.827,24.79-1.827,24.79s5.479,1.827,8.611,0
			c0,0,7.306-22.441,8.611-28.182c1.305-5.741,0.261-12.004,2.871-18.527s11.711-33.141,11.711-33.141s11.773,32.097,11.773,38.099
			s14.353,39.925,14.353,39.925s3.914,1.043,7.567-1.305c0,0-3.914-23.485-6.523-36.272
			C367.687,443.339,364.294,420.637,362.729,414.896z"/>
		<path fill="#6FBDFD" d="M311.322,495.528c0,0-4.012,10.96-0.979,11.449c3.033,0.489,9.492,0.196,11.351,0
			s-1.761-11.449-1.761-11.449C316.802,497.355,311.322,495.528,311.322,495.528z"/>
		<path fill="#6FBDFD" d="M376.82,492.397c-3.653,2.348-7.567,1.305-7.567,1.305s-3.383,12.786-0.35,13.275
			c3.034,0.489,9.492,0.196,11.352,0C382.113,506.781,376.82,492.397,376.82,492.397z"/>
		<g>
			<path fill="#FF7D9F" d="M337.156,414.504c0,0,0.192,0.023,0.529,0.065c0.33,0.049,0.806,0.085,1.368,0.15
				c0.278,0.043,0.589,0.039,0.909,0.073c0.322,0.019,0.657,0.064,1.007,0.073c0.702-0.006,1.442,0.102,2.186,0.044
				c0.372-0.001,0.744-0.002,1.11-0.003c0.367,0.005,0.724-0.048,1.073-0.067c0.348-0.031,0.687-0.044,1.01-0.059
				c0.325-0.004,0.624-0.057,0.904-0.094c1.115-0.158,1.908-0.184,1.908-0.184s-0.686,0.346-1.788,0.744
				c-0.274,0.103-0.572,0.222-0.902,0.27c-0.327,0.066-0.672,0.14-1.034,0.197c-0.361,0.047-0.731,0.16-1.116,0.156
				c-0.384,0.013-0.774,0.025-1.164,0.039c-0.39,0.005-0.78,0.006-1.162-0.043c-0.383-0.03-0.757-0.087-1.12-0.128
				c-0.363-0.034-0.705-0.144-1.031-0.212c-0.325-0.078-0.633-0.143-0.908-0.248C337.818,414.928,337.156,414.504,337.156,414.504z"
				/>
		</g>
		<path fill="#FFB6D6" d="M274.007,365.577c0,0-3.393-2.153-5.056-3.327c-1.664-1.174-4.795-3.033-5.872-2.643
			c-1.076,0.392,0.489,1.611,1.468,2.959c0.979,1.347,0.979,1.347,0.979,1.347s-1.664,0.196-4.501-0.097
			c-2.838-0.294-5.382-1.077-5.774-0.489c-0.391,0.586,0.979,1.564,3.229,2.25c2.251,0.686,2.74,1.37,1.272,1.859
			s-5.774,0.196-6.165,0.88c-0.391,0.686,0.294,1.468,2.936,1.468c2.642,0,3.621,0.393,3.523,0.784
			c-0.098,0.391-3.523,2.739-3.621,3.326c-0.098,0.588,1.761,0.293,5.382-1.468c0,0,2.055-0.782,0.881,0.881
			c-1.174,1.664-2.055,4.307,0.587,2.35c2.643-1.959,3.523-3.23,4.501-3.72s6.23-0.619,6.23-0.619S271.92,367.144,274.007,365.577z"
			/>
		<path fill="#FFB6D6" d="M400.969,292.743c3.422-2.12,4.663-3.535,4.114-3.766c-0.548-0.231-4.362,1.41-4.746,1.284
			c-0.384-0.127-0.191-1.164,1.22-3.396c1.411-2.233,1.115-3.231,0.327-3.267c-0.789-0.035-2.84,3.763-4.037,4.741
			c-1.198,0.98-1.515,0.201-0.892-2.068c0.622-2.268,0.526-3.949-0.179-3.932s-1.403,2.586-2.671,5.143
			c-1.267,2.556-2.32,3.857-2.32,3.857s0,0-0.617-1.547s-0.811-3.521-1.717-2.821c-0.905,0.702-1.007,4.342-0.902,6.376
			c0.069,1.352,0.097,3.576,0.105,4.918l5.058,3.907c0.663-0.976,2.862-4.166,3.654-4.645c0.937-0.565,2.481-0.63,5.548-1.818
			c3.065-1.188,0.362-1.855-1.672-1.751C399.208,294.063,400.969,292.743,400.969,292.743z"/>
		<polygon fill="#3C88D3" points="321.238,360.098 320.227,353.149 319.424,362.646 		"/>
		<g>
			<path fill="#E8809C" d="M321.238,454.231c1.696-8.809,4.958-18.981,6.24-35.365c0.819-10.458,1.656-21.192,2.156-27.594
				c-1.494-0.145-2.993-0.353-4.482-0.645c0,0-4.958,31.574-6.263,47.754c-1.305,16.179-4.436,24.789-5.741,32.356
				s-1.827,24.79-1.827,24.79s1.874,0.62,4.054,0.773C316.572,486.895,319.863,461.373,321.238,454.231z"/>
			<path fill="#E8809C" d="M361.579,460.979c-4.934-16.936-9.549-27.687-11.48-33.633c-1.932-5.946-6.973-11.668-6.973-11.668
				s11.773,32.097,11.773,38.099s14.353,39.925,14.353,39.925s1.04,0.273,2.543,0.222
				C369.717,487.516,365.234,473.527,361.579,460.979z"/>
		</g>
	</g>
	<g>
		
			<rect x="605.184" y="124.579" transform="matrix(0.7394 0.6733 -0.6733 0.7394 246.3814 -380.0712)" fill="#4549C3" width="17.958" height="7.316"/>
		<path fill="#2B284F" d="M614.896,133.853l-6.64-6.046l-16.792,18.441l1.602,1.459c-1.488-0.289-3.082,0.167-4.177,1.369
			c-1.67,1.833-1.537,4.673,0.297,6.342c1.832,1.669,4.672,1.536,6.341-0.296c1.095-1.202,1.4-2.833,0.975-4.287l1.602,1.458
			L614.896,133.853z"/>
		<path fill="#4549C3" d="M614.535,123.63c0,0,2.613-9.539,6.933-10.329c4.317-0.791,7.714,3.876,5.743,7.028
			c-1.971,3.153-8.496,7.106-8.496,7.106L614.535,123.63z"/>
	</g>
	<path fill="#DADAF2" d="M677.945,193.875v-7.829h-4.542c-0.41-1.713-1.08-3.321-1.967-4.788l3.199-3.199l-5.535-5.535l-3.153,3.153
		c-1.476-0.925-3.101-1.624-4.833-2.06v-4.402h-7.829v4.297c-1.788,0.401-3.464,1.091-4.988,2.011l-2.999-2.999l-5.535,5.535
		l2.945,2.945c-0.966,1.533-1.688,3.229-2.122,5.042h-4.132v7.829h4.123c0.431,1.817,1.152,3.518,2.116,5.056l-2.931,2.932
		l5.535,5.536l2.978-2.978c1.53,0.926,3.213,1.62,5.01,2.023v4.262h7.829v-4.368c1.742-0.438,3.374-1.141,4.854-2.073l3.132,3.132
		l5.535-5.536l-3.187-3.186c0.888-1.471,1.556-3.083,1.963-4.801H677.945z M657.2,197.659c-4.252,0-7.699-3.447-7.699-7.699
		c0-4.25,3.447-7.697,7.699-7.697c4.251,0,7.696,3.447,7.696,7.697C664.896,194.212,661.451,197.659,657.2,197.659z"/>
	<path fill="#DADAF2" d="M55.873,222.485v-7.828h-4.542c-0.409-1.713-1.079-3.321-1.966-4.788l3.2-3.199l-5.536-5.535l-3.154,3.153
		c-1.474-0.925-3.099-1.624-4.833-2.06v-4.402h-7.829v4.297c-1.789,0.401-3.463,1.091-4.988,2.011l-2.999-2.999l-5.536,5.535
		l2.945,2.945c-0.965,1.533-1.688,3.229-2.121,5.042h-4.132v7.828h4.123c0.43,1.817,1.152,3.518,2.117,5.056l-2.932,2.932
		l5.536,5.536l2.977-2.978c1.531,0.926,3.213,1.62,5.01,2.023v4.262h7.829v-4.368c1.742-0.437,3.375-1.141,4.855-2.073l3.132,3.132
		l5.536-5.536l-3.186-3.186c0.886-1.471,1.555-3.083,1.961-4.801H55.873z M35.127,226.269c-4.251,0-7.698-3.447-7.698-7.698
		s3.446-7.698,7.698-7.698c4.252,0,7.699,3.446,7.699,7.698S39.379,226.269,35.127,226.269z"/>
	<path fill="#DADAF2" d="M285.908,38.149V31.99h-3.573c-0.322-1.349-0.849-2.614-1.547-3.767l2.517-2.518l-4.355-4.355l-2.482,2.481
		c-1.16-0.728-2.438-1.278-3.803-1.621v-3.464h-6.16v3.381c-1.407,0.316-2.726,0.858-3.924,1.582l-2.36-2.359l-4.355,4.355
		l2.317,2.317c-0.76,1.207-1.328,2.542-1.669,3.968h-3.252v6.159h3.245c0.338,1.43,0.906,2.769,1.666,3.978l-2.307,2.308
		l4.355,4.355l2.343-2.342c1.204,0.729,2.528,1.274,3.941,1.592v3.354h6.16v-3.437c1.371-0.344,2.655-0.897,3.82-1.631l2.464,2.464
		l4.355-4.355l-2.506-2.507c0.697-1.157,1.224-2.426,1.543-3.778H285.908z M269.585,41.126c-3.345,0-6.057-2.711-6.057-6.057
		c0-3.345,2.712-6.057,6.057-6.057c3.346,0,6.057,2.712,6.057,6.057C275.642,38.415,272.931,41.126,269.585,41.126z"/>
	<circle fill="#DADAF2" cx="275.208" cy="218.229" r="16.16"/>
	<circle fill="none" stroke="#3C46B6" stroke-miterlimit="10" cx="283.958" cy="218.229" r="16.161"/>
	<g>
		<g>
			<path fill="#3C46B6" d="M504.708,460.979c0,0-4.085-5.445,2.722-12.251c0,0-3.937-23.049,19.568-26.153
				c0,0,4.434-15.521,17.737-17.295c13.304-1.774,23.947,6.652,27.051,18.182c0,0,10.201-3.548,19.513,2.661
				c9.313,6.208,8.426,19.068,8.426,19.068s10.2,3.637,6.209,15.788H504.708z"/>
		</g>
		<path fill="#2D3991" d="M527.907,442.44c3.653-9.771,12.255-12.919,12.255-12.919c-1.274-12.819,3.932-20.284,8.988-24.444
			c-1.434-0.052-2.905,0.002-4.415,0.203c-13.304,1.773-17.737,17.295-17.737,17.295c-23.505,3.104-19.568,26.153-19.568,26.153
			c-6.807,6.806-2.722,12.251-2.722,12.251h28.22C527.697,456.001,525.469,448.961,527.907,442.44z"/>
	</g>
	<g>
		<g>
			
				<rect x="33.168" y="368.555" transform="matrix(0.998 -0.0629 0.0629 0.998 -26.9408 3.4278)" fill="#4549C3" width="15.657" height="122.482"/>
			
				<rect x="29.111" y="362.028" transform="matrix(0.998 -0.0629 0.0629 0.998 -22.8973 3.0452)" fill="#D7DCFF" width="15.657" height="6.655"/>
			<path fill="#FE95AC" d="M44.543,361.542l-15.625,0.984l-0.369-5.862c-0.231-3.667,2.554-6.825,6.221-7.057l2.349-0.147
				c3.667-0.231,6.825,2.554,7.057,6.221L44.543,361.542z"/>
			<polygon fill="#3341A0" points="41.389,491.134 33.693,368.893 29.335,369.168 37.032,491.408 52.658,490.424 52.658,490.424 			
				"/>
			<polygon fill="#B9C2EA" points="33.697,368.893 33.279,362.252 28.917,362.526 29.335,369.168 44.961,368.184 44.961,368.184 			
				"/>
			<path fill="#E57693" d="M33.006,356.462c-0.214-3.396,2.162-6.354,5.427-6.954c-0.428-0.059-0.868-0.076-1.315-0.048
				l-2.349,0.147c-3.667,0.231-6.452,3.39-6.221,7.057l0.369,5.862l4.453-0.28L33.006,356.462z"/>
		</g>
		<g>
			
				<rect x="78.855" y="381.503" transform="matrix(-0.971 -0.2392 0.2392 -0.971 64.9436 893.371)" fill="#F36290" width="15.657" height="122.483"/>
			<polygon fill="#D7DCFF" points="108.933,385.153 106.863,360.828 93.73,381.408 			"/>
			<g>
				<polygon fill="#D85082" points="75.838,503.146 79.635,504.081 79.635,504.081 				"/>
				<polygon fill="#D85082" points="100.778,383.145 104.144,383.975 93.73,381.408 64.433,500.336 71.48,502.072 				"/>
			</g>
			<polygon fill="#B9C2EA" points="100.778,383.145 106.863,360.828 93.73,381.408 			"/>
		</g>
		<rect x="52.658" y="254.256" fill="#9281FF" width="27.438" height="247.953"/>
		<rect x="52.658" y="254.256" fill="#7A6CF1" width="10.545" height="247.953"/>
		<path fill="#5B65D7" d="M29.378,512.201c0,0,33.271,9.785,75.544,0l11.351-106.466H17.245L29.378,512.201z"/>
		<path fill="#3C49AA" d="M33.559,436.244c-5.057-12.101-7.902-22.517-9.507-30.509h-6.807l12.133,106.466
			c0,0,33.271,9.785,75.544,0C58.435,500.691,45.465,464.737,33.559,436.244z"/>
	</g>
</g>
</svg>
