<?xml version="1.0" encoding="utf-8"?>
<!-- Generator: Adobe Illustrator 16.0.0, SVG Export Plug-In . SVG Version: 6.00 Build 0)  -->
<!DOCTYPE svg PUBLIC "-//W3C//DTD SVG 1.1//EN" "http://www.w3.org/Graphics/SVG/1.1/DTD/svg11.dtd">
<svg version="1.1" id="Layer_1" xmlns="http://www.w3.org/2000/svg" xmlns:xlink="http://www.w3.org/1999/xlink" x="0px" y="0px"
	 width="736.333px" height="512.897px" viewBox="0 0 736.333 512.897" enable-background="new 0 0 736.333 512.897"
	 xml:space="preserve">
<g>
	<path fill="none" stroke="#C3C8FF" stroke-miterlimit="10" d="M79.975,470.536c0,0-95.849-50.077-72.752-162.677
		c23.094-112.601,117.152-139.318,155.835-131.052c72.501,15.491-45.951,61.203-74.246-17.257
		C53.309,61.103,179.893-13.433,297.236,5.859c75.415,12.395,111.818,48.498,178.855,71.182c66.797,22.603,94.813-7.67,68.2-25.215
		c-25.263-16.656-116.986,10.519-85.493,47.76c43.123,50.996,147.047-28.015,227.594,59.964
		c80.544,87.979,10.621,198.584-51.3,207.809c-61.922,9.224-34.769-79.661,61.921-9.225
		c96.692,70.438-25.443,146.797-25.443,146.797"/>
	<path fill="#6876EB" d="M738.133,511.973H5.443c-3.89,0-7.043-3.153-7.043-7.043s3.153-7.042,7.043-7.042h739.73v7.042
		C745.174,508.82,742.021,511.973,738.133,511.973"/>
	<path fill="#1C145E" d="M268.745,511.973H5.443c-3.89,0-7.042-3.153-7.042-7.043v-7.042h277.386v7.042
		C275.788,508.82,272.634,511.973,268.745,511.973"/>
	<path fill="#1C145E" d="M378.204,229.415c-31.378,60.297-66.631,84.858-66.631,84.858l30.446,48.608l53.165-55.249L378.204,229.415
		z"/>
	<path fill="#1C145E" d="M456,215.023l-77.796,14.391c-4.93,147.19-6.775,268.455-6.775,268.455h139.643
		c0,0,4.052-225.39-18.411-274.566L456,215.023z"/>
	
		<line fill="none" stroke="#6876EB" stroke-width="4" stroke-miterlimit="10" x1="446.966" y1="290.032" x2="484.868" y2="286.825"/>
	<path fill="none" stroke="#6876EB" stroke-miterlimit="10" d="M429.569,258.397c0,0,24.057,164.161,3.125,230.583"/>
	<path fill="none" stroke="#6876EB" stroke-miterlimit="10" d="M404.38,340.625c0,0,23.236,9.354,53.359,10.342
		c30.124,0.989,11.383,17.017-33.274,13.979"/>
	<polygon fill="#E9A394" points="410.368,209.039 429.568,260.048 456,215.023 438.58,186.557 	"/>
	<polygon fill="#6876EB" points="429.569,260.048 465.409,250.155 456,215.023 	"/>
	<polygon fill="#6876EB" points="414.635,220.373 395.184,242.101 429.569,260.048 	"/>
	<path fill="#E9A394" d="M342.019,362.881c0,0,11.358-23.688-13.034-54.201c-13.526-16.921-19.756-46.117-19.756-46.117
		l-20.323,3.091l18.608,97.228H342.019z"/>
	<polygon fill="#E9A394" points="284.752,232.075 276.431,239.639 287.554,249.457 252.723,248.863 251.977,260.817 
		288.905,265.652 309.229,262.563 	"/>
	<polygon fill="#E9A394" points="290.84,250.69 257.419,236.903 255.262,242.842 283.156,254.565 	"/>
	<path fill="#1C145E" d="M492.66,223.303c0,0,44.891,25.56,59.069,121.309l-52.083,12.565L492.66,223.303z"/>
	<polygon fill="#E9A394" points="395.159,146.702 378.204,190.09 391.17,194.079 395.159,218.513 436.55,209.038 442.535,142.713 	
		"/>
	<polygon fill="#E37A82" points="422.782,157.012 391.129,157.012 394.581,147.659 422.782,145.915 	"/>
	<path fill="#16005C" d="M439.323,176.806c0,0-20.196-4.178-20.196-25.069c0,0-29.964,4.078-40.308-12.188
		c-12.252-19.266,6.472-41.406,21.936-36.906c0,0-9.744,9.657,5.054,10.793c10.554,0.809,29.842-13.232,36.727,0.348
		c0,0,53.123,12.133,13.465,61.629L439.323,176.806z"/>
	<path fill="none" stroke="#16005C" stroke-width="2" stroke-miterlimit="10" d="M419.127,150.084c0,0-40.053,7.739-48.43-20.984
		c-4.898-16.791,11.934-26.354,11.934-26.354"/>
	<circle fill="none" stroke="#16005C" stroke-width="0.5" stroke-miterlimit="10" cx="402.179" cy="173.584" r="15.121"/>
	
		<line fill="none" stroke="#16005C" stroke-width="0.5" stroke-miterlimit="10" x1="416.485" y1="168.692" x2="438.02" y2="169.872"/>
	<path fill="#E9A394" d="M465.409,180.613c0,9.364-12.547,16.957-21.91,16.957c-9.364,0-12.002-7.593-12.002-16.957
		c0-9.363,7.594-16.955,16.958-16.955C457.818,163.658,465.409,171.25,465.409,180.613"/>
	<polygon fill="#E9A394" points="545.514,346.111 545.514,424.297 506.528,424.297 503.284,356.299 	"/>
	<polygon fill="#1C145C" points="375.167,328.434 376.804,273.957 351.55,352.978 	"/>
	<polygon fill="#E37A82" points="412.377,214.229 436.55,209.039 416.73,225.944 	"/>
	<path fill="#16005C" d="M400.973,174.577c0,3.335-1.296,6.035-2.895,6.035s-2.895-2.7-2.895-6.035c0-3.334,1.296-6.036,2.895-6.036
		S400.973,171.243,400.973,174.577"/>
	<path fill="#16005C" d="M405.937,159.897c0-8.088-6.438-2.643-6.438-2.643L405.937,159.897z"/>
	<path fill="#FFFFFF" d="M399.499,195.703l9.209-2.451C408.708,193.251,412.652,227.408,399.499,195.703"/>
	<path fill="#5321D7" d="M201.042,348.807c0,0,62.132-9.613,63.354,98.735c0.198,17.581,11.393,50.346,11.393,50.346H219.48
		L201.042,348.807z"/>
	<path fill="#6A3FDC" d="M136.075,339.194l-37.552,8.864l11.456,149.83h146.115c0,0-4.901-118.544-60.002-154.11L136.075,339.194z"
		/>
	<path fill="#6A3FDC" d="M98.521,348.058c-38.707,8.827-29.646,38.535-22.171,99.539c-19.319,15.69-0.785,22.753-0.785,22.753
		c-21.218,22.489,5.252,27.538,5.252,27.538h70.658C151.475,497.888,137.256,339.223,98.521,348.058"/>
	<line fill="none" stroke="#5321D7" stroke-miterlimit="10" x1="147.273" y1="463.281" x2="130.316" y2="385.445"/>
	<path fill="#E9A394" d="M80.816,497.888c0,0,11.929-27.39,49.634-41.16c31.261-11.416,76.99,18.219,106.265-9.94l5.419,31.705
		l-90.661,19.396H80.816z"/>
	<polygon fill="#E9A394" points="205.108,262.028 233.061,304.576 215.123,310.979 212.023,345.557 158.114,326.83 163.192,256.494 
			"/>
	<polygon fill="#E37A82" points="163.63,306.721 136.074,339.194 171.412,382.5 187.349,331.918 	"/>
	<polygon fill="#E37A82" points="172.844,286.617 212.275,272.937 205.107,262.028 166.156,266.08 	"/>
	<path fill="#16005C" d="M169.439,301.521c0,0,11.938,23.902,3.632-22.172c0,0,11.33,1.272,20.199-13.68c0,0-2.757,24.365,23.27,0
		c26.027-24.364-7.061-43.427-47.487-36.255c-35.042,6.217-70.108,26.018-18.856,93.14L169.439,301.521z"/>
	<path fill="#E9A394" d="M163.057,311.026c-2.689,3.605-7.31,6.878-12.114,7.577c-9.607,1.4-18.992-6.186-20.39-15.792
		c-1.398-9.608,3.454-14.598,13.059-15.996c5.4-0.787,11.655,0.814,16.344,4.073C161.372,292.656,163.057,311.026,163.057,311.026"
		/>
	<path fill="#16005C" d="M202.09,291.079c0.892,3.284,0.448,6.263-0.991,6.652c-1.439,0.391-3.328-1.955-4.219-5.237
		c-0.892-3.284-0.447-6.263,0.991-6.653C199.31,285.451,201.198,287.796,202.09,291.079"/>
	<path fill="#16005C" d="M190.158,283.447c0,0-1.401-7.9,5.933-4.096L190.158,283.447z"/>
	<polygon fill="#6A3FDC" points="131.662,340.522 138.062,333.174 135.713,327.727 150.197,322.554 191.742,343.446 
		193.271,359.399 186.241,357.177 174.763,399.958 	"/>
	<polyline fill="none" stroke="#5321D7" stroke-miterlimit="10" points="169.179,350.967 193.271,359.4 191.742,343.446 	"/>
	<path fill="#16005C" d="M173.072,279.349c0,0,4.848,28.209,11.937,34.007c2.328,1.906,6.733-2.939,27.015-3.347
		c12.4-0.248,12.391,43.04-4.065,41.798c-16.457-1.24-41.466-11.5-45.213-43.051C159.458,281.079,173.072,279.349,173.072,279.349"
		/>
	<path fill="none" stroke="#C4C6C5" stroke-miterlimit="10" d="M193.272,318.603c0,0,4.183,7.788,12.425,2.513"/>
	<path fill="#1C145E" d="M287.316,480.074H148.609v10.277c0,4.163,3.375,7.537,7.536,7.537h131.17c4.163,0,7.536-3.374,7.536-7.537
		v-2.741C294.852,483.449,291.479,480.074,287.316,480.074"/>
	<path fill="#1C145E" d="M399.968,377.053H238.617c-4.796,0-8.844,3.563-9.451,8.32l-13.001,101.778
		c-0.726,5.696,3.71,10.736,9.453,10.736h161.351c4.795,0,8.844-3.564,9.452-8.322l12.998-101.778
		C410.146,382.093,405.709,377.053,399.968,377.053"/>
	<path fill="#6876EB" d="M407.776,377.053H246.425c-4.795,0-8.842,3.563-9.45,8.32l-12.999,101.778
		c-0.729,5.696,3.708,10.736,9.453,10.736h161.349c4.796,0,8.845-3.564,9.45-8.322l12.999-101.778
		C417.955,382.093,413.518,377.053,407.776,377.053"/>
	<path fill="#FFFFFF" d="M336.515,437.47c-0.925,8.788-8.798,15.913-17.586,15.913c-8.79,0-15.165-7.125-14.241-15.913
		c0.923-8.789,8.798-15.914,17.586-15.914C331.064,421.556,337.438,428.681,336.515,437.47"/>
	<line fill="none" stroke="#1C145E" stroke-miterlimit="10" x1="404.256" y1="497.026" x2="203.417" y2="497.026"/>
	<path fill="#16005C" d="M493.016,360.82l66.671,1.265l-15.113-81.561l-35.451,4.014c0,0-15.969,23.57-3.36,41.896
		C519.991,347.111,491.552,347.882,493.016,360.82"/>
	<path fill="none" stroke="#7079F1" stroke-width="2" stroke-miterlimit="10" d="M509.122,284.538c0,0-15.971,23.57-3.358,41.896
		c14.227,20.678-14.212,21.449-12.748,34.387"/>
	<path fill="#7079F1" d="M522.424,350.967c0,0-30.337,29.771-46.333,141.946h33.769L522.424,350.967z"/>
	<path fill="#C3C8FF" d="M602.595,342.676l-13.2,150.237h-98.077l12.209-57.38c0,0-37.339-19.48,18.897-84.566l13.976-7.189
		l60.723-4.584L602.595,342.676z"/>
	<path fill="none" stroke="#7079F1" stroke-miterlimit="10" d="M522.424,418.208c0,0-5.881,10.071-0.229,18.154l-8.323,56.552"/>
	<line fill="none" stroke="#7079F1" stroke-miterlimit="10" x1="508.714" y1="435.792" x2="565.521" y2="437.47"/>
	<path fill="#E9A394" d="M633.082,497.87c0,0-21.829-49.92-76.732-35.634c-59.949,15.598-82.211,12.683-82.211,12.683l-4.544,22.951
		H633.082z"/>
	<polygon fill="#E9A394" points="474.139,474.918 445.655,469.029 425.233,497.87 469.595,497.87 	"/>
	<polygon fill="#E9A394" points="494.356,263.782 485.489,312.921 498.79,312.921 513.724,333.454 551.756,313.622 525.156,254.354 
			"/>
	<polygon fill="#E37A82" points="492.206,275.699 491.317,281.094 526.391,276.31 525.854,269.589 	"/>
	<path fill="#16005C" d="M591.301,260.048c-8.78-23.8-19.515-32.975-19.516-32.976c-21.516-21.383-58.296,2.342-58.296,2.342
		c-47.131-11.408-27.998,47.107-27.998,47.107l38.382-4.707c5.367,32.196,24.561,15.893,24.561,15.893l8.95,16.146
		c0.002,0-9.03,7.982,0.386,21.667c7.751,11.267-10.812,15.105-6.016,27.101l74.193-15.381
		C625.947,288.428,607.168,303.065,591.301,260.048"/>
	<path fill="none" stroke="#7079F1" stroke-width="2" stroke-miterlimit="10" d="M482.482,276.901c0,0-6.787-33.409,5.681-44.282
		c6.502-5.669,26.978-3.205,26.978-3.205"/>
	<path fill="#FFFFFF" d="M508.714,311.113l9.908-2.433C518.622,308.68,522.101,336.938,508.714,311.113"/>
	<path fill="none" stroke="#1C145E" stroke-width="0.5" stroke-miterlimit="10" d="M500.464,294.414c0,0,3.153-19.222,10.054,0"/>
	<path fill="#16005C" d="M502.898,279.792c0,0,3.842-6.506,8.394,0H502.898z"/>
	<path fill="#C3C8FF" d="M353.808,106.639c-5.747-15.986-23.82-23.992-39.664-17.162c-13.633,5.881-20.86,21.347-16.631,35.579
		c2.366,7.957,7.703,14.112,14.388,17.703c6.172,3.314,11.47,8.042,15.35,13.873l1.121,1.682l22.196-7.98l-0.206-2
		c-0.731-7.083,0.507-14.17,3.125-20.792C356.042,121.077,356.346,113.693,353.808,106.639"/>
	<path fill="#C3C8FF" d="M353.808,106.639c-5.747-15.986-23.82-23.992-39.664-17.162c-13.633,5.881-20.86,21.347-16.631,35.579
		c2.366,7.957,7.703,14.112,14.388,17.703c6.172,3.314,11.47,8.042,15.35,13.873l1.121,1.682l22.196-7.98l-0.206-2
		c-0.731-7.083,0.507-14.17,3.125-20.792C356.042,121.077,356.346,113.693,353.808,106.639"/>
	<path fill="none" stroke="#FFFFFF" stroke-miterlimit="10" d="M333.449,151.769l-17.693-24.954c0,0,0.322-5.053,5.876-4.252
		c5.553,0.801,8.87,9.564,4.906,8.15c-3.962-1.414-5.365-11.717,2.133-13.288c7.5-1.571,10.006,15.465,5.862,12.182
		c-4.143-3.282-3.271-14.128,4.762-14.218l4.712,35.989"/>
	<path fill="#16005C" d="M350.052,167.389l-10.423,3.749c-3.962,1.424-8.33-0.633-9.756-4.598l-2.204-6.127
		c-1.424-3.964,0.633-8.332,4.597-9.756l10.422-3.748c3.964-1.426,8.332,0.632,9.758,4.595l2.202,6.129
		C356.073,161.596,354.015,165.963,350.052,167.389"/>
	
		<rect x="322.909" y="146.513" transform="matrix(0.941 -0.3384 0.3384 0.941 -32.2993 124.0289)" fill="#6876EB" width="33.359" height="16.284"/>
	<line fill="none" stroke="#C3C8FF" stroke-miterlimit="10" x1="325.175" y1="79.471" x2="322.043" y2="61.516"/>
	<line fill="none" stroke="#C3C8FF" stroke-miterlimit="10" x1="302.555" y1="90.164" x2="287.558" y2="75.517"/>
	<line fill="none" stroke="#C3C8FF" stroke-miterlimit="10" x1="286.927" y1="116.773" x2="269.816" y2="117.999"/>
	<line fill="none" stroke="#C3C8FF" stroke-miterlimit="10" x1="349.839" y1="89.309" x2="357.541" y2="75.028"/>
	<path fill="#C3C8FF" d="M248.958,212.243h-106.1c-3.687,0-7.221-2.99-7.889-6.679l-10.964-60.49
		c-0.668-3.688,1.781-6.68,5.469-6.68h106.098c3.69,0,7.224,2.991,7.891,6.68l10.964,60.49
		C255.096,209.252,252.646,212.243,248.958,212.243"/>
	<path fill="#FFFFFF" d="M175.079,175.319c0.693,3.831-1.849,6.938-5.679,6.938c-3.833,0-7.502-3.108-8.197-6.938
		c-0.694-3.832,1.848-6.938,5.681-6.938C170.714,168.381,174.386,171.487,175.079,175.319"/>
	<path fill="#FFFFFF" d="M196.154,175.319c0.694,3.831-1.849,6.938-5.681,6.938c-3.831,0-7.5-3.108-8.195-6.938
		c-0.694-3.832,1.848-6.938,5.68-6.938C191.79,168.381,195.46,171.487,196.154,175.319"/>
	<path fill="#FFFFFF" d="M217.228,175.319c0.694,3.831-1.849,6.938-5.679,6.938c-3.833,0-7.501-3.108-8.197-6.938
		c-0.693-3.832,1.848-6.938,5.681-6.938C212.863,168.381,216.534,171.487,217.228,175.319"/>
	<polygon fill="#C3C8FF" points="211.108,208.265 216.927,229.415 240.465,206.785 	"/>
</g>
</svg>
