<?xml version="1.0" encoding="utf-8"?>
<!-- Generator: Adobe Illustrator 16.0.0, SVG Export Plug-In . SVG Version: 6.00 Build 0)  -->
<!DOCTYPE svg PUBLIC "-//W3C//DTD SVG 1.1//EN" "http://www.w3.org/Graphics/SVG/1.1/DTD/svg11.dtd">
<svg version="1.1" id="Layer_1" xmlns="http://www.w3.org/2000/svg" xmlns:xlink="http://www.w3.org/1999/xlink" x="0px" y="0px"
	 width="697px" height="560px" viewBox="0 0 697 560" enable-background="new 0 0 697 560" xml:space="preserve">
<g>
	<g>
		<g>
			<path fill="#D3D3D3" d="M574.873,545.036c0,0-125.594,6.089-280.522,6.089c-154.928,0-280.523-6.089-280.523-6.089
				s125.595-6.087,280.523-6.087C449.279,538.949,574.873,545.036,574.873,545.036z"/>
			<g>
				<g>
					<g>
						<polygon fill="#FFC1A0" points="236.222,258.635 261.51,226.791 287.025,220.146 287.201,224.416 272.992,232.015 
							287.668,235.926 306.986,225.574 309.762,229.078 289.417,246.246 264.788,242.289 251.65,263.71 						"/>
						<polygon fill="#FFFFFF" points="245.162,240.528 251.842,233.442 267.255,251.926 261.515,257.61 						"/>
					</g>
					<path fill="#00DE91" d="M264.191,259.251l-20.939-20.603c-7,3.264-32.932,30.543-44.055,43.353l0,0
						c0,0-5.971-52.003-17.56-58.698l-15.099,18.611v39.623l9.596,31.396c0,0,11.488,7.942,16.342,6.686
						c4.855-1.257,25.917-19.53,25.917-19.53h-0.001C239.974,282.377,264.191,259.251,264.191,259.251z"/>
				</g>
				<g>
					<g>
						<g>
							<path fill="#D0D0DD" d="M239.376,525.759c-1.013-0.507-1.958-0.98-2.904-1.488c-0.574-0.304-1.148-0.574-1.688-0.878
								c-1.013-0.537-1.958-1.045-2.836-1.552c-0.708-0.371-1.35-0.741-1.958-1.115c-1.046-0.607-1.958-1.147-2.802-1.652
								c-2.161-1.318-3.511-2.297-3.883-2.634c0-0.036-0.033-0.069-0.067-0.103c-0.169-0.201-0.27-0.505-0.337-0.945
								c-0.162-0.855,0.031-2.16,0.423-3.748h-15.188l-7.249,32.888l71.479,0.505l0.068-7.057
								C260.276,535.212,248.391,530.249,239.376,525.759z"/>
							<g>
								<g>
									
										<rect x="237.336" y="527.039" transform="matrix(-0.5688 0.8225 -0.8225 -0.5688 815.0059 630.0236)" fill="#D0D0DD" width="10.037" height="3.222"/>
								</g>
								<g>
									
										<rect x="232.959" y="524.375" transform="matrix(-0.5687 0.8225 -0.8225 -0.5687 805.9561 629.3987)" fill="#D0D0DD" width="10.036" height="3.223"/>
								</g>
								<g>
									
										<rect x="228.079" y="521.785" transform="matrix(-0.5689 0.8224 -0.8224 -0.5689 796.1437 629.4896)" fill="#D0D0DD" width="10.034" height="3.224"/>
								</g>
							</g>
						</g>
					</g>
					<path fill="#513E35" d="M258.762,371.777c-7.541-15.082-49.913-17.25-49.913-17.25l-74.707-10.334
						c0,0-10.179,41.725,2.546,50.68c12.726,8.954,79.183,5.155,79.183,5.155l-13.668,115.032h34.878
						C237.081,515.061,266.303,386.86,258.762,371.777z"/>
				</g>
				<g>
					<g>
						<rect x="100.504" y="416.248" fill="#FFFFFF" width="31.107" height="128.788"/>
						<rect x="100.504" y="527.146" fill="#D0D0DD" width="31.107" height="17.89"/>
					</g>
					<g>
						<rect x="488.917" y="416.248" fill="#FFFFFF" width="31.108" height="128.788"/>
						<rect x="488.917" y="527.146" fill="#D0D0DD" width="31.108" height="17.89"/>
					</g>
				</g>
				<g>
					<g>
						<path fill="#332E55" d="M418.871,539.866l2.305,5.17c0,0,29.844-18.954,31.522-23.658l1.736,1.971l11.165-7.436
							c0,0-7.104-9.501-10.961-10.916c-0.07-0.034-0.123-0.048-0.189-0.064l-26.755-92.087l-18.855,7.159
							c0,0,33.292,87.483,32.854,89.732c-0.211,1.09-4.76,8.207-11.487,16.606C427.974,529.128,418.871,539.866,418.871,539.866z"/>
						<path fill="#FFC1A0" d="M430.206,526.344c3.141,1.823,7.237,0.251,10.25-1.786c4.612-3.11,8.37-7.332,11.008-12.117
							c1.31-2.374,2.242-4.908,3.175-7.443c-0.07-0.034-0.123-0.048-0.189-0.064l-26.755-92.087l-18.855,7.159
							c0,0,33.292,87.483,32.854,89.732C441.482,510.827,436.934,517.944,430.206,526.344z"/>
					</g>
				</g>
				<g>
					<path fill="#211E40" d="M390.492,535.087l2.303,4.766c0,0,29.845-17.466,31.522-21.8l1.737,1.817l11.164-6.853
						c0,0-7.105-8.754-10.962-10.059c-0.069-0.027-0.12-0.044-0.189-0.059l-26.753-84.847l-18.857,6.597
						c0,0,33.292,80.605,32.855,82.679c-0.21,1.003-4.758,7.561-11.488,15.3C399.592,525.193,390.492,535.087,390.492,535.087z"/>
					<path fill="#FFC1A0" d="M401.824,522.629c3.142,1.678,7.24,0.231,10.251-1.644c4.611-2.868,8.371-6.759,11.009-11.165
						c1.311-2.19,2.242-4.525,3.173-6.861c-0.069-0.027-0.12-0.044-0.189-0.059l-26.753-84.847l-18.857,6.597
						c0,0,33.292,80.605,32.855,82.679C413.103,508.332,408.555,514.89,401.824,522.629z"/>
				</g>
				<path fill="#FF7292" d="M386.695,359.953c1.459-1.82,2.994-3.113,4.478-3.395c36.472-6.911,71.528,5.858,71.528,5.858
					s1.967-21.975,3.008-26.854c0,0,13.122-12.948,38.756-12.948c0,0,35.08,29.396,28.78,51.44
					c-6.298,22.047-29.084,26.704-37.092,25.896c-43.423-4.375-75.158-9.286-80.749-10.354c-0.043-0.072-0.086-0.145-0.086-0.145
					c-1.132-0.134-1.047-0.072,0.086,0.145c0.933,1.586,11.916,20.364,23.658,45.396c-9.728,6.217-20.016,11.281-30.681,15.133
					c-6.968-23.873-15.303-48.489-23.917-65.11C380.278,376.939,381.005,367.051,386.695,359.953z"/>
				<g>
					<rect x="72.292" y="404.499" fill="#D0D0DD" width="473.377" height="16.69"/>
					<rect x="62.494" y="390.19" fill="#FFFFFF" width="491.574" height="19.676"/>
				</g>
				<path fill="#211E40" d="M379.51,441.166l36.675-10.477l-19.221-39.824l121.687-17.571l-10.596-18.767
					c0,0-130.982,4.124-142.681,16.88C353.678,384.165,379.51,441.166,379.51,441.166z"/>
				<polygon fill="#D0D0DD" points="373.685,433.404 412.627,417.416 418.618,430.935 380.713,446.536 				"/>
				<g>
					<polygon fill="#FFC1A0" points="330.544,243.582 332.521,240.366 335.934,240.702 338.504,238.463 358.688,248.841 
						355.936,237.491 359.427,235.926 365.572,249.642 367.148,260.241 394.125,279.76 387.597,293.102 359.721,269.341 
						351.199,267.085 335.118,252.408 336.377,249.669 					"/>
					<path fill="#EC4C77" d="M457.892,279.511c0,0-33.596,28.676-39.628,28.731c-7.185,0.075-19.381-6.279-28.412-11.652
						c-1.923-1.147-3.715-2.243-5.259-3.241c-3.753-2.377-6.204-4.071-6.204-4.071l10.331-17.383l6.863,3.507l4.884,2.488
						l14.308,7.314c13.858-5.165,32.56-30.314,32.56-30.314L457.892,279.511z"/>
					<path fill="#FFFFFF" d="M400.467,277.889l-10.615,18.701c-1.923-1.147-3.715-2.243-5.259-3.241l10.99-17.948L400.467,277.889z"
						/>
					<path fill="#332E55" d="M504.465,322.614c-25.634,0-38.756,12.948-38.756,12.948c-1.039,4.88-3.008,26.854-3.008,26.854
						s-35.056-12.77-71.528-5.858c-1.483,0.281-3.019,1.574-4.478,3.395c-5.69,7.098-6.417,16.986-2.23,25.063
						c8.614,16.621,16.949,41.237,23.917,65.11c10.665-3.852,23.917-9.208,33.646-15.426
						c-11.743-25.032-25.363-44.069-25.363-44.069c5.591,1.067,36.065,4.944,79.489,9.319c8.008,0.809,30.794-3.849,37.094-25.896
						C539.545,352.011,504.465,322.614,504.465,322.614z"/>
					<path fill="#FF7292" d="M434.921,292c3.493,14.339,19.244,13.99,19.244,13.99v0.014c0.122,1.475,0.32,2.949,0.593,4.39
						c2.522,13.595,10.951,25.169,10.951,25.169c27.112-0.182,38.762-12.939,38.762-12.939c-8.643-4.8-10.949-17.786-11.786-31.838
						c-0.167-2.795-0.272-5.635-0.364-8.46v-0.015c-0.182-6.258-0.287-12.455-0.714-17.954
						c-1.58-20.475-23.359-31.244-23.359-31.244l-17.878,11.3C449.214,252.114,431.412,277.647,434.921,292z"/>
					<g>
						<polygon fill="#242143" points="435.498,354.131 434.799,346.584 374.652,352.164 351.723,282.001 341.514,284.734 
							366.285,360.552 						"/>
						<g>
							<path fill="#FFDFC4" d="M421.505,347.387c5.117,1.556,15.835,3.946,26.225,1.015c31.771,0.944,67.797,1.472,71.091,0.967
								c4.919-0.747,5.755-2.745,5.755-2.745c2.163-3.647,2.67-9.035,2.452-14.338c-0.221-5.836-1.317-11.577-2.048-14.835
								c-0.388-1.72-0.666-2.762-0.666-2.762l-16.409-1.756c0.555,0.728,1.048,3.077,1.452,5.967
								c0.63,4.473,1.072,10.241,1.271,13.185c0.079,1.195,0.117,1.926,0.117,1.926c-18.279,2.915-62.195,5.301-62.195,5.301
								s-13.218-5.181-15.297-4.91c-4.295,0.565-9.737,7.354-12.455,9.79C419.713,345.174,420.094,346.969,421.505,347.387z"/>
							<path fill="#FFC1A0" d="M510.627,332.084l16.4,0.201c-0.221-5.836-1.317-11.577-2.048-14.835l-15.623,1.449
								C509.986,323.372,510.429,329.141,510.627,332.084z"/>
						</g>
					</g>
					<path fill="#FF7292" d="M476.388,266.453c16.297,9.159,23.983,30.182,27.416,44.186c0.38,1.563,0.715,3.038,0.987,4.403
						c1.154,5.529,1.52,9.188,1.52,9.188l24.834,1.188c0,0,0.286-3.799,0.03-9.601c-0.062-1.366-0.137-2.826-0.273-4.39
						c-0.791-9.615-3.13-22.571-9.555-33.431c-11.893-20.126-22.357-28.267-34.297-34.464c-2.505-1.306-4.983-2.263-7.154-2.962
						c-6.03-1.929-12.744,0.835-15.188,6.683C462.564,252.373,463.612,259.284,476.388,266.453z"/>
					<g>
						<g>
							<g>
								<path fill="#FFDFC4" d="M452.318,215.746c1.12,2.633,1.74,5.768,2.058,8.977c0.103,1.156,0.171,2.322,0.209,3.483
									c0.26,8.218-1.137,15.93-1.137,15.93l19.48-8.236c-1.541-1.855-3.826-7.036-5.822-12.015c-1.242-3.1-2.37-6.149-3.129-8.261
									c-0.646-1.769-1.043-2.913-1.043-2.913L452.318,215.746z"/>
								<path fill="#FFC1A0" d="M454.376,224.722c0.103,1.156,0.171,2.322,0.209,3.483l12.521-4.321
									c-1.242-3.1-2.37-6.149-3.129-8.261C463.978,215.624,458.537,221.345,454.376,224.722z"/>
							</g>
							<g>
								<g>
									<g>
										<path fill="#FFDFC4" d="M433.768,187.372c0,0-1.105,13.948-5.412,15.957c-4.308,2.01,4.1,8.034,4.1,8.034
											s-0.76,25.615,17.17,17.191c16.557-13.003,16.2-16.002,16.2-16.002s7.056,0.386,8.197-4.433
											c1.142-4.819-0.274-11.469-7.202-8.195c0,0-4.304-4.539-4.822-9.35c-0.518-4.812,1.185-14.529-6.365-13.917
											C448.084,177.27,433.768,187.372,433.768,187.372z"/>
									</g>
									<circle fill="#FFC1A0" cx="449.977" cy="206.198" r="3.866"/>
								</g>
								<g>
									<path fill="#242143" d="M442.346,160.134c0.555-0.181,1.088-0.318,1.63-0.473l0.006-0.028
										c6.686-2.368,13.247-2.494,19.073-1.575c11.628,1.835,21.964,8.432,29.178,17.734c26.677,34.403-2.151,46.043-2.151,46.043
										l-27.993,7.231c2.53-7.017-0.845-32.07-2.344-42.695l-30.457,5.382C429.287,191.754,424.88,165.848,442.346,160.134z"/>
									<g>
										<g>
											<path fill="#3A3750" d="M475.067,169.627c0,0,0.512,0.358,1.423,0.998c0.924,0.609,2.199,1.591,3.695,2.841
												c1.508,1.238,3.173,2.845,4.908,4.696c1.699,1.89,3.45,4.046,5.108,6.441c1.627,2.416,3,4.831,4.141,7.102
												c1.096,2.29,1.987,4.424,2.592,6.28c0.62,1.848,1.07,3.393,1.302,4.475c0.265,1.082,0.412,1.688,0.412,1.688
												s0.032-0.625,0.088-1.74c0.065-1.127,0.01-2.765-0.235-4.782c-0.231-2.022-0.773-4.404-1.658-6.97
												c-0.928-2.544-2.229-5.26-3.987-7.865c-1.788-2.586-3.845-4.785-5.877-6.576c-2.069-1.757-4.09-3.128-5.89-4.078
												c-1.789-0.963-3.294-1.611-4.368-1.959C475.663,169.826,475.067,169.627,475.067,169.627z"/>
										</g>
										<g>
											<path fill="#3A3750" d="M453.529,180.178c0,0-0.106-0.96-0.085-2.305c0.006-1.356,0.241-3.053,0.474-4.98
												c0.228-1.928,0.355-3.804,0.389-5.233c0.039-1.425-0.03-2.376-0.03-2.376s-0.681,0.661-1.498,1.885
												c-0.807,1.221-1.775,3.055-2.052,5.354c-0.288,2.299,0.342,4.498,1.177,5.802c0.405,0.661,0.813,1.133,1.133,1.42
												C453.348,180.037,453.529,180.178,453.529,180.178z"/>
										</g>
										<g>
											<path fill="#3A3750" d="M445.461,180.268c0,0-0.05-1.028-0.003-2.505c0.039-1.488,0.26-3.385,0.58-5.414
												c0.333-2.027,0.719-3.897,1.149-5.322c0.42-1.417,0.787-2.377,0.787-2.377s-0.229,0.127-0.615,0.342
												c-0.398,0.227-0.936,0.615-1.533,1.184c-1.192,1.115-2.547,3.124-2.96,5.664c-0.405,2.541,0.248,4.873,1.031,6.308
												c0.391,0.727,0.776,1.264,1.084,1.604C445.283,180.075,445.461,180.268,445.461,180.268z"/>
										</g>
										<g>
											<path fill="#3A3750" d="M437.451,182.933c0,0-0.041-0.294-0.112-0.799c-0.091-0.496-0.16-1.225-0.212-2.081
												c-0.113-1.725,0.016-3.969,0.411-6.362c0.411-2.39,1.028-4.551,1.701-6.144c0.33-0.791,0.634-1.457,0.882-1.895
												c0.234-0.454,0.371-0.719,0.371-0.719s-0.268,0.135-0.728,0.365c-0.474,0.24-1.112,0.668-1.827,1.307
												c-1.434,1.252-3.061,3.58-3.568,6.55c-0.496,2.972,0.277,5.705,1.22,7.359c0.467,0.838,0.928,1.453,1.297,1.834
												C437.242,182.719,437.451,182.933,437.451,182.933z"/>
										</g>
										<g>
											<path fill="#3A3750" d="M485.244,192.241c0,0,0.239,0.298,0.657,0.819c0.418,0.521,0.981,1.296,1.583,2.27
												c1.215,1.944,2.475,4.755,3.083,7.949c0.607,3.194,0.468,6.271,0.05,8.526c-0.202,1.125-0.441,2.054-0.639,2.692
												c-0.197,0.638-0.312,1.003-0.312,1.003s0.284-0.248,0.749-0.755c0.466-0.506,1.092-1.295,1.71-2.388
												c1.242-2.142,2.343-5.734,1.596-9.678c-0.753-3.943-3.095-6.88-5.036-8.417c-0.978-0.789-1.848-1.294-2.469-1.593
												C485.598,192.368,485.244,192.241,485.244,192.241z"/>
										</g>
										<g>
											<path fill="#3A3750" d="M481.589,203.534c0,0,0.156,1.077,0.141,2.631c-0.004,1.561-0.262,3.556-0.853,5.565
												c-0.588,2.009-1.446,3.829-2.285,5.145c-0.825,1.317-1.538,2.139-1.538,2.139s0.265-0.036,0.731-0.162
												c0.467-0.125,1.133-0.365,1.901-0.803c1.522-0.842,3.47-2.682,4.274-5.416c0.798-2.735,0.151-5.336-0.675-6.866
												c-0.411-0.783-0.843-1.344-1.169-1.702C481.791,203.706,481.589,203.534,481.589,203.534z"/>
										</g>
									</g>
								</g>
							</g>
						</g>
						<polygon fill="#FFFFFF" points="482.145,240.847 475.23,231.615 450.148,241.181 447.394,250.079 						"/>
					</g>
					<path fill="#EC4C77" d="M476.388,266.453l16.297,24.333c-0.167-2.795-0.272-5.635-0.364-8.46v-0.015
						C492.32,282.311,483.647,271.526,476.388,266.453z"/>
					<path fill="#FFFFFF" d="M503.804,310.639c0.38,1.563,0.715,3.038,0.987,4.403l26.384,0.775
						c-0.062-1.366-0.137-2.826-0.273-4.39L503.804,310.639z"/>
					<path fill="#EC4C77" d="M454.165,306.004c0.122,1.475,0.32,2.949,0.593,4.39c6.243-1.457,12.12-4.479,16.937-8.731
						c-4.663,2.536-10.024,3.4-15.28,4.206C455.639,305.974,454.895,305.96,454.165,306.004z"/>
				</g>
				<polygon fill="#FFFFFF" points="403.356,442.202 439.356,426.844 446.897,439.728 408.992,455.329 				"/>
				<g>
					<g>
						<g>
							<path fill="#FFFFFF" d="M224.92,525.759c-1.013-0.507-1.958-0.98-2.904-1.488c-0.574-0.304-1.148-0.574-1.688-0.878
								c-1.013-0.537-1.958-1.045-2.836-1.552c-0.708-0.371-1.35-0.741-1.958-1.115c-1.046-0.607-1.958-1.147-2.802-1.652
								c-2.161-1.318-3.511-2.297-3.883-2.634c0-0.036-0.033-0.069-0.067-0.103c-0.169-0.201-0.27-0.505-0.337-0.945
								c-0.163-0.855,0.031-2.16,0.423-3.748h-15.188l-7.249,32.888l71.479,0.505l0.068-7.057
								C245.82,535.212,233.936,530.249,224.92,525.759z"/>
							<g>
								<g>
									
										<rect x="222.88" y="527.039" transform="matrix(-0.5688 0.8225 -0.8225 -0.5688 792.3278 641.9128)" fill="#D0D0DD" width="10.037" height="3.222"/>
								</g>
								<g>
									
										<rect x="218.502" y="524.375" transform="matrix(-0.5688 0.8225 -0.8225 -0.5688 783.269 641.3339)" fill="#D0D0DD" width="10.037" height="3.223"/>
								</g>
								<g>
									
										<rect x="213.624" y="521.785" transform="matrix(-0.5689 0.8224 -0.8224 -0.5689 773.4685 641.3553)" fill="#D0D0DD" width="10.034" height="3.224"/>
								</g>
							</g>
						</g>
					</g>
					<path fill="#57443B" d="M244.306,371.777c-7.541-15.082-49.913-17.25-49.913-17.25l-72.16-23.168c0,0-12.726,54.559,0,63.514
						c12.726,8.954,79.183,5.155,79.183,5.155l-13.668,115.032h34.878C222.625,515.061,251.848,386.86,244.306,371.777z"/>
				</g>
				<g>
					<g>
						<g>
							<g>
								<g>
									<polygon fill="#FFDFC4" points="174.996,208.363 151.723,198.292 152.831,186.371 153.821,175.734 153.853,175.341 
										159.252,172.927 170.517,181.274 172.394,192.598 173.039,196.515 									"/>
									<path fill="#FFC1A0" d="M173.039,196.515l-20.208-10.144l0.99-10.637c0,0,2.362,1.681,5.207,1.133
										c0,0,6.703,9.991,13.367,15.731L173.039,196.515z"/>
								</g>
								<path fill="#00C685" d="M188.708,352.701c2.958-27.161,3.458-72.99,3.759-93.536c0.439-30.005-16.205-43.882-16.205-43.882
									l-30.59-12.76c-10.411,10.478-17.224,23.994-19.453,38.596l-15.298,119.433L188.708,352.701z"/>
								<path fill="#FFDFC4" d="M188.528,142.886c0,0,8.607,21.929,12.682,27.714c2.829,4.018-6.765,4.035-6.765,4.035
									s1.626,38.326-17.139,22.302c-16.551-14.132-18.272-20.067-18.272-20.067s-7.304,0.099-8.28-4.926
									c-0.975-5.025,0.77-11.834,7.786-8.159c0,0,4.638-4.505,5.377-9.453c0.739-4.948-0.607-15.057,7.165-14.104
									C178.854,141.18,188.528,142.886,188.528,142.886z"/>
								<path fill="#242143" d="M129.62,161.063c-3.498-8.893-0.56-19.905,6.904-25.873c-3.408-0.827-7.012-0.834-10.423-0.022
									c3.144-4.784,9.424-7.267,14.991-5.927c0.638-4.688,2.652-9.179,5.726-12.773c-0.698,2.243-0.516,4.748,0.499,6.867
									c3.468-4.25,8.149-7.501,13.344-9.266c3.88-1.318,7.056-1.225,11.696,1.239l-6.6,2.508
									c8.406-2.338,18.761,0.576,24.596,7.063c5.834,6.486,6.068,17.821-0.594,23.455c-2.027,1.713-4.516,2.832-7.102,3.427
									c-5.891,1.356-12.48-0.141-16.874-4.292c0.937,7.051-1.386,14.468-6.176,19.726c0.366-2.433-2.346-4.584-4.767-4.15
									c-2.422,0.434-3.844,2.729-4.126,5.173c-0.283,2.444,1.838,5.398,3.111,7.503
									C144.294,176.438,133.119,169.956,129.62,161.063z"/>
								<polygon fill="#FFFFFF" points="148.6,196.62 181.596,210.711 181.636,223.303 145.672,202.523 								"/>
								<circle fill="#FFC1A0" cx="174.246" cy="168.749" r="4.78"/>
								<g>
									<path fill="#FFC1A0" d="M156.816,166.065c0,0-0.502,0.057-1.219,0.188c-0.353,0.072-0.749,0.185-1.063,0.394
										c-0.312,0.2-0.559,0.51-0.795,0.93c-0.469,0.866-0.759,1.781-0.799,2.468c-0.05,0.695,0.138,1.173,0.138,1.173
										s-0.104-0.066-0.261-0.23c-0.158-0.162-0.364-0.437-0.514-0.834c-0.309-0.792-0.325-2.046,0.307-3.207
										c0.315-0.584,0.866-1.106,1.479-1.296c0.604-0.198,1.13-0.13,1.524-0.044C156.403,165.805,156.816,166.065,156.816,166.065
										z"/>
								</g>
								<g>
									<g>
										<path fill="#3A3750" d="M138.399,140.459c0,0-0.184,0.434-0.511,1.205c-0.329,0.771-0.776,1.896-1.244,3.286
											c-0.914,2.767-1.911,6.726-1.174,10.837c0.714,4.115,2.992,7.483,4.935,9.616c0.977,1.076,1.869,1.884,2.51,2.418
											c0.65,0.525,1.016,0.82,1.016,0.82s-0.444-0.145-1.228-0.477c-0.781-0.336-1.892-0.896-3.156-1.794
											c-1.251-0.903-2.674-2.143-3.903-3.848c-1.236-1.684-2.301-3.839-2.721-6.289c-0.449-2.449-0.162-4.827,0.381-6.83
											c0.568-2.007,1.376-3.681,2.165-4.995c0.79-1.316,1.531-2.3,2.072-2.954C138.078,140.8,138.399,140.459,138.399,140.459z"
											/>
									</g>
									<g>
										<path fill="#3A3750" d="M145.408,144.217c0,0-0.12,0.287-0.328,0.788c-0.209,0.502-0.513,1.226-0.81,2.105
											c-0.301,0.888-0.545,1.896-0.644,3.054c-0.11,1.159-0.097,2.479-0.158,3.943c-0.071,1.458-0.146,2.665,0.021,3.78
											c0.152,1.125,0.462,2.17,0.772,3.05c0.309,0.882,0.616,1.604,0.826,2.106c0.21,0.5,0.331,0.787,0.331,0.787
											s-0.246-0.183-0.659-0.551c-0.412-0.369-0.998-0.919-1.625-1.709c-0.625-0.787-1.306-1.823-1.763-3.161
											c-0.483-1.347-0.562-2.959-0.486-4.414c0.062-1.455,0.211-2.927,0.602-4.254c0.377-1.336,1.027-2.457,1.647-3.246
											c0.623-0.803,1.206-1.355,1.617-1.724C145.164,144.402,145.408,144.217,145.408,144.217z"/>
									</g>
									<g>
										<path fill="#3A3750" d="M179.993,129.629c0,0,0.274,0.188,0.741,0.563c0.466,0.375,1.131,0.936,1.872,1.735
											c0.732,0.802,1.559,1.854,2.17,3.259c0.615,1.384,0.953,3.197,0.612,5.002c-0.315,1.806-1.2,3.385-2.294,4.503
											c-1.101,1.127-2.361,1.772-3.435,2.111c-1.081,0.343-1.989,0.38-2.594,0.364c-0.61-0.028-0.933-0.1-0.933-0.1
											s0.323-0.091,0.867-0.3c0.541-0.216,1.299-0.56,2.101-1.129c1.63-1.104,3.297-3.189,3.743-5.902
											c0.521-2.657-0.438-5.236-1.307-7.083c-0.437-0.925-0.837-1.679-1.114-2.203
											C180.149,129.927,179.993,129.629,179.993,129.629z"/>
									</g>
									<g>
										<path fill="#3A3750" d="M179.468,121.762c0,0,0.847,0.089,2.131,0.457c1.27,0.373,3.054,1.054,4.624,2.531
											c1.58,1.489,2.352,3.452,2.458,4.863c0.064,0.709,0.005,1.277-0.076,1.657c-0.079,0.379-0.152,0.578-0.152,0.578
											s-0.315-0.812-0.997-1.825c-0.674-1.026-1.747-2.198-3.014-3.401c-1.279-1.211-2.559-2.366-3.491-3.286
											C180.015,122.425,179.468,121.762,179.468,121.762z"/>
									</g>
								</g>
								<path fill="#FFFFFF" d="M188.864,148.452c-6.938-1.542-13.109,3.491-13.523,10.061l-18.871,2.421
									c-1.033,0.132-1.763,1.078-1.631,2.111l0,0c0.133,1.033,1.078,1.763,2.111,1.63l18.793-2.411
									c1.328,4.608,5.575,7.992,10.604,7.992c6.879,0,12.308-6.324,10.782-13.464C196.252,152.688,192.96,149.362,188.864,148.452
									z M186.347,166.485c-4.01,0-7.271-3.262-7.271-7.272c0-4.007,3.261-7.27,7.271-7.27s7.271,3.263,7.271,7.27
									C193.618,163.223,190.356,166.485,186.347,166.485z"/>
							</g>
						</g>
					</g>
				</g>
				<path fill="#FFDFC4" d="M215.398,336.777h42.812c0,0,0-7.655-2.121-9.068c-2.121-1.416-22.388-11.313-22.388-11.313
					l-20.345,3.787l-3.457,12.945L215.398,336.777z"/>
				<path fill="#00DE91" d="M208.652,304.694c-26.579,3.019-62.981,1.332-62.981,1.332l8.207-61.94
					c1.906-14.38-0.979-28.986-8.207-41.563l0,0c0,0-27.305,20.787-29.614,58.963c-2.309,38.178,1.933,61.036,6.175,69.873
					c2.841,5.92,52.411,5.797,84.838,5.066L208.652,304.694z"/>
				<polygon fill="#FFFFFF" points="208.318,308.98 218.393,308.15 215.398,336.777 207.071,336.426 				"/>
				<g>
					<g>
						<path fill="#00DE91" d="M203.855,349.789h53.239v14.375h-53.239c-3.005,0-5.441-2.436-5.441-5.44v-3.494
							C198.415,352.225,200.85,349.789,203.855,349.789z"/>
						<path fill="#FFFFFF" d="M204.95,352.345h52.145v9.074H204.95c-1.896,0-3.434-1.538-3.434-3.437v-2.204
							C201.516,353.88,203.053,352.345,204.95,352.345z"/>
					</g>
					<g>
						<g>
							<path fill="#FF7292" d="M253.978,349.789h-53.24v-14.377h53.24c3.004,0,5.44,2.436,5.44,5.439v3.498
								C259.417,347.354,256.982,349.789,253.978,349.789z"/>
							<path fill="#FFFFFF" d="M252.883,347.233h-52.146v-9.074h52.146c1.896,0,3.434,1.539,3.434,3.434v2.207
								C256.316,345.695,254.779,347.233,252.883,347.233z"/>
						</g>
						<polygon fill="#242143" points="248.815,350.299 245.477,348.412 242.138,350.299 242.138,342.602 248.815,342.602 						"/>
					</g>
				</g>
			</g>
			<g>
				<g>
					<g>
						<path fill="#211E40" d="M158.266,545.036H74.917c-4.48,0-8.113-3.632-8.113-8.113v-34.465h99.576v34.465
							C166.379,541.404,162.747,545.036,158.266,545.036z"/>
					</g>
				</g>
				<path fill="#3A3750" d="M137.044,458.737v-3.11c0-6.12-4.979-11.101-11.101-11.101H107.24c-6.122,0-11.101,4.98-11.101,11.101
					v3.11H62.494v47.995c0,4.481,3.632,8.113,8.113,8.113h91.969c4.481,0,8.113-3.632,8.113-8.113v-47.995H137.044z
					 M101.548,455.627c0-3.138,2.554-5.69,5.692-5.69h18.703c3.139,0,5.692,2.553,5.692,5.69v3.11h-30.087V455.627z"/>
				<rect x="107.887" y="509.099" fill="#FFCB45" width="17.41" height="11.663"/>
			</g>
		</g>
		<g>
			<path fill="#D3D3D3" d="M690.172,546.756c0,0-24.474,4.369-54.664,4.369s-54.664-4.369-54.664-4.369s24.474-4.367,54.664-4.367
				S690.172,546.756,690.172,546.756z"/>
			<g>
				<g>
					<g>
						<g>
							<path fill="#00DE91" d="M623.493,420.978c11.068,11.069,9.11,30.957,9.11,30.957s-19.898,1.967-30.968-9.1
								c-11.066-11.069-9.101-30.968-9.101-30.968S612.425,409.911,623.493,420.978z"/>
							<path fill="#00C685" d="M592.535,411.867l40.068,40.067c0,0-19.898,1.967-30.968-9.1
								C590.569,431.766,592.535,411.867,592.535,411.867z"/>
						</g>
						<g>
							<path fill="#00DE91" d="M646.184,420.978c-11.066,11.069-9.109,30.957-9.109,30.957s19.897,1.967,30.968-9.1
								c11.066-11.069,9.101-30.968,9.101-30.968S657.254,409.911,646.184,420.978z"/>
							<path fill="#00C685" d="M677.143,411.867l-40.068,40.067c0,0,19.897,1.967,30.968-9.1
								C679.108,431.766,677.143,411.867,677.143,411.867z"/>
						</g>
					</g>
					<g>
						<g>
							<path fill="#00DE91" d="M625.5,382.334c9.11,9.111,7.499,25.483,7.499,25.483s-16.38,1.619-25.49-7.491
								s-7.492-25.491-7.492-25.491S616.39,373.225,625.5,382.334z"/>
							<path fill="#00C685" d="M600.017,374.835l32.982,32.982c0,0-16.38,1.619-25.49-7.491S600.017,374.835,600.017,374.835z"/>
						</g>
						<g>
							<path fill="#00DE91" d="M644.178,382.334c-9.11,9.111-7.5,25.483-7.5,25.483s16.38,1.619,25.492-7.491
								c9.11-9.11,7.491-25.491,7.491-25.491S653.288,373.225,644.178,382.334z"/>
							<path fill="#00C685" d="M669.661,374.835l-32.983,32.982c0,0,16.38,1.619,25.492-7.491
								C671.28,391.216,669.661,374.835,669.661,374.835z"/>
						</g>
					</g>
					<g>
						<g>
							<path fill="#00DE91" d="M628.041,351.606c6.631,6.63,5.459,18.55,5.459,18.55s-11.923,1.176-18.555-5.454
								c-6.631-6.633-5.453-18.556-5.453-18.556S621.408,344.974,628.041,351.606z"/>
							<path fill="#00C685" d="M609.492,346.146l24.008,24.01c0,0-11.923,1.176-18.555-5.454
								C608.314,358.069,609.492,346.146,609.492,346.146z"/>
						</g>
						<g>
							<path fill="#00DE91" d="M641.636,351.606c-6.63,6.63-5.458,18.55-5.458,18.55s11.924,1.176,18.554-5.454
								c6.632-6.633,5.454-18.556,5.454-18.556S648.269,344.974,641.636,351.606z"/>
							<path fill="#00C685" d="M660.186,346.146l-24.008,24.01c0,0,11.924,1.176,18.554-5.454
								C661.363,358.069,660.186,346.146,660.186,346.146z"/>
						</g>
					</g>
					<rect x="632.604" y="341.39" fill="#00C685" width="4.471" height="137.212"/>
					<g>
						<g>
							<path fill="#00DE91" d="M630.867,329.531c4.794,4.794,3.946,13.41,3.946,13.41s-8.618,0.851-13.413-3.943
								c-4.794-4.793-3.94-13.413-3.94-13.413S626.074,324.738,630.867,329.531z"/>
							<path fill="#00C685" d="M617.46,325.585l17.354,17.356c0,0-8.618,0.851-13.413-3.943
								C616.606,334.205,617.46,325.585,617.46,325.585z"/>
						</g>
						<g>
							<path fill="#00DE91" d="M638.81,329.531c-4.793,4.794-3.946,13.41-3.946,13.41s8.62,0.851,13.414-3.943
								c4.793-4.793,3.941-13.413,3.941-13.413S643.604,324.738,638.81,329.531z"/>
							<path fill="#00C685" d="M652.219,325.585l-17.355,17.356c0,0,8.62,0.851,13.414-3.943
								C653.07,334.205,652.219,325.585,652.219,325.585z"/>
						</g>
					</g>
				</g>
				<g>
					<polygon fill="#3B4182" points="659.511,546.995 610.166,546.995 598.942,485.234 670.735,485.234 					"/>
					<rect x="590.645" y="477.072" fill="#444A97" width="88.389" height="16.325"/>
				</g>
			</g>
		</g>
	</g>
	<g>
		<g>
			<path fill="#FFFFFF" d="M643.784,43.044H445.252c-3.594,0-6.507,2.913-6.507,6.507v59.019c0,3.594,2.913,6.507,6.507,6.507
				h14.787v27.518l27.518-27.518h156.228c3.594,0,6.508-2.913,6.508-6.507V49.551C650.292,45.957,647.378,43.044,643.784,43.044z"/>
			<g>
				<rect x="460.039" y="56.829" fill="#D0D0DD" width="89.86" height="8.893"/>
				<rect x="460.039" y="74.263" fill="#D0D0DD" width="168.958" height="9.361"/>
				<rect x="460.039" y="91.931" fill="#D0D0DD" width="141.87" height="9.361"/>
			</g>
		</g>
		<g>
			<g>
				<g>
					<g>
						<g>
							<polygon fill="#FFCB45" points="399.707,74.092 322.31,74.092 322.31,160.141 381.917,160.141 399.707,143.031 							"/>
							<polygon fill="#FFA127" points="381.917,160.141 399.707,143.031 381.917,143.031 							"/>
						</g>
						<g>
							<rect x="332.465" y="86.018" fill="#FFA127" width="57.088" height="4.932"/>
							<rect x="332.465" y="96.793" fill="#FFA127" width="57.088" height="4.931"/>
							<rect x="332.465" y="107.569" fill="#FFA127" width="57.088" height="4.932"/>
							<rect x="332.465" y="118.345" fill="#FFA127" width="57.088" height="4.931"/>
							<rect x="332.465" y="129.121" fill="#FFA127" width="57.088" height="4.931"/>
						</g>
					</g>
					<circle fill="#FFFFFF" cx="361.009" cy="74.092" r="5.207"/>
				</g>
				<g>
					<g>
						<g>
							<rect x="238.174" y="106.88" fill="#FFCB45" width="77.397" height="86.048"/>
						</g>
						<g>
							<rect x="248.329" y="118.806" fill="#FFA127" width="57.087" height="4.931"/>
							<rect x="248.329" y="129.582" fill="#FFA127" width="57.087" height="4.932"/>
							<rect x="248.329" y="140.357" fill="#FFA127" width="57.087" height="4.931"/>
							<rect x="248.329" y="151.133" fill="#FFA127" width="57.087" height="4.932"/>
							<rect x="248.329" y="161.909" fill="#FFA127" width="57.087" height="4.931"/>
						</g>
					</g>
					<circle fill="#FFFFFF" cx="276.873" cy="106.88" r="5.207"/>
				</g>
			</g>
			<g>
				<rect x="84.585" y="163.829" fill="#444A97" width="22.091" height="22.091"/>
				<rect x="62.494" y="190.62" fill="#FFA127" width="22.092" height="22.091"/>
			</g>
			<g>
				<g>
					<rect x="113.255" y="9.633" fill="#FFFFFF" width="50.074" height="22.232"/>
					<g>
						<rect x="83.882" y="39.044" fill="#FFFFFF" width="50.073" height="22.231"/>
						<rect x="142.463" y="39.044" fill="#FFFFFF" width="50.074" height="22.231"/>
					</g>
				</g>
				<g>
					<rect x="584.293" y="224.956" fill="#FFFFFF" width="50.073" height="22.231"/>
					<g>
						<rect x="613.667" y="195.545" fill="#FFFFFF" width="50.071" height="22.231"/>
						<rect x="555.083" y="195.545" fill="#FFFFFF" width="50.075" height="22.231"/>
					</g>
				</g>
			</g>
		</g>
	</g>
</g>
</svg>
