<?xml version="1.0" encoding="utf-8"?>
<!-- Generator: Adobe Illustrator 16.0.0, SVG Export Plug-In . SVG Version: 6.00 Build 0)  -->
<!DOCTYPE svg PUBLIC "-//W3C//DTD SVG 1.1//EN" "http://www.w3.org/Graphics/SVG/1.1/DTD/svg11.dtd">
<svg version="1.1" id="Layer_1" xmlns="http://www.w3.org/2000/svg" xmlns:xlink="http://www.w3.org/1999/xlink" x="0px" y="0px"
	 width="631.468px" height="560px" viewBox="0 0 631.468 560" enable-background="new 0 0 631.468 560" xml:space="preserve">
<g>
	<g>
		<ellipse fill="#D9E4F5" cx="311.125" cy="452.058" rx="296.689" ry="35.516"/>
	</g>
	<g>
		<path fill="#D9E4F5" d="M161.272,36.999c0,1.402-0.571,2.681-1.502,3.606c-0.92,0.931-2.198,1.502-3.601,1.502H46.958
			c-2.805,0-5.103-2.298-5.103-5.108c0-1.403,0.571-2.681,1.502-3.606c0.92-0.931,2.198-1.503,3.601-1.503h5.162
			c2.039-4.737,6.747-8.049,12.227-8.049c3.689,0,7.023,1.502,9.44,3.924c3.217-5.456,9.151-9.122,15.944-9.122
			c1.868,0,3.666,0.283,5.363,0.795c3.553-6.682,10.577-11.231,18.673-11.231c9.723,0,17.902,6.564,20.371,15.497
			c1.792-0.896,3.813-1.408,5.957-1.408c6.063,0,11.179,4.048,12.787,9.592h3.288C158.975,31.89,161.272,34.188,161.272,36.999z"/>
		<path fill="#D9E4F5" d="M554.104,39.424c0,1.403-0.571,2.682-1.501,3.606c-0.92,0.931-2.199,1.502-3.601,1.502H439.79
			c-2.806,0-5.104-2.298-5.104-5.109c0-1.402,0.571-2.681,1.503-3.605c0.918-0.931,2.197-1.503,3.601-1.503h5.161
			c2.039-4.737,6.748-8.049,12.228-8.049c3.688,0,7.023,1.502,9.44,3.924c3.217-5.457,9.15-9.121,15.944-9.121
			c1.867,0,3.665,0.283,5.361,0.795c3.554-6.682,10.578-11.231,18.674-11.231c9.723,0,17.902,6.565,20.371,15.497
			c1.791-0.896,3.812-1.408,5.956-1.408c6.064,0,11.18,4.049,12.787,9.593h3.289C551.806,34.315,554.104,36.614,554.104,39.424z"/>
		<path fill="#D9E4F5" d="M376.289,73.621c0,1.403-0.571,2.681-1.502,3.606c-0.919,0.932-2.198,1.503-3.601,1.503H261.975
			c-2.805,0-5.103-2.298-5.103-5.109c0-1.402,0.572-2.681,1.502-3.606c0.919-0.931,2.198-1.502,3.601-1.502h5.162
			c2.039-4.738,6.747-8.049,12.227-8.049c3.688,0,7.023,1.503,9.44,3.925c3.217-5.457,9.15-9.122,15.945-9.122
			c1.868,0,3.666,0.283,5.362,0.796c3.553-6.682,10.578-11.231,18.673-11.231c9.724,0,17.902,6.564,20.371,15.497
			c1.791-0.896,3.813-1.408,5.957-1.408c6.063,0,11.178,4.048,12.787,9.593h3.287C373.992,68.512,376.289,70.811,376.289,73.621z"/>
	</g>
	<g>
		<g>
			<path fill="#C7D9ED" d="M514.845,275.812c6.264-11.194,18.242-34.695,23.395-58.964c7.697-36.263,24.846-37.86,31.111-27.479
				c17.209,28.512-29.384,77.386-44.19,91.808L514.845,275.812z"/>
			<g>
				<path fill="#B4CAE3" d="M518.772,277.854c11.472-14.637,20.174-30.69,25.813-42.535c7.487-15.728,11.34-27.63,11.379-27.751
					c0.136-0.427,0.595-0.663,1.023-0.523c0.429,0.136,0.663,0.595,0.524,1.022c-0.036,0.119-3.916,12.105-11.445,27.927
					c-5.646,11.866-14.35,27.928-25.826,42.622L518.772,277.854z"/>
			</g>
		</g>
		<g>
			<path fill="#C7D9ED" d="M103.955,382.688c-5.746-11.467-16.641-35.49-20.681-59.97c-6.035-36.575-23.093-38.954-29.825-28.868
				c-18.491,27.696,25.823,78.645,39.957,93.728L103.955,382.688z"/>
			<g>
				<path fill="#B4CAE3" d="M99.938,384.549c-10.792-15.145-18.753-31.578-23.846-43.668c-6.763-16.053-10.068-28.119-10.101-28.241
					c-0.117-0.433-0.565-0.688-1-0.569c-0.434,0.116-0.69,0.563-0.571,0.998c0.031,0.12,3.361,12.271,10.16,28.42
					c5.099,12.11,13.062,28.554,23.856,43.756L99.938,384.549z"/>
			</g>
		</g>
		<g>
			<path fill="#D9E4F5" d="M117.987,416.026c-12.406-12.504-39.504-41.813-56.575-75.085c-24.5-47.75-49.066-43.482-53.886-26.603
				C-4.94,357.996,68.49,405.441,98.938,422.968L117.987,416.026z"/>
			<g>
				<path fill="#C7D9ED" d="M111.282,418.47c-21.379-16.033-39.454-35-51.735-49.313C43.123,350.02,33.23,334.848,33.13,334.694
					c-0.353-0.544-1.083-0.7-1.629-0.343c-0.547,0.352-0.703,1.082-0.347,1.627c0.096,0.152,10.06,15.431,26.578,34.684
					c12.132,14.143,29.888,32.804,50.912,48.769L111.282,418.47z"/>
			</g>
		</g>
		<g>
			<path fill="#D9E4F5" d="M506.036,298.558c12.963-11.926,41.368-39.966,59.94-72.426c26.65-46.584,50.998-41.2,55.042-24.118
				c10.464,44.18-65.055,88.228-96.27,104.347L506.036,298.558z"/>
			<g>
				<path fill="#C7D9ED" d="M512.622,301.304c22.089-15.041,41.009-33.164,53.93-46.901c17.28-18.37,27.855-33.073,27.962-33.222
					c0.378-0.527,1.114-0.649,1.643-0.269c0.531,0.376,0.653,1.114,0.272,1.643c-0.104,0.148-10.754,14.955-28.131,33.436
					c-12.766,13.575-31.354,31.405-53.084,46.396L512.622,301.304z"/>
			</g>
		</g>
		<g>
			<path fill="#D9E4F5" d="M133.1,226.023c-12.839-7.65-41.307-25.999-62.375-49.727c-30.234-34.054-49.518-25.348-49.907-10.458
				c-1.006,38.511,69.371,61.96,98.099,69.918L133.1,226.023z"/>
			<g>
				<path fill="#C7D9ED" d="M128.107,229.449c-20.959-8.65-39.825-20.412-52.945-29.573c-17.545-12.251-28.884-22.624-28.999-22.729
					c-0.406-0.372-1.038-0.345-1.412,0.063c-0.375,0.405-0.348,1.039,0.06,1.411c0.112,0.105,11.532,10.55,29.177,22.876
					c12.962,9.054,31.5,20.63,52.154,29.301L128.107,229.449z"/>
			</g>
		</g>
		<path fill="#C7D9ED" d="M202.275,78.783c2.132-19.965,0.472-39.261-9.464-34.502c-9.945,4.764-6.46,37.915,7.063,59.783
			l2.821,8.539c-9.577-16.108-28.684-29.755-36.527-24.654c-7.793,5.069,5.751,12.999,19.33,18.177
			c10.336,3.942,16.199,8.892,18.921,11.696l13.324,40.328c-15.238-25.465-45.42-46.974-57.829-38.903
			c-12.366,8.043,9.125,20.625,30.67,28.842c16.281,6.209,25.574,13.999,29.936,18.465l2.656,8.041
			c1.467-0.241,2.932-0.492,4.395-0.752l-15.851-47.979c1.065-4.119,3.177-9.758,7.364-16.316
			c7.82-12.249,13.975-26.686,4.696-26.114c-8.053,0.496-14.529,17.181-14.938,33.72l-5.481-16.593
			C202.541,95.138,201.354,87.4,202.275,78.783z"/>
		<path fill="#D9E4F5" d="M588.453,299.268c5.389-19.341,14.056-36.662,21.533-28.571c7.484,8.099-7.994,37.622-28.636,52.951
			l-5.774,6.895c14.847-11.435,37.644-17.063,43.049-9.427c5.371,7.588-10.144,9.957-24.676,9.757
			c-11.061-0.152-18.337,2.283-21.902,3.884l-27.271,32.559c23.563-18.039,59.554-26.886,68.106-14.803
			c8.522,12.039-16.096,15.798-39.152,15.479c-17.423-0.238-28.936,3.569-34.638,6.108l-5.438,6.493
			c-1.272-0.767-2.542-1.54-3.806-2.322l32.445-38.735c0.531-4.222,0.65-10.242-0.819-17.883
			c-2.746-14.271-3.135-29.96,5.277-26.003c7.301,3.435,7.159,21.331,1.433,36.853l11.221-13.396
			C582.168,314.369,586.127,307.615,588.453,299.268z"/>
	</g>
	<g>
		<g>
			<g>
				<g>
					<g>
						<path fill="#007EFF" d="M559.94,150.45c-3.563,0-6.464-2.9-6.464-6.464c0-3.564,2.9-6.464,6.464-6.464
							c3.564,0,6.465,2.9,6.465,6.464C566.405,147.55,563.505,150.45,559.94,150.45z M559.94,139.55
							c-2.445,0-4.436,1.99-4.436,4.436c0,2.446,1.99,4.436,4.436,4.436c2.446,0,4.438-1.99,4.438-4.436
							C564.378,141.54,562.387,139.55,559.94,139.55z"/>
					</g>
					<g>
						<g>
							<path fill="#0060E6" d="M592.794,157.025c-3.564,0-6.465-2.899-6.465-6.463c0-3.565,2.9-6.464,6.465-6.464
								c3.563,0,6.464,2.899,6.464,6.464C599.258,154.126,596.357,157.025,592.794,157.025z M592.794,146.125
								c-2.446,0-4.436,1.989-4.436,4.437c0,2.446,1.989,4.436,4.436,4.436c2.445,0,4.436-1.99,4.436-4.436
								C597.229,148.115,595.239,146.125,592.794,146.125z"/>
						</g>
					</g>
					<g>
						<g>
							<g>
								<path fill="#007EFF" d="M608.36,170.224c-0.56,0-1.014-0.454-1.014-1.014v-4.472c0-0.56,0.454-1.014,1.014-1.014
									s1.015,0.454,1.015,1.014v4.472C609.375,169.77,608.92,170.224,608.36,170.224z"/>
							</g>
							<g>
								<path fill="#007EFF" d="M608.36,178.049c-0.56,0-1.014-0.455-1.014-1.014v-4.472c0-0.56,0.454-1.014,1.014-1.014
									s1.015,0.454,1.015,1.014v4.472C609.375,177.595,608.92,178.049,608.36,178.049z"/>
							</g>
						</g>
						<g>
							<g>
								<path fill="#007EFF" d="M614.638,171.901h-4.018c-0.56,0-1.015-0.455-1.015-1.015c0-0.561,0.455-1.014,1.015-1.014h4.018
									c0.56,0,1.013,0.453,1.013,1.014C615.65,171.447,615.197,171.901,614.638,171.901z"/>
							</g>
							<g>
								<path fill="#007EFF" d="M606.102,171.901h-4.018c-0.56,0-1.014-0.455-1.014-1.015c0-0.561,0.454-1.014,1.014-1.014h4.018
									c0.56,0,1.013,0.453,1.013,1.014C607.114,171.447,606.661,171.901,606.102,171.901z"/>
							</g>
						</g>
					</g>
					<g>
						<g>
							<g>
								<g>
									<path fill="#0060E6" d="M573.836,162.932c-0.56,0-1.015-0.454-1.015-1.014v-4.472c0-0.56,0.455-1.014,1.015-1.014
										s1.015,0.454,1.015,1.014v4.472C574.851,162.478,574.396,162.932,573.836,162.932z"/>
								</g>
								<g>
									<path fill="#0060E6" d="M573.836,170.758c-0.56,0-1.015-0.455-1.015-1.015v-4.471c0-0.56,0.455-1.014,1.015-1.014
										s1.015,0.454,1.015,1.014v4.471C574.851,170.303,574.396,170.758,573.836,170.758z"/>
								</g>
							</g>
							<g>
								<g>
									<path fill="#0060E6" d="M580.111,164.609h-4.016c-0.56,0-1.015-0.454-1.015-1.014c0-0.56,0.455-1.014,1.015-1.014h4.016
										c0.562,0,1.015,0.454,1.015,1.014C581.126,164.155,580.673,164.609,580.111,164.609z"/>
								</g>
								<g>
									<path fill="#0060E6" d="M571.576,164.609h-4.017c-0.56,0-1.015-0.454-1.015-1.014c0-0.56,0.455-1.014,1.015-1.014h4.017
										c0.56,0,1.014,0.454,1.014,1.014C572.59,164.155,572.136,164.609,571.576,164.609z"/>
								</g>
							</g>
						</g>
					</g>
				</g>
			</g>
		</g>
		<g>
			<g>
				<g>
					<g>
						<path fill="#007EFF" d="M33.477,272.636c0,3.564-2.899,6.464-6.463,6.464s-6.464-2.9-6.464-6.464s2.9-6.464,6.464-6.464
							S33.477,269.072,33.477,272.636z M22.577,272.636c0,2.446,1.99,4.436,4.437,4.436c2.446,0,4.436-1.99,4.436-4.436
							s-1.99-4.437-4.436-4.437C24.567,268.199,22.577,270.19,22.577,272.636z"/>
					</g>
					<g>
						<g>
							<path fill="#0060E6" d="M40.053,239.783c0,3.564-2.899,6.464-6.463,6.464c-3.565,0-6.464-2.9-6.464-6.464
								s2.899-6.464,6.464-6.464C37.154,233.318,40.053,236.219,40.053,239.783z M29.153,239.783c0,2.446,1.99,4.436,4.437,4.436
								c2.446,0,4.436-1.99,4.436-4.436c0-2.446-1.99-4.436-4.436-4.436C31.143,235.347,29.153,237.336,29.153,239.783z"/>
						</g>
					</g>
					<g>
						<g>
							<g>
								<path fill="#007EFF" d="M53.252,224.215c0,0.56-0.454,1.014-1.014,1.014h-4.471c-0.56,0-1.015-0.454-1.015-1.014
									c0-0.56,0.455-1.014,1.015-1.014h4.471C52.798,223.202,53.252,223.656,53.252,224.215z"/>
							</g>
							<g>
								<path fill="#007EFF" d="M61.077,224.215c0,0.56-0.454,1.014-1.014,1.014h-4.472c-0.56,0-1.014-0.454-1.014-1.014
									c0-0.56,0.454-1.014,1.014-1.014h4.472C60.623,223.202,61.077,223.656,61.077,224.215z"/>
							</g>
						</g>
						<g>
							<g>
								<path fill="#007EFF" d="M54.929,217.939v4.017c0,0.56-0.454,1.014-1.014,1.014c-0.56,0-1.014-0.454-1.014-1.014v-4.017
									c0-0.56,0.454-1.015,1.014-1.015C54.475,216.925,54.929,217.379,54.929,217.939z"/>
							</g>
							<g>
								<path fill="#007EFF" d="M54.929,226.476v4.017c0,0.56-0.454,1.014-1.014,1.014c-0.56,0-1.014-0.454-1.014-1.014v-4.017
									c0-0.561,0.454-1.015,1.014-1.015C54.475,225.461,54.929,225.915,54.929,226.476z"/>
							</g>
						</g>
					</g>
					<g>
						<g>
							<g>
								<g>
									<path fill="#0060E6" d="M45.96,258.741c0,0.56-0.454,1.014-1.014,1.014h-4.472c-0.56,0-1.014-0.455-1.014-1.014
										c0-0.56,0.454-1.015,1.014-1.015h4.472C45.506,257.726,45.96,258.181,45.96,258.741z"/>
								</g>
								<g>
									<path fill="#0060E6" d="M53.785,258.741c0,0.56-0.454,1.014-1.014,1.014H48.3c-0.561,0-1.014-0.455-1.014-1.014
										c0-0.56,0.454-1.015,1.014-1.015h4.471C53.332,257.726,53.785,258.181,53.785,258.741z"/>
								</g>
							</g>
							<g>
								<g>
									<path fill="#0060E6" d="M47.637,252.464v4.017c0,0.56-0.454,1.015-1.014,1.015s-1.014-0.455-1.014-1.015v-4.017
										c0-0.56,0.454-1.014,1.014-1.014S47.637,251.904,47.637,252.464z"/>
								</g>
								<g>
									<path fill="#0060E6" d="M47.637,261v4.016c0,0.56-0.454,1.015-1.014,1.015s-1.014-0.455-1.014-1.015V261
										c0-0.56,0.454-1.014,1.014-1.014S47.637,260.441,47.637,261z"/>
								</g>
							</g>
						</g>
					</g>
				</g>
			</g>
		</g>
	</g>
	<g>
		<g>
			<g>
				<g>
					<g>
						<path fill="#00A0FF" d="M73.622,90.832c-0.271-1.375-0.813-2.702-1.618-3.886c-0.533-0.792-1.183-1.519-1.944-2.156
							c-4.488-3.76-11.179-3.163-14.928,1.333c-2.89,3.469-3.188,8.24-1.106,11.958l-11.926,14.305
							c-1.011,1.212-0.849,3.018,0.365,4.03l1.371,1.143c0.73,0.61,1.537,1.119,2.397,1.516c0.858,0.396,1.768,0.683,2.708,0.846
							c0.638,0.112,1.214-0.144,1.576-0.58c0.361-0.433,0.512-1.045,0.289-1.656L49.8,114.95l2.871,0.498
							c0.636,0.115,1.213-0.143,1.575-0.577c0.36-0.434,0.51-1.047,0.289-1.656l-1.007-2.733l2.871,0.498
							c0.637,0.112,1.21-0.145,1.575-0.58c0.361-0.434,0.513-1.046,0.289-1.656l-1.008-2.731l2.579-3.095
							c1.691,0.581,3.486,0.713,5.218,0.417c2.494-0.425,4.853-1.746,6.549-3.91c0.171-0.218,0.333-0.44,0.482-0.671
							c0.188-0.278,0.357-0.563,0.512-0.855C73.766,95.703,74.093,93.194,73.622,90.832z M62.314,88.346
							c1.3-1.562,3.62-1.773,5.177-0.472c0.221,0.184,0.415,0.386,0.578,0.607c1.011,1.331,1.007,3.231-0.109,4.571
							c-0.118,0.141-0.245,0.271-0.379,0.391c-0.33,0.295-0.704,0.522-1.103,0.677c-0.057,0.022-0.117,0.045-0.178,0.063
							c-0.271,0.092-0.55,0.149-0.833,0.174c-0.084,0.009-0.17,0.014-0.254,0.015c-0.086,0.002-0.172,0.002-0.259-0.004
							c-0.075-0.001-0.15-0.008-0.227-0.018c-0.078-0.008-0.157-0.02-0.235-0.033c-0.006,0-0.013-0.002-0.021-0.003
							c-0.067-0.012-0.134-0.026-0.199-0.045c-0.057-0.01-0.112-0.025-0.167-0.042c-0.05-0.014-0.102-0.03-0.15-0.048
							c-0.074-0.023-0.149-0.049-0.222-0.083c-0.101-0.04-0.201-0.085-0.297-0.138c-0.229-0.117-0.449-0.264-0.656-0.436
							c-1.416-1.182-1.717-3.207-0.785-4.734C62.091,88.634,62.195,88.486,62.314,88.346z"/>
						<path fill="#007EFF" d="M56.015,103.67L56.015,103.67c0.204,0.17,0.232,0.476,0.062,0.68l-9.371,11.239
							c-0.169,0.204-0.476,0.231-0.679,0.062l0,0c-0.204-0.17-0.232-0.476-0.062-0.68l9.371-11.239
							C55.506,103.527,55.811,103.5,56.015,103.67z"/>
						<path fill="#007EFF" d="M53.915,101.919L53.915,101.919c0.204,0.17,0.232,0.476,0.062,0.679l-9.371,11.239
							c-0.169,0.204-0.476,0.232-0.679,0.062l0,0c-0.204-0.17-0.232-0.476-0.062-0.68l9.371-11.238
							C53.406,101.777,53.711,101.75,53.915,101.919z"/>
					</g>
					<path fill="#007EFF" d="M67.582,93.443c-0.093,0.153-0.199,0.301-0.314,0.442c-0.954,1.143-2.455,1.562-3.801,1.189
						c-0.491-0.133-0.96-0.373-1.377-0.72c-1.56-1.302-1.769-3.618-0.469-5.179c0.118-0.14,0.243-0.269,0.377-0.388
						c-0.933,1.527-0.631,3.552,0.785,4.734c0.207,0.172,0.426,0.319,0.656,0.436c0.096,0.052,0.196,0.098,0.297,0.138
						c0.073,0.034,0.148,0.06,0.222,0.083c0.048,0.018,0.1,0.034,0.15,0.048c0.055,0.017,0.11,0.032,0.167,0.042
						c0.064,0.019,0.131,0.033,0.199,0.045c0.008,0.001,0.015,0.003,0.021,0.003c0.078,0.014,0.157,0.025,0.235,0.033
						c0.077,0.01,0.152,0.017,0.227,0.018c0.084,0.005,0.171,0.006,0.259,0.004c0.084,0,0.17-0.006,0.254-0.015
						c0.283-0.025,0.561-0.083,0.833-0.174c0.061-0.019,0.121-0.041,0.178-0.063C66.877,93.965,67.252,93.738,67.582,93.443z"/>
					<path fill="#007EFF" d="M70.322,94.844c-0.019-0.179-0.023-0.359-0.015-0.543c0.097-1.844,1.534-3.299,3.315-3.469
						c-0.271-1.375-0.813-2.702-1.618-3.886c-1.427,0.243-2.761,0.774-3.935,1.536c1.011,1.331,1.007,3.231-0.109,4.571
						c-0.118,0.141-0.245,0.271-0.379,0.391c-0.33,0.295-0.704,0.522-1.103,0.677c-0.057,0.022-0.117,0.045-0.178,0.063
						c-0.271,0.092-0.55,0.149-0.833,0.174c-0.084,0.009-0.17,0.014-0.254,0.015c-0.088,0.002-0.175,0.001-0.259-0.004
						c-0.075-0.001-0.15-0.008-0.227-0.018c-0.078-0.008-0.157-0.02-0.235-0.033c-0.006,0-0.013-0.002-0.021-0.003
						c-0.067-0.012-0.134-0.026-0.199-0.045c-0.057-0.01-0.112-0.025-0.167-0.042c-0.05-0.014-0.102-0.03-0.15-0.048
						c-0.074-0.023-0.149-0.049-0.222-0.083c-0.105,0.319-0.194,0.647-0.269,0.979c-0.124,0.568-0.206,1.152-0.237,1.751
						c-0.125,2.402,0.563,4.661,1.821,6.509c2.494-0.425,4.853-1.746,6.549-3.91c0.171-0.218,0.333-0.44,0.482-0.671
						c0.188-0.278,0.357-0.563,0.512-0.855C71.344,97.389,70.45,96.219,70.322,94.844z"/>
				</g>
				<g>
					<g>
						<path fill="#00A0FF" d="M86.644,98.18c0.124-5.667-4.344-10.482-10.006-10.792c-5.848-0.319-10.842,4.171-11.147,10.017
							c-0.235,4.506,2.387,8.505,6.283,10.23l-0.971,18.6c-0.082,1.577,1.13,2.925,2.708,3.008l1.782,0.093
							c0.952,0.05,1.903-0.026,2.828-0.224c0.926-0.199,1.826-0.514,2.675-0.948c0.578-0.293,0.884-0.843,0.914-1.409
							c0.029-0.563-0.218-1.144-0.762-1.499l-2.444-1.584l2.596-1.321c0.578-0.291,0.884-0.843,0.914-1.407
							c0.029-0.563-0.218-1.144-0.762-1.499l-2.444-1.584l2.596-1.323c0.578-0.293,0.884-0.842,0.914-1.409
							c0.029-0.563-0.218-1.144-0.762-1.499l-2.444-1.581l0.21-4.022C83.47,106.688,86.541,102.836,86.644,98.18z M79.841,95.801
							c-0.353,1.754-1.951,3.035-3.793,2.939c-1.843-0.096-3.299-1.537-3.466-3.318c-0.018-0.18-0.023-0.361-0.013-0.544
							c0.106-2.028,1.834-3.587,3.863-3.482c2.028,0.106,3.585,1.837,3.479,3.866C79.9,95.444,79.876,95.624,79.841,95.801z"/>
						<path fill="#007EFF" d="M76.714,110.92L76.714,110.92c0.265,0.014,0.471,0.242,0.457,0.506l-0.762,14.613
							c-0.014,0.265-0.242,0.47-0.507,0.457l0,0c-0.265-0.014-0.471-0.242-0.457-0.507l0.763-14.613
							C76.222,111.111,76.45,110.906,76.714,110.92z"/>
						<path fill="#007EFF" d="M73.985,110.777L73.985,110.777c0.265,0.015,0.47,0.242,0.457,0.507l-0.762,14.613
							c-0.015,0.265-0.242,0.471-0.507,0.457l0,0c-0.265-0.014-0.47-0.242-0.457-0.507l0.762-14.613
							C73.491,110.969,73.72,110.763,73.985,110.777z"/>
					</g>
					<path fill="#007EFF" d="M79.853,96.342c-0.105,2.028-1.836,3.585-3.862,3.479c-2.028-0.105-3.585-1.834-3.48-3.863
						c0.01-0.183,0.034-0.363,0.07-0.537c0.167,1.782,1.624,3.222,3.466,3.318c1.843,0.096,3.441-1.186,3.793-2.939
						C79.857,95.978,79.863,96.159,79.853,96.342z"/>
				</g>
				<g>
					<g>
						<path fill="#3B3E7D" d="M78.829,73.527c-6.163-2.624-13.313,0.253-15.937,6.417c-0.339,0.797-0.587,1.614-0.746,2.434
							c1.528-0.164,3.092,0.004,4.571,0.516c0.095-0.388,0.223-0.776,0.386-1.157c1.635-3.841,6.092-5.634,9.933-3.999
							c3.843,1.636,5.637,6.092,4.001,9.932c-0.112,0.264-0.239,0.519-0.377,0.764c1.405,0.685,2.636,1.672,3.61,2.873
							c0.373-0.575,0.701-1.191,0.979-1.843C87.873,83.3,84.992,76.152,78.829,73.527z M77.297,91.549
							c-1.065,0.505-2.247,0.758-3.446,0.727c-0.015-0.001-0.028-0.002-0.043-0.003c-0.906-0.03-1.82-0.225-2.704-0.602
							c-0.854-0.364-1.607-0.868-2.243-1.471c-0.033-0.033-0.065-0.062-0.096-0.094c-0.74-0.729-1.315-1.596-1.701-2.541
							c-1.476-0.911-3.422-0.664-4.624,0.634c0.673,2.231,1.978,4.258,3.802,5.797c0.058,0.048,0.116,0.097,0.177,0.144
							c0.106,0.087,0.214,0.172,0.325,0.256c0.776,0.587,1.633,1.088,2.567,1.485c1.062,0.452,2.153,0.742,3.247,0.877
							c0.146,0.018,0.294,0.034,0.441,0.046c0.03,0.003,0.063,0.006,0.094,0.006c2.384,0.194,4.751-0.333,6.809-1.457
							c0.006-0.032,0.006-0.063,0.008-0.093C79.999,93.534,78.883,92.023,77.297,91.549z"/>
					</g>
				</g>
			</g>
			<g>
				<g>
					<path fill="#B4CAE3" d="M28.481,137.183h-2.789c-0.725,0-1.313-0.588-1.313-1.313v-2.789c0-0.725,0.587-1.312,1.313-1.312
						c0.725,0,1.312,0.587,1.312,1.312v1.477h1.477c0.724,0,1.312,0.587,1.312,1.312S29.206,137.183,28.481,137.183z"/>
				</g>
				<g>
					<path fill="#B4CAE3" d="M103.919,137.183h-5.552c-0.724,0-1.312-0.588-1.312-1.313s0.588-1.312,1.312-1.312h5.552
						c0.725,0,1.313,0.587,1.313,1.312S104.644,137.183,103.919,137.183z M93.142,137.183h-5.551c-0.725,0-1.313-0.588-1.313-1.313
						s0.588-1.312,1.313-1.312h5.551c0.725,0,1.313,0.587,1.313,1.312S93.867,137.183,93.142,137.183z M82.366,137.183h-5.552
						c-0.725,0-1.313-0.588-1.313-1.313s0.587-1.312,1.313-1.312h5.552c0.725,0,1.312,0.587,1.312,1.312
						S83.09,137.183,82.366,137.183z M71.588,137.183h-5.552c-0.725,0-1.312-0.588-1.312-1.313s0.587-1.312,1.312-1.312h5.552
						c0.725,0,1.313,0.587,1.313,1.312S72.313,137.183,71.588,137.183z M60.812,137.183H55.26c-0.725,0-1.313-0.588-1.313-1.313
						s0.587-1.312,1.313-1.312h5.551c0.725,0,1.313,0.587,1.313,1.312S61.536,137.183,60.812,137.183z M50.035,137.183h-5.552
						c-0.725,0-1.313-0.588-1.313-1.313s0.588-1.312,1.313-1.312h5.552c0.725,0,1.312,0.587,1.312,1.312
						S50.76,137.183,50.035,137.183z M39.258,137.183h-5.552c-0.725,0-1.313-0.588-1.313-1.313s0.587-1.312,1.313-1.312h5.552
						c0.725,0,1.313,0.587,1.313,1.312S39.982,137.183,39.258,137.183z"/>
				</g>
				<g>
					<path fill="#B4CAE3" d="M111.933,137.183h-2.789c-0.725,0-1.313-0.588-1.313-1.313s0.588-1.312,1.313-1.312h1.476v-1.477
						c0-0.725,0.588-1.312,1.313-1.312c0.725,0,1.312,0.587,1.312,1.312v2.789C113.245,136.595,112.658,137.183,111.933,137.183z"/>
				</g>
				<g>
					<path fill="#B4CAE3" d="M111.933,129.37c-0.725,0-1.313-0.587-1.313-1.312v-5.339c0-0.725,0.588-1.312,1.313-1.312
						c0.725,0,1.312,0.587,1.312,1.312v5.339C113.245,128.783,112.658,129.37,111.933,129.37z M111.933,119.007
						c-0.725,0-1.313-0.587-1.313-1.312v-5.339c0-0.725,0.588-1.312,1.313-1.312c0.725,0,1.312,0.587,1.312,1.312v5.339
						C113.245,118.42,112.658,119.007,111.933,119.007z M111.933,108.645c-0.725,0-1.313-0.588-1.313-1.313v-5.338
						c0-0.725,0.588-1.313,1.313-1.313c0.725,0,1.312,0.588,1.312,1.313v5.338C113.245,108.057,112.658,108.645,111.933,108.645z
						 M111.933,98.282c-0.725,0-1.313-0.588-1.313-1.313v-5.338c0-0.725,0.588-1.313,1.313-1.313c0.725,0,1.312,0.588,1.312,1.313
						v5.338C113.245,97.694,112.658,98.282,111.933,98.282z M111.933,87.918c-0.725,0-1.313-0.587-1.313-1.312v-5.338
						c0-0.725,0.588-1.313,1.313-1.313c0.725,0,1.312,0.587,1.312,1.313v5.338C113.245,87.331,112.658,87.918,111.933,87.918z
						 M111.933,77.556c-0.725,0-1.313-0.587-1.313-1.313v-5.338c0-0.725,0.588-1.313,1.313-1.313c0.725,0,1.312,0.587,1.312,1.313
						v5.338C113.245,76.968,112.658,77.556,111.933,77.556z"/>
				</g>
				<g>
					<path fill="#B4CAE3" d="M111.933,67.193c-0.725,0-1.313-0.587-1.313-1.313v-1.476h-1.476c-0.725,0-1.313-0.587-1.313-1.313
						c0-0.725,0.588-1.312,1.313-1.312h2.789c0.725,0,1.312,0.587,1.312,1.312v2.789C113.245,66.605,112.658,67.193,111.933,67.193z
						"/>
				</g>
				<g>
					<path fill="#B4CAE3" d="M103.919,64.404h-5.552c-0.724,0-1.312-0.587-1.312-1.313c0-0.725,0.588-1.312,1.312-1.312h5.552
						c0.725,0,1.313,0.587,1.313,1.312C105.232,63.817,104.644,64.404,103.919,64.404z M93.142,64.404h-5.551
						c-0.725,0-1.313-0.587-1.313-1.313c0-0.725,0.588-1.312,1.313-1.312h5.551c0.725,0,1.313,0.587,1.313,1.312
						C94.455,63.817,93.867,64.404,93.142,64.404z M82.366,64.404h-5.552c-0.725,0-1.313-0.587-1.313-1.313
						c0-0.725,0.587-1.312,1.313-1.312h5.552c0.725,0,1.312,0.587,1.312,1.312C83.678,63.817,83.09,64.404,82.366,64.404z
						 M71.588,64.404h-5.552c-0.725,0-1.312-0.587-1.312-1.313c0-0.725,0.587-1.312,1.312-1.312h5.552
						c0.725,0,1.313,0.587,1.313,1.312C72.901,63.817,72.313,64.404,71.588,64.404z M60.812,64.404H55.26
						c-0.725,0-1.313-0.587-1.313-1.313c0-0.725,0.587-1.312,1.313-1.312h5.551c0.725,0,1.313,0.587,1.313,1.312
						C62.124,63.817,61.536,64.404,60.812,64.404z M50.035,64.404h-5.552c-0.725,0-1.313-0.587-1.313-1.313
						c0-0.725,0.588-1.312,1.313-1.312h5.552c0.725,0,1.312,0.587,1.312,1.312C51.347,63.817,50.76,64.404,50.035,64.404z
						 M39.258,64.404h-5.552c-0.725,0-1.313-0.587-1.313-1.313c0-0.725,0.587-1.312,1.313-1.312h5.552
						c0.725,0,1.313,0.587,1.313,1.312C40.57,63.817,39.982,64.404,39.258,64.404z"/>
				</g>
				<g>
					<path fill="#B4CAE3" d="M25.693,67.193c-0.725,0-1.313-0.587-1.313-1.313v-2.789c0-0.725,0.587-1.312,1.313-1.312h2.789
						c0.724,0,1.312,0.587,1.312,1.312c0,0.725-0.587,1.313-1.312,1.313h-1.477v1.476C27.004,66.605,26.417,67.193,25.693,67.193z"
						/>
				</g>
				<g>
					<path fill="#B4CAE3" d="M25.693,129.37c-0.725,0-1.313-0.587-1.313-1.312v-5.339c0-0.725,0.587-1.312,1.313-1.312
						c0.725,0,1.312,0.587,1.312,1.312v5.339C27.004,128.783,26.417,129.37,25.693,129.37z M25.693,119.007
						c-0.725,0-1.313-0.587-1.313-1.312v-5.339c0-0.725,0.587-1.312,1.313-1.312c0.725,0,1.312,0.587,1.312,1.312v5.339
						C27.004,118.42,26.417,119.007,25.693,119.007z M25.693,108.645c-0.725,0-1.313-0.588-1.313-1.313v-5.338
						c0-0.725,0.587-1.313,1.313-1.313c0.725,0,1.312,0.588,1.312,1.313v5.338C27.004,108.057,26.417,108.645,25.693,108.645z
						 M25.693,98.282c-0.725,0-1.313-0.588-1.313-1.313v-5.338c0-0.725,0.587-1.313,1.313-1.313c0.725,0,1.312,0.588,1.312,1.313
						v5.338C27.004,97.694,26.417,98.282,25.693,98.282z M25.693,87.918c-0.725,0-1.313-0.587-1.313-1.312v-5.338
						c0-0.725,0.587-1.313,1.313-1.313c0.725,0,1.312,0.587,1.312,1.313v5.338C27.004,87.331,26.417,87.918,25.693,87.918z
						 M25.693,77.556c-0.725,0-1.313-0.587-1.313-1.313v-5.338c0-0.725,0.587-1.313,1.313-1.313c0.725,0,1.312,0.587,1.312,1.313
						v5.338C27.004,76.968,26.417,77.556,25.693,77.556z"/>
				</g>
			</g>
			<g>
				<path fill="#B4CAE3" d="M149.117,155.165c-0.724,0-1.312-0.588-1.312-1.313v-5.578c0-0.725,0.588-1.312,1.312-1.312
					c0.725,0,1.313,0.587,1.313,1.312v5.578C150.43,154.577,149.842,155.165,149.117,155.165z M149.117,144.338
					c-0.724,0-1.312-0.587-1.312-1.313v-5.577c0-0.725,0.588-1.312,1.312-1.312c0.725,0,1.313,0.587,1.313,1.312v5.577
					C150.43,143.751,149.842,144.338,149.117,144.338z M149.117,133.512c-0.724,0-1.312-0.587-1.312-1.312v-5.577
					c0-0.725,0.588-1.313,1.312-1.313c0.725,0,1.313,0.587,1.313,1.313v5.577C150.43,132.925,149.842,133.512,149.117,133.512z
					 M149.117,122.686c-0.724,0-1.312-0.587-1.312-1.312v-5.578c0-0.725,0.588-1.313,1.312-1.313c0.725,0,1.313,0.588,1.313,1.313
					v5.578C150.43,122.099,149.842,122.686,149.117,122.686z M149.117,111.86c-0.724,0-1.312-0.588-1.312-1.313v-5.577
					c0-0.725,0.588-1.313,1.312-1.313c0.725,0,1.313,0.588,1.313,1.313v5.577C150.43,111.272,149.842,111.86,149.117,111.86z
					 M144.615,105.537h-5.577c-0.725,0-1.313-0.587-1.313-1.312c0-0.725,0.588-1.313,1.313-1.313h5.577
					c0.724,0,1.312,0.587,1.312,1.313C145.927,104.949,145.339,105.537,144.615,105.537z M133.789,105.537h-5.577
					c-0.725,0-1.313-0.587-1.313-1.312c0-0.725,0.587-1.313,1.313-1.313h5.577c0.725,0,1.313,0.587,1.313,1.313
					C135.102,104.949,134.514,105.537,133.789,105.537z M122.963,105.537h-5.577c-0.725,0-1.313-0.587-1.313-1.312
					c0-0.725,0.588-1.313,1.313-1.313h5.577c0.725,0,1.313,0.587,1.313,1.313C124.275,104.949,123.688,105.537,122.963,105.537z
					 M112.137,105.537h-0.12c-0.725,0-1.313-0.587-1.313-1.312c0-0.725,0.588-1.313,1.313-1.313h0.12
					c0.725,0,1.313,0.587,1.313,1.313C113.45,104.949,112.862,105.537,112.137,105.537z"/>
			</g>
		</g>
		<g>
			<g>
				<g>
					<g>
						<g>
							<path fill="#007EFF" d="M438.563,97.956l-0.222,7.783l7.291,0.21c0.314,1.855,0.94,3.663,1.855,5.361l-5.169,4.878
								l5.347,5.663l4.945-4.669c1.938,1.407,4.104,2.377,6.358,2.894l-0.211,7.294l7.783,0.223l0.217-7.518
								c1.532-0.343,3.022-0.894,4.437-1.657l4.879,5.169l5.661-5.346l-4.669-4.945c1.408-1.938,2.378-4.103,2.894-6.358
								l6.376,0.185l0.225-7.785l-6.601-0.189c-0.438-1.955-1.206-3.848-2.326-5.59l4.947-4.669l-5.345-5.662l-5.169,4.878
								c-1.912-1.177-4.002-1.951-6.158-2.326l0.212-7.338l-7.784-0.223l-0.229,7.954c-1.626,0.459-3.197,1.158-4.664,2.1
								l-4.669-4.947l-5.663,5.346l4.878,5.167c-0.842,1.368-1.477,2.825-1.909,4.335L438.563,97.956z M457.996,97.821
								c2.861-2.702,7.388-2.572,10.089,0.29c2.702,2.862,2.572,7.387-0.291,10.089c-2.861,2.702-7.387,2.572-10.089-0.29
								C455.003,105.048,455.133,100.522,457.996,97.821z"/>
						</g>
						<g>
							<path fill="#0060E6" d="M464.104,114.259c6.297-0.677,10.853-6.33,10.176-12.627c-0.678-6.297-6.33-10.852-12.627-10.176
								c-6.297,0.677-10.854,6.33-10.177,12.627S457.808,114.936,464.104,114.259z M457.996,97.821
								c2.861-2.702,7.388-2.572,10.089,0.29c2.702,2.862,2.572,7.387-0.291,10.089c-2.861,2.702-7.387,2.572-10.089-0.29
								C455.003,105.048,455.133,100.522,457.996,97.821z"/>
						</g>
					</g>
					<g>
						<g>
							<path fill="#007EFF" d="M489.78,101.275l-0.131,4.52l4.236,0.122c0.182,1.078,0.545,2.127,1.076,3.113l-3.001,2.833
								l3.105,3.288l2.871-2.711c1.125,0.817,2.383,1.38,3.691,1.681l-0.122,4.235l4.521,0.129l0.126-4.365
								c0.89-0.2,1.754-0.52,2.576-0.962l2.833,3.001l3.287-3.104l-2.71-2.872c0.816-1.125,1.381-2.383,1.679-3.692l3.703,0.106
								l0.13-4.52l-3.833-0.11c-0.254-1.135-0.701-2.234-1.351-3.246l2.873-2.711l-3.104-3.288l-3.002,2.833
								c-1.11-0.683-2.324-1.133-3.576-1.351l0.124-4.261l-4.521-0.13l-0.134,4.619c-0.944,0.267-1.857,0.672-2.708,1.22
								l-2.712-2.873l-3.287,3.104l2.833,3c-0.489,0.795-0.859,1.641-1.109,2.518L489.78,101.275z M501.064,101.196
								c1.662-1.569,4.29-1.494,5.858,0.168c1.569,1.662,1.494,4.29-0.167,5.859c-1.663,1.569-4.29,1.494-5.859-0.168
								C499.327,105.393,499.403,102.765,501.064,101.196z"/>
						</g>
						<g>
							<path fill="#0060E6" d="M504.612,110.742c3.656-0.394,6.303-3.676,5.908-7.333c-0.393-3.657-3.675-6.302-7.331-5.909
								c-3.658,0.393-6.304,3.675-5.91,7.333C497.673,108.489,500.955,111.135,504.612,110.742z M501.064,101.196
								c1.662-1.569,4.29-1.494,5.858,0.168c1.569,1.662,1.494,4.29-0.167,5.859c-1.663,1.569-4.29,1.494-5.859-0.168
								C499.327,105.393,499.403,102.765,501.064,101.196z"/>
						</g>
					</g>
				</g>
			</g>
			<g>
				<g>
					<path fill="#B4CAE3" d="M538.1,137.183h-2.789c-0.725,0-1.312-0.588-1.312-1.313s0.587-1.312,1.312-1.312h1.477v-1.477
						c0-0.725,0.588-1.312,1.313-1.312s1.313,0.587,1.313,1.312v2.789C539.412,136.595,538.824,137.183,538.1,137.183z"/>
				</g>
				<g>
					<path fill="#B4CAE3" d="M530.01,137.183h-5.632c-0.725,0-1.312-0.588-1.312-1.313s0.587-1.312,1.312-1.312h5.632
						c0.726,0,1.313,0.587,1.313,1.312S530.735,137.183,530.01,137.183z M519.078,137.183h-5.634c-0.725,0-1.312-0.588-1.312-1.313
						s0.587-1.312,1.312-1.312h5.634c0.725,0,1.312,0.587,1.312,1.312S519.803,137.183,519.078,137.183z M508.145,137.183h-5.632
						c-0.725,0-1.313-0.588-1.313-1.313s0.588-1.312,1.313-1.312h5.632c0.725,0,1.313,0.587,1.313,1.312
						S508.869,137.183,508.145,137.183z M497.212,137.183h-5.632c-0.725,0-1.313-0.588-1.313-1.313s0.589-1.312,1.313-1.312h5.632
						c0.725,0,1.312,0.587,1.312,1.312S497.937,137.183,497.212,137.183z M486.278,137.183h-5.632c-0.725,0-1.312-0.588-1.312-1.313
						s0.587-1.312,1.312-1.312h5.632c0.725,0,1.312,0.587,1.312,1.312S487.003,137.183,486.278,137.183z M475.346,137.183h-5.632
						c-0.725,0-1.313-0.588-1.313-1.313s0.589-1.312,1.313-1.312h5.632c0.725,0,1.312,0.587,1.312,1.312
						S476.07,137.183,475.346,137.183z M464.412,137.183h-5.632c-0.725,0-1.312-0.588-1.312-1.313s0.587-1.312,1.312-1.312h5.632
						c0.725,0,1.313,0.587,1.313,1.312S465.137,137.183,464.412,137.183z M453.479,137.183h-5.632c-0.725,0-1.313-0.588-1.313-1.313
						s0.588-1.312,1.313-1.312h5.632c0.725,0,1.313,0.587,1.313,1.312S454.204,137.183,453.479,137.183z M442.546,137.183h-5.632
						c-0.725,0-1.312-0.588-1.312-1.313s0.587-1.312,1.312-1.312h5.632c0.725,0,1.313,0.587,1.313,1.312
						S443.271,137.183,442.546,137.183z M431.613,137.183h-5.633c-0.725,0-1.312-0.588-1.312-1.313s0.587-1.312,1.312-1.312h5.633
						c0.726,0,1.313,0.587,1.313,1.312S432.339,137.183,431.613,137.183z"/>
				</g>
				<g>
					<path fill="#B4CAE3" d="M420.68,137.183h-2.787c-0.725,0-1.313-0.588-1.313-1.313v-2.789c0-0.725,0.589-1.312,1.313-1.312
						c0.724,0,1.312,0.587,1.312,1.312v1.477h1.476c0.726,0,1.313,0.587,1.313,1.312S421.405,137.183,420.68,137.183z"/>
				</g>
				<g>
					<path fill="#B4CAE3" d="M417.893,129.02c-0.725,0-1.313-0.588-1.313-1.312v-5.711c0-0.725,0.589-1.312,1.313-1.312
						c0.724,0,1.312,0.587,1.312,1.312v5.711C419.204,128.432,418.616,129.02,417.893,129.02z M417.893,117.935
						c-0.725,0-1.313-0.587-1.313-1.312v-5.71c0-0.725,0.589-1.313,1.313-1.313c0.724,0,1.312,0.588,1.312,1.313v5.71
						C419.204,117.348,418.616,117.935,417.893,117.935z M417.893,106.85c-0.725,0-1.313-0.587-1.313-1.312v-5.71
						c0-0.725,0.589-1.313,1.313-1.313c0.724,0,1.312,0.588,1.312,1.313v5.71C419.204,106.263,418.616,106.85,417.893,106.85z
						 M417.893,95.766c-0.725,0-1.313-0.588-1.313-1.313v-5.71c0-0.725,0.589-1.313,1.313-1.313c0.724,0,1.312,0.588,1.312,1.313
						v5.71C419.204,95.178,418.616,95.766,417.893,95.766z M417.893,84.68c-0.725,0-1.313-0.587-1.313-1.312v-5.71
						c0-0.725,0.589-1.313,1.313-1.313c0.724,0,1.312,0.588,1.312,1.313v5.71C419.204,84.093,418.616,84.68,417.893,84.68z"/>
				</g>
				<g>
					<path fill="#B4CAE3" d="M417.893,73.596c-0.725,0-1.313-0.588-1.313-1.313v-2.789c0-0.725,0.589-1.312,1.313-1.312h2.787
						c0.726,0,1.313,0.587,1.313,1.312s-0.588,1.313-1.313,1.313h-1.476v1.476C419.204,73.008,418.616,73.596,417.893,73.596z"/>
				</g>
				<g>
					<path fill="#B4CAE3" d="M530.01,70.807h-5.632c-0.725,0-1.312-0.588-1.312-1.313s0.587-1.312,1.312-1.312h5.632
						c0.726,0,1.313,0.587,1.313,1.312S530.735,70.807,530.01,70.807z M519.078,70.807h-5.634c-0.725,0-1.312-0.588-1.312-1.313
						s0.587-1.312,1.312-1.312h5.634c0.725,0,1.312,0.587,1.312,1.312S519.803,70.807,519.078,70.807z M508.145,70.807h-5.632
						c-0.725,0-1.313-0.588-1.313-1.313s0.588-1.312,1.313-1.312h5.632c0.725,0,1.313,0.587,1.313,1.312
						S508.869,70.807,508.145,70.807z M497.212,70.807h-5.632c-0.725,0-1.313-0.588-1.313-1.313s0.589-1.312,1.313-1.312h5.632
						c0.725,0,1.312,0.587,1.312,1.312S497.937,70.807,497.212,70.807z M486.278,70.807h-5.632c-0.725,0-1.312-0.588-1.312-1.313
						s0.587-1.312,1.312-1.312h5.632c0.725,0,1.312,0.587,1.312,1.312S487.003,70.807,486.278,70.807z M475.346,70.807h-5.632
						c-0.725,0-1.313-0.588-1.313-1.313s0.589-1.312,1.313-1.312h5.632c0.725,0,1.312,0.587,1.312,1.312
						S476.07,70.807,475.346,70.807z M464.412,70.807h-5.632c-0.725,0-1.312-0.588-1.312-1.313s0.587-1.312,1.312-1.312h5.632
						c0.725,0,1.313,0.587,1.313,1.312S465.137,70.807,464.412,70.807z M453.479,70.807h-5.632c-0.725,0-1.313-0.588-1.313-1.313
						s0.588-1.312,1.313-1.312h5.632c0.725,0,1.313,0.587,1.313,1.312S454.204,70.807,453.479,70.807z M442.546,70.807h-5.632
						c-0.725,0-1.312-0.588-1.312-1.313s0.587-1.312,1.312-1.312h5.632c0.725,0,1.313,0.587,1.313,1.312
						S443.271,70.807,442.546,70.807z M431.613,70.807h-5.632c-0.725,0-1.313-0.588-1.313-1.313s0.588-1.312,1.313-1.312h5.632
						c0.726,0,1.313,0.587,1.313,1.312S432.339,70.807,431.613,70.807z"/>
				</g>
				<g>
					<path fill="#B4CAE3" d="M538.1,73.596c-0.725,0-1.313-0.588-1.313-1.313v-1.476h-1.477c-0.725,0-1.312-0.588-1.312-1.313
						s0.587-1.312,1.312-1.312h2.789c0.725,0,1.313,0.587,1.313,1.312v2.789C539.412,73.008,538.824,73.596,538.1,73.596z"/>
				</g>
				<g>
					<path fill="#B4CAE3" d="M538.1,129.02c-0.725,0-1.313-0.587-1.313-1.312v-5.71c0-0.725,0.588-1.313,1.313-1.313
						s1.313,0.588,1.313,1.313v5.71C539.412,128.433,538.824,129.02,538.1,129.02z M538.1,117.935c-0.725,0-1.313-0.587-1.313-1.312
						v-5.71c0-0.725,0.588-1.313,1.313-1.313s1.313,0.588,1.313,1.313v5.71C539.412,117.348,538.824,117.935,538.1,117.935z
						 M538.1,106.851c-0.725,0-1.313-0.588-1.313-1.313v-5.71c0-0.725,0.588-1.313,1.313-1.313s1.313,0.588,1.313,1.313v5.71
						C539.412,106.263,538.824,106.851,538.1,106.851z M538.1,95.766c-0.725,0-1.313-0.588-1.313-1.313v-5.71
						c0-0.725,0.588-1.313,1.313-1.313s1.313,0.588,1.313,1.313v5.71C539.412,95.178,538.824,95.766,538.1,95.766z M538.1,84.681
						c-0.725,0-1.313-0.588-1.313-1.313v-5.71c0-0.725,0.588-1.313,1.313-1.313s1.313,0.588,1.313,1.313v5.71
						C539.412,84.093,538.824,84.681,538.1,84.681z"/>
				</g>
			</g>
			<g>
				<path fill="#B4CAE3" d="M380.791,155.165c-0.724,0-1.312-0.588-1.312-1.313v-5.578c0-0.725,0.588-1.312,1.312-1.312
					c0.725,0,1.313,0.587,1.313,1.312v5.578C382.104,154.577,381.516,155.165,380.791,155.165z M380.791,144.338
					c-0.724,0-1.312-0.587-1.312-1.313v-5.577c0-0.725,0.588-1.312,1.312-1.312c0.725,0,1.313,0.587,1.313,1.312v5.577
					C382.104,143.751,381.516,144.338,380.791,144.338z M380.791,133.512c-0.724,0-1.312-0.587-1.312-1.312v-5.577
					c0-0.725,0.588-1.313,1.312-1.313c0.725,0,1.313,0.587,1.313,1.313v5.577C382.104,132.925,381.516,133.512,380.791,133.512z
					 M380.791,122.686c-0.724,0-1.312-0.587-1.312-1.312v-5.578c0-0.725,0.588-1.313,1.312-1.313c0.725,0,1.313,0.588,1.313,1.313
					v5.578C382.104,122.099,381.516,122.686,380.791,122.686z M380.791,111.86c-0.724,0-1.312-0.588-1.312-1.313v-5.577
					c0-0.725,0.588-1.313,1.312-1.313c0.725,0,1.313,0.588,1.313,1.313v5.577C382.104,111.272,381.516,111.86,380.791,111.86z
					 M417.893,104.666h-0.991c-0.725,0-1.313-0.588-1.313-1.313s0.588-1.312,1.313-1.312h0.991c0.724,0,1.312,0.587,1.312,1.312
					S418.616,104.666,417.893,104.666z M411.651,104.666h-5.577c-0.724,0-1.312-0.588-1.312-1.313s0.588-1.312,1.312-1.312h5.577
					c0.726,0,1.313,0.587,1.313,1.312S412.377,104.666,411.651,104.666z M400.826,104.666h-5.577c-0.725,0-1.313-0.588-1.313-1.313
					s0.588-1.312,1.313-1.312h5.577c0.725,0,1.313,0.587,1.313,1.312S401.551,104.666,400.826,104.666z M390,104.666h-5.577
					c-0.725,0-1.312-0.588-1.312-1.313s0.587-1.312,1.312-1.312H390c0.725,0,1.312,0.587,1.312,1.312S390.725,104.666,390,104.666z"
					/>
			</g>
		</g>
	</g>
	<path fill="#0060E6" d="M50.562,256.365l-0.013,0.02h0.023L50.562,256.365z"/>
	<polygon fill="#0060E6" points="50.549,256.385 50.463,256.503 50.489,256.385 	"/>
	<g>
		<g>
			<g>
				<g>
					<g>
						<g>
							<path fill="#3B3E7D" d="M540.065,161.833v250.111c0,10.313-8.356,18.669-18.669,18.669H95.149
								c-10.312,0-18.669-8.356-18.669-18.669V161.833c0-10.312,8.357-18.669,18.669-18.669h426.248
								C531.709,143.164,540.065,151.521,540.065,161.833z"/>
						</g>
						<path fill="#18285D" d="M540.065,291.944v119.999c0,10.313-8.356,18.669-18.669,18.669H95.149
							c-10.312,0-18.669-8.356-18.669-18.669V291.944H540.065z"/>
					</g>
					<path fill="#FFFFFF" d="M519.474,174.548v224.68c0,6.612-5.356,11.973-11.969,11.973h-398.46c-2.793,0-5.361-0.957-7.4-2.561
						c-0.539-0.425-1.044-0.898-1.503-1.41c-1.911-2.115-3.069-4.925-3.069-8.002v-224.68c0-6.612,5.364-11.973,11.973-11.973
						h398.46c2.212,0,4.278,0.598,6.056,1.645c1.669,0.982,3.083,2.357,4.106,3.999
						C518.814,170.055,519.474,172.225,519.474,174.548z"/>
				</g>
				<g>
					<path fill="#021147" d="M583.37,420.619v1.6c0,7.955-2.551,15.313-6.884,21.297c-6.605,9.139-17.357,15.085-29.498,15.085
						H69.557c-12.141,0-22.892-5.946-29.498-15.085c-4.333-5.984-6.884-13.342-6.884-21.297v-1.6H583.37z"/>
				</g>
				<path fill="#FFFFFF" d="M246.608,420.619v0.365c0,2.881,1.929,5.216,4.309,5.216h112.32c2.379,0,4.308-2.335,4.308-5.216v-0.365
					H246.608z"/>
				<g>
					<path fill="#D9E4F5" d="M519.473,174.548v13.255H97.073v-13.255c0-2.552,0.794-4.912,2.159-6.85
						c2.159-3.097,5.749-5.123,9.813-5.123h398.459c4.064,0,7.654,2.026,9.809,5.123
						C518.678,169.636,519.473,171.996,519.473,174.548z"/>
					<path fill="#FFFFFF" d="M417.474,179.187H193.368c-0.552,0-1.003-0.452-1.003-1.003v-4.695c0-0.552,0.451-1.003,1.003-1.003
						h224.104c0.552,0,1.004,0.451,1.004,1.003v4.695C418.476,178.734,418.023,179.187,417.474,179.187z"/>
					<g>
						<path fill="#3B3E7D" d="M138.372,175.835v2.484c0,0.712-0.771,1.158-1.389,0.802l-2.151-1.243l-2.151-1.242
							c-0.617-0.356-0.617-1.247,0-1.603l2.151-1.243l2.151-1.242c0.617-0.356,1.389,0.09,1.389,0.801V175.835z"/>
					</g>
					<g>
						<path fill="#3B3E7D" d="M149.566,175.835v2.484c0,0.712,0.771,1.158,1.389,0.802l2.151-1.243l2.151-1.242
							c0.617-0.356,0.617-1.247,0-1.603l-2.151-1.243l-2.151-1.242c-0.617-0.356-1.389,0.089-1.389,0.801V175.835z"/>
					</g>
				</g>
				<path fill="#B9D2F0" d="M517.313,167.698H99.232c2.159-3.097,5.749-5.123,9.813-5.123h398.459
					C511.569,162.575,515.159,164.601,517.313,167.698z"/>
			</g>
		</g>
	</g>
	<g>
		<g>
			<g>
				<path fill="#007EFF" d="M350.31,131.552H242.815c-7.286,0-13.193-5.907-13.193-13.194v-2.652
					c0-7.287,5.907-13.193,13.193-13.193H350.31c7.287,0,13.194,5.906,13.194,13.193v2.652
					C363.504,125.645,357.597,131.552,350.31,131.552z"/>
			</g>
			<g>
				<g>
					<g>
						<g>
							<path fill="#FFFFFF" d="M349.183,108.405c-4.757,0-8.627,3.871-8.627,8.627s3.87,8.627,8.627,8.627
								c4.758,0,8.628-3.871,8.628-8.627S353.94,108.405,349.183,108.405z M349.53,120.218v-3.023h3.899
								c-0.023,1.068-0.179,2.084-0.46,3.023H349.53z M351.974,123.662c0.634-0.804,1.138-1.729,1.5-2.75h2.628
								c-1.11,1.975-2.975,3.364-5.165,3.859C351.305,124.439,351.654,124.068,351.974,123.662z M352.733,120.912
								c-0.324,0.849-0.758,1.622-1.288,2.299c-0.826,1.056-1.653,1.593-1.915,1.747v-4.046H352.733z M349.53,112.785v-3.678
								c0.102,0.004,0.206,0.011,0.309,0.019c0.431,0.367,1.784,1.62,2.705,3.659H349.53z M353.303,112.785
								c-0.31-0.743-0.7-1.456-1.163-2.12c-0.335-0.481-0.702-0.933-1.092-1.345c1.984,0.48,3.727,1.728,4.832,3.465H353.303z
								 M349.53,116.501v-3.023h3.297c0.357,0.974,0.559,1.991,0.599,3.023H349.53z M354.119,116.501
								c-0.037-1.026-0.225-2.043-0.556-3.023h2.711c0.477,0.948,0.755,1.963,0.824,3.023H354.119z M357.114,117.195
								c-0.021,1.051-0.245,2.067-0.666,3.023h-2.756c0.264-0.945,0.409-1.961,0.431-3.023H357.114z M344.755,120.218h-2.837
								c-0.421-0.956-0.646-1.972-0.666-3.023h3.07C344.346,118.257,344.491,119.273,344.755,120.218z M345.9,112.785
								c0.268-0.596,0.593-1.17,0.965-1.708c0.727-1.045,1.452-1.707,1.751-1.958c0.073-0.005,0.146-0.009,0.22-0.012v3.678H345.9z
								 M348.836,113.479v3.023h-3.814c0.04-1.029,0.241-2.045,0.597-3.023H348.836z M342.487,112.785
								c1.126-1.77,2.905-3.026,4.934-3.489c-0.398,0.419-0.772,0.878-1.114,1.369c-0.462,0.664-0.853,1.376-1.162,2.12H342.487z
								 M348.836,117.195v3.023h-3.359c-0.281-0.935-0.436-1.951-0.459-3.023H348.836z M341.268,116.501
								c0.07-1.058,0.347-2.075,0.824-3.023h2.792c-0.333,0.98-0.52,1.997-0.558,3.023H341.268z M344.973,120.912
								c0.362,1.021,0.866,1.945,1.501,2.75c0.327,0.416,0.684,0.795,1.063,1.132c-2.211-0.471-4.155-1.899-5.272-3.881H344.973z
								 M348.836,120.912v3.997c-0.524-0.328-2.164-1.511-3.121-3.997H348.836z"/>
						</g>
					</g>
				</g>
			</g>
		</g>
		<g>
			<g>
				<path fill="#FFFFFF" d="M327.387,108.741c4.523,0,8.203,3.681,8.203,8.204c0,4.524-3.68,8.204-8.203,8.204h-82.932
					c-4.524,0-8.204-3.68-8.204-8.204c0-4.523,3.68-8.204,8.204-8.204H327.387 M327.387,107.892h-82.932
					c-4.992,0-9.053,4.062-9.053,9.053c0,4.992,4.062,9.053,9.053,9.053h82.932c4.991,0,9.053-4.061,9.053-9.053
					C336.439,111.954,332.378,107.892,327.387,107.892L327.387,107.892z"/>
			</g>
		</g>
	</g>
	<g>
		<g>
			<path fill="#D9E4F5" d="M473.491,217.085v151.077c0,5.374-4.357,9.73-9.731,9.73H156.986c-5.374,0-9.731-4.356-9.731-9.73
				V217.085c0-5.374,4.357-9.731,9.731-9.731H463.76C469.134,207.354,473.491,211.711,473.491,217.085z"/>
			<path fill="#B4CAE3" d="M473.491,217.085v7.092H147.255v-7.092c0-5.374,4.357-9.731,9.731-9.731H463.76
				C469.134,207.354,473.491,211.711,473.491,217.085z"/>
			<g>
				<g>
					<circle fill="#3B3E7D" cx="438.854" cy="215.6" r="3.299"/>
				</g>
				<circle fill="#0060E6" cx="449.411" cy="215.6" r="3.299"/>
				<circle fill="#007EFF" cx="459.966" cy="215.6" r="3.299"/>
			</g>
		</g>
		<g>
			<path fill="#B4CAE3" d="M188.931,272.997h-20.018c-3.399,0-6.155-2.756-6.155-6.155v-20.016c0-3.4,2.756-6.155,6.155-6.155
				h20.018c3.399,0,6.155,2.755,6.155,6.155v20.016C195.086,270.241,192.331,272.997,188.931,272.997z"/>
			<path fill="#007EFF" d="M184.643,268.378h-20.017c-3.399,0-6.155-2.755-6.155-6.154v-20.018c0-3.399,2.755-6.155,6.155-6.155
				h20.017c3.399,0,6.155,2.755,6.155,6.155v20.018C190.798,265.623,188.042,268.378,184.643,268.378z"/>
			<g>
				<path fill="#FFFFFF" d="M180.567,249.248l-8.835,3.032l8.835,3.032v4.958l-14.871-5.395v-5.19l14.871-5.394V249.248z"/>
			</g>
		</g>
		<g>
			<path fill="#B4CAE3" d="M242.325,272.997h-20.017c-3.399,0-6.154-2.756-6.154-6.155v-20.016c0-3.4,2.755-6.155,6.154-6.155
				h20.017c3.399,0,6.155,2.755,6.155,6.155v20.016C248.48,270.241,245.725,272.997,242.325,272.997z"/>
			<path fill="#007EFF" d="M238.037,268.378H218.02c-3.399,0-6.154-2.755-6.154-6.154v-20.018c0-3.399,2.755-6.155,6.154-6.155
				h20.017c3.399,0,6.155,2.755,6.155,6.155v20.018C244.192,265.623,241.437,268.378,238.037,268.378z"/>
			<g>
				<path fill="#FFFFFF" d="M228.952,241.819h4.467l-7.372,21.042h-4.468L228.952,241.819z"/>
			</g>
		</g>
		<g>
			<path fill="#B4CAE3" d="M293.827,272.997H273.81c-3.399,0-6.155-2.756-6.155-6.155v-20.016c0-3.4,2.755-6.155,6.155-6.155h20.017
				c3.399,0,6.154,2.755,6.154,6.155v20.016C299.981,270.241,297.226,272.997,293.827,272.997z"/>
			<path fill="#007EFF" d="M289.539,268.378h-20.017c-3.4,0-6.155-2.755-6.155-6.154v-20.018c0-3.399,2.755-6.155,6.155-6.155
				h20.017c3.399,0,6.154,2.755,6.154,6.155v20.018C295.693,265.623,292.938,268.378,289.539,268.378z"/>
			<g>
				<path fill="#FFFFFF" d="M272.241,244.291l14.871,5.394v5.19l-14.871,5.395v-4.958l8.835-3.032l-8.835-3.032V244.291z"/>
			</g>
		</g>
		<g>
			<path fill="#B4CAE3" d="M454.141,363.709h-20.017c-3.398,0-6.155-2.756-6.155-6.155v-20.017c0-3.398,2.757-6.154,6.155-6.154
				h20.017c3.399,0,6.155,2.756,6.155,6.154v20.017C460.296,360.953,457.54,363.709,454.141,363.709z"/>
			<path fill="#007EFF" d="M449.854,359.091h-20.018c-3.399,0-6.154-2.755-6.154-6.154v-20.018c0-3.399,2.755-6.154,6.154-6.154
				h20.018c3.398,0,6.153,2.755,6.153,6.154v20.018C456.007,356.336,453.252,359.091,449.854,359.091z"/>
			<g>
				<g>
					<g>
						<g>
							<path fill="#FFFFFF" d="M439.546,332.399c-5.813,0-10.542,4.729-10.542,10.541c0,5.813,4.729,10.543,10.542,10.543
								c5.813,0,10.543-4.729,10.543-10.543C450.089,337.129,445.359,332.399,439.546,332.399z M439.971,346.833v-3.692h4.766
								c-0.03,1.306-0.22,2.547-0.564,3.692H439.971z M442.956,351.042c0.774-0.983,1.391-2.113,1.832-3.36H448
								c-1.357,2.413-3.634,4.112-6.313,4.715C442.14,351.992,442.565,351.538,442.956,351.042z M443.885,347.682
								c-0.397,1.038-0.927,1.981-1.574,2.81c-1.01,1.291-2.021,1.946-2.34,2.135v-4.944H443.885z M439.971,337.751v-4.494
								c0.124,0.005,0.25,0.013,0.376,0.023c0.527,0.446,2.182,1.979,3.306,4.471H439.971z M444.579,337.751
								c-0.377-0.908-0.855-1.778-1.42-2.59c-0.41-0.588-0.857-1.14-1.334-1.644c2.424,0.587,4.554,2.112,5.903,4.233H444.579z
								 M439.971,342.293v-3.694h4.027c0.437,1.189,0.684,2.432,0.732,3.694H439.971z M445.579,342.293
								c-0.046-1.255-0.275-2.497-0.681-3.694h3.313c0.583,1.157,0.921,2.399,1.006,3.694H445.579z M449.237,343.141
								c-0.025,1.283-0.3,2.525-0.814,3.692h-3.367c0.323-1.154,0.5-2.395,0.528-3.692H449.237z M434.135,346.833h-3.467
								c-0.515-1.167-0.788-2.409-0.813-3.692h3.752C433.635,344.438,433.813,345.679,434.135,346.833z M435.535,337.751
								c0.327-0.728,0.724-1.429,1.179-2.086c0.888-1.278,1.774-2.086,2.14-2.395c0.09-0.005,0.179-0.01,0.269-0.014v4.494H435.535z
								 M439.122,338.599v3.694h-4.661c0.049-1.259,0.295-2.501,0.729-3.694H439.122z M431.364,337.751
								c1.375-2.163,3.551-3.698,6.029-4.264c-0.487,0.514-0.944,1.074-1.361,1.674c-0.564,0.812-1.043,1.682-1.421,2.59H431.364z
								 M439.122,343.141v3.692h-4.105c-0.344-1.142-0.532-2.383-0.561-3.692H439.122z M429.873,342.293
								c0.086-1.294,0.425-2.536,1.008-3.694h3.411c-0.405,1.197-0.634,2.439-0.681,3.694H429.873z M434.402,347.682
								c0.441,1.247,1.059,2.377,1.831,3.36c0.401,0.508,0.837,0.971,1.301,1.383c-2.701-0.575-5.077-2.321-6.441-4.743H434.402z
								 M439.122,347.682v4.884c-0.642-0.4-2.645-1.846-3.814-4.884H439.122z"/>
						</g>
					</g>
				</g>
			</g>
		</g>
		<g>
			<path fill="#B4CAE3" d="M296.259,290.33H162.192c-2.055,0-3.722-1.667-3.722-3.722l0,0c0-2.056,1.667-3.723,3.722-3.723h134.067
				c2.055,0,3.722,1.667,3.722,3.723l0,0C299.981,288.663,298.314,290.33,296.259,290.33z"/>
			<path fill="#B4CAE3" d="M296.259,304.114H162.192c-2.055,0-3.722-1.666-3.722-3.723l0,0c0-2.056,1.667-3.721,3.722-3.721h134.067
				c2.055,0,3.722,1.665,3.722,3.721l0,0C299.981,302.448,298.314,304.114,296.259,304.114z"/>
			<path fill="#B4CAE3" d="M296.259,317.897H162.192c-2.055,0-3.722-1.666-3.722-3.723l0,0c0-2.055,1.667-3.721,3.722-3.721h134.067
				c2.055,0,3.722,1.666,3.722,3.721l0,0C299.981,316.231,298.314,317.897,296.259,317.897z"/>
			<path fill="#B4CAE3" d="M296.259,331.681H162.192c-2.055,0-3.722-1.666-3.722-3.721l0,0c0-2.056,1.667-3.723,3.722-3.723h134.067
				c2.055,0,3.722,1.667,3.722,3.723l0,0C299.981,330.015,298.314,331.681,296.259,331.681z"/>
			<path fill="#B4CAE3" d="M296.259,345.465H162.192c-2.055,0-3.722-1.666-3.722-3.722l0,0c0-2.055,1.667-3.721,3.722-3.721h134.067
				c2.055,0,3.722,1.666,3.722,3.721l0,0C299.981,343.799,298.314,345.465,296.259,345.465z"/>
			<path fill="#B4CAE3" d="M296.259,359.249H162.192c-2.055,0-3.722-1.666-3.722-3.723l0,0c0-2.055,1.667-3.721,3.722-3.721h134.067
				c2.055,0,3.722,1.666,3.722,3.721l0,0C299.981,357.583,298.314,359.249,296.259,359.249z"/>
		</g>
		<g>
			<path fill="#B4CAE3" d="M411.383,324.237H320.02c-2.05,0-3.807,1.604-3.845,3.652c-0.037,2.087,1.644,3.791,3.722,3.791h91.486
				c2.056,0,3.723-1.666,3.723-3.721l0,0C415.105,325.904,413.438,324.237,411.383,324.237z"/>
			<path fill="#B4CAE3" d="M411.383,338.022H320.02c-2.05,0-3.807,1.603-3.845,3.65c-0.037,2.088,1.644,3.792,3.722,3.792h91.486
				c2.056,0,3.723-1.666,3.723-3.722l0,0C415.105,339.688,413.438,338.022,411.383,338.022z"/>
			<path fill="#B4CAE3" d="M411.383,351.806H320.02c-2.05,0-3.807,1.603-3.845,3.652c-0.037,2.087,1.644,3.791,3.722,3.791h91.486
				c2.056,0,3.723-1.666,3.723-3.723l0,0C415.105,353.472,413.438,351.806,411.383,351.806z"/>
		</g>
		<g>
			<path fill="#B4CAE3" d="M456.009,240.596v69.039c0,0.146-0.007,0.291-0.018,0.431c-0.067,0.777-0.308,1.494-0.683,2.107
				c-0.732,1.208-1.979,2.002-3.392,2.002H320.008c-1.595,0-2.977-1.01-3.646-2.488c-0.284-0.617-0.445-1.315-0.445-2.052v-69.039
				c0-0.561,0.091-1.096,0.257-1.594c0.244-0.721,0.649-1.356,1.165-1.85c0.716-0.684,1.649-1.1,2.669-1.1h131.909
				c0.815,0,1.576,0.264,2.211,0.721c0.596,0.424,1.087,1.018,1.416,1.721C455.841,239.124,456.009,239.838,456.009,240.596z"/>
			<g>
				<path fill="#D9E4F5" d="M455.991,310.065c-0.067,0.777-0.308,1.494-0.683,2.107l-69.933-36.778l-2.346-1.234l-66.856-35.159
					c0.244-0.721,0.649-1.356,1.165-1.85l68.037,35.775l2.341,1.234h0.004L455.991,310.065z"/>
			</g>
			<g>
				<path fill="#D9E4F5" d="M455.544,238.493l-67.823,35.667h-0.004l-2.341,1.234l-69.014,36.292
					c-0.284-0.617-0.445-1.315-0.445-2.052v-0.182l67.113-35.292l2.346-1.234l68.752-36.155
					C454.724,237.196,455.215,237.79,455.544,238.493z"/>
			</g>
		</g>
	</g>
	<g>
		<ellipse fill="#D9E4F5" cx="109.988" cy="541.743" rx="53.912" ry="10.513"/>
		<g>
			<path fill="#00A0FF" d="M79.693,365.816l-7.745,4.776c-3.324-2.063-7.101-3.268-10.971-3.532c-0.694-1.867-1.09-3.971-1.09-6.335
				c0-19.125,15.076-54.454,15.076-54.454l-1.375,39.471C72.581,355.807,75.822,362.021,79.693,365.816z"/>
			<g>
				<path fill="#0060E6" d="M101.713,352.227l-29.766,18.365c-7.432-4.612-17.13-4.942-25.075-0.036
					c-9.913,6.116-13.772,18.317-9.726,28.806c0.521,1.354,1.174,2.678,1.963,3.959c6.909,11.191,21.574,14.666,32.768,7.761
					c3.974-2.452,6.972-5.88,8.881-9.788c1.91-3.903,2.724-8.286,2.33-12.642l104.806-64.666l1.222,1.984l25.868-0.757
					l12.185-22.605l0.08-0.154l-2.076-4.12l-6.624,3.336l-1.395,0.702l-1.034,0.386l-6.992,12.967l-14.725,0.433l-3.87-6.269
					l-3.865-6.27l0.222-0.409l6.77-12.557l14.725-0.433l5.289-9.814l-4.432,0.13l-21.437,0.627l-12.28,22.781l1.222,1.984
					L101.713,352.227z M65.515,379.427l4.463,7.239l2.33,3.774l-6.139,11.388l-12.935,0.379l-6.794-11.009l0.222-0.409l5.919-10.984
					L65.515,379.427z"/>
				<path fill="#007EFF" d="M101.713,352.227l-29.766,18.365c-7.432-4.612-17.13-4.942-25.075-0.036
					c-9.913,6.116-13.772,18.317-9.726,28.806c6.964,11.016,21.507,14.395,32.624,7.536c3.975-2.451,6.973-5.88,8.881-9.787
					c1.911-3.904,2.723-8.287,2.33-12.643l104.805-64.666l1.223,1.984l25.869-0.757l9.954-18.47l2.325-4.313l-11.142,0.327
					l-6.992,12.967l-14.725,0.433l-3.869-6.269l-1.537-2.495l-2.329-3.774l6.991-12.966l14.726-0.433l2.963-5.501l-21.437,0.627
					l-12.28,22.781l1.222,1.984L101.713,352.227z M63.408,375.243l6.793,11.014l-0.223,0.409l-5.917,10.979l-12.934,0.378
					l-4.466-7.234l-2.329-3.774l6.142-11.394L63.408,375.243z"/>
			</g>
			<g>
				<g>
					<path fill="#007EFF" d="M115.864,271.394c0,2.444,1.988,4.433,4.432,4.433c2.443,0,4.432-1.989,4.432-4.433
						c0-0.309-0.031-0.614-0.093-0.908c-0.062-0.287-0.149-0.566-0.263-0.833c0,0,0,0-0.002-0.002
						c-0.677-1.58-2.248-2.688-4.074-2.688c-0.279,0-0.556,0.024-0.822,0.079h-0.002c-0.477,0.087-0.928,0.253-1.337,0.484
						C116.78,268.286,115.864,269.735,115.864,271.394z M116.555,271.394c0-1.647,1.072-3.052,2.556-3.546
						c0.373-0.127,0.77-0.195,1.185-0.195c0.29,0,0.573,0.034,0.844,0.099c0.657,0.149,1.252,0.477,1.726,0.929
						c0.491,0.462,0.855,1.057,1.038,1.726c0.088,0.316,0.133,0.647,0.133,0.987c0,2.063-1.679,3.742-3.741,3.742
						C118.233,275.136,116.555,273.457,116.555,271.394z"/>
				</g>
				<g>
					<path fill="#FB9A83" d="M97.865,284.855v8.812c0,0,2.626,4.488,6.181,4.794c3.549,0.309,6.707-3.863,6.707-3.863v-9.122
						L97.865,284.855z"/>
					<path fill="#FF6D6B" d="M107.206,286.985c0,0,0.57,3.124,3.546,4.267v-4.046L107.206,286.985z"/>
				</g>
				<path fill="#FB9A83" d="M109.749,288.725c-13.27,3.755-17.624-6.498-19.479-12.99c-0.205-0.721-0.391-1.522-0.553-2.378
					c-0.006-0.034-0.012-0.069-0.021-0.108c-0.181-0.961-0.336-1.986-0.469-3.039c-0.099-0.781-0.183-1.573-0.258-2.373
					c-0.189-1.939-0.313-3.885-0.394-5.611c-0.189-3.947,2.174-7.577,5.87-8.995c5.327-2.048,13.414-3.669,21.078,0.676
					c2.832,1.603,4.606,4.576,4.669,7.829c0,0,1.338,5.198,0.703,7.529c-0.634,2.333-0.776,3.038-0.987,6.141
					c-0.212,3.104-1.976,10.58-3.809,12.133C114.267,289.091,109.749,288.725,109.749,288.725z"/>
				<g>
					<g>
						<g>
							<g>
								<path fill="#FF6D6B" d="M114.684,274.972c-0.178-0.04-0.316-0.195-0.327-0.387c-0.155-2.836-2.681-4.534-2.707-4.551
									c-0.192-0.127-0.246-0.387-0.12-0.58c0.126-0.193,0.386-0.247,0.579-0.121c0.118,0.078,2.904,1.939,3.083,5.206
									c0.012,0.231-0.164,0.429-0.396,0.442C114.759,274.982,114.721,274.98,114.684,274.972z"/>
							</g>
						</g>
					</g>
					<g>
						<g>
							<g>
								<path fill="#FF6D6B" d="M112.191,273.006c-0.076-0.017-0.148-0.056-0.207-0.114c-0.162-0.165-0.161-0.43,0.003-0.592
									c0.028-0.027,0.683-0.665,1.809-0.895c0.226-0.048,0.448,0.099,0.494,0.326c0.046,0.226-0.1,0.448-0.326,0.494
									c-0.871,0.178-1.383,0.666-1.388,0.67C112.472,272.998,112.326,273.036,112.191,273.006z"/>
							</g>
						</g>
					</g>
				</g>
				<g>
					<path fill="#021147" d="M88.108,268.47c0.537,7.033,3.62,14.619,3.62,14.619c3.367,7.428,9.636,6.066,13.023,5.051
						c2.476-0.742,5.834-3.491,7.206-4.754c1.051-0.969,1.687-2.401,2.059-3.589c0.273-0.871-0.356-1.737-1.265-1.824
						c-1.579-0.152-3.222-1.491-3.617-5.21c-0.669-6.308,3.541-6.313,3.541-6.313c2.55-0.226,3.906,2.972,3.906,2.972
						s1.571-2.044,1.247-5.406c-0.285-2.948,2.688-0.848,2.688-0.848s4.176-3.63,4.271-7.205c0.093-3.574-1.989-3.716-3.863-4.632
						s2.452-4.302,0.382-6.088c-2.069-1.787-4.419-1.976-6.112-1.035c-1.693,0.94-2.258-3.668-4.844-3.762
						c-2.586-0.094-4.232,2.728-6.042,1.599c-1.81-1.128-6.419-2.821-8.487,0.659c-2.069,3.479-2.633,4.373-4.326,4.561
						c-1.692,0.188-6.395,3.433-5.455,8.793C86.98,261.417,87.795,264.363,88.108,268.47z"/>
				</g>
				<g>
					<path fill="#007EFF" d="M113.736,266.553c0.437,0.13,0.824,0.356,1.163,0.626c0.85-0.099,1.747-0.01,2.632,0.192
						c0.203,0.048,0.403,0.099,0.604,0.154c0.33,0.096,0.657,0.204,0.976,0.322c0.663,0.243,1.307,0.534,1.899,0.833
						c1.25,0.628,2.291,1.309,2.894,1.726c0.356,0.248,0.562,0.407,0.573,0.416l0.158-0.336c-0.062-0.287-0.149-0.566-0.263-0.833
						c0,0,0,0-0.002-0.002c-0.347-0.243-0.866-0.59-1.504-0.97c-0.508-0.303-1.092-0.624-1.726-0.929
						c-0.023-0.012-0.046-0.022-0.071-0.034c-0.502-0.243-1.039-0.472-1.595-0.677h-0.002c-0.564-0.207-1.151-0.384-1.744-0.514
						C116.391,266.231,115.014,266.17,113.736,266.553z"/>
				</g>
			</g>
			<g>
				<g>
					<path fill="#007EFF" d="M131.509,547.337c0.967,0.13,2.143,0.192,3.132-0.033l1.471-0.478l2.416-0.729
						c0,0,8.678-3.408,11.751-6.396s2.524-6.275-2.266-7.878c-4.791-1.604-9.073-0.086-11.634-1.111c0,0-7.669,0.646-7.242,4.742
						c-0.099,3.813-0.327,5.833,0.183,9.686C129.472,546.282,130.368,547.186,131.509,547.337z"/>
					<g>
						<path fill="#FFFFFF" d="M135.753,532.545c-0.132-0.029-0.253-0.109-0.329-0.234c-0.147-0.24-0.072-0.555,0.169-0.702
							c0.081-0.05,1.992-1.207,3.671-1.145c2.237,0.08,3.054,1.819,3.087,1.896c0.118,0.257,0.004,0.56-0.253,0.676
							c-0.256,0.118-0.56,0.006-0.677-0.253c-0.022-0.047-0.604-1.236-2.194-1.296c-1.374-0.051-3.083,0.983-3.1,0.994
							C136.011,532.553,135.876,532.57,135.753,532.545z"/>
					</g>
					<g>
						<path fill="#FFFFFF" d="M137.474,532.354c-0.132-0.028-0.252-0.107-0.329-0.232c-0.146-0.24-0.071-0.556,0.169-0.702
							c0.081-0.05,1.992-1.207,3.671-1.145c2.236,0.08,3.054,1.819,3.087,1.895c0.117,0.256,0.004,0.561-0.253,0.677
							c-0.256,0.117-0.561,0.004-0.677-0.253c-0.023-0.047-0.604-1.238-2.194-1.298c-1.375-0.051-3.082,0.984-3.1,0.995
							C137.731,532.361,137.597,532.381,137.474,532.354z"/>
					</g>
					<g>
						<path fill="#FFFFFF" d="M139.155,532.003c-0.131-0.028-0.252-0.107-0.328-0.232c-0.147-0.241-0.071-0.556,0.169-0.703
							c0.081-0.049,1.992-1.207,3.671-1.146c2.236,0.082,3.053,1.821,3.087,1.896c0.117,0.256,0.004,0.56-0.253,0.677
							s-0.561,0.004-0.677-0.253c-0.023-0.047-0.605-1.238-2.195-1.298c-1.374-0.051-3.083,0.984-3.1,0.995
							C139.414,532.011,139.279,532.03,139.155,532.003z"/>
					</g>
				</g>
				<path fill="#FB9A83" d="M138.149,525.442l-0.469,8.056c-2.979,0.823-5.216,1.203-6.905-0.111l-0.481-8.544L138.149,525.442z"/>
				<g>
					<g>
						<path fill="#3B3E7D" d="M140.594,528.776c-4.451,2.75-11.594,1.145-11.594,1.145c0.853-0.15-6.225-53.102-7.157-61.075
							c-0.859-7.359-10.033-28.726-13.89-40.849c-0.268-0.842-0.508-1.64-0.722-2.385c-0.302-1.063-0.591-2.077-0.863-3.031
							c-1.705-5.938-2.825-9.711-2.825-9.711L129,407.305c0.756,2.856,1.471,5.672,2.148,8.452c0.147,0.608,0.292,1.214,0.437,1.815
							c0.089,0.381,0.178,0.763,0.268,1.141C147.465,485.031,140.594,528.776,140.594,528.776z"/>
					</g>
					<g>
						<path fill="#18285D" d="M131.585,417.572c-8.745,3.2-17.296,4.647-25.216,5.009c-1.705-5.938-2.825-9.711-2.825-9.711
							L129,407.305c0.756,2.856,1.471,5.672,2.148,8.452C131.296,416.365,131.44,416.971,131.585,417.572z"/>
					</g>
				</g>
			</g>
			<g>
				<g>
					<path fill="#007EFF" d="M65.51,545.568c0.893,0.394,2.004,0.781,3.018,0.842l1.546-0.047l2.522-0.025
						c0,0,9.285-0.845,13.07-2.855c3.786-2.01,4.177-5.32,0.025-8.198c-4.151-2.879-8.687-2.617-10.859-4.316
						c0,0-7.544-1.523-8.28,2.529c-1.16,3.634-1.943,5.508-2.53,9.35C63.849,543.984,64.457,545.104,65.51,545.568z"/>
					<g>
						<path fill="#FFFFFF" d="M73.719,532.55c-0.118-0.063-0.211-0.176-0.25-0.315c-0.075-0.273,0.086-0.554,0.358-0.628
							c0.092-0.024,2.25-0.603,3.845-0.072c2.125,0.702,2.424,2.602,2.435,2.682c0.041,0.279-0.152,0.539-0.432,0.58
							c-0.279,0.041-0.539-0.152-0.58-0.433c-0.008-0.051-0.234-1.357-1.744-1.859c-1.306-0.432-3.235,0.085-3.254,0.09
							C73.965,532.629,73.831,532.611,73.719,532.55z"/>
					</g>
					<g>
						<path fill="#FFFFFF" d="M75.425,532.849c-0.119-0.063-0.212-0.176-0.25-0.315c-0.074-0.273,0.086-0.554,0.359-0.628
							c0.091-0.024,2.25-0.603,3.845-0.072c2.125,0.702,2.423,2.602,2.434,2.682c0.042,0.279-0.152,0.539-0.432,0.579
							c-0.279,0.042-0.539-0.151-0.579-0.432c-0.008-0.051-0.235-1.357-1.745-1.859c-1.305-0.433-3.235,0.084-3.254,0.09
							C75.67,532.928,75.536,532.909,75.425,532.849z"/>
					</g>
					<g>
						<path fill="#FFFFFF" d="M77.137,532.982c-0.118-0.065-0.212-0.176-0.25-0.315c-0.074-0.273,0.087-0.554,0.359-0.629
							c0.092-0.024,2.25-0.602,3.845-0.073c2.125,0.703,2.423,2.602,2.435,2.683c0.041,0.28-0.152,0.539-0.432,0.581
							c-0.279,0.04-0.54-0.152-0.58-0.433c-0.008-0.053-0.234-1.357-1.744-1.859c-1.306-0.434-3.235,0.083-3.254,0.089
							C77.383,533.062,77.249,533.042,77.137,532.982z"/>
					</g>
				</g>
				<path fill="#FB9A83" d="M78.005,526.401l-2.702,7.604c-3.09-0.042-5.345-0.303-6.6-2.037l1.926-8.339L78.005,526.401z"/>
				<g>
					<g>
						<path fill="#3B3E7D" d="M102.237,410.412c-0.072,2.956-0.175,5.857-0.302,8.718c-0.052,1.157-0.11,2.34-0.179,3.543
							c-0.117,2.065-0.254,4.19-0.413,6.349c-1.244,17.245-3.667,36.713-5.547,46.478c-1.248,6.477-16.375,54.787-16.375,54.787
							c-4.974,1.374-11.277-2.046-11.449-2.142c0.866,0,7.204-57.986,9.202-62.228c1.254-2.667,0.109-9.693-0.829-39.697
							c-0.042-1.389-0.085-2.825-0.127-4.313c-0.027-0.979-0.048-1.918-0.062-2.812c-0.106-6.37,0.083-10.453,0.083-10.453
							L102.237,410.412z"/>
					</g>
					<g>
						<path fill="#18285D" d="M76.238,408.642l25.999,1.771c-0.072,2.956-0.175,5.857-0.302,8.718
							c-0.052,1.157-0.11,2.34-0.179,3.543c-10.133-0.048-19.008-1.76-25.601-3.578C76.049,412.725,76.238,408.642,76.238,408.642z"
							/>
					</g>
				</g>
			</g>
			<g>
				<g>
					<path fill="#00A0FF" d="M131.585,408.784c0,0-15.512,6.092-29.348,6.159c-13.834,0.066-27.082-1.253-27.082-1.253
						s-1.159-20.913-1.915-44.275c-0.048-1.53-0.097-3.07-0.141-4.613c-0.052-1.712-0.097-3.435-0.145-5.152
						c-0.038-1.537-0.075-3.076-0.11-4.61c-0.044-1.969-0.083-3.928-0.117-5.87c-0.027-1.55-0.048-3.082-0.069-4.603
						c-0.213-17.615-1.049-33.486,1.784-37.051c5.822-7.321,23.421-14.682,23.421-14.682c3.907,1.106,8.31,1.476,13.306,0.961
						c0,0,9.851,7.443,16.757,12.479c5.455,3.976,1.151,18.186,1.454,37.691c0.021,1.488,0.049,3.004,0.076,4.54
						c0.011,0.495,0.021,0.997,0.031,1.498c0.028,1.351,0.063,2.812,0.103,4.355c0.038,1.439,0.08,2.956,0.127,4.527
						c0.048,1.653,0.1,3.365,0.158,5.121c0.049,1.484,0.097,3,0.151,4.53C130.667,387.401,131.585,408.784,131.585,408.784z"/>
				</g>
				<g>
					<path fill="#007EFF" d="M97.822,302.844c8.581,0.802,14.276-3.757,14.536-3.969c0.21-0.173,0.242-0.482,0.069-0.692
						c-0.171-0.21-0.482-0.241-0.692-0.07c-0.065,0.054-6.697,5.345-16.146,3.404c-0.265-0.055-0.526,0.117-0.581,0.384
						c-0.055,0.266,0.117,0.525,0.383,0.58C96.223,302.652,97.035,302.771,97.822,302.844z"/>
				</g>
				<g>
					<g>
						<path fill="#007EFF" d="M129.457,348.506c-11.81,2.272-22.342,3.042-31.196,3.042c-11.841,0-20.675-1.379-25.532-2.379
							c-0.027-1.55-0.048-3.082-0.069-4.603c7.415,1.585,28.55,4.93,56.721-0.601C129.402,345.454,129.43,346.97,129.457,348.506z"
							/>
					</g>
					<g>
						<path fill="#007EFF" d="M129.718,358.887c-11.917,2.313-22.542,3.093-31.458,3.093c-11.659,0-20.4-1.333-25.305-2.33
							c-0.038-1.537-0.075-3.076-0.11-4.61c7.593,1.605,28.701,4.864,56.745-0.68C129.629,355.799,129.67,357.315,129.718,358.887z"
							/>
					</g>
					<g>
						<path fill="#007EFF" d="M130.027,368.538c-12.04,2.357-22.771,3.151-31.767,3.151c-11.436,0-20.067-1.282-25.02-2.274
							c-0.048-1.53-0.097-3.07-0.141-4.613c7.83,1.626,28.9,4.771,56.775-0.794C129.925,365.492,129.973,367.008,130.027,368.538z"
							/>
					</g>
				</g>
			</g>
			<path fill="#00A0FF" d="M129.121,307.518c0,0,24.322,37.725,28.334,35.249c6.049-3.732,11.221-6.924,11.221-6.924l5.72-3.529
				c0,0-3.397,22.106-16.802,26.55c-8.413,2.789-31.25-25.936-31.25-25.936S126.344,313.476,129.121,307.518z"/>
		</g>
	</g>
	<g>
		<path fill="#007EFF" d="M373.65,385.458c-25.958-34.898-42.352-67.092-42.352-67.092l0.823,24.129
			c0,0,24.669,39.735,32.377,47.998C367.571,390.493,373.65,389.447,373.65,385.458z"/>
		<g>
			<path fill="#00A0FF" d="M309.331,312.568c0,0-4.285,1.151-8.445,2.188c-3.828,0.956-5.955,2.073-5.955,2.073
				s-0.379,36.629,0,47.747c0.378,11.116-3.225,21.317-2.517,27.81c0,0,31.771,2.247,38.547-0.443c0,0-2.623-28.602,0.338-36.634
				c3.008-8.156,4.585-13.842,3.88-17.167c-1.81-8.536-3.96-9.813-3.399-17.672C332.341,312.611,309.331,312.568,309.331,312.568z"
				/>
			<g>
				<path fill="#007EFF" d="M323.089,325.797c-8.618,0-13.865-5.069-14.104-5.304c-0.193-0.191-0.195-0.502-0.004-0.695
					c0.19-0.193,0.502-0.196,0.695-0.007c0.061,0.061,6.171,5.945,15.759,4.892c0.27-0.028,0.514,0.167,0.545,0.437
					c0.028,0.27-0.167,0.514-0.437,0.543C324.698,325.755,323.879,325.797,323.089,325.797z"/>
			</g>
			<g>
				<path fill="#007EFF" d="M302.514,371.423c-0.264,0-0.481-0.208-0.491-0.474c-0.009-0.271,0.202-0.499,0.474-0.51
					c0.132-0.005,13.253-0.611,22.265-12.516c0.163-0.217,0.473-0.26,0.689-0.096c0.216,0.165,0.259,0.473,0.095,0.689
					c-9.304,12.29-22.878,12.9-23.014,12.905C302.525,371.423,302.52,371.423,302.514,371.423z"/>
			</g>
			<g>
				<path fill="#007EFF" d="M302.086,376.083c-1.032,0-1.632-0.061-1.66-0.064c-0.271-0.03-0.464-0.272-0.434-0.543
					c0.03-0.271,0.272-0.464,0.543-0.436c0.131,0.018,13.2,1.332,23.853-9.128c0.195-0.191,0.507-0.188,0.696,0.007
					c0.191,0.193,0.188,0.505-0.006,0.694C316.355,375.18,306.045,376.083,302.086,376.083z"/>
			</g>
		</g>
		<g>
			<g>
				<polygon fill="#FB9A83" points="428.731,410.691 437.121,413.651 434.291,421.282 425.224,418.646 				"/>
				<g>
					<g>
						<path fill="#007EFF" d="M435.87,414.714c0,0-1.847-2.816-1.189-4.277c0.657-1.46,14.091-9.669,16.3-13.356
							c2.211-3.686,4.848-1.85,6.073-0.576c1.227,1.272-12.128,31.423-12.128,31.423s-9.509-2.516-11.953-4.554
							S435.401,418.058,435.87,414.714z"/>
						<g>
							<g>
								<path fill="#FFFFFF" d="M444.63,410.665c-0.01,0.156-0.08,0.308-0.208,0.416c-0.25,0.211-0.622,0.18-0.833-0.069
									c-0.071-0.083-1.731-2.063-1.956-3.992c-0.303-2.569,1.542-3.813,1.621-3.864c0.271-0.18,0.639-0.103,0.818,0.17
									c0.179,0.272,0.104,0.639-0.17,0.818c-0.05,0.034-1.307,0.909-1.095,2.738c0.183,1.572,1.669,3.348,1.684,3.366
									C444.593,410.369,444.639,410.52,444.63,410.665z"/>
							</g>
							<g>
								<path fill="#FFFFFF" d="M442.46,411.75c-0.009,0.154-0.079,0.306-0.207,0.415c-0.25,0.211-0.623,0.18-0.834-0.068
									c-0.07-0.085-1.73-2.064-1.956-3.994c-0.303-2.57,1.541-3.813,1.621-3.863c0.272-0.18,0.639-0.104,0.817,0.169
									c0.18,0.273,0.104,0.641-0.17,0.82c-0.049,0.033-1.307,0.909-1.095,2.736c0.186,1.579,1.67,3.349,1.685,3.366
									C442.424,411.452,442.47,411.603,442.46,411.75z"/>
							</g>
							<g>
								<path fill="#FFFFFF" d="M446.721,408.886c-0.011,0.155-0.081,0.308-0.209,0.415c-0.25,0.212-0.622,0.181-0.833-0.068
									c-0.071-0.083-1.731-2.063-1.957-3.994c-0.303-2.57,1.542-3.811,1.621-3.862c0.272-0.18,0.639-0.104,0.818,0.17
									c0.179,0.271,0.104,0.639-0.169,0.818c-0.051,0.033-1.309,0.91-1.095,2.738c0.184,1.579,1.669,3.348,1.684,3.365
									C446.683,408.59,446.729,408.739,446.721,408.886z"/>
							</g>
						</g>
					</g>
				</g>
			</g>
			<g>
				<g>
					<g>
						<g>
							<g>
								<path fill="#021147" d="M317.33,395.618c0,0,33.902-9.873,50.87-10.552c16.982-0.669,62.699,24.567,62.699,24.567
									c1.092,2.652,0.378,5.6-1.402,8.254c-0.254,0.384-0.525,0.746-0.816,1.087c-0.627,0.801-1.35,1.537-2.148,2.23
									c0,0-33.751-4.325-56.298-16.281c0,0-31.661,7.886-49.884,7.38C320.351,412.304,312.833,406.028,317.33,395.618"/>
							</g>
						</g>
					</g>
				</g>
			</g>
		</g>
		<g>
			<g>
				<circle fill="#021147" cx="317.65" cy="284.242" r="18.06"/>
				<circle fill="#021147" cx="311.055" cy="266.582" r="11.067"/>
				<g>
					<path fill="#FF6D6B" d="M330.603,289.232c0,0,2.744-2.868,4.32-0.129c1.575,2.738-1.722,10.067-6.002,7.793L330.603,289.232z"
						/>
					<circle fill="#FFFFFF" cx="331.779" cy="296.638" r="0.818"/>
					<g>
						<g>
							<g>
								<path fill="#ED495C" d="M330.117,294.648c0.165,0.016,0.325-0.072,0.388-0.228c0.913-2.271,3.554-2.977,3.581-2.983
									c0.2-0.052,0.318-0.249,0.263-0.44c-0.056-0.192-0.265-0.305-0.467-0.254c-0.122,0.031-3.031,0.799-4.085,3.416
									c-0.073,0.186,0.025,0.394,0.22,0.466C330.051,294.638,330.083,294.646,330.117,294.648z"/>
							</g>
						</g>
					</g>
					<g>
						<g>
							<g>
								<path fill="#ED495C" d="M332.804,293.716c0.069,0.007,0.142-0.004,0.21-0.038c0.184-0.089,0.256-0.306,0.159-0.482
									c-0.017-0.03-0.405-0.727-1.311-1.219c-0.181-0.099-0.413-0.039-0.514,0.134c-0.104,0.172-0.038,0.393,0.144,0.491
									c0.7,0.379,1.007,0.916,1.011,0.921C332.563,293.636,332.68,293.704,332.804,293.716z"/>
							</g>
						</g>
					</g>
				</g>
				<path fill="#FB9A83" d="M310.219,303.276l-0.888,9.292c0,0,4.001,3.746,7.343,4.356c3.338,0.616,4.881-3.246,4.881-3.246
					l0.825-8.648L310.219,303.276z"/>
				<path fill="#FF6D6B" d="M310.131,304.188l-0.354,3.707c2.021,2.725,5.951,3.997,11.976,3.687l0.539-5.64L310.131,304.188z"/>
				<path fill="#FB9A83" d="M331.736,292.905c-0.192,0.888-0.406,1.789-0.654,2.683c-1.645,5.94-6.091,12.103-11.021,12.737
					c-10.648,1.37-14.194-7.228-15.284-13.426c-0.12-0.688,0.299-1.424,0.229-2.231c-0.166-1.916-0.722-4.125-0.694-6.25
					c0.021-1.474,0.074-2.923,0.137-4.23c0.181-3.688,2.63-6.859,6.081-7.861c4.974-1.448,12.393-2.263,18.896,2.438
					c2.403,1.735,3.736,4.651,3.505,7.682C332.754,286.761,332.406,289.776,331.736,292.905z"/>
				<g>
					<g>
						<g>
							<path fill="#FF6D6B" d="M318.573,296.367c-0.195-0.019-0.354-0.175-0.367-0.376c-0.017-0.224,0.152-0.418,0.377-0.434
								l1.412-0.102l-1.429-5.283c-0.059-0.217,0.07-0.44,0.287-0.499c0.217-0.057,0.44,0.07,0.499,0.287l1.686,6.235l-2.397,0.172
								C318.617,296.369,318.595,296.369,318.573,296.367z"/>
						</g>
					</g>
				</g>
				<g>
					<path fill="#021147" d="M328.694,282.343c3.896,2.247,2.706,8.387,2.44,13.047c-0.01,0.183,1.01-3.32,1.115-3.393
						c0.695-3.188,1.051-6.262,1.23-8.621c0.234-3.09-1.181-6.067-3.718-7.845c-6.871-4.812-14.688-4.007-19.923-2.547
						c-3.633,1.009-6.203,4.235-6.383,7.996c-0.062,1.333-0.113,2.811-0.13,4.313c0.638,0.466,2.272,0.808,2.237,1.901
						c-0.091,2.891-0.312,7.791,0.297,7.637c0.711-0.179,1.545-6.754,1.24-8.855c0,0,1.076-1.428,5.011-2.527
						c5.046-1.412,9.999-3.742,9.999-3.742s1.955-0.937,2.78-2.082C324.891,277.623,325.729,280.631,328.694,282.343z"/>
				</g>
				<g>
					
						<ellipse transform="matrix(-0.9955 -0.0951 0.0951 -0.9955 622.2605 610.4361)" fill="#021147" cx="325.683" cy="290.383" rx="1.032" ry="1.623"/>
				</g>
				<g>
					
						<ellipse transform="matrix(-0.9955 -0.0952 0.0952 -0.9955 598.2291 607.0577)" fill="#021147" cx="313.594" cy="289.26" rx="1.031" ry="1.622"/>
				</g>
				<g>
					<path fill="#021147" d="M328.063,285.837c-0.81-0.24-2.454-0.665-4.237-0.771c-0.469-0.028-0.878,0.288-0.85,0.666l0.002,0.011
						c0.023,0.302,0.323,0.532,0.699,0.539c1.22,0.024,4.387,0.347,5.82,0.928c0.062-0.211-0.06-0.451-0.249-0.669
						C328.961,286.209,328.536,285.978,328.063,285.837z"/>
				</g>
				<g>
					<path fill="#021147" d="M311.54,284.455c0.84-0.094,2.533-0.222,4.307-0.015c0.468,0.055,0.813,0.438,0.718,0.806l-0.001,0.009
						c-0.077,0.294-0.412,0.468-0.784,0.409c-1.206-0.19-4.38-0.43-5.893-0.11c-0.024-0.218,0.138-0.434,0.362-0.614
						C310.589,284.664,311.05,284.51,311.54,284.455z"/>
				</g>
				<path fill="#FFFFFF" d="M322.83,299.206c-0.435,1.39-1.682,3.905-5.042,3.585c-3.368-0.321-4.084-2.798-4.251-4.472
					L322.83,299.206z"/>
				<g>
					<path fill="#FF6D6B" d="M317.604,305.235c0.97,0.092,1.876-0.348,1.913-0.366c0.198-0.098,0.279-0.337,0.183-0.534
						c-0.098-0.197-0.337-0.277-0.534-0.182l0,0c-0.008,0.004-0.745,0.358-1.486,0.288c-0.8-0.076-1.477-0.568-1.482-0.574
						c-0.179-0.13-0.427-0.093-0.558,0.085c-0.13,0.177-0.094,0.425,0.082,0.556C315.756,304.534,316.576,305.138,317.604,305.235z"
						/>
				</g>
			</g>
			<g>
				<path fill="#FB9A83" d="M305.502,286.812c0,0-2.517-3.727-4.435-1.396c-1.917,2.33-0.245,9.913,4.039,8.51L305.502,286.812z"/>
				<circle fill="#FFFFFF" cx="303.32" cy="293.921" r="0.818"/>
				<g>
					<path fill="#FF6D6B" d="M304.426,291.566c-0.152-0.015-0.282-0.129-0.311-0.286c-0.42-2.332-2.685-3.478-2.708-3.488
						c-0.173-0.086-0.244-0.295-0.158-0.468c0.085-0.173,0.294-0.244,0.466-0.158c0.107,0.052,2.604,1.305,3.087,3.99
						c0.035,0.189-0.091,0.371-0.282,0.406C304.489,291.567,304.457,291.569,304.426,291.566z"/>
				</g>
				<g>
					<g>
						<g>
							<path fill="#FF6D6B" d="M302.16,290.194c-0.064-0.005-0.128-0.029-0.183-0.072c-0.152-0.119-0.178-0.339-0.059-0.491
								c0.02-0.024,0.497-0.619,1.405-0.926c0.182-0.063,0.38,0.036,0.442,0.22c0.062,0.182-0.037,0.38-0.219,0.441
								c-0.702,0.237-1.076,0.693-1.079,0.697C302.391,290.161,302.274,290.206,302.16,290.194z"/>
						</g>
					</g>
				</g>
			</g>
			<g>
				<g>
					<path fill="#FFFFFF" d="M318.126,288.438c0.024-0.242-0.007-0.477-0.082-0.695c-0.201-0.596-0.729-1.052-1.396-1.131
						l-5.885-0.693c-0.463-0.055-0.902,0.083-1.241,0.351c-0.186,0.146-0.339,0.331-0.449,0.545
						c-0.094,0.177-0.157,0.372-0.182,0.58l-0.088,0.752c-0.151,1.275,0.206,2.552,0.978,3.507c0.771,0.946,1.711,1.504,2.801,1.655
						l0.155,0.019c1.259,0.148,2.5-0.2,3.502-0.985c1.016-0.795,1.657-1.939,1.808-3.223l0.075-0.637
						C318.126,288.469,318.127,288.451,318.126,288.438z M317.354,289.036c-0.13,1.098-0.68,2.074-1.544,2.754
						c-0.857,0.671-1.917,0.969-2.991,0.841l-0.141-0.017c-0.907-0.127-1.699-0.599-2.353-1.402
						c-0.655-0.808-0.957-1.896-0.828-2.985l0.088-0.752c0.064-0.541,0.553-0.927,1.095-0.863l5.885,0.694
						c0.539,0.064,0.927,0.553,0.863,1.094L317.354,289.036z"/>
				</g>
				<g>
					<path fill="#FFFFFF" d="M330.591,289.497c-0.033-0.236-0.122-0.461-0.249-0.658c-0.264-0.404-0.699-0.695-1.216-0.756
						l-5.887-0.693c-0.683-0.081-1.319,0.26-1.648,0.817c-0.111,0.188-0.187,0.399-0.217,0.625
						c-0.004,0.012-0.005,0.021-0.006,0.032l-0.089,0.753c-0.15,1.275,0.208,2.552,0.98,3.507c0.768,0.946,1.712,1.502,2.8,1.654
						l0.156,0.02c1.259,0.148,2.502-0.201,3.502-0.986c1.015-0.796,1.659-1.94,1.81-3.222l0.075-0.637
						C330.621,289.799,330.618,289.646,330.591,289.497z M329.832,290.508c-0.128,1.098-0.678,2.074-1.547,2.754
						c-0.853,0.671-1.913,0.969-2.987,0.841l-0.144-0.017c-0.907-0.129-1.698-0.599-2.353-1.404
						c-0.653-0.807-0.956-1.895-0.827-2.983l0.088-0.752c0.063-0.541,0.555-0.927,1.095-0.863l5.888,0.694
						c0.539,0.064,0.927,0.553,0.863,1.094L329.832,290.508z"/>
				</g>
				<g>
					<path fill="#FFFFFF" d="M309.522,286.269c-0.559-0.365-2.032-1.171-4.215-1.262l0.181,0.716
						c1.813,0.122,3.069,0.771,3.585,1.091c0.17,0.105,0.261,0.175,0.266,0.177l0.432-0.547
						C309.754,286.43,309.67,286.363,309.522,286.269z"/>
				</g>
				<g>
					<path fill="#FFFFFF" d="M317.887,288.48l-0.15-0.684c0.043-0.009,1.058-0.229,2.128-0.103c1.14,0.134,1.832,0.57,1.86,0.59
						l-0.376,0.588c-0.006-0.002-0.597-0.37-1.566-0.484C318.833,288.276,317.897,288.478,317.887,288.48z"/>
				</g>
				<g>
					<path fill="#FFFFFF" d="M332.569,288.453c-1.326,0.064-2.443,0.452-2.515,0.478l0.231,0.659
						c0.018-0.006,1.166-0.401,2.46-0.442L332.569,288.453z"/>
				</g>
			</g>
		</g>
		<g>
			<g>
				<polygon fill="#FB9A83" points="355.44,457.579 352.434,466.493 344.563,465.749 347.233,456.264 				"/>
				<g>
					<g>
						<path fill="#007EFF" d="M351.88,466.187c0,0,2.003-2.708,3.601-2.597c1.599,0.111,13.95,9.873,18.174,10.669
							c4.224,0.798,3.413,3.908,2.645,5.499c-0.771,1.59-33.68-0.502-33.68-0.502s-0.931-9.791,0.134-12.79
							C343.819,463.467,348.58,466.905,351.88,466.187z"/>
						<g>
							<g>
								<path fill="#FFFFFF" d="M358.711,473.003c-0.149,0.046-0.315,0.032-0.462-0.051c-0.285-0.161-0.385-0.521-0.224-0.805
									c0.053-0.097,1.336-2.338,3.069-3.219c2.305-1.172,4.109,0.127,4.185,0.185c0.264,0.192,0.319,0.563,0.124,0.826
									c-0.193,0.262-0.563,0.317-0.827,0.124c-0.048-0.035-1.304-0.911-2.946-0.08c-1.412,0.717-2.564,2.726-2.576,2.745
									C358.976,472.866,358.852,472.962,358.711,473.003z"/>
							</g>
							<g>
								<path fill="#FFFFFF" d="M356.943,471.343c-0.149,0.046-0.315,0.033-0.463-0.051c-0.284-0.16-0.384-0.521-0.223-0.806
									c0.053-0.096,1.336-2.338,3.068-3.218c2.308-1.174,4.11,0.127,4.186,0.184c0.264,0.193,0.319,0.563,0.124,0.827
									c-0.193,0.262-0.563,0.318-0.827,0.123c-0.049-0.035-1.306-0.912-2.945-0.079c-1.419,0.72-2.564,2.725-2.576,2.746
									C357.209,471.207,357.083,471.3,356.943,471.343z"/>
							</g>
							<g>
								<path fill="#FFFFFF" d="M361.104,474.349c-0.149,0.046-0.316,0.031-0.462-0.052c-0.285-0.161-0.385-0.521-0.225-0.806
									c0.054-0.095,1.337-2.338,3.07-3.219c2.307-1.174,4.109,0.128,4.185,0.184c0.263,0.193,0.318,0.565,0.125,0.827
									c-0.193,0.263-0.565,0.318-0.828,0.123c-0.049-0.033-1.306-0.91-2.946-0.079c-1.419,0.722-2.564,2.726-2.576,2.746
									C361.37,474.211,361.245,474.306,361.104,474.349z"/>
							</g>
						</g>
					</g>
				</g>
			</g>
			<g>
				<path fill="#3B3E7D" d="M291.948,396.335c-0.429,3.644,0.184,7.357,1.903,10.6c2.533,4.777,7.99,9.778,19.742,9.161
					c25.028-1.316,42.68,0,42.68,0s-2.606,8.441-5.412,20.699c-1.649,7.204-6.807,24.687-6.807,24.687
					c3.394,1.997,7.002,1.484,10.623,0.82c0,0,25.991-44.584,23.725-59.084c-2.267-14.502-85.987-10.831-85.987-10.831
					L291.948,396.335z"/>
			</g>
		</g>
		<g>
			<path fill="#007EFF" d="M344.054,384.785c-11.787-7.438-30.459-21.612-30.459-21.612s-11.75-22.745-18.664-46.343
				c0,0-7.844,9.045-2.404,29.285c5.301,19.721,13.822,26.8,13.822,26.8s21.785,15.604,33.316,19.472
				C341.481,389.346,342.383,387.906,344.054,384.785z"/>
		</g>
		<g>
			<path fill="#0060E6" d="M398.266,393.906l-73.869,0.974c-1.322,0.018-2.408-1.04-2.425-2.361l-0.016-1.162
				c-0.018-1.321,1.039-2.407,2.361-2.424l73.869-0.974c1.322-0.019,2.408,1.039,2.425,2.359l0.016,1.163
				C400.644,392.802,399.587,393.888,398.266,393.906z"/>
			<g>
				<g>
					<polygon fill="#00A0FF" points="400.658,393.874 336.212,394.725 355.406,359.341 419.737,358.705 					"/>
					<polygon fill="#0060E6" points="396.658,393.915 396.652,393.927 332.322,394.563 351.399,359.394 355.401,359.352 
						336.328,394.512 					"/>
				</g>
				<circle fill="#007EFF" cx="378.844" cy="376.597" r="4.099"/>
			</g>
		</g>
	</g>
	<g>
		<ellipse fill="#D9E4F5" cx="566.189" cy="506.142" rx="53.912" ry="10.513"/>
		<g>
			<g>
				<g>
					<path fill="#007EFF" d="M530.28,395.04v108.952c0,2.395,1.941,4.337,4.337,4.337h63.145c1.208,0,2.298-0.494,3.082-1.29
						c0.776-0.779,1.255-1.854,1.255-3.047V395.04c0-2.396-1.941-4.337-4.337-4.337h-63.145c-0.858,0-1.653,0.248-2.326,0.676
						C531.084,392.147,530.28,393.498,530.28,395.04z"/>
					<g>
						<path fill="#00A0FF" d="M549.958,411.715h42.168c1.648,0,2.984-1.336,2.984-2.985l0,0c0-1.646-1.336-2.983-2.984-2.983
							h-42.168c-1.648,0-2.985,1.337-2.985,2.983l0,0C546.973,410.379,548.31,411.715,549.958,411.715z"/>
						<path fill="#00A0FF" d="M549.958,425.31h42.168c1.648,0,2.984-1.335,2.984-2.983l0,0c0-1.648-1.336-2.984-2.984-2.984h-42.168
							c-1.648,0-2.985,1.336-2.985,2.984l0,0C546.973,423.975,548.31,425.31,549.958,425.31z"/>
						<path fill="#00A0FF" d="M549.958,438.904h42.168c1.648,0,2.984-1.335,2.984-2.983l0,0c0-1.648-1.336-2.984-2.984-2.984
							h-42.168c-1.648,0-2.985,1.336-2.985,2.984l0,0C546.973,437.569,548.31,438.904,549.958,438.904z"/>
						<path fill="#00A0FF" d="M549.958,452.501h42.168c1.648,0,2.984-1.337,2.984-2.985l0,0c0-1.647-1.336-2.984-2.984-2.984
							h-42.168c-1.648,0-2.985,1.337-2.985,2.984l0,0C546.973,451.164,548.31,452.501,549.958,452.501z"/>
						<path fill="#00A0FF" d="M549.958,466.096h42.168c1.648,0,2.984-1.336,2.984-2.984l0,0c0-1.648-1.336-2.985-2.984-2.985
							h-42.168c-1.648,0-2.985,1.337-2.985,2.985l0,0C546.973,464.76,548.31,466.096,549.958,466.096z"/>
						<path fill="#00A0FF" d="M549.958,479.69h42.168c1.648,0,2.984-1.336,2.984-2.984l0,0c0-1.648-1.336-2.983-2.984-2.983h-42.168
							c-1.648,0-2.985,1.335-2.985,2.983l0,0C546.973,478.354,548.31,479.69,549.958,479.69z"/>
						<path fill="#00A0FF" d="M549.958,493.286h42.168c1.648,0,2.984-1.337,2.984-2.985l0,0c0-1.648-1.336-2.983-2.984-2.983
							h-42.168c-1.648,0-2.985,1.335-2.985,2.983l0,0C546.973,491.949,548.31,493.286,549.958,493.286z"/>
					</g>
					<g>
						<g>
							<circle fill="#021147" cx="539.727" cy="407.024" r="1.278"/>
						</g>
						<circle fill="#00A0FF" cx="539.727" cy="410.437" r="1.278"/>
						<circle fill="#FFFFFF" cx="539.727" cy="420.619" r="1.278"/>
						<circle fill="#00A0FF" cx="539.727" cy="424.033" r="1.278"/>
						<circle fill="#FFFFFF" cx="539.727" cy="447.81" r="1.278"/>
						<circle fill="#00A0FF" cx="539.727" cy="451.223" r="1.278"/>
						<g>
							<circle fill="#021147" cx="539.727" cy="434.215" r="1.278"/>
						</g>
						<circle fill="#00A0FF" cx="539.727" cy="437.628" r="1.278"/>
					</g>
					<g>
						<g>
							<circle fill="#021147" cx="539.727" cy="461.404" r="1.278"/>
						</g>
						<circle fill="#00A0FF" cx="539.727" cy="464.817" r="1.278"/>
						<circle fill="#FFFFFF" cx="539.727" cy="474.999" r="1.278"/>
						<circle fill="#00A0FF" cx="539.727" cy="478.413" r="1.278"/>
						<g>
							<circle fill="#021147" cx="539.727" cy="488.596" r="1.278"/>
						</g>
						<circle fill="#00A0FF" cx="539.727" cy="492.008" r="1.278"/>
					</g>
					<path fill="#0060E6" d="M543.978,390.703h44.424l0,0c0-2.715-2.202-4.916-4.916-4.916h-34.592
						C546.18,385.787,543.978,387.988,543.978,390.703L543.978,390.703z"/>
				</g>
			</g>
			<g>
				<polygon fill="#00A0FF" points="540.065,282.151 540.065,285.104 564.795,285.104 564.795,385.787 567.747,385.787 
					567.747,282.151 				"/>
			</g>
		</g>
	</g>
	<g>
		<circle fill="#0060E6" cx="566.189" cy="283.628" r="3.824"/>
	</g>
</g>
</svg>
