<?xml version="1.0" encoding="utf-8"?>
<!-- Generator: Adobe Illustrator 16.0.0, SVG Export Plug-In . SVG Version: 6.00 Build 0)  -->
<!DOCTYPE svg PUBLIC "-//W3C//DTD SVG 1.1//EN" "http://www.w3.org/Graphics/SVG/1.1/DTD/svg11.dtd">
<svg version="1.1" id="Layer_1" xmlns="http://www.w3.org/2000/svg" xmlns:xlink="http://www.w3.org/1999/xlink" x="0px" y="0px"
	 width="392.98px" height="560px" viewBox="0 0 392.98 560" enable-background="new 0 0 392.98 560" xml:space="preserve">
<g>
	<rect x="14.765" y="18.133" fill="#FAAEB0" width="241.052" height="14.32"/>
	<polygon fill="#FFC7C7" points="69.054,18.133 54.636,32.453 14.765,32.453 14.765,31.97 26.101,18.133 	"/>
	<rect x="35.221" y="32.453" fill="#FAAEB0" width="200.135" height="28.27"/>
	<polygon fill="#FCA9A9" points="255.817,18.133 255.817,32.453 235.356,32.453 235.356,60.723 156.153,60.723 163.253,32.453 
		166.86,18.133 	"/>
	<path fill="#FAAEB0" d="M243.772,461.636c0,0,0,46.54,0,50.584c0,4.059-12.402,13.857-44.625,21.022
		c-19.431,4.32-42.667,8.44-68.875,8.668c-17.239,0.159-35.769-1.374-55.336-5.633c-49.298-10.741-56.183-26.717-56.183-26.717
		s0-42.416,0-50.397c0-7.994,6.918-11.939,18.729-13.504c25.379-3.343,108.245-0.868,154.055-0.169
		c6.874,0.107,12.908,0.169,17.802,0.169C246.796,445.659,243.772,461.636,243.772,461.636z"/>
	<path fill="#FCA9A9" d="M243.772,461.636c0,0,0,46.54,0,50.584c0,4.059-12.402,13.857-44.625,21.022
		c-19.431,4.32-42.667,8.44-68.875,8.668c6.609-6.939,15.159-16.111,26.186-28.214c26.858-29.504,33.712-54.843,35.079-68.206
		c6.874,0.107,12.908,0.169,17.802,0.169C246.796,445.659,243.772,461.636,243.772,461.636z"/>
	<path opacity="0.6" fill="#FCC2C2" d="M239.81,103.591c-0.087,2.85-0.262,5.782-0.539,8.77
		c-2.599,28.27-19.104,76.158-45.905,100.808c-10.501,9.649-22.916,15.271-35.507,18.013c-11.139,21.45-6.819,35.008-0.119,42.025
		c3.017,3.163,6.54,4.989,9.326,5.591c7.736,3.631,17.044,10.586,23.51,17.735c23.322,25.755,34.252,54.554,39.627,80.572
		c2.438,11.717,3.733,22.858,4.536,32.908c0.597,7.336,0.72,14.367,0.556,20.874l0.062-0.01c2.336,16.902-4.526,38.259-4.526,38.259
		c-1.152,0.658-2.305,1.296-3.436,1.903v0.005c-32.432,17.612-57.87,22.54-119.595,20.061c-34.262-1.374-53.31-6.765-64.081-12.36
		c-6.602-3.415-10.085-6.919-12.067-9.608c0,0-12.898-50.758-2.292-95.885c4.951-21.033,12.836-38.49,22.486-52.733
		c14.541-21.476,33.069-35.62,51.548-43.65c4.572-5.956,6.653-12.859,7.26-19.464c1.034-11.449-2.402-22.015-5.115-25.297
		c-2.171-1.126-4.457-2.536-6.849-4.192c-22.553-15.601-53.642-53.12-65.429-85.705c-6.687-18.476-6.52-37.94-4.526-53.202
		c2.171-16.634,6.486-28.285,6.486-28.285h200.135C235.356,60.723,240.572,79.42,239.81,103.591z"/>
	<path fill="#233FE3" d="M367.972,485.318L336.6,456.436l-6.907-6.362c-0.011,0.051-0.011,0.108-0.021,0.164
		c-1.43,10.19-8.785,51.612-8.785,51.612h-6.336c0,0-5.515-13.229-12.125-38.562c-5.961-22.839-5.652-41.655-5.54-45.144
		c0.012-0.245,0.021-0.411,0.021-0.498c0.011-0.041,0.011-0.076,0.011-0.076s-1.11-1.246-2.809-3.164
		c-4.814-5.452-14.284-16.29-15.914-19.145c-0.088-0.159-0.19-0.355-0.299-0.571c-2.536-5.24-9.825-28.666-14.854-68.561
		c-2.273-18.137-3.709-36.521-4.59-51.474c0,0,0,0,0-0.016c-0.024-0.278-0.03-0.556-0.056-0.817
		c-0.705-12.206-1.06-22.052-1.209-27.463c0-0.19-0.01-0.386-0.01-0.561c-0.082-2.597-0.103-4.028-0.103-4.028
		s3.507,0.417,9.54,0.68c0.175,0.01,0.361,0.025,0.552,0.025c1.924,0.082,4.109,0.139,6.511,0.175h0.546
		c3.596,0.031,7.659-0.016,12.078-0.2c3.349-0.139,6.896-0.36,10.616-0.68c2.593-0.221,5.063-0.555,7.387-0.946
		c4.742-0.818,8.944-1.924,12.555-3.117c0.175-0.057,0.355-0.113,0.52-0.196c2.095-0.689,3.992-1.435,5.669-2.17
		c0.175-0.077,0.35-0.139,0.515-0.211c0.658-0.293,1.275-0.576,1.872-0.869c4.877-2.304,7.423-4.249,7.423-4.249
		c0.282,1.111,0.663,2.912,1.091,5.267c0.03,0.19,0.066,0.376,0.097,0.571c0.938,5.242,2.109,12.999,3.23,21.969
		c0.042,0.278,0.077,0.54,0.099,0.823v0.015c2.042,16.295,3.889,36.382,3.889,52.604c0,29.175-5.211,85.453-5.499,88.551
		c-0.01,0.087-0.01,0.127-0.01,0.127c0.889,0.762,1.773,1.554,2.622,2.413l0.154,0.159c13.508,13.549,22.325,38.435,27.005,55.043
		c2.665,9.476,3.992,16.266,4.095,16.749C369.901,475.685,367.972,485.318,367.972,485.318z"/>
	<path fill="#0C35BA" d="M304.303,240.826l-7.387,9.752l-10.616-8.126c3.349-0.139,6.896-0.36,10.616-0.68
		C299.509,241.551,301.979,241.217,304.303,240.826z"/>
	<path fill="#0C35BA" d="M335.752,399.941c0.889,0.762,1.773,1.554,2.622,2.413l-8.491-7.258c0,0,6.697-51.606,6.243-85.483
		c-0.431-32.365-8.05-67.491-10.693-75.351c4.877-2.304,7.423-4.249,7.423-4.249c0.282,1.111,0.663,2.912,1.091,5.267
		c0.03,0.19,0.066,0.376,0.097,0.571c0.938,5.242,2.109,12.999,3.23,21.969c0.042,0.278,0.077,0.54,0.099,0.823v0.015
		c2.042,16.295,3.889,36.382,3.889,52.604c0,29.175-5.211,85.453-5.499,88.551C335.752,399.901,335.752,399.941,335.752,399.941z"/>
	<path fill="#0C35BA" d="M367.972,485.318L336.6,456.436l-6.907-6.362c-0.011,0.051-0.011,0.108-0.021,0.164
		c-1.43,10.19-8.785,51.612-8.785,51.612h-3.061c1.028-13.897-0.159-56.802-0.354-63.505c-5.689-5.714-11.975-12.036-15.205-15.293
		c-1.594-1.618-3.461-3.292-5.381-4.907c0.012-0.245,0.021-0.411,0.021-0.498c0.011-0.041,0.011-0.076,0.011-0.076
		s-1.11-1.246-2.809-3.164c-4.814-5.452-14.284-16.29-15.914-19.145c-0.088-0.159-0.19-0.355-0.299-0.571
		c9.516,9.566,26.841,22.705,49.596,39.128c16.913,12.196,30.286,19.768,38.043,23.738c2.665,9.476,3.992,16.266,4.095,16.749
		C369.901,475.685,367.972,485.318,367.972,485.318z"/>
	<path fill="#D5DCFF" d="M383.212,178.427c-0.097-0.54-0.879-1.867-2.227-3.765c-5.915-8.44-22.647-28.131-38.537-40.132
		c-19.453-14.68-23.861-16.665-33.959-18.517c-0.961-0.17-1.945-0.339-2.932-0.489c-3.386-0.515-6.871-0.854-9.975-1.096
		c-0.205-0.026-0.426-0.036-0.638-0.051c-5.2-0.391-9.099-0.458-9.099-0.458c-0.124,0.278-0.227,0.52-0.36,0.7
		c-1.656,2.34-7.57,3.857-10.046,3.024c-0.746-0.242-1.301-0.823-1.743-1.63c-1.749,0.144-4.044,0.781-6.625,1.667
		c-0.175,0.051-0.359,0.119-0.546,0.186c-2.922,1.008-6.192,2.289-9.475,3.503c-1.542,0.575-3.096,1.137-4.608,1.641
		c-7.849,2.612-15,7.016-16.521,8.255c-1.513,1.245-9.146,22.185-12.447,45.867c-2.053,14.748-3.313,29.227-0.819,38.666
		c1.034,3.877,2.712,6.892,5.222,8.708c8.642,6.25,29.196,8.451,29.196,8.451v8.816c0,0,16.707,2.011,39.843,0
		c13.61-1.199,23.64-5.046,29.592-8.024c4.177-2.083,6.348-3.734,6.348-3.734l-1.445-15.241c0,0,15.451-2.752,31.059-12.299
		C378.08,192.922,383.763,181.349,383.212,178.427z M350.581,180.161h-0.01l-20.601,17.489c0,0-0.52-9.994-1.1-19.361
		c-0.589-9.362-0.896-14.556-0.896-14.556c3.456,2.196,19.618,13.219,22.926,16.161L350.581,180.161z"/>
	<path fill="#AEBDF4" d="M350.581,180.161l0.32-0.268c-3.308-2.942-19.47-13.965-22.926-16.161c0,0,0.307,5.194,0.896,14.556
		c0.58,9.367,1.1,19.361,1.1,19.361c-1.466,8.219,1.44,17.124,1.44,17.124l1.445,15.241c0,0-2.171,1.651-6.348,3.734
		c-1.266-10.997-3.698-31.824-3.698-31.824l3.029-50.512l28.188,26.274L350.581,180.161z"/>
	<path fill="#AEBDF4" d="M362.469,202.474c-15.607,9.547-31.059,12.299-31.059,12.299l-1.527-5.129
		c0.75-0.473,15.509-3.955,27.626-11.995c9.125-6.049,19.104-17.638,23.477-22.987c1.348,1.898,2.13,3.225,2.227,3.765
		C383.763,181.349,378.08,192.922,362.469,202.474z"/>
	<path fill="#AEBDF4" d="M294.55,223.404v6.435c0,0-4.793,5.262-18.014,7.674c-5.277,0.961-12.54,1.307-19.463,1.337v-5.895
		c0,0-20.555-2.202-29.196-8.451c-2.51-1.816-4.188-4.831-5.222-8.708c7.804,4.865,20.977,9.284,32.766,10.909
		C271.393,228.913,294.55,223.404,294.55,223.404z"/>
	<path fill="#AEBDF4" d="M245.14,207.901c0,0,0.01-1.307,0-16.259c-0.011-14.953,0.94-37.868,0.94-37.868s6.425,20.425,11.28,34.195
		c4.856,13.77,5.236,24.181,5.236,24.181S248.453,210.386,245.14,207.901z"/>
	<path fill="#AEBDF4" d="M305.558,115.524c-3.915,2.916-11.271,7.042-22.076,8.729c-12.407,1.929-21.759-1.008-26.43-2.885
		c6.439-2.377,12.819-5.036,16.646-5.355c0.442,0.807,0.997,1.389,1.743,1.63c2.476,0.833,8.39-0.684,10.046-3.024
		c0.134-0.18,0.236-0.422,0.36-0.7C285.847,113.919,296.115,114.115,305.558,115.524z"/>
	<path fill="#F3B6AB" d="M301.458,77.013c-1.363,4.002-6.466,6.208-6.466,6.208c-0.509,4.804-2.701,12.941-7.171,18.502
		c-0.817,1.039-1.718,1.97-2.716,2.788c-0.854,0.72-1.79,1.348-2.787,1.847c-3.755,1.872-7.1,2.736-10.442,2.701
		c-4.021-0.026-8.024-1.384-12.684-3.946c-8.539-4.67-11.024-15.009-11.024-15.009c-9.223,0.277-11.84-14.742-10.322-15.842
		c0.231-0.165,0.524-0.227,0.854-0.227c0.978,0,2.335,0.648,3.41,1.328c0.612,0.401,1.127,0.792,1.444,1.105
		c0.248,0.247,0.351,0.417,0.351,0.417s1.513-9.639,2.805-12.211c1.274-2.572,4.026-2.197,8.625-2.197
		c4.588,0,10.189-2.664,16.377-5.606c5.546-2.629,7.824-7.078,9.543-7.541c0.21-0.046,0.406-0.046,0.606,0.016
		c1.836,0.643,6.157,4.49,8.174,8.07c2.015,3.586,4.135,10.19,4.871,9.83c0.309-0.149,0.643-1.281,0.89-2.813
		c1.07-1.584,2.88-3.734,4.568-3.101C302.976,62.287,302.847,73.032,301.458,77.013z"/>
	<path fill="#F4948E" d="M301.458,77.013c-1.363,4.002-6.466,6.208-6.466,6.208c-0.509,4.804-2.701,12.941-7.171,18.502
		c-0.817,1.039-1.718,1.97-2.716,2.788c2.284-6.574,6.008-19.196,5.618-30.348c-0.412-12.227-6.616-21.295-9.47-24.834
		c0.21-0.046,0.406-0.046,0.606,0.016c1.836,0.643,6.157,4.49,8.174,8.07c2.015,3.586,4.135,10.19,4.871,9.83
		c0.309-0.149,0.643-1.281,0.89-2.813c1.07-1.584,2.88-3.734,4.568-3.101C302.976,62.287,302.847,73.032,301.458,77.013z"/>
	<path fill="#F3B6AB" d="M331.411,214.773c-2.881,2.376-8.221,2.382-8.317,2.382v-15.972c0,0,2.006-1.245,3.703-2.021
		c1.676-0.751,3.174-1.512,3.174-1.512s-0.366,1.06,0.093,6.476c0.129,1.559,0.35,3.364,0.57,5.046
		C331.009,212.165,331.411,214.773,331.411,214.773z"/>
	<path fill="#F3B6AB" d="M287.822,101.724c-0.153,1.841-0.442,4.768-0.858,7.417c-0.303,1.929-0.673,3.698-1.116,4.778
		c-0.124,0.278-0.227,0.52-0.36,0.7c-1.656,2.34-7.57,3.857-10.046,3.024c-0.746-0.242-1.301-0.823-1.743-1.63
		c-0.534-0.967-0.927-2.253-1.226-3.652c-0.22-1.059-0.416-2.196-0.596-3.302c3.343,0.036,6.688-0.829,10.442-2.701
		C284.448,105.283,286.279,103.668,287.822,101.724z"/>
	<path fill="#591712" d="M243.554,76.468c0.243,0.247,0.346,0.417,0.346,0.417C243.864,76.787,243.741,76.643,243.554,76.468z"/>
	<polygon fill="#591712" points="242.11,75.362 242.11,75.362 242.11,75.362 	"/>
	<path fill="#0C1498" d="M295.795,64.432c-0.247,1.533-0.581,2.665-0.89,2.813c-0.736,0.36-2.856-6.244-4.871-9.83
		c-2.017-3.58-6.338-7.427-8.174-8.07c-1.831-0.638-3.944,4.598-10.149,7.525c-6.188,2.942-11.789,5.606-16.377,5.606
		c-4.599,0-7.351-0.375-8.625,2.197c-1.292,2.572-2.805,12.211-2.805,12.211c-0.041-0.097-0.164-0.242-0.351-0.417
		c-0.277-0.282-0.739-0.689-1.444-1.105c0,0-1.527-3.292-2.335-8.806c-0.305-2.011-0.504-4.3-0.504-6.836
		c0-9.546,8.07-18.173,16.526-21.752c4.855-2.063,11.687-3.272,17.937-2.706c4.594,0.422,8.853,1.811,11.814,4.538
		c5.113,4.707,9.537,13.867,10.268,17.616C296.238,59.586,296.115,62.374,295.795,64.432z"/>
	<path fill="#0C1498" d="M248.905,76.427c-0.458-0.921,1.101-4.315,5.416-4.5c4.316-0.175,8.997,1.013,8.533,2.248
		c-0.452,1.24-3.158,1.332-6.994,1.158C252.028,75.146,248.905,76.427,248.905,76.427z"/>
	<path fill="#0C1498" d="M274.006,71.37c0.433,1.477,5.596-0.37,7.525-2.021c1.929-1.651,4.777-3.673,4.13-4.588
		C285.019,63.84,272.9,67.605,274.006,71.37z"/>
	<path fill="#0C1498" d="M260.267,83.35c0.392,2.248,0.093,4.177-0.663,4.305c-0.751,0.134-1.683-1.589-2.067-3.832
		c-0.392-2.247-0.094-4.176,0.658-4.305C258.951,79.385,259.882,81.103,260.267,83.35z"/>
	<path fill="#0C1498" d="M278.569,79.416c0.077,2.284-0.483,4.156-1.25,4.182c-0.772,0.021-1.45-1.806-1.522-4.084
		c-0.078-2.283,0.483-4.156,1.25-4.176C277.812,75.306,278.492,77.137,278.569,79.416z"/>
	<path fill="#0C1498" d="M314.55,501.85c0,0-1.266,9.084-1.184,11.847h30.563l-23.044-11.847H314.55z"/>
	<path fill="#0C1498" d="M366.984,484.407c0,0-6.538,27.268-5.616,27.813c0.915,0.55,17.993-25.889,17.993-25.889l-9.732-12.025
		L366.984,484.407z"/>
	<path fill="#4462E2" d="M323.093,160.059v57.564l-29.798,7.803c0,0,0.134-6.471-0.36-9.732c0,0-28.701-0.741-40.265-5.869
		l-2.171-9.552l-6.646-29.196L323.093,160.059z"/>
	<polygon fill="#0C1498" points="281.223,118.605 276.537,123.842 280.806,129.629 281.768,165.81 294.556,164.03 284.937,129.217 
		287.822,121.913 	"/>
	<g>
		<path fill="#0C1498" d="M295.583,114.429l-6.238,8.796c-0.083,0.118-0.236,0.149-0.37,0.077l-7.695-4.341l-7.14,8.05
			c-0.053,0.057-0.123,0.093-0.2,0.093c0,0,0,0-0.011,0c-0.067,0-0.135-0.031-0.191-0.077c-0.658-0.643-5.385-6.677-7.211-9.161
			c0.187-0.067,0.371-0.134,0.546-0.186c1.702,2.279,5.74,7.494,6.856,8.739l7.083-7.983c0.093-0.103,0.227-0.128,0.339-0.062
			l7.686,4.331l5.909-8.328C295.158,114.393,295.378,114.403,295.583,114.429z"/>
	</g>
	<g>
		<path fill="#FF435E" d="M267.063,100.479c-1.163,0-1.924-0.077-2.027-0.093c-0.155-0.02-0.258-0.159-0.246-0.308
			c0.02-0.149,0.133-0.263,0.303-0.242c0.087,0.01,8.337,0.854,13.307-3.333c0.113-0.093,0.288-0.082,0.386,0.031
			c0.098,0.123,0.083,0.293-0.031,0.396C275.097,100,269.902,100.479,267.063,100.479z"/>
	</g>
	<g>
		<path fill="#0C1498" d="M266.445,94.785c-0.04,0-0.083-0.005-0.124-0.026c-0.091-0.045-0.153-0.144-0.153-0.242v-18.6
			c0-0.149,0.124-0.277,0.277-0.277c0.145,0,0.269,0.128,0.269,0.277v18.034l3.784-2.875c0.124-0.093,0.299-0.062,0.381,0.057
			c0.093,0.114,0.072,0.293-0.046,0.385l-4.223,3.215C266.558,94.77,266.496,94.785,266.445,94.785z"/>
	</g>
	<g>
		<path fill="#0C1498" d="M245.14,86.154c-0.113,0-0.221-0.072-0.264-0.186c-1.238-3.981-4.952-8.214-4.983-8.255
			c-0.103-0.114-0.093-0.294,0.021-0.391c0.113-0.098,0.288-0.088,0.392,0.025c0.153,0.175,3.816,4.362,5.102,8.451
			c0.042,0.149-0.041,0.299-0.186,0.345C245.202,86.154,245.169,86.154,245.14,86.154z"/>
	</g>
	<g>
		<path fill="#0C1498" d="M242.722,84.677c-0.017,0-0.035,0-0.051,0c-0.227-0.02-0.557-0.134-0.804-0.597
			c-0.55-1.008,0.196-2.124,0.545-2.659c0.057-0.078,0.124-0.17,0.15-0.222c0.005-0.087,0.046-0.165,0.124-0.216
			c0.128-0.082,0.297-0.046,0.38,0.083c0.128,0.19,0.004,0.37-0.189,0.668c-0.32,0.468-0.917,1.358-0.526,2.088
			c0.155,0.293,0.309,0.304,0.354,0.304c0.305,0.031,0.798-0.458,0.979-0.699c0.088-0.124,0.263-0.145,0.387-0.057
			c0.117,0.092,0.144,0.262,0.051,0.386C244.049,83.854,243.422,84.677,242.722,84.677z"/>
	</g>
	<g>
		<path fill="#0C1498" d="M296.088,77.157c-0.149,0-0.272-0.113-0.278-0.257c-0.292-5.664,3.158-11.193,3.605-11.527
			c0.124-0.092,0.3-0.062,0.392,0.057c0.083,0.118,0.062,0.293-0.057,0.375c-0.458,0.422-3.667,5.746-3.389,11.07
			c0.009,0.149-0.109,0.277-0.258,0.283C296.099,77.157,296.093,77.157,296.088,77.157z"/>
	</g>
	<g>
		<path fill="#0C1498" d="M297.019,74.534c-0.478,0-0.838-0.087-0.874-0.104c-0.148-0.036-0.236-0.185-0.196-0.334
			c0.032-0.149,0.186-0.237,0.33-0.201c0.077,0.026,1.801,0.442,2.515-0.818c0.159-0.283,0.108-0.462,0.057-0.576
			c-0.277-0.576-1.585-0.916-2.026-0.993c-0.145-0.025-0.252-0.165-0.226-0.313c0.03-0.149,0.159-0.257,0.318-0.231
			c0.201,0.036,1.985,0.365,2.438,1.307c0.103,0.231,0.185,0.612-0.082,1.08C298.722,74.333,297.735,74.534,297.019,74.534z"/>
	</g>
	<g>
		<path fill="#0C1498" d="M249.286,170.599c-0.123,0-0.235-0.093-0.268-0.221c-0.025-0.098-2.325-10.709-3.775-17.978
			c-1.461-7.294-4.929-10.36-7.983-13.065c-0.113-0.098-0.124-0.277-0.031-0.386c0.104-0.118,0.277-0.128,0.401-0.025
			c3.117,2.762,6.656,5.9,8.153,13.369c1.45,7.263,3.749,17.864,3.775,17.972c0.031,0.149-0.067,0.293-0.211,0.329
			C249.328,170.599,249.306,170.599,249.286,170.599z"/>
	</g>
	<g>
		<path fill="#0C1498" d="M328.207,167.774c-0.15,0-0.269-0.114-0.278-0.257c-0.305-4.969-1.065-9.68-1.729-13.826
			c-0.638-3.935-1.188-7.33-1.095-9.619c0.112-2.736,1.377-6.126,2.5-9.104c0.771-2.068,1.501-4.018,1.728-5.432
			c0.021-0.144,0.159-0.247,0.309-0.227c0.153,0.021,0.256,0.17,0.236,0.309c-0.236,1.471-0.978,3.446-1.759,5.54
			c-1.101,2.947-2.356,6.286-2.465,8.939c-0.087,2.232,0.459,5.602,1.086,9.506c0.674,4.161,1.439,8.883,1.744,13.877
			c0.005,0.154-0.108,0.283-0.263,0.293C328.216,167.774,328.211,167.774,328.207,167.774z"/>
	</g>
	<g>
		<path fill="#0C1498" d="M350.901,180.161c-0.067,0-0.14-0.026-0.196-0.077c-4.151-4.156-22.688-15.997-22.874-16.121
			c-0.129-0.082-0.164-0.252-0.083-0.38c0.083-0.129,0.253-0.16,0.381-0.078c0.761,0.484,18.771,11.996,22.967,16.188
			c0.108,0.108,0.108,0.283,0,0.391C351.039,180.135,350.973,180.161,350.901,180.161z"/>
	</g>
	<g>
		<path fill="#0C1498" d="M336.4,192.475c-0.072,0-0.149-0.03-0.201-0.092c-0.107-0.108-0.098-0.283,0.016-0.391
			c10.164-9.423,18.975-16.018,19.907-16.398c0.138-0.052,0.308,0.016,0.359,0.16c0.058,0.139-0.01,0.298-0.148,0.354
			c-0.818,0.319-9.6,6.893-19.742,16.291C336.535,192.444,336.472,192.475,336.4,192.475z"/>
	</g>
	<g>
		<path fill="#0C1498" d="M291.208,215.987c-3.838,0-13.519-0.211-23.184-2.12c-12.376-2.432-24.129-6.162-24.252-6.198
			c-0.145-0.041-0.222-0.2-0.175-0.344c0.041-0.149,0.2-0.227,0.35-0.186c0.112,0.046,11.841,3.76,24.18,6.188
			c12.33,2.428,24.665,2.099,24.793,2.089h0.006c0.148,0,0.271,0.123,0.277,0.272c0.006,0.15-0.113,0.278-0.268,0.278
			C292.904,215.966,292.288,215.987,291.208,215.987z"/>
	</g>
	<path fill="#F3B6AB" d="M307.112,222.308c0,0,10.606-1.383,10.606,0c0,1.374-9.65,3.848-9.65,3.848s7.973-0.242,9.095,0.864
		c0.072,0.062,0.112,0.124,0.123,0.196c0.016,0.015,0.016,0.03,0.016,0.046c0.021,0.195-0.365,0.427-1.045,0.659
		c-0.01,0-0.024,0.01-0.024,0.01c-4.022,1.342-18.256,2.947-23.297,1.538c0,0,0.144-0.926,0.273-2.536
		c0.185-2.464,0.309-6.507-0.273-11.239c-0.082-0.581,13.765-8.683,14.177-7.71c0.4,0.967-4.815,5.642-4.815,5.642
		s12.254-5.364,12.799-4.12c0.534,1.194-6.699,7.319-7.14,7.701c0.509-0.165,10.72-3.668,10.867-1.79
		C318.953,217.345,307.112,222.308,307.112,222.308z"/>
	<g>
		<g>
			<path fill="#6077F1" d="M334.043,235.852c-1.995,1.225-4.763,2.747-8.271,4.296c-0.175,0.087-0.35,0.164-0.529,0.242
				c-2.165,0.956-4.604,1.902-7.314,2.813c-0.035,0.004-0.057,0.004-0.076,0.036c-0.026,0-0.031,0.005-0.042,0.005
				c-5.458,1.811-11.999,3.436-19.607,4.398c-2.141,0.278-4.214,0.483-6.225,0.643c-0.19,0.021-0.381,0.026-0.565,0.046
				c-3.771,0.293-7.305,0.417-10.575,0.417c-2.438,0-4.718-0.071-6.841-0.18h-0.012c-0.056-0.015-0.123-0.015-0.163-0.015h-0.012
				c-2.551-0.144-4.86-0.355-6.933-0.582c-0.186-0.021-0.376-0.046-0.551-0.066c-4.166-0.489-7.273-1.111-9.141-1.543
				c0-0.19-0.01-0.386-0.01-0.561c1.836,0.417,4.964,1.044,9.196,1.559c0.186,0.02,0.36,0.041,0.546,0.061
				c2.031,0.237,4.279,0.427,6.758,0.571c0.186,0.015,0.36,0.026,0.546,0.036c6.594,0.339,14.681,0.237,23.897-0.941
				c7.511-0.946,13.971-2.541,19.372-4.326c0.175-0.057,0.35-0.108,0.525-0.169c2.592-0.875,4.911-1.785,6.994-2.706
				c0.175-0.062,0.355-0.144,0.535-0.221c3.605-1.594,6.42-3.158,8.4-4.382C333.977,235.471,334.013,235.657,334.043,235.852z"/>
		</g>
		<g>
			<path fill="#6077F1" d="M274.222,248.027c-0.005,0.134-0.016,0.237-0.03,0.303c-0.011,0.129-0.104,0.217-0.195,0.237h-0.012
				c-0.024,0.005-0.029,0.005-0.056,0.005h-0.046c-0.021,0-0.041-0.005-0.062-0.021h-0.012c-0.112-0.051-0.175-0.165-0.158-0.288
				c0.015-0.067,0.024-0.159,0.024-0.272c0.058-0.905,0.031-3.308,0-5.339h0.546C274.259,244.447,274.284,247.039,274.222,248.027z"
				/>
		</g>
		<g>
			<path fill="#6077F1" d="M317.928,243.203c-0.035,0.004-0.057,0.004-0.076,0.036c-0.026,0-0.031,0.005-0.042,0.005h-0.052
				c-0.103,0-0.215-0.062-0.258-0.185c-0.009-0.057-0.009-0.113,0-0.164c0-0.037,0-0.078-0.009-0.134
				c-0.042-0.664-0.345-2.973-0.634-5.051c0.175-0.057,0.355-0.113,0.52-0.196c0.433,2.999,0.607,4.398,0.64,5.077
				C318.046,243.042,318.005,243.161,317.928,243.203z"/>
		</g>
		<g>
			<path fill="#6077F1" d="M267.166,242.477c-0.031,1.363-0.103,3.05-0.247,4.943c-0.011,0.17-0.03,0.365-0.041,0.55
				c-0.647,8.014-2.634,19.397-8.427,26.67c-0.024-0.278-0.03-0.556-0.056-0.817c5.422-7.196,7.309-18.168,7.932-25.919
				c0.026-0.186,0.035-0.376,0.046-0.545c0.145-1.883,0.206-3.545,0.241-4.907C266.789,242.461,266.975,242.477,267.166,242.477z"/>
		</g>
		<g>
			<path fill="#6077F1" d="M337.373,258.644c-4.893-4.3-9.341-12.325-12.13-18.255c-0.077-0.176-0.153-0.34-0.231-0.505
				c-0.822-1.779-1.48-3.354-1.965-4.542c0.175-0.077,0.35-0.139,0.515-0.211c0.474,1.153,1.142,2.742,1.985,4.532
				c0.072,0.165,0.145,0.319,0.226,0.484c2.676,5.678,6.883,13.353,11.502,17.673C337.316,258.099,337.351,258.36,337.373,258.644z"
				/>
		</g>
		<g>
			<path fill="#6077F1" d="M295.712,276.277c-0.148,0-0.271-0.104-0.277-0.252c-0.514-10.874-3.981-27.498-4.017-27.663
				c-0.036-0.159,0.066-0.298,0.21-0.334c0.159-0.031,0.299,0.072,0.33,0.211c0.03,0.17,3.507,16.846,4.022,27.755
				c0.01,0.16-0.103,0.284-0.259,0.284C295.712,276.277,295.712,276.277,295.712,276.277z"/>
		</g>
		<g>
			<path fill="#6077F1" d="M305.872,291.708c-0.025,0-0.036,0-0.057-0.005l-16.383-3.303c-0.154-0.03-0.252-0.181-0.221-0.329
				c0.035-0.149,0.181-0.241,0.328-0.211l16.39,3.297c0.143,0.036,0.241,0.181,0.215,0.33
				C306.114,291.615,306,291.708,305.872,291.708z"/>
		</g>
		<g>
			<path fill="#6077F1" d="M338.334,402.596c-0.063,0-0.129-0.021-0.186-0.062c-10.051-8.626-29.264-22.519-29.453-22.653
				c-0.062-0.052-0.104-0.112-0.113-0.184c-1.455-9.62-9.758-88.823-9.845-89.62c-0.011-0.148,0.092-0.293,0.246-0.298
				c0.154-0.017,0.289,0.092,0.305,0.241c0.081,0.798,8.322,79.373,9.818,89.476c1.481,1.075,19.701,14.284,29.407,22.61
				c0.113,0.1,0.128,0.279,0.025,0.393C338.489,402.561,338.411,402.596,338.334,402.596z"/>
		</g>
		<g>
			<path fill="#6077F1" d="M336.4,456.519c-0.062,0-0.134-0.021-0.186-0.067c-11.348-10.458-41.813-41.335-42.122-41.644
				c-0.104-0.103-0.104-0.283,0.005-0.392c0.108-0.104,0.284-0.104,0.387,0c0.313,0.324,30.764,31.188,42.106,41.629
				c0.108,0.098,0.118,0.277,0.015,0.38C336.549,456.492,336.472,456.519,336.4,456.519z"/>
		</g>
	</g>
	<path fill="#F4948E" d="M287.822,101.724c-0.153,1.841-0.442,4.768-0.858,7.417c-4.501,2.788-11.27,3.23-14.491,3.22
		c-0.22-1.059-0.416-2.196-0.596-3.302c3.343,0.036,6.688-0.829,10.442-2.701C284.448,105.283,286.279,103.668,287.822,101.724z"/>
	<path fill="#F4948E" d="M331.411,214.773c-2.881,2.376-8.221,2.382-8.317,2.382v-3.766c2.063-0.833,5.422-2.875,7.54-4.217
		C331.009,212.165,331.411,214.773,331.411,214.773z"/>
	<path fill="#F4948E" d="M318.027,226.706c0,0-0.269,0.19-0.741,0.51c-0.269,0.185-0.622,0.426-1.029,0.705
		c-0.01,0-0.024,0.01-0.024,0.01c-4.022,1.342-18.256,2.947-23.297,1.538c0,0,0.144-0.926,0.273-2.536
		c4.799,0.571,17.966,1.893,23.954,0.087C317.471,226.917,317.758,226.819,318.027,226.706z"/>
	<g>
		<path fill="#591712" d="M323.097,218.476c-0.693,0-1.275-0.545-1.311-1.245c-0.036-0.725,0.519-1.348,1.244-1.389
			c0.047,0,5.001-0.288,7.618-2.145c0.144-0.103,0.314-0.18,0.494-0.216c0.144-0.031,14.665-3.061,23.815-8.359
			c8.981-5.185,14.393-8.832,17.026-11.46c0.514-0.515,1.347-0.515,1.861,0s0.515,1.347,0,1.862
			c-2.804,2.798-8.384,6.574-17.57,11.882c-8.945,5.174-22.252,8.153-24.341,8.601c-3.267,2.155-8.539,2.454-8.765,2.469
			C323.15,218.476,323.125,218.476,323.097,218.476z"/>
	</g>
	<path fill="#6077F1" d="M323.093,160.059v19.15c-20.2,3.539-58.531,16.269-72.594,21.063l-6.646-29.196L323.093,160.059z"/>
	<g>
		<path fill="#D5DCFF" d="M284.603,198.437c-2.614,0-4.877-1.857-5.402-4.408c-0.287-1.445,0-2.922,0.813-4.146
			c0.813-1.224,2.058-2.057,3.498-2.355l1.888-0.375c0.364-0.078,0.734-0.108,1.1-0.108c2.604,0,4.872,1.852,5.396,4.413
			c0.288,1.446,0,2.912-0.813,4.136c-0.813,1.23-2.058,2.063-3.497,2.356l-1.888,0.386
			C285.333,198.4,284.962,198.437,284.603,198.437z M286.5,187.583c-0.333,0-0.662,0.036-0.991,0.108l-1.888,0.38
			c-1.302,0.262-2.413,1.013-3.148,2.119c-0.73,1.101-0.994,2.428-0.73,3.719c0.468,2.31,2.51,3.981,4.861,3.981
			c0.322,0,0.658-0.036,0.981-0.103l1.888-0.38c1.302-0.263,2.419-1.019,3.148-2.114c0.735-1.111,0.992-2.434,0.73-3.73
			C290.888,189.26,288.84,187.583,286.5,187.583z"/>
	</g>
	<g>
		<path fill="#0C1498" d="M305.867,236.896c0,0-7.844,9.372-7.978,9.779c-0.145,0.411-10.885-5.644-10.885-5.644l-0.937-6.291
			l-0.52-3.482c2.048-0.823,7.387-1.79,7.387-1.79c3.194,1.096,10.663,0.545,10.663,0.545l0.735,2.233L305.867,236.896z"/>
		<path fill="#061284" d="M304.333,232.247c-6.707,0.709-11.398-0.216-11.398-0.216c-2.469,1.342-5.236,2.248-6.867,2.71
			l-0.52-3.482c2.048-0.823,7.387-1.79,7.387-1.79c3.194,1.096,10.663,0.545,10.663,0.545L304.333,232.247z"/>
	</g>
	<g>
		<path fill="#0C1498" d="M264.222,233.336c-3.661,0-7.535-0.206-11.521-0.705c-0.155-0.021-0.258-0.154-0.237-0.313
			c0.016-0.139,0.134-0.263,0.303-0.232c16.939,2.135,31.824-1.167,37.432-2.412c2.176-0.483,2.613-0.571,2.845-0.458
			c0.14,0.067,0.2,0.226,0.129,0.365c-0.057,0.129-0.212,0.19-0.341,0.139c-0.205-0.025-1.279,0.216-2.516,0.494
			C286.012,231.167,276.218,233.336,264.222,233.336z"/>
	</g>
	<path fill="#061284" d="M295.795,64.432c-0.247,1.533-0.581,2.665-0.89,2.813c-0.736,0.36-2.856-6.244-4.871-9.83
		c-2.017-3.58-6.338-7.427-8.174-8.07c-1.831-0.638-3.944,4.598-10.149,7.525c-6.188,2.942-11.789,5.606-16.377,5.606
		c-4.599,0-7.351-0.375-8.625,2.197c-1.292,2.572-2.805,12.211-2.805,12.211c-0.041-0.097-0.164-0.242-0.351-0.417
		c-0.277-0.282-0.739-0.689-1.444-1.105c0,0-1.527-3.292-2.335-8.806c2.33-3.071,4.543-4.08,11.239-4.907
		c9.001-1.101,16.347-5.144,22.915-12.36c4.479-4.913,1.908-10.787-0.195-14.027c4.594,0.422,8.853,1.811,11.814,4.538
		c5.113,4.707,9.537,13.867,10.268,17.616C296.238,59.586,296.115,62.374,295.795,64.432z"/>
	<path fill="#FF435E" d="M230.547,107.048c0,0-3.858,40.342-11.297,55.218c-0.427,0.87-0.879,1.785-1.353,2.736
		c-7.593,15.56-20.17,42.714-46.008,52.153c-13.767,5.04-19.287,5.153-23.694,17.977c-3.063,8.945-9.455,29.562-13.317,35.225
		c-0.362,0.519-0.694,0.92-1.003,1.162c-1.841,1.456-3.58,1.651-5.057,0.756c-1.463-0.885-2.657-2.818-3.392-5.596
		c-1.466-5.581-5.875-20.138-8.078-29.166c-2.202-9.022-7.39-13.924-17.991-20.358c-13.471-8.169-30.016-24.829-41.131-41.891
		c-2.513-3.853-4.748-7.731-6.612-11.532c-11.743-24.021-17.283-51.582-15.081-57.42c0,0,42.811,8.858,102.849,8.065
		c41.785-0.556,69.551-3.894,82.57-5.864C228.021,107.675,230.547,107.048,230.547,107.048z"/>
	<path fill="#FF5777" d="M113.771,98.458c-66.926,0-77.241,7.854-77.241,7.854s42.814,8.858,102.852,8.065
		c41.785-0.556,69.546-3.884,82.581-5.864c5.688-0.869,8.585-1.472,8.585-1.472S203.647,98.458,113.771,98.458z"/>
	<path fill="#FF435E" d="M227.394,471.039v0.005c-32.432,17.612-57.87,22.54-119.595,20.061c-34.262-1.374-53.31-6.765-64.081-12.36
		c-3.858-4.47-5.777-9.799-6.623-14.29c-0.836-4.428-0.621-8.034-0.167-9.15c0,0,19.007-0.556,33.049,1.225
		c14.05,1.754,16.251-5.359,20.66-8.256c4.406-2.911,14.593-9.495,25.335-10.596c10.743-1.096,16.646-8.267,16.646-8.267
		s13.376,10.195,19.71,14.537c6.332,4.346,8.814,5.57,14.595,5.849c5.787,0.277,18.178-1.93,29.747,0
		c5.473,0.91,10.775,1.389,15.446,1.635c5.186,0.294,9.604,0.294,12.644,0.294C230.547,451.725,228.619,461.62,227.394,471.039z"/>
	<g>
		<path fill="#FF435E" d="M133.125,498.481c-15.688,0-31.894-0.927-47.423-2.784c-25.894-3.106-44.55-9.217-55.454-18.161
			c-5.723-4.697-9.061-10.016-9.655-15.38l1.095-0.119c0.656,5.911,7.225,25.745,64.146,32.565
			c59.281,7.088,146.097,1.662,153.515-32.627l1.075,0.237c-4.326,19.988-33.554,28.789-57.31,32.651
			C168.328,497.271,151.063,498.481,133.125,498.481z"/>
	</g>
	<g>
		<rect x="35.224" y="31.902" fill="#FF435E" width="200.132" height="1.096"/>
	</g>
	<g>
		<path fill="#F42F50" d="M131.288,436.529c-0.61,0-1.101-0.488-1.101-1.096v-4.654c-1.836-27.041-4.668-147.147-0.736-161.262
			c0.162-0.592,0.772-0.931,1.355-0.767c0.586,0.16,0.928,0.767,0.764,1.358c-3.698,13.282-1.293,129.427,0.815,160.593l0.005,4.731
			C132.392,436.041,131.896,436.529,131.288,436.529z"/>
	</g>
	<path fill="#F42F50" d="M217.898,165.002c-7.593,15.56-20.17,42.714-46.008,52.153c-13.767,5.04-19.287,5.153-23.694,17.977
		c-3.063,8.945-9.455,29.562-13.317,35.225c-1.829,0.828-3.847,1.476-6.06,1.918c-1.463-0.885-2.657-2.818-3.392-5.596
		c-1.466-5.581-5.875-20.138-8.078-29.166c-2.202-9.022-7.39-13.924-17.991-20.358c-13.471-8.169-30.016-24.829-41.131-41.891
		c19.209,7.309,45.332,13.204,69.248,13.06c31.739-0.17,63.895-10.056,63.895-10.056S204.525,171.596,217.898,165.002z"/>
	<path fill="#F42F50" d="M227.394,471.039v0.005c-32.432,17.612-57.87,22.54-119.595,20.061c-34.262-1.374-53.31-6.765-64.081-12.36
		c-3.858-4.47-5.777-9.799-6.623-14.29c5.372,3.344,13.824,7.089,26.827,9.852c29.743,6.332,47.918,7.839,52.877,5.703
		c4.958-2.118,25.335-19.937,35.803-17.91c10.468,2.022,28.09,4.855,28.09,4.855s20.944-9.557,31.423-15.523
		c5.186,0.294,9.604,0.294,12.644,0.294C230.547,451.725,228.619,461.62,227.394,471.039z"/>
	<g>
		<path opacity="0.5" fill="#FFF3F3" d="M59.698,76.884l31.58-4.141c0,0-5.506,37.904,1.471,81.986
			c6.973,44.072,21.666,61.067,21.666,61.067s-35.623-20.483-44.802-52.343C60.43,131.599,59.698,76.884,59.698,76.884z"/>
		<path opacity="0.5" fill="#FFF3F3" d="M103.031,294.646c-1.469,0.733-34.152,37.455-47.004,69.404
			c-12.856,31.941-21.667,76.39-13.957,102.092c0,0,33.784,7.706,37.091,5.128c0,0-6.609-37.816-0.371-84.085
			c6.245-46.267,30.482-87.031,30.482-87.031L103.031,294.646z"/>
		<path opacity="0.5" fill="#FFF3F3" d="M175.737,334.667l17.628-7.704c0,0,20.196,33.008,27.907,67.728s-1.836,64.102-1.836,64.102
			s-20.563,9.176-28.641,8.075c0,0,9.181-18.353,4.405-49.205C190.426,386.82,175.737,334.667,175.737,334.667z"/>
		<path opacity="0.5" fill="#FFF3F3" d="M195.567,91.76l30.686-5.606c0,0,1.872,53.222-26.244,92.114
			c-28.112,38.887-43.55,30.904-43.55,30.904s29.95-28.965,34.906-66.966C196.326,104.213,195.567,91.76,195.567,91.76z"/>
	</g>
	<path opacity="0.4" fill="#FFD9D9" d="M230.203,377.104c-12.15-11.62-32.607-27.504-64.93-42.98
		c-40.728-19.501-80.489-19.985-113.427-13.606c14.541-21.476,33.069-35.62,51.548-43.65c4.572-5.956,6.653-12.859,7.26-19.464
		c12.623,3.946,29.811,9.521,47.086,15.802c3.017,3.163,6.54,4.989,9.326,5.591c7.736,3.631,17.044,10.586,23.51,17.735
		C213.897,322.287,224.828,351.086,230.203,377.104z"/>
	<path opacity="0.4" fill="#FFD9D9" d="M98.69,227.915c-22.553-15.601-53.642-53.12-65.429-85.705
		c-6.687-18.476-6.52-37.94-4.526-53.202c2.171-16.634,6.486-28.285,6.486-28.285h25.747c-2.19,5.576-4.67,12.967-6.588,21.604
		c-3.832,17.165-5.453,39.272,1.828,61.946C67.897,180.681,88.819,213.554,98.69,227.915z"/>
	<path opacity="0.4" fill="#FFD9D9" d="M239.81,103.591c-18.774-10.292-51.359-22.962-101.747-26.707
		c-32.455-2.417-60.789,0.618-83.684,5.442c-9.519,2.006-18.099,4.315-25.645,6.682c2.171-16.634,6.486-28.285,6.486-28.285h200.135
		C235.356,60.723,240.572,79.42,239.81,103.591z"/>
	<path fill="#FFC7C7" d="M27.523,482.658c0,0,8.441,7.479,19.688,10.277v30.117c0,0-15.503-8.056-19.688-10.823V482.658z"/>
</g>
</svg>
