<?xml version="1.0" encoding="utf-8"?>
<!-- Generator: Adobe Illustrator 16.0.0, SVG Export Plug-In . SVG Version: 6.00 Build 0)  -->
<!DOCTYPE svg PUBLIC "-//W3C//DTD SVG 1.1//EN" "http://www.w3.org/Graphics/SVG/1.1/DTD/svg11.dtd">
<svg version="1.1" id="Layer_1" xmlns="http://www.w3.org/2000/svg" xmlns:xlink="http://www.w3.org/1999/xlink" x="0px" y="0px"
	 width="698px" height="560px" viewBox="0 0 698 560" enable-background="new 0 0 698 560" xml:space="preserve">
<g>
	<path fill="#B9C8FC" d="M674.412,299.958c-6.016-2.479-13.112-3.05-20.101-3.116c-18.916-0.24-42.082,11.019-53.661,42.111
		c-11.589,31.125-15.444,74.162-15.444,74.162H111.298c0,0-3.858-43.037-15.441-74.162c-11.584-31.093-34.748-42.352-53.664-42.111
		c-9.278,0.105-18.76,1.076-25.649,6.21v-0.022c8.016-8.414,19.041-29.14,124.975-29.14c105.938,0,424.174,0,424.174,0
		s1.338-0.017,3.778,0.049c0.637,0,1.36,0.011,2.15,0.039C588.069,274.52,635.62,278.014,674.412,299.958z"/>
	<path fill="#D5DCFF" d="M664.732,357.935c-14.287,0.115-28.558,4.991-28.558,17.793c0,12.817,0.379,134.427,0.379,134.427H61.498
		c0,0-1.157-121.609-1.157-134.427c0-12.802-14.287-17.678-28.566-17.793c-14.288-0.098-25.868-1.809-25.481-29.736
		c0.181-13.032,4.228-20.678,10.25-25.146c6.889-5.134,16.372-6.104,25.649-6.21c18.916-0.24,42.08,11.019,53.664,42.111
		c11.583,31.125,15.441,74.162,15.441,74.162h473.908c0,0,3.855-43.037,15.444-74.162c11.579-31.093,34.745-42.352,53.661-42.111
		c6.988,0.066,14.085,0.637,20.101,3.116c2.305,1.3,4.58,2.671,6.817,4.102c0,0,0,0,0.018,0c5.303,4.586,8.803,12.05,8.967,24.139
		C690.598,356.126,679.02,357.837,664.732,357.935z"/>
	<polygon fill="#C2D2FF" points="111.298,413.121 171.267,364.687 538.796,365.947 585.206,413.121 	"/>
	<polygon fill="#6077F1" points="74.236,510.154 78.613,551.464 87.879,551.464 92.511,510.154 	"/>
	<polygon fill="#A4B4BC" points="681.229,304.06 681.229,304.06 681.229,304.06 	"/>
	<path fill="#C3CFD8" d="M674.412,299.947c2.305,1.311,4.58,2.676,6.817,4.112C679.195,302.306,676.893,300.967,674.412,299.947z"/>
	<polygon fill="#6077F1" points="622.266,510.154 617.889,551.464 608.631,551.464 603.996,510.154 	"/>
	<g>
		<path fill="#6077F1" d="M584.79,466.48c0,16.19,0,32.37,0.01,43.674h-1.541c-0.011-11.194-0.011-27.209-0.011-43.24v-1.541
			c0.011-21.451,0.038-42.682,0.065-52.258h1.537c-0.012,9.631-0.051,31.087-0.061,52.695c0,0.012,0,0.012,0,0.012v0.646
			C584.79,466.469,584.79,466.469,584.79,466.48z"/>
	</g>
	<g>
		<path fill="#6077F1" d="M584.099,466.914H112.65c-0.425,0-0.771-0.346-0.771-0.773c0-0.422,0.346-0.768,0.771-0.768h471.449
			c0.434,0,0.779,0.346,0.779,0.768C584.878,466.568,584.532,466.914,584.099,466.914z"/>
	</g>
	<g>
		<path fill="#6077F1" d="M344.184,413.115v53.025c0,0.439-0.354,0.773-0.773,0.773c-0.433,0-0.771-0.334-0.771-0.773v-53.025
			H344.184z"/>
	</g>
	<g>
		<path fill="#6077F1" d="M571.621,273.978c-6.478,5.808-17.381,19.261-17.381,40.032v70.416c0,0.428-0.346,0.768-0.762,0.768
			c-0.445,0-0.779-0.34-0.779-0.768V314.01c0-20.15,9.927-33.511,16.771-40.071C570.107,273.939,570.831,273.95,571.621,273.978z"/>
	</g>
	<g>
		<rect x="111.882" y="413.115" fill="#6077F1" width="1.549" height="97.039"/>
	</g>
	<rect x="63.166" y="51.644" fill="#FCC2C2" width="535.334" height="104.624"/>
	<path fill="#FCC2C2" d="M44.896,254.584c0,0,21.877,16.092,32.172,34.492c10.294,18.401,14.583,38.063,14.583,38.063
		s33.733-29.529,54.615-33.993c0,0-25.961-66.995-31.879-77.042c0,0-23.422,7.108-39.379,17.2
		C59.052,243.396,44.896,254.584,44.896,254.584z"/>
	<path fill="#FAAEB0" d="M44.896,254.584c0,0,1.028,23.205,14.416,43.712c13.383,20.507,32.34,28.844,32.34,28.844
		s-4.289-22.827-16.385-44.02C63.168,261.928,44.896,254.584,44.896,254.584z"/>
	<path fill="#0C1498" d="M556.813,354.579l-5.775,12.581l-0.586,1.25l-0.203,0.445c0,0-15.077,5.978-34.614,11.94
		c-1.326,0.404-2.66,0.805-4.035,1.205c-18.27,5.387-39.627,10.415-56.118,10.591c-35.925,0.4-47.508-13.897-48.275-13.897
		s-21.994,8.693-45.161,16.618c-23.155,7.903-61.578,16.986-94.005,17.765c-32.43,0.768-42.464-7.344-42.464-7.344
		s4.815-26.26,8.103-34.761c3.291-8.496,5.206-21.982,5.206-21.982s42.867-9.856,74.708-10.635
		c26.759-0.637,67.731-2.518,82.973-2.983c2.04-0.066,3.625-0.115,4.65-0.115c0.428,0,0.758,0,0.988,0.016
		c4.814,0.188,65.228,16.032,96.314,19.307C529.598,357.853,556.813,354.579,556.813,354.579z"/>
	<path fill="#233FE3" d="M273.627,370.973c0,0-4.631,9.269-19.097,20.484c-14.474,11.172-31.276,19.991-50.576,22.898
		c-13.438,2.008-27.212,1.805-43.43-4.004c-16.215-5.776-50.955-29.337-60.624-44.584c-9.634-15.236-10.607-31.454-3.458-39.944
		c3.153-3.763,8.939-7.985,15.071-11.813c2.18-1.355,4.402-2.671,6.565-3.905c0.551-0.329,1.127-0.637,1.665-0.933
		c3.508-1.97,6.768-3.659,9.299-4.909c7.61,0.1,18.236-1.168,20.844-10.974c0.08-0.275,0.14-0.576,0.203-0.867
		c0.077-0.324,0.14-0.669,0.187-1.01c0.121-0.087,0.214-0.152,0.214-0.152s0.2-0.878,0.557-2.354
		c1.083-4.426,3.535-14.276,5.995-21.96c3.283-10.251,3.856-16.789,3.856-16.789c-6.683-2.194-23.671-3.197-30.003-3.504
		c-3.409-5.485-6.529-10.547-8.202-11.94c-0.354-0.301-0.74-0.422-1.154-0.422c1.107-0.482,1.73-1.925,1.73-3.713
		c0-1.207-0.28-2.561-0.851-3.911c18.856-5.326,48.149-7.98,53.735-3.356c5.594,4.635,8.682,19.892,9.269,44.019
		c0.524,21.823-5.435,35.606-6.579,38.036c-0.123,0.258-0.187,0.383-0.187,0.383c0.077,0.094,0.17,0.182,0.263,0.279
		c5.208,5.59,29.047,24.721,37.976,31.373c9.063,6.751,21.988,11.589,21.988,11.589s0,4.228-1.344,10.985
		c-1.344,6.769-3.088,9.083-3.088,9.083c8.296-4.064,22.967-11.206,22.967-11.206L273.627,370.973z"/>
	<path fill="#0C35BA" d="M141.674,307.987c-11.767,3.455-23.627,5.232-30.16,6.022c2.18-1.355,4.402-2.671,6.565-3.905
		c0.551-0.329,1.127-0.637,1.665-0.933c3.508-1.97,6.768-3.659,9.299-4.909c7.61,0.1,18.236-1.168,20.844-10.974
		c0.08-0.275,0.14-0.576,0.203-0.867c0.077-0.324,0.14-0.669,0.187-1.01c0.121-0.087,0.214-0.152,0.214-0.152s0.2-0.878,0.557-2.354
		C152.652,292.494,156.269,303.692,141.674,307.987z"/>
	<path fill="#1C0960" d="M124.302,303.847c-0.927,1.52-4.138,5.715-11.073,6.719c-8.49,1.217-15.285-9.647-22.05-15.056
		c-6.779-5.408-17.002-17.375-18.672-32.046c-1.374-11.979,1.747-19.328,5.652-24.242c2.087-2.621,4.404-4.557,6.381-6.131
		c5.652-4.486,22.001-15.955,30.621-12.982c3.797,1.289,6.131,3.922,7.258,6.56c1.018,2.38,1.083,4.771,0.387,6.269
		c-0.277,0.631-0.71,1.107-1.267,1.354c-0.2,0-0.417,0.022-0.634,0.082c-3.058,0.708-7.892,6.302-14.054,8.83
		c-7.519,3.088-17.354,6.751-15.439,19.673c1.868,12.434,10.13,19.169,10.764,19.689c-0.529-0.24-5.208-2.16-5.931,3.676
		c-0.773,6.181,11.383,11.978,15.055,8.698C111.298,294.939,116.83,302.168,124.302,303.847z"/>
	<path fill="#120551" d="M124.302,303.847c-0.927,1.52-4.138,5.715-11.073,6.719c-8.49,1.217-15.285-9.647-22.05-15.056
		c-6.779-5.408-17.002-17.375-18.672-32.046c-1.374-11.979,1.747-19.328,5.652-24.242c1.95,3.691,5.852,9.154,11.707,10.854
		c0,0,2.037-6.351,8.742-7.196c6.7-0.845,10.251-4.125,14.652-9.526c3.631-4.465,7.985-3.768,9.546-0.417
		c-0.277,0.631-0.71,1.107-1.267,1.354c-0.2,0-0.417,0.022-0.634,0.082c-3.058,0.708-7.892,6.302-14.054,8.83
		c-7.519,3.088-17.354,6.751-15.439,19.673c1.868,12.434,10.13,19.169,10.764,19.689c-0.529-0.24-5.208-2.16-5.931,3.676
		c-0.773,6.181,11.383,11.978,15.055,8.698C111.298,294.939,116.83,302.168,124.302,303.847z"/>
	<path fill="#F3B6AB" d="M150.491,287.787c0.033,1.312-0.063,2.523-0.214,3.625c-1.05,7.092-5.778,10.355-11.152,11.792
		c-3.365,0.911-6.98,1.086-10.081,1.059c-0.801-0.016-1.574-0.033-2.304-0.065c-0.833-0.044-1.634-0.181-2.438-0.351
		c-7.472-1.679-13.004-8.907-13.004-8.907c-3.672,3.279-15.828-2.518-15.055-8.698c0.724-5.836,5.402-3.916,5.931-3.676
		c-0.633-0.52-8.896-7.255-10.764-19.689c-0.496-3.291-0.219-5.972,0.584-8.194v-0.022c2.361-6.526,9.25-9.148,14.855-11.458
		c6.162-2.528,10.997-8.122,14.054-8.83c0.217-0.06,0.434-0.082,0.634-0.082c0.414,0,0.801,0.121,1.154,0.422
		c1.673,1.393,4.793,6.455,8.202,11.94c1.297,2.067,2.624,4.179,3.954,6.187C139.681,260.194,150.09,271.569,150.491,287.787z"/>
	<path fill="#F4948E" d="M139.125,303.204c-3.365,0.911-6.98,1.086-10.081,1.059c-0.801-0.016-1.574-0.033-2.304-0.065
		c-0.833-0.044-1.634-0.181-2.438-0.351c-7.472-1.679-13.004-8.907-13.004-8.907c-3.672,3.279-15.828-2.518-15.055-8.698
		c0.724-5.836,5.402-3.916,5.931-3.676c-0.633-0.52-8.896-7.255-10.764-19.689c-0.496-3.291-0.219-5.972,0.584-8.194
		c2.024,5.775,7.906,20.38,19.692,33.67C121.675,299.646,132.778,302.53,139.125,303.204z"/>
	<polygon fill="#B3C3FF" points="244.567,348.65 244.567,352.928 294.189,379.929 294.189,375.743 	"/>
	<g>
		<path fill="#FFFFFF" d="M90.127,134.455l18.574-28.234c1.98-2.973,3.453-5.292,4.417-6.971c0.96-1.679,1.788-3.598,2.474-5.781
			c0.691-2.172,1.031-4.552,1.031-7.13c0-3.916-0.88-6.965-2.641-9.165c-1.761-2.205-4.264-3.301-7.508-3.301
			c-4.407,0-7.443,1.272-9.121,3.833c-1.681,2.566-2.545,6.269-2.603,11.106v1.07h-4.292v-1.316c0-6.274,1.267-10.914,3.798-13.909
			c2.529-2.995,6.549-4.503,12.05-4.503c4.788,0,8.433,1.475,10.939,4.421c2.504,2.945,3.751,7.081,3.751,12.417
			c0,3.521-0.701,6.8-2.103,9.822c-1.401,3.022-3.479,6.631-6.23,10.816l-17.501,26.414h24.517v3.708H90.127V134.455z"/>
		<path fill="#FFFFFF" d="M153.932,74.531h-21.625V70.9h26.164v2.227l-13.865,64.625h-4.292L153.932,74.531z"/>
	</g>
	<g>
		<path fill="#FFFFFF" d="M192.338,133.55l18.574-28.234c1.982-2.967,3.45-5.292,4.415-6.971c0.96-1.678,1.788-3.609,2.479-5.781
			c0.683-2.177,1.028-4.557,1.028-7.135c0-3.916-0.88-6.96-2.641-9.165c-1.766-2.2-4.264-3.302-7.511-3.302
			c-4.407,0-7.442,1.284-9.121,3.834c-1.681,2.567-2.547,6.269-2.599,11.101v1.081h-4.292v-1.322c0-6.274,1.265-10.914,3.795-13.908
			c2.534-3,6.549-4.498,12.049-4.498c4.789,0,8.433,1.47,10.939,4.41c2.503,2.95,3.754,7.085,3.754,12.422
			c0,3.527-0.702,6.801-2.104,9.829c-1.401,3.022-3.482,6.637-6.23,10.815l-17.499,26.403h24.51v3.719h-29.548V133.55z"/>
		<path fill="#FFFFFF" d="M233.198,119.433c0-4.075,0.521-7.3,1.568-9.659c1.04-2.363,2.271-4.053,3.672-5.073
			c1.401-1.025,3.123-1.975,5.158-2.847c-3.085-0.877-5.503-2.666-7.264-5.375c-1.763-2.688-2.638-6.264-2.638-10.717
			c0-5.068,1.152-9.083,3.461-12.061c2.314-2.967,6.082-4.454,11.309-4.454c5.175,0,8.902,1.508,11.183,4.541
			c2.288,3.022,3.428,7.092,3.428,12.209c0,4.41-0.867,7.915-2.6,10.53c-1.733,2.611-4.144,4.388-7.224,5.326
			c2.035,0.872,3.757,1.821,5.159,2.847c1.407,1.02,2.629,2.709,3.674,5.073c1.042,2.358,1.566,5.583,1.566,9.659
			c0,12.214-5.06,18.318-15.187,18.318C238.285,137.751,233.198,131.647,233.198,119.433z M256.472,130.743
			c1.871-2.315,2.809-6.11,2.809-11.392c0-4.733-0.855-8.414-2.562-11.024c-1.703-2.605-4.456-4.141-8.254-4.575
			c-3.905,0.434-6.713,1.969-8.416,4.575c-1.708,2.61-2.562,6.291-2.562,11.024c0,5.282,0.952,9.077,2.847,11.392
			c1.9,2.309,4.613,3.46,8.131,3.46C251.934,134.203,254.602,133.051,256.472,130.743z M256.393,96.03
			c1.593-2.391,2.391-5.764,2.391-10.113c0-4.448-0.839-7.728-2.52-9.817c-1.679-2.09-4.275-3.138-7.799-3.138
			c-3.518,0-6.137,1.048-7.843,3.138c-1.703,2.089-2.556,5.37-2.556,9.817c0,4.349,0.798,7.722,2.396,10.113
			c1.596,2.396,4.261,3.702,8.002,3.922C252.153,99.732,254.794,98.427,256.393,96.03z"/>
	</g>
	<g>
		<path fill="#FFFFFF" d="M296.117,133.55l18.573-28.234c1.978-2.967,3.447-5.292,4.415-6.971c0.96-1.678,1.788-3.609,2.474-5.781
			c0.686-2.177,1.031-4.557,1.031-7.135c0-3.916-0.877-6.96-2.638-9.165c-1.767-2.2-4.265-3.302-7.514-3.302
			c-4.404,0-7.443,1.284-9.124,3.834c-1.678,2.567-2.542,6.269-2.594,11.101v1.081h-4.294v-1.322c0-6.274,1.267-10.914,3.798-13.908
			c2.525-3,6.545-4.498,12.047-4.498c4.793,0,8.435,1.47,10.941,4.41c2.501,2.95,3.754,7.085,3.754,12.422
			c0,3.527-0.702,6.801-2.106,9.829c-1.398,3.022-3.48,6.637-6.228,10.815l-17.499,26.403h24.516v3.719h-29.554V133.55z"/>
		<path fill="#FFFFFF" d="M341.845,134.044c-2.367-2.479-3.548-6.274-3.548-11.402v-1.481h4.204c0,3.302,0.34,5.896,0.993,7.761
			c0.661,1.87,1.736,3.208,3.216,4.004c1.489,0.806,3.551,1.201,6.193,1.201c3.301,0,5.791-1.063,7.475-3.186
			c1.667-2.111,2.518-5.863,2.518-11.266v-14.106c-1.103,0.933-2.616,1.761-4.541,2.474c-1.926,0.713-4.213,1.07-6.851,1.07
			c-3.691,0-6.567-0.625-8.627-1.898c-2.067-1.262-3.549-3.351-4.459-6.263c-0.902-2.918-1.36-6.993-1.36-12.225
			c0-6.379,1.239-11.227,3.715-14.523c2.479-3.302,6.409-4.953,11.806-4.953c5.111,0,8.841,1.684,11.177,5.035
			c2.338,3.351,3.512,8.474,3.512,15.346v29.145c0,6.159-1.141,10.865-3.424,14.112c-2.292,3.241-5.961,4.865-11.023,4.865
			C347.87,137.751,344.211,136.523,341.845,134.044z M358.6,104.537c1.756-0.696,3.192-1.475,4.295-2.353V89.718
			c0-4.289-0.378-7.657-1.119-10.119c-0.74-2.44-1.87-4.163-3.384-5.155c-1.513-0.987-3.454-1.481-5.813-1.481
			c-3.691,0-6.444,1.152-8.257,3.467c-1.821,2.314-2.726,6.241-2.726,11.803c0,4.569,0.263,8.046,0.784,10.442
			c0.523,2.386,1.56,4.135,3.09,5.244c1.547,1.097,3.888,1.65,7.02,1.65C354.805,105.568,356.84,105.222,358.6,104.537z"/>
	</g>
	<g>
		<path fill="#FFFFFF" d="M403.611,133.633c-2.26-2.753-3.395-6.636-3.395-11.644v-1.24h4.137v1.322
			c0.055,4.015,0.855,7.047,2.434,9.088c1.559,2.023,4.06,3.044,7.47,3.044c3.412,0,6.089-1.125,8.047-3.378
			c1.958-2.266,2.929-6.159,2.929-11.726c0-10.119-3.576-15.214-10.728-15.264h-1.904v-3.883h1.904c3.85,0,6.598-1.13,8.254-3.384
			c1.646-2.254,2.474-5.891,2.474-10.892c0-8.589-3.324-12.884-9.987-12.884c-3.686,0-6.406,0.943-8.167,2.814
			c-1.766,1.865-2.67,4.979-2.725,9.318v0.993h-4.137v-1.075c0-4.947,1.186-8.786,3.516-11.507
			c2.332-2.726,6.148-4.085,11.437-4.085c4.892,0,8.55,1.508,10.974,4.541c2.42,3.022,3.631,6.988,3.631,11.886
			c0,4.837-0.867,8.638-2.605,11.386c-1.727,2.759-4.025,4.404-6.883,4.958c2.533,0.609,4.744,2.282,6.643,5.035
			c1.896,2.748,2.846,6.735,2.846,11.968c0,5.83-1.256,10.415-3.752,13.739c-2.506,3.335-6.433,4.991-11.765,4.991
			C409.409,137.751,405.866,136.381,403.611,133.633z"/>
		<path fill="#FFFFFF" d="M442.897,132.591c-2.309-3.433-3.471-8.293-3.471-14.562V88.813c0-6.219,1.195-11.04,3.592-14.451
			c2.396-3.406,6.362-5.112,11.929-5.112c5.616,0,9.614,1.706,12.007,5.112c2.396,3.411,3.592,8.232,3.592,14.451v29.216
			c0,6.33-1.157,11.2-3.461,14.611c-2.314,3.412-6.356,5.111-12.138,5.111C449.222,137.751,445.201,136.035,442.897,132.591z
			 M463.487,130.287c1.684-2.726,2.518-6.565,2.518-11.512V88.149c0-4.953-0.834-8.776-2.518-11.469
			c-1.684-2.698-4.525-4.053-8.54-4.053c-3.959,0-6.795,1.36-8.501,4.086c-1.705,2.726-2.561,6.538-2.561,11.436v30.625
			c0,4.892,0.855,8.721,2.561,11.463c1.706,2.759,4.542,4.129,8.501,4.129C458.962,134.367,461.804,133.007,463.487,130.287z"/>
	</g>
	<g>
		<path fill="#FF435E" d="M514.45,133.633c-2.266-2.753-3.385-6.636-3.385-11.644v-1.24h4.119v1.322
			c0.049,4.015,0.867,7.047,2.43,9.088c1.58,2.023,4.075,3.044,7.481,3.044c3.411,0,6.099-1.125,8.04-3.378
			c1.958-2.266,2.939-6.159,2.939-11.726c0-10.119-3.576-15.214-10.739-15.264h-1.891v-3.883h1.891c3.856,0,6.604-1.13,8.255-3.384
			c1.656-2.254,2.484-5.891,2.484-10.892c0-8.589-3.334-12.884-9.987-12.884c-3.691,0-6.417,0.943-8.183,2.814
			c-1.756,1.865-2.672,4.979-2.721,9.318v0.993h-4.119v-1.075c0-4.947,1.158-8.786,3.5-11.507c2.336-2.726,6.153-4.085,11.435-4.085
			c4.898,0,8.562,1.508,10.979,4.541c2.414,3.022,3.627,6.988,3.627,11.886c0,4.837-0.867,8.638-2.596,11.386
			c-1.732,2.759-4.035,4.404-6.882,4.958c2.517,0.609,4.728,2.282,6.636,5.035c1.898,2.748,2.842,6.735,2.842,11.968
			c0,5.83-1.252,10.415-3.758,13.739c-2.506,3.335-6.423,4.991-11.753,4.991C520.252,137.751,516.698,136.381,514.45,133.633z"/>
		<path fill="#FF435E" d="M562.638,76.012c-0.879,1.278-2.314,2.397-4.328,3.389c-2.007,0.987-3.751,1.706-5.237,2.145V77.75
			c1.59-0.439,3.384-1.371,5.369-2.802c1.97-1.438,3.599-3.083,4.86-4.958h3.8v66.857h-4.464V76.012z"/>
	</g>
	<polygon fill="#A0C7E0" points="246.167,346.078 287.084,377.734 341.776,352.001 290.298,325.236 	"/>
	<path fill="#1C0960" d="M101.261,269.184c1.456-1.634,3.478-4.042,6.049-5.429c2.575-1.388,3.346-3.445,1.157-4.344
		c-2.188-0.899-7.722,1.925-9.263,5.655C97.658,268.8,99.391,271.284,101.261,269.184z"/>
	<path fill="#6077F1" d="M595.413,338.559c-2.698-0.779-38.601,16.021-38.601,16.021l-5.785,12.581l-0.779,1.695
		c0,0,5.166,0.807,13.091-1.119c2.469-0.609,5.2-1.465,8.14-2.715c12.356-5.237,17.573-11.024,20.457-15.274
		C594.837,345.502,598.123,339.326,595.413,338.559z"/>
	<path fill="#D5DCFF" d="M144.373,305.163c0,0.898,1.415,10.036,1.415,10.036l10.936,0.904c0,0,15.829,19.044,30.372,32.162
		c14.542,13.136,32.364,21.039,51.344,15.313c0,0-8.107-9.391-9.908-10.805c-1.799-1.41-21.747-5.145-31.27-10.937
		c-9.521-5.797-36.031-28.827-36.031-28.827s-3.735-9.521-4.632-9.646c-0.902-0.127-9.91,0-9.91,0L144.373,305.163z"/>
	<polygon fill="#7AAFCC" points="246.167,346.078 246.167,350.196 287.084,381.464 341.776,355.862 341.776,352.001 
		287.084,377.734 	"/>
	<polygon fill="#D5DCFF" points="244.567,348.65 290.287,324.704 343.147,351.974 294.189,375.743 	"/>
	<polygon fill="#B5DDF4" points="290.298,325.236 304.456,265.142 360.498,284.13 341.776,352.001 	"/>
	<polygon fill="#DEF4FF" points="293.857,323.607 306.684,269.156 356.746,286.109 339.815,347.504 	"/>
	<polygon fill="#A1CFE5" points="360.498,284.13 363.909,286.504 345.021,352.725 341.776,352.001 	"/>
	<polygon fill="#6077F1" points="335.072,351.737 330.843,353.788 329.977,354.2 326.968,355.671 326.104,356.108 322.954,357.634 
		322.089,358.05 318.412,359.839 317.546,360.255 313.317,362.317 312.464,362.729 308.43,364.687 304.297,362.438 303.508,362.005 
		299.062,359.586 298.273,359.147 294.538,357.112 293.731,356.663 289.813,354.528 289.009,354.079 278.462,348.332 
		277.643,347.893 274.278,346.056 273.46,345.6 269.243,343.309 268.456,342.875 265.845,341.453 269.073,339.798 269.906,339.364 
		274.028,337.264 274.865,336.836 278.446,334.993 279.296,334.56 282.367,332.991 283.22,332.558 286.168,331.056 287.001,330.634 
		290.646,328.751 292.517,329.718 293.32,330.146 296.605,331.845 297.428,332.263 301.484,334.362 302.307,334.796 
		306.332,336.874 307.155,337.297 311.263,339.414 312.064,339.825 316.16,341.959 316.994,342.369 320.746,344.316 321.56,344.74 
		325.625,346.852 326.438,347.268 330.363,349.297 331.178,349.708 	"/>
	<path fill="#1C0960" d="M120.83,252.554c-1.001,1.679,0,5.019,3.494,2.809c2.424-1.541,4.154-3.379,5.989-4.251
		c1.832-0.872,1.832-2.221,0-2.797C128.479,247.734,123.029,248.891,120.83,252.554z"/>
	<path fill="#54A9D3" d="M120.907,234.373c0.219-0.06,0.428-0.088,0.622-0.088C121.335,234.285,121.126,234.313,120.907,234.373
		L120.907,234.373z"/>
	<path fill="#6077F1" d="M565.561,361.906c-1.952,2.621-3.708,4.711-5.122,6.313c-2.244,2.533-3.626,3.79-3.626,3.79l-5.408,13.52
		c0,0,16.603,3.669,19.301,3.082l10.037-47.485C580.742,341.125,571.736,353.651,565.561,361.906z"/>
	<path fill="#0C1498" d="M560.438,368.219c-6.264,1.125-10.19,0.51-10.19,0.51s-15.077,5.979-34.614,11.94l-0.027,0.012
		c0,0,19.777,5.615,35.798,4.848l5.408-13.52C556.813,372.009,558.194,370.752,560.438,368.219z"/>
	<path fill="#0C1498" d="M108.152,292.471c-2.884-4.722-8.6-6.481-9.546-6.481c-0.214,0-0.387,0.17-0.387,0.389
		c0,0.209,0.173,0.379,0.387,0.379c0.203,0,1.544,0.328,3.204,1.146c-0.071,0.943-0.173,3.828,1.22,4.602
		c0.212,0.115,0.412,0.16,0.582,0.16c0.188,0,0.345-0.056,0.463-0.115c0.705-0.357,1.059-1.509,1.221-2.293
		c0.812,0.729,1.571,1.596,2.199,2.627c0.074,0.115,0.2,0.176,0.329,0.176c0.069,0,0.138-0.018,0.203-0.045
		C108.208,292.894,108.263,292.652,108.152,292.471z M103.727,291.863c-0.063,0.032-0.156,0.055-0.327-0.033
		c-0.731-0.418-0.901-2.194-0.842-3.527c0.675,0.379,1.371,0.828,2.06,1.377C104.486,290.519,104.152,291.643,103.727,291.863z"/>
	<g>
		<path fill="#0C1498" d="M128.928,277.625c-0.107,0-0.219-0.049-0.296-0.143c-0.138-0.17-0.112-0.411,0.055-0.548
			c1.897-1.558,6.993-1.739,8.775-1.76c-1.333-2.392-6.702-7.887-14.979-15.308c-0.216-0.192-0.348-0.313-0.381-0.346
			c-0.153-0.154-0.162-0.389-0.014-0.548c0.148-0.153,0.393-0.153,0.54-0.011c0.036,0.027,0.159,0.143,0.371,0.323
			c5.309,4.772,14.375,13.196,15.428,16.141c0.044,0.126,0.027,0.258-0.046,0.367c-0.071,0.099-0.192,0.154-0.315,0.154
			c-0.009,0-0.047,0-0.28,0c-1.292,0-6.795,0.093-8.613,1.585C129.104,277.592,129.016,277.625,128.928,277.625z"/>
	</g>
	<path fill="#FFFFFF" d="M123.008,288.692c0.387,0,13.771-1.42,16.86-2.961c0,0-0.382,7.849-6.305,9.647
		C127.645,297.183,123.008,288.692,123.008,288.692z"/>
	<g>
		<path fill="#6077F1" d="M161.271,303.44c-0.066,0.143-0.201,0.252-0.357,0.252l-14.098,0.05l-2.084,1.634l-1.653,10.01
			c-0.017,0.138-0.107,0.247-0.23,0.296c-0.047,0.022-0.093,0.022-0.156,0.022c-0.077,0-0.154-0.017-0.217-0.061
			c-0.041-0.044-5.279-3.719-10.437-5.254c-3.785-1.125-10.483-0.658-13.958-0.285c0.551-0.329,1.127-0.637,1.665-0.933
			c3.757-0.317,9.206-0.505,12.511,0.478c4.338,1.3,8.709,4.053,10.163,5.023l1.574-9.576c0.016-0.094,0.06-0.186,0.137-0.246
			l2.319-1.794c0.074-0.055,0.151-0.093,0.242-0.093l13.25-0.05l-10.053-9.625c0.08-0.275,0.14-0.576,0.203-0.867l11.09,10.607
			C161.287,303.139,161.334,303.287,161.271,303.44z"/>
	</g>
	<g>
		<path fill="#591712" d="M164.318,251.491c-0.039,0-0.08,0-0.121-0.017c-0.047-0.017-4.703-1.524-8.046-2.051
			c-0.211-0.033-0.354-0.225-0.321-0.433c0.03-0.219,0.23-0.368,0.441-0.329c3.403,0.538,8.118,2.067,8.167,2.09
			c0.203,0.065,0.31,0.279,0.244,0.482C164.632,251.392,164.482,251.491,164.318,251.491z"/>
	</g>
	<g>
		<path fill="#6077F1" d="M178.663,306.128c-0.102,0-0.209-0.049-0.283-0.127c-1.081-1.184-10.808-11.593-19.61-11.911
			c-0.211-0.006-0.381-0.188-0.373-0.4c0.009-0.203,0.195-0.352,0.403-0.363c9.118,0.318,19.051,10.948,20.153,12.149
			c0.143,0.158,0.131,0.406-0.027,0.553C178.852,306.095,178.755,306.128,178.663,306.128z"/>
	</g>
	<g>
		<path fill="#6077F1" d="M181.689,384.431c-0.024,0-0.049-0.005-0.071-0.005c-8.931-1.733-42.042-22.689-54.284-38.881
			c-12.085-15.987-25.053-16.573-25.182-16.573c-0.211-0.012-0.379-0.192-0.373-0.4c0.005-0.209,0.178-0.357,0.395-0.379
			c0.138,0.006,13.454,0.582,25.772,16.882c12.126,16.036,44.795,36.763,53.743,38.573c1.35-0.258,20.447-4.01,33.991-8.079
			c12.425-3.725,21.304-8.123,27.787-11.332c0.886-0.438,1.728-0.855,2.526-1.239c0.187-0.087,0.422-0.021,0.513,0.176
			c0.093,0.187,0.017,0.428-0.175,0.516c-0.798,0.39-1.637,0.801-2.523,1.239c-6.504,3.221-15.419,7.629-27.908,11.381
			c-14.008,4.206-33.936,8.079-34.133,8.117C181.739,384.426,181.715,384.431,181.689,384.431z"/>
	</g>
	<g>
		<path fill="#6077F1" d="M191.162,415.93c-1.094,0-2.193-0.018-3.31-0.051c-0.211-0.01-0.382-0.186-0.376-0.404
			c0.008-0.203,0.206-0.352,0.403-0.369c17.279,0.533,31.221-3.07,49.726-12.894c17.471-9.274,27.626-20.879,27.73-20.994
			c0.134-0.16,0.378-0.176,0.54-0.039c0.165,0.132,0.181,0.385,0.042,0.543c-0.104,0.121-10.347,11.825-27.949,21.17
			C220.526,412.15,207.097,415.93,191.162,415.93z"/>
	</g>
	<g>
		<path fill="#6077F1" d="M401.215,335.257c-7.612,1.403-22.486,4.601-34.86,7.239c-15.191,3.264-19.795,4.223-20.47,4.223h-0.063
			c-0.217-0.032-0.337-0.246-0.31-0.455c0.044-0.203,0.217-0.334,0.419-0.301c0.724-0.033,10.224-2.057,20.26-4.213
			c10.257-2.205,22.224-4.766,30.374-6.378C398.604,335.306,400.189,335.257,401.215,335.257z"/>
	</g>
	<g>
		<path fill="#6077F1" d="M511.966,382.281c-0.176,0-0.33-0.11-0.379-0.28c-0.055-0.207,0.076-0.422,0.279-0.477
			c0.264-0.076,27.176-7.432,38.2-13.136c0.191-0.098,0.422-0.021,0.527,0.164c0.088,0.193,0.021,0.424-0.166,0.516
			c-11.104,5.743-38.095,13.12-38.358,13.202C512.03,382.276,511.993,382.281,511.966,382.281z"/>
	</g>
	<path fill="#D5DCFF" d="M331.178,349.708l-0.814-0.411l-3.861,2.205l-3.877-2.052l3.814-2.183l-0.814-0.416l-3.815,2.177
		l-1.774-0.938c-0.033-0.032-0.063-0.043-0.11-0.065l-2.131-1.118l3.765-2.166l-0.814-0.424l-3.751,2.156l-3.721-1.969l3.721-2.135
		l-0.834-0.41l-3.71,2.123l-4.064-2.15l3.678-2.106l-0.801-0.411l-3.678,2.1l-4.045-2.149l3.615-2.067l-0.823-0.423l-3.581,2.046
		c0,0.012,0,0.012-0.014,0.027l-4.001-2.111l3.571-2.04l-0.823-0.434l-3.409,1.958c-0.049,0.022-0.063,0.088-0.093,0.11
		l-4.078-2.162l3.524-2.006l-0.823-0.418l-3.458,1.969c-0.017,0-0.017,0.045-0.03,0.056l-3.274-1.745l3.478-1.979l-0.804-0.428
		l-3.477,1.984l-2.038-1.068l-0.833,0.422l3.688,1.952l-2.794,1.585l-3.842-2.035l-0.853,0.434l2.504,1.322l-2.904,1.673
		l-2.671-1.427l-0.85,0.434l0.787,0.417l-3.444,1.744c-0.061,0.011-0.077,0.061-0.107,0.109l-0.817-0.428l-0.837,0.428l4.062,2.15
		l-3.981,2.178l-4.202-2.228l-0.833,0.434l2.391,1.261l-3.008,1.816l0.787,0.434l3.027-1.816l4.525,2.387l-3.334,1.721l0.817,0.456
		l3.334-1.739l3.349,1.762l-3.318,1.814l0.82,0.439l3.318-1.815l10.7,5.665l-3.471,1.897l0.803,0.449l3.491-1.913l3.984,2.101
		l-3.557,1.947l0.806,0.449l3.565-1.969l3.675,1.947l-3.504,2.057l0.789,0.438l3.516-2.073l4.514,2.392l-3.584,2.101l0.79,0.433
		l3.535-2.067c0.014-0.021,0.033-0.049,0.047-0.065l4.585,2.424l0.853-0.411l-9.173-4.859l3.985-2.172l9.417,4.969l0.866-0.416
		l-4.695-2.475l3.471-1.908l4.901,2.594l0.864-0.416l-2.208-1.158l3.022-1.611l2.336,1.244l0.864-0.438l-5.712-3.006l2.772-1.597
		l5.949,3.132l0.866-0.412l-3.526-1.854L331.178,349.708z M319.029,348.425l-2.781,1.602l-3.828-2.034l2.78-1.586L319.029,348.425z
		 M301.149,346.111l-4.155-2.195l2.824-1.711l4.249,2.238L301.149,346.111z M304.87,344.871l4.103,2.172l-2.916,1.662l-4.088-2.161
		L304.87,344.871z M296.208,343.506l-4.371-2.32l2.917-1.656l4.275,2.26L296.208,343.506z M291.124,340.708
		c-0.028,0.017-0.028,0.061-0.06,0.083l-3.877-2.063l2.887-1.668l3.875,2.041L291.124,340.708z M289.166,340.664l-3.494,1.887
		l-3.661-1.936l3.293-1.887c0.03-0.027,0.041-0.061,0.061-0.071l0.834,0.433L289.166,340.664z M289.982,341.092l3.212,1.689
		l-3.401,1.941l-3.302-1.75L289.982,341.092z M293.997,343.209l4.232,2.238l-3.34,1.975l-4.292-2.281L293.997,343.209z
		 M299.03,345.869l3.894,2.051l-3.398,1.947l-3.831-2.023L299.03,345.869z M303.725,348.354l4.154,2.194l-3.397,1.947l-4.155-2.194
		L303.725,348.354z M306.873,349.138l2.92-1.661l3.784,2.002l-2.811,1.716L306.873,349.138z M314.364,349.89l3.552,1.892
		l-2.825,1.685c0,0,0,0.01-0.019,0.01l-3.519-1.864L314.364,349.89z M314.397,345.973l-2.797,1.592l-4.168-2.211l2.792-1.586
		L314.397,345.973z M309.404,343.352l-2.778,1.586l-4.212-2.238l2.794-1.574L309.404,343.352z M304.385,340.697l-2.772,1.584
		l-4.637-2.456l2.797-1.574L304.385,340.697z M298.953,337.817l-2.778,1.597l-4.062-2.15l2.775-1.591L298.953,337.817z
		 M290.657,333.437l3.431,1.804l-2.78,1.596l-3.428-1.81L290.657,333.437z M285.688,334.735l3.584,1.897l-2.888,1.684l-3.617-1.908
		L285.688,334.735z M276.455,337.664l3.614-1.826l1.697,0.916c0.014,0,0.014,0,0.014,0l2.808,1.48l-3.268,1.881
		c-0.047,0.022-0.047,0.066-0.077,0.083L276.455,337.664z M274.925,342.023l3.967-2.176l4.248,2.236l-3.984,2.178L274.925,342.023z
		 M279.977,344.689l3.984-2.172l4.231,2.223l-3.984,2.193L279.977,344.689z M285.027,347.367l3.965-2.199l4.231,2.242l-3.968,2.183
		L285.027,347.367z M290.06,350.026l3.984-2.183l4.001,2.117l-3.988,2.171L290.06,350.026z M298.986,354.731l-4.108-2.166
		l3.982-2.172l3.987,2.102l-3.817,2.16C299,354.661,299,354.716,298.986,354.731z M303.335,357.024l-3.592-1.881l3.905-2.238
		l3.658,1.947L303.335,357.024z M305.282,352.905l3.417-1.93l3.579,1.897l-3.425,1.919L305.282,352.905z M312.897,356.942
		l-3.225-1.717l3.428-1.92l3.269,1.717L312.897,356.942z M322.934,354.425l-3.027,1.607l-4.026-2.133l2.836-1.701L322.934,354.425z
		 M320.447,352.226l-3.395-1.788l2.778-1.585l3.397,1.794L320.447,352.226z"/>
	<polygon fill="#6077F1" points="294.189,379.929 343.147,356.175 343.147,351.974 294.189,375.743 	"/>
	<polygon fill="#D5DCFF" points="290.287,324.704 343.147,351.974 351.688,294.736 296.542,273.89 	"/>
	<polygon fill="#E1E7FF" points="293.194,324.803 298.701,280.027 347.845,298.608 340.314,349.116 	"/>
	<polygon fill="#6077F1" points="351.688,294.736 354.049,296.475 345.248,351.974 343.147,351.974 	"/>
	<path fill="#F3B6AB" d="M287.079,359.976c-0.323,1.738-13.451,10.997-13.451,10.997s-0.863-0.588-2.18-1.514
		c-2.159-1.525-5.559-3.999-8.43-6.391c-4.632-3.854-5.6-5.216-5.6-5.216c2.715-4.234,6.946-12.548,8.487-11.774
		c1.547,0.773,0,9.087,0,9.087s12.757-13.327,13.898-11.013c1.144,2.254-6.653,10.503-7.12,10.991
		c0.51-0.461,9.113-8.237,10.613-6.933c1.448,1.268-5.852,8.716-6.691,9.571c0.932-0.604,9.082-6.033,10.35-4.75
		c1.28,1.295-8.046,9.34-8.987,10.179C278.879,362.751,287.37,358.341,287.079,359.976z"/>
	<path fill="#0C1498" d="M114.753,270.122c1.094,2.665,1.319,5.1,0.496,5.446c-0.822,0.323-2.377-1.558-3.472-4.223
		c-1.091-2.66-1.313-5.089-0.491-5.424C112.107,265.575,113.659,267.467,114.753,270.122z"/>
	<path fill="#0C1498" d="M131.706,258.632c1.092,2.649,1.311,5.089,0.491,5.424c-0.823,0.34-2.375-1.542-3.469-4.202
		c-1.094-2.665-1.316-5.106-0.493-5.435C129.057,254.085,130.609,255.96,131.706,258.632z"/>
	<polygon fill="#FF435E" points="298.062,324.809 304.906,328.341 308.304,303.002 301.103,300.073 	"/>
	<polygon fill="#233FE3" points="308.304,330.468 315.148,333.995 317.31,317.037 310.111,314.103 	"/>
	<polygon fill="#FF435E" points="318.165,335.433 325.007,338.97 329.277,306.544 322.076,303.61 	"/>
	<polygon fill="#233FE3" points="327.966,340.285 334.811,343.818 337.101,328.993 329.899,326.059 	"/>
	<path fill="#F4948E" d="M287.079,359.976c-0.323,1.738-13.451,10.997-13.451,10.997s-0.863-0.588-2.18-1.514
		C277.813,366.803,287.079,359.976,287.079,359.976z"/>
	<g>
		<path fill="#FF435E" d="M181.947,168.103H55.449V41.613h126.499V168.103z M63.168,160.387h111.055V49.34H63.168V160.387z"/>
	</g>
	<g>
		<rect x="282.708" y="51.644" fill="#FAAEB0" width="3.091" height="104.624"/>
	</g>
	<g>
		<rect x="387.712" y="51.644" fill="#FAAEB0" width="3.088" height="104.624"/>
	</g>
	<g>
		<rect x="492.714" y="51.644" fill="#FAAEB0" width="3.1" height="104.624"/>
	</g>
	<g>
		<path fill="#D5DCFF" d="M556.418,61.368c-0.088,0-0.187-0.027-0.28-0.061c-0.395-0.153-0.587-0.598-0.433-1.004
			c2.446-6.175,6.147-15.751,6.317-16.821c0.082-0.417,0.479-0.713,0.895-0.637c0.422,0.066,0.701,0.467,0.637,0.884
			c-0.264,1.585-5.787,15.559-6.412,17.144C557.016,61.182,556.736,61.368,556.418,61.368z"/>
	</g>
	<g>
		<path fill="#D5DCFF" d="M511.839,59.048c-0.033,0-0.076-0.005-0.115-0.005c-0.416-0.066-0.713-0.461-0.658-0.877l2.705-18.73
			c0.064-0.417,0.449-0.713,0.865-0.647c0.434,0.061,0.73,0.455,0.664,0.877l-2.709,18.724
			C512.542,58.768,512.206,59.048,511.839,59.048z"/>
	</g>
	<g>
		<path fill="#D5DCFF" d="M504.068,75.364c-0.209,0-0.406-0.076-0.561-0.252l-9.795-10.322c-0.291-0.302-0.28-0.795,0.027-1.091
			c0.302-0.291,0.795-0.285,1.091,0.038l9.796,10.327c0.291,0.302,0.291,0.79-0.027,1.081
			C504.445,75.293,504.266,75.364,504.068,75.364z"/>
	</g>
	<g>
		<path fill="#D5DCFF" d="M501.215,100.55c-0.088,0-0.18-0.011-0.262-0.044l-11.776-4.245c-0.4-0.153-0.609-0.592-0.461-0.993
			s0.582-0.609,0.988-0.466l11.78,4.251c0.395,0.147,0.598,0.587,0.455,0.987C501.83,100.357,501.533,100.55,501.215,100.55z"/>
	</g>
	<g>
		<path fill="#D5DCFF" d="M518.201,150.739c-0.132,0-0.269-0.028-0.384-0.11c-0.367-0.203-0.494-0.674-0.279-1.047l6.169-10.816
			c0.221-0.362,0.691-0.488,1.059-0.285c0.367,0.214,0.494,0.691,0.281,1.059l-6.171,10.805
			C518.733,150.597,518.47,150.739,518.201,150.739z"/>
	</g>
	<g>
		<path fill="#D5DCFF" d="M555.48,162.898c-0.4,0-0.73-0.296-0.769-0.702l-1.179-12.154c-0.044-0.428,0.264-0.801,0.696-0.844
			c0.39-0.044,0.801,0.263,0.839,0.69l1.168,12.16c0.056,0.428-0.269,0.806-0.686,0.85
			C555.523,162.898,555.496,162.898,555.48,162.898z"/>
	</g>
	<path fill="#0C1498" d="M551.789,40.713c0.279,1.333,22.969,9.071,25.289,7.141c2.314-1.925-5.994-9.647-5.994-9.647l3.865-20.458
		c0,0,5.601,0.762,6.188-1.163c0.57-1.931-11.589-6.955-13.322-7.338c-1.744-0.389-5.595,3.855,0.192,6.373l-8.502,18.33
		C559.505,33.951,550.627,35.113,551.789,40.713z"/>
	<path fill="#0C1498" d="M477.473,48.161c0.209-0.324,8.298,15.905,8.298,15.905s-1.93,7.53,0,10.037
		c1.932,2.506,8.88-5.216,13.13-11.968c4.252-6.757,5.601-9.647,3.664-11.194c-1.92-1.541-11.007,4.053-11.007,4.053l-9.834-13.508
		c0,0,2.896-3.866,0.773-5.6c-2.128-1.744-7.926,4.826-9.653,9.456C471.1,49.977,473.232,54.835,477.473,48.161z"/>
	<g>
		<path fill="#D5DCFF" d="M572.662,90.551c-0.076-0.044-0.152-0.104-0.213-0.181c-0.27-0.335-0.219-0.823,0.126-1.086
			c5.2-4.13,13.19-10.574,13.877-11.418c0.273-0.335,0.762-0.384,1.096-0.11c0.318,0.269,0.367,0.757,0.1,1.086
			c-1.016,1.245-12.78,10.591-14.118,11.649C573.271,90.694,572.932,90.71,572.662,90.551z"/>
	</g>
	<path fill="#233FE3" d="M495.813,84.727c0,0-7.08,20.068-7.98,24.319c-0.899,4.25-6.308-4.053-6.109-10.037l-14.096-9.077
		c0,0-0.576,4.442-2.512,3.674c-1.932-0.773-3.279-16.02,0-16.02c3.291,0,2.32,4.821,2.32,4.821l16.793,6.368
		C484.229,88.774,492.906,80.471,495.813,84.727z"/>
	<path fill="#FF435E" d="M584.214,74.597c0,0-3.077-4.739-5.2-2.808c-2.127,1.93,7.521,22.98,9.642,22.108
		c2.123-0.878,0.967-8.978,0.967-8.978l10.622-9.467c0,0,1.158,2.907,3.281,0.582c2.116-2.315-1.361-15.445-2.518-15.445
		c-1.158,0-1.541,5.21-1.541,5.21L584.214,74.597z"/>
	<path fill="#233FE3" d="M506.432,145.134c-0.735,1.382,4.048,7.338,4.048,7.338l-2.063,16.602c0,0-3.538-3.28-4.3,0
		c-0.773,3.285,9.642,9.269,11.194,7.333c1.535-1.936,0-3.861,0-3.861l5.013-15.056c0,0,7.914,1.558,8.105-2.127
		C528.633,151.705,508.165,141.86,506.432,145.134z"/>
	<path fill="#FF435E" d="M543.096,165.212c1.36,1.915,7.344,4.251,8.879,3.669l6.374,16.218c0,0-3.28,0.384-3.088,2.507
		c0.191,2.123,13.124-1.739,12.351-3.285c-0.762-1.541-4.239-0.576-4.239-0.576l-1.152-16.404c0,0,7.01-5.923,5.431-8.496
		C566.07,156.268,542.13,163.853,543.096,165.212z"/>
	<path fill="#233FE3" d="M529.104,38.421c-1.097-2.315-7.036-5.957-8.808-5.633l-3.702-18.565c0,0,3.575,0.214,3.784-2.101
		c0.197-2.304-14.375-0.647-13.844,1.146c0.521,1.81,4.427,1.437,4.427,1.437l-1.909,17.77c0,0-8.639,4.991-7.441,8.057
		C502.807,43.587,529.878,40.061,529.104,38.421z"/>
</g>
</svg>
